<?xml version="1.0" standalone="no"?>
<!DOCTYPE svg PUBLIC "-//W3C//DTD SVG 1.1//EN" "http://www.w3.org/Graphics/SVG/1.1/DTD/svg11.dtd" >
<svg xmlns="http://www.w3.org/2000/svg" xmlns:xlink="http://www.w3.org/1999/xlink" version="1.1">
<metadata>
Created by FontForge 20170731 at Wed Sep 30 03:24:28 2015
 By Aleksey,,,
Copyright (c) 2015 by Rene' Bieder. All rights reserved.
</metadata>
<defs>
<font id="VIC-Bold" horiz-adv-x="610" >
  <font-face 
    font-family="VIC"
    font-weight="700"
    font-stretch="normal"
    units-per-em="1000"
    panose-1="0 0 8 0 0 0 0 0 0 0"
    ascent="800"
    descent="-200"
    x-height="502"
    cap-height="670"
    bbox="-414 -218 1236 956"
    underline-thickness="50"
    underline-position="-150"
    unicode-range="U+0020-FB02"
  />
<missing-glyph horiz-adv-x="772" 
d="M560 638.5q80 -45.5 127 -125.5t47 -180q0 -99 -47 -178.5t-127 -124.5t-174 -45t-174.5 45t-127.5 124.5t-47 178.5q0 100 47 180t127.5 125.5t174.5 45.5t174 -45.5zM241.5 591q-66.5 -38 -105.5 -105.5t-39 -151.5q0 -83 39 -150.5t105.5 -105.5t144.5 -38t144 38
t105 105.5t39 150.5q0 84 -39 151t-105 105.5t-144 38.5t-144.5 -38zM495.5 332q-27.5 -27 -74.5 -35v-29h-84v89h44q24 0 39 11.5t15 28.5q0 20 -13.5 32.5t-35.5 12.5q-24 0 -39 -13.5t-19 -37.5l-87 17q6 47 46 80t102 33q60 0 97 -34t37 -87q0 -41 -27.5 -68zM413.5 221
q14.5 -15 14.5 -34q0 -21 -14.5 -35.5t-36.5 -14.5t-36 14.5t-14 35.5q0 19 14.5 34t35.5 15q22 0 36.5 -15z" />
    <glyph glyph-name="fi" unicode="fi" horiz-adv-x="656" 
d="M443 586q-26 25 -26 64q0 38 26.5 64.5t66.5 26.5q39 0 65.5 -27t26.5 -64q0 -38 -26 -63.5t-66 -25.5q-41 0 -67 25zM590 0h-160v375h-184v-375h-159v375h-85v127h85v39q0 88 55.5 140.5t148.5 52.5q46 0 91 -17l-29 -126q-28 6 -40 6q-30 0 -48.5 -16.5t-18.5 -46.5
v-32h344v-502z" />
    <glyph glyph-name="fl" unicode="fl" horiz-adv-x="650" 
d="M246 502h121v-127h-121v-375h-159v375h-85v127h85v39q0 88 55.5 140.5t146.5 52.5q51 0 99 -21l-34 -124q-24 8 -43 8q-29 0 -47 -17t-18 -46v-32zM592 0h-160v720h160v-720z" />
    <glyph glyph-name=".notdef" horiz-adv-x="772" 
d="M560 638.5q80 -45.5 127 -125.5t47 -180q0 -99 -47 -178.5t-127 -124.5t-174 -45t-174.5 45t-127.5 124.5t-47 178.5q0 100 47 180t127.5 125.5t174.5 45.5t174 -45.5zM241.5 591q-66.5 -38 -105.5 -105.5t-39 -151.5q0 -83 39 -150.5t105.5 -105.5t144.5 -38t144 38
t105 105.5t39 150.5q0 84 -39 151t-105 105.5t-144 38.5t-144.5 -38zM495.5 332q-27.5 -27 -74.5 -35v-29h-84v89h44q24 0 39 11.5t15 28.5q0 20 -13.5 32.5t-35.5 12.5q-24 0 -39 -13.5t-19 -37.5l-87 17q6 47 46 80t102 33q60 0 97 -34t37 -87q0 -41 -27.5 -68zM413.5 221
q14.5 -15 14.5 -34q0 -21 -14.5 -35.5t-36.5 -14.5t-36 14.5t-14 35.5q0 19 14.5 34t35.5 15q22 0 36.5 -15z" />
    <glyph glyph-name=".null" horiz-adv-x="0" 
 />
    <glyph glyph-name="nonmarkingreturn" horiz-adv-x="333" 
 />
    <glyph glyph-name="space" unicode=" " horiz-adv-x="232" 
 />
    <glyph glyph-name="exclam" unicode="!" horiz-adv-x="297" 
d="M238 670v-31l-10 -410h-158l-10 410v31h178zM216 146q26 -26 26 -63q0 -38 -25.5 -63t-65.5 -25t-66 25t-26 63q0 37 26 63t66 26q39 0 65 -26z" />
    <glyph glyph-name="quotedbl" unicode="&#x22;" horiz-adv-x="448" 
d="M47 355v315h151v-315h-151zM250 355v315h151v-315h-151z" />
    <glyph glyph-name="numbersign" unicode="#" horiz-adv-x="711" 
d="M560 386l-29 -117h102l-34 -123h-99l-36 -146h-132l36 146h-116l-36 -146h-132l36 146h-102l33 123h99l29 117h-101l32 123h100l39 161h132l-39 -161h116l40 161h132l-40 -161h102l-34 -123h-98zM428 386h-117l-29 -117h117z" />
    <glyph glyph-name="dollar" unicode="$" horiz-adv-x="608" 
d="M516 81q-52 -51 -136 -66v-115h-133v114q-76 13 -131 55t-73 105l153 47q28 -84 122 -84q43 0 68 17.5t25 45.5q0 22 -13 36t-45 20l-125 28q-77 18 -123 60.5t-46 121.5q0 77 50.5 127.5t137.5 64.5v112h133v-114q65 -14 111 -52t65 -94l-145 -38q-14 34 -42.5 50
t-62.5 16q-38 0 -61 -18t-23 -45q0 -20 11 -33.5t38 -19.5l126 -28q171 -41 171 -183q0 -79 -52 -130z" />
    <glyph glyph-name="percent" unicode="%" horiz-adv-x="865" 
d="M300.5 664q39.5 -21 63 -59t23.5 -88q0 -49 -23.5 -87t-63 -59t-86.5 -21t-87 21t-63.5 59t-23.5 87q0 50 23.5 88t63.5 59t87 21t86.5 -21zM141 0l484 670h94l-485 -670h-93zM167.5 567.5q-19.5 -18.5 -19.5 -49.5q0 -32 19.5 -50.5t46.5 -18.5q26 0 45.5 19t19.5 50
t-19.5 49.5t-45.5 18.5q-27 0 -46.5 -18.5zM738.5 299q39.5 -21 63 -59t23.5 -88q0 -49 -23.5 -87t-63 -59t-86.5 -21t-87 21t-63.5 59t-23.5 87q0 50 23.5 88t63.5 59t87 21t86.5 -21zM605.5 202.5q-19.5 -18.5 -19.5 -49.5q0 -32 19.5 -50.5t46.5 -18.5q26 0 45.5 19
t19.5 50t-19.5 49.5t-45.5 18.5q-27 0 -46.5 -18.5z" />
    <glyph glyph-name="ampersand" unicode="&#x26;" horiz-adv-x="713" 
d="M560 0l-53 47q-84 -62 -200 -62q-78 0 -139 26t-94.5 73.5t-33.5 110.5q0 55 30 99t84 72q-25 32 -36.5 63.5t-11.5 68.5q0 55 28.5 97.5t79.5 66t114 23.5q98 0 154 -52t69 -138l-148 -26q-4 47 -22.5 67.5t-52.5 20.5q-30 0 -49 -16.5t-19 -46.5q0 -27 16 -52t59 -63
l142 -123q6 27 6 58v45h145v-45q0 -91 -33 -160l176 -154h-211zM399 140l-154 135q-23 -14 -35.5 -33.5t-12.5 -40.5q0 -39 31.5 -63t84.5 -24q45 0 86 26z" />
    <glyph glyph-name="quotesingle" unicode="'" horiz-adv-x="244" 
d="M47 355v315h151v-315h-151z" />
    <glyph glyph-name="parenleft" unicode="(" horiz-adv-x="380" 
d="M237 169q33 -73 108 -152l-113 -99q-97 90 -147 193t-50 225t50 225t147 193l110 -99q-73 -80 -105.5 -153t-32.5 -166q0 -94 33 -167z" />
    <glyph glyph-name="parenright" unicode=")" horiz-adv-x="380" 
d="M294.5 561q50.5 -103 50.5 -225t-50.5 -225t-147.5 -193l-112 99q74 80 107.5 153t33.5 166t-33 166t-105 153l109 99q97 -90 147.5 -193z" />
    <glyph glyph-name="asterisk" unicode="*" horiz-adv-x="447" 
d="M312 535l102 -58l-44 -77l-98 56v-106h-97v106l-98 -56l-44 77l102 58l-102 59l44 77l98 -56v105h97v-105l98 56l44 -77z" />
    <glyph glyph-name="plus" unicode="+" horiz-adv-x="573" 
d="M523 238h-171v-174h-131v174h-171v131h171v174h131v-174h171v-131z" />
    <glyph glyph-name="comma" unicode="," horiz-adv-x="264" 
d="M124 -132h-121l59 288h177v-4z" />
    <glyph glyph-name="hyphen" unicode="-" horiz-adv-x="451" 
d="M391 195h-331v135h331v-135z" />
    <glyph glyph-name="period" unicode="." horiz-adv-x="246" 
d="M188.5 148.5q26.5 -26.5 26.5 -63.5q0 -38 -26 -64t-66 -26q-39 0 -65 26t-26 64q0 37 26 63.5t65 26.5t65.5 -26.5z" />
    <glyph glyph-name="slash" unicode="/" horiz-adv-x="435" 
d="M420 741l-288 -813h-117l288 813h117z" />
    <glyph glyph-name="zero" unicode="0" horiz-adv-x="664" 
d="M487 641q67 -44 104 -123.5t37 -182.5t-37 -182.5t-104 -123.5t-155 -44t-154.5 44t-103.5 123.5t-37 182.5t37 182.5t103.5 123.5t154.5 44t155 -44zM426.5 185.5q35.5 55.5 35.5 149.5t-35.5 149.5t-94.5 55.5t-94 -55.5t-35 -149.5t35 -149.5t94 -55.5t94.5 55.5z" />
    <glyph glyph-name="one" unicode="1" horiz-adv-x="389" 
d="M322 670v-670h-160v480l-160 -82v148l216 124h104z" />
    <glyph glyph-name="two" unicode="2" horiz-adv-x="548" 
d="M515 144v-144h-483h-3v108l231 217q32 30 48.5 47.5t29 42t12.5 52.5q0 36 -23 58t-60 22q-87 0 -96 -108l-153 29q5 100 73 158.5t175 58.5q71 0 126 -26.5t85.5 -76t30.5 -114.5q0 -45 -16 -82t-45 -71.5t-80 -82.5l-95 -88h243z" />
    <glyph glyph-name="three" unicode="3" horiz-adv-x="577" 
d="M519.5 283.5q21.5 -35.5 21.5 -82.5q0 -63 -32 -112t-88.5 -76.5t-129.5 -27.5q-106 0 -177 57.5t-82 154.5l156 29q7 -50 33.5 -77t70.5 -27q42 0 69 22.5t27 58.5q0 33 -24 51.5t-67 18.5h-90v131h83q43 0 66.5 18t23.5 50q0 35 -24.5 56t-64.5 21q-42 0 -69 -27
t-31 -81l-151 29q11 99 79 157t171 58q70 0 125 -27t85 -75t30 -109q0 -45 -18.5 -80t-53.5 -55q40 -20 61.5 -55.5z" />
    <glyph glyph-name="four" unicode="4" horiz-adv-x="626" 
d="M602 123h-81v-123h-155v123h-348v148l299 399h204v-415h81v-132zM366 255v255l-180 -255h180z" />
    <glyph glyph-name="five" unicode="5" horiz-adv-x="566" 
d="M421 407.5q55 -27.5 85.5 -77t30.5 -113.5q0 -69 -32 -121.5t-89 -81.5t-130 -29q-102 0 -174 49.5t-88 140.5l156 34q9 -43 37.5 -64t68.5 -21q41 0 68.5 26t27.5 67q0 38 -27.5 62t-68.5 24h-244l39 367h426v-143h-293l-10 -92h89q73 0 128 -27.5z" />
    <glyph glyph-name="six" unicode="6" horiz-adv-x="611" 
d="M464 407q53 -28 81.5 -78.5t28.5 -115.5q0 -66 -32.5 -118t-90 -81t-130.5 -29q-86 0 -150 39.5t-99 116t-35 182.5q0 190 93 283q36 38 85 58.5t108 20.5q90 0 153 -42.5t84 -121.5l-155 -30q-10 31 -31.5 44t-56.5 13q-47 0 -82 -38q-45 -49 -45 -136q27 28 67 44.5
t84 16.5q70 0 123 -28zM387 148q30 28 30 70t-30 69.5t-70 27.5t-69 -28t-29 -71q0 -41 29 -68.5t69 -27.5t70 28z" />
    <glyph glyph-name="seven" unicode="7" horiz-adv-x="513" 
d="M493 551l-259 -551h-177l250 526h-294v144h480v-119z" />
    <glyph glyph-name="eight" unicode="8" horiz-adv-x="573" 
d="M517.5 279q31.5 -41 31.5 -96q0 -58 -33 -103t-92.5 -70t-136.5 -25q-78 0 -138 25t-93 70t-33 103q0 55 32 96.5t90 63.5q-48 22 -73.5 61.5t-25.5 92.5q0 54 30.5 97t85.5 67t125 24t125 -24t85.5 -67t30.5 -97q0 -53 -26 -92.5t-74 -61.5q58 -23 89.5 -64zM224 540.5
q-25 -20.5 -25 -57.5q0 -36 25.5 -56.5t61.5 -20.5q37 0 63 21t26 57t-26 56.5t-63 20.5t-62 -20.5zM351.5 137q27.5 22 27.5 60q0 37 -27.5 58.5t-65.5 21.5q-39 0 -65 -21.5t-26 -60.5q0 -37 26 -58.5t65 -21.5q38 0 65.5 22z" />
    <glyph glyph-name="nine" unicode="9" horiz-adv-x="611" 
d="M440 645.5q64 -39.5 99 -116t35 -182.5q0 -189 -93 -283q-77 -79 -193 -79q-90 0 -153 42.5t-84 121.5l155 30q9 -31 31 -44t57 -13q47 0 82 38q43 48 45 136q-28 -29 -68 -45t-83 -16q-70 0 -123 28t-81.5 78.5t-28.5 115.5q0 66 32.5 118t90 81t130.5 29
q86 0 150 -39.5zM363 383q29 28 29 71q0 41 -29.5 68.5t-68.5 27.5q-40 0 -70.5 -28t-30.5 -70t30.5 -69.5t70.5 -27.5t69 28z" />
    <glyph glyph-name="colon" unicode=":" horiz-adv-x="246" 
d="M188.5 469.5q26.5 -26.5 26.5 -63.5q0 -38 -26 -64t-66 -26q-39 0 -65 26t-26 64q0 37 26 63.5t65 26.5t65.5 -26.5zM188.5 148.5q26.5 -26.5 26.5 -63.5q0 -38 -26 -64t-66 -26q-39 0 -65 26t-26 64q0 37 26 63.5t65 26.5t65.5 -26.5z" />
    <glyph glyph-name="semicolon" unicode=";" horiz-adv-x="280" 
d="M124 -132h-121l59 288h177v-4zM222.5 469.5q26.5 -26.5 26.5 -63.5q0 -38 -26 -64t-66 -26q-39 0 -65 26t-26 64q0 37 26 63.5t65 26.5t65.5 -26.5z" />
    <glyph glyph-name="less" unicode="&#x3c;" horiz-adv-x="467" 
d="M429 108l-397 141v155l397 143v-154l-228 -65l228 -68v-152z" />
    <glyph glyph-name="equal" unicode="=" horiz-adv-x="573" 
d="M523 351h-473v127h473v-127zM523 153h-473v127h473v-127z" />
    <glyph glyph-name="greater" unicode="&#x3e;" horiz-adv-x="467" 
d="M268 328l-228 65v154l397 -143v-155l-397 -141v152z" />
    <glyph glyph-name="question" unicode="?" horiz-adv-x="505" 
d="M365 660q50 -25 77.5 -70t27.5 -102q0 -67 -40 -114.5t-122 -70.5v-72h-145v161q83 9 116 33t33 60q0 28 -18 44t-48 16q-57 0 -95 -51l-134 71q30 53 91 86.5t140 33.5q67 0 117 -25zM299 146q26 -26 26 -63q0 -38 -26 -63t-66 -25t-65.5 25t-25.5 63q0 37 26 63t65 26
q40 0 66 -26z" />
    <glyph glyph-name="at" unicode="@" horiz-adv-x="936" 
d="M671 469v-278q0 -22 14.5 -34t35.5 -12q39 0 60 48.5t21 111.5q0 88 -43.5 156.5t-118 106t-164.5 37.5q-96 0 -174.5 -43t-123 -119t-44.5 -171q0 -94 44.5 -169t121 -117t170.5 -42q132 0 240 83l45 -71q-55 -45 -129 -69.5t-154 -24.5q-119 0 -216.5 52.5t-153 145.5
t-55.5 210q0 118 56.5 213t154.5 148.5t218 53.5q113 0 207.5 -48.5t150 -134t55.5 -193.5q0 -60 -18.5 -116t-62 -92.5t-113.5 -36.5q-43 0 -73.5 15.5t-46.5 45.5q-48 -59 -137 -59q-56 0 -101 25t-71 71.5t-26 108.5q0 63 26.5 110t71.5 72t100 25q75 0 122 -47v38h111z
M531.5 198q28.5 28 28.5 74q0 45 -28.5 73t-67.5 28t-67 -27.5t-28 -73.5t28 -74t67 -28t67.5 28z" />
    <glyph glyph-name="A" unicode="A" horiz-adv-x="699" 
d="M699 0h-176l-44 122h-258l-44 -122h-177l263 670h173zM429 264l-79 220l-79 -220h158z" />
    <glyph glyph-name="B" unicode="B" horiz-adv-x="662" 
d="M588.5 298q38.5 -40 38.5 -110q0 -86 -57 -137t-164 -51h-348v670h347q92 0 147.5 -50t55.5 -133q0 -43 -17 -74t-42.5 -47.5t-50.5 -19.5v-4q52 -4 90.5 -44zM223 537v-144h144q37 0 59 20.5t22 54.5q0 31 -21.5 50t-53.5 19h-150zM437.5 153q21.5 20 21.5 55
q0 33 -22 52.5t-57 19.5h-157v-147h154q39 0 60.5 20z" />
    <glyph glyph-name="C" unicode="C" horiz-adv-x="736" 
d="M703 171q-39 -88 -121.5 -137t-190.5 -49q-98 0 -179.5 46.5t-129 126.5t-47.5 177q0 96 47.5 176.5t129 127t179.5 46.5q95 0 174.5 -41.5t123.5 -115.5l-148 -73q-24 39 -62.5 59t-87.5 20q-52 0 -96 -26t-69.5 -71.5t-25.5 -101.5t25.5 -102t69.5 -72t96 -26
q53 0 93.5 24t63.5 72z" />
    <glyph glyph-name="D" unicode="D" horiz-adv-x="725" 
d="M515.5 628q83.5 -42 129 -118t45.5 -175t-45.5 -175t-129 -118t-192.5 -42h-265v670h265q109 0 192.5 -42zM467.5 195.5q56.5 52.5 56.5 139.5t-56.5 139.5t-150.5 52.5h-94v-384h94q94 0 150.5 52.5z" />
    <glyph glyph-name="E" unicode="E" horiz-adv-x="625" 
d="M580 142v-142h-522v670h519v-142h-354v-126h325v-134h-325v-126h357z" />
    <glyph glyph-name="F" unicode="F" horiz-adv-x="598" 
d="M223 525v-141h314v-144h-314v-240h-165v670h518v-145h-353z" />
    <glyph glyph-name="G" unicode="G" horiz-adv-x="778" 
d="M743 334q0 -100 -44.5 -179.5t-123.5 -124.5t-179 -45t-182.5 46.5t-130.5 126.5t-48 177q0 96 48.5 176.5t131 127t181.5 46.5q80 0 150 -30t118 -86l-135 -92q-49 57 -133 57q-54 0 -98.5 -26t-70.5 -71.5t-26 -101.5t26 -102t71 -72t100 -26q65 0 111 32t65 88h-158
v140h323q4 -32 4 -61z" />
    <glyph glyph-name="H" unicode="H" horiz-adv-x="728" 
d="M669 670v-670h-164v265h-282v-265h-165v670h165v-261h282v261h164z" />
    <glyph glyph-name="I" unicode="I" horiz-adv-x="281" 
d="M223 0h-165v670h165v-670z" />
    <glyph glyph-name="J" unicode="J" horiz-adv-x="608" 
d="M552 670v-429q0 -74 -34 -132.5t-95 -91t-141 -32.5q-112 0 -182.5 61t-85.5 164l160 32q5 -52 33 -81t75 -29t76 30.5t29 78.5v429h165z" />
    <glyph glyph-name="K" unicode="K" horiz-adv-x="655" 
d="M658 0h-212l-204 252h-19v-252h-165v670h165v-266h19l211 266h187l-270 -337z" />
    <glyph glyph-name="L" unicode="L" horiz-adv-x="587" 
d="M553 144v-144h-495v670h165v-526h330z" />
    <glyph glyph-name="M" unicode="M" horiz-adv-x="843" 
d="M784 670v-670h-160v398l-164 -237h-76l-166 237v-398h-160v670h162l201 -293l203 293h160z" />
    <glyph glyph-name="N" unicode="N" horiz-adv-x="757" 
d="M698 670v-670h-136l-339 388v-388h-165v670h137l339 -400v400h164z" />
    <glyph glyph-name="O" unicode="O" horiz-adv-x="784" 
d="M572 638q82 -47 129.5 -127t47.5 -177q0 -96 -47.5 -176t-129.5 -126.5t-180 -46.5t-180 46.5t-129.5 126.5t-47.5 176q0 97 47.5 177t129.5 127t180 47t180 -47zM490 161.5q44 25.5 69 71t25 101.5q0 57 -25 102.5t-69 71.5t-98 26t-98 -26t-69 -71.5t-25 -102.5
q0 -56 25 -101.5t69 -71t98 -25.5t98 25.5z" />
    <glyph glyph-name="P" unicode="P" horiz-adv-x="664" 
d="M518.5 641q55.5 -29 85.5 -81t30 -121q0 -70 -31 -123t-88 -82t-134 -29h-158v-205h-165v670h330q75 0 130.5 -29zM444.5 368.5q27.5 25.5 27.5 68.5q0 41 -28 66.5t-75 25.5h-146v-186h146q48 0 75.5 25.5z" />
    <glyph glyph-name="Q" unicode="Q" horiz-adv-x="799" 
d="M615 0l-34 36q-88 -51 -189 -51q-98 0 -180 46.5t-129.5 126.5t-47.5 176q0 97 47.5 177t129.5 127t180 47t180 -47t129.5 -127t47.5 -177q0 -109 -61 -197l127 -137h-200zM473 153l-133 144h201l31 -34q12 33 12 71q0 57 -25 102.5t-69 71.5t-98 26t-98 -26t-69 -71.5
t-25 -102.5q0 -56 25 -101.5t69 -71t98 -25.5q44 0 81 17z" />
    <glyph glyph-name="R" unicode="R" horiz-adv-x="679" 
d="M659 0h-206l-145 203h-85v-203h-165v670h316q75 0 135 -29t94.5 -82t34.5 -121q0 -77 -41.5 -133.5t-113.5 -82.5zM223 341h143q48 0 79 26.5t31 68.5q0 41 -31 67t-79 26h-143v-188z" />
    <glyph glyph-name="S" unicode="S" horiz-adv-x="646" 
d="M149 28q-77 43 -103 121l165 59q29 -86 128 -86q46 0 72.5 19t26.5 50q0 24 -13.5 38t-48.5 21l-134 30q-180 39 -180 194q0 64 33.5 112t94 73.5t138.5 25.5q95 0 163.5 -38.5t98.5 -108.5l-156 -51q-15 32 -44.5 48.5t-63.5 16.5q-40 0 -65 -19.5t-25 -48.5
q0 -22 11.5 -36t41.5 -20l133 -31q184 -43 184 -195q0 -69 -37 -118t-100 -74t-139 -25q-104 0 -181 43z" />
    <glyph glyph-name="T" unicode="T" horiz-adv-x="638" 
d="M618 526h-217v-526h-164v526h-217v144h598v-144z" />
    <glyph glyph-name="U" unicode="U" horiz-adv-x="713" 
d="M657 670v-368q0 -95 -37 -167t-104.5 -111t-155.5 -39q-90 0 -159 39t-107 111t-38 167v368h165v-368q0 -76 38 -120.5t101 -44.5q60 0 96 44.5t36 120.5v368h165z" />
    <glyph glyph-name="V" unicode="V" horiz-adv-x="743" 
d="M736 670l-285 -670h-159l-285 670h182l182 -444l183 444h182z" />
    <glyph glyph-name="W" unicode="W" horiz-adv-x="973" 
d="M967 670l-191 -670h-177l-112 414l-113 -414h-176l-191 670h169l117 -422l115 422h157l115 -422l117 422h170z" />
    <glyph glyph-name="X" unicode="X" horiz-adv-x="683" 
d="M481 0l-140 228l-139 -228h-195l210 336l-208 334h195l137 -225l138 225h195l-208 -334l210 -336h-195z" />
    <glyph glyph-name="Y" unicode="Y" horiz-adv-x="706" 
d="M434 209v-209h-168v208l-259 462h180l165 -294l163 294h184z" />
    <glyph glyph-name="Z" unicode="Z" horiz-adv-x="635" 
d="M597 139v-139h-556v106l338 425h-328v139h538v-126l-314 -405h322z" />
    <glyph glyph-name="bracketleft" unicode="[" horiz-adv-x="410" 
d="M207 610v-561h166v-131h-315v823h315v-131h-166z" />
    <glyph glyph-name="backslash" unicode="\" horiz-adv-x="435" 
d="M420 -72h-117l-288 813h117z" />
    <glyph glyph-name="bracketright" unicode="]" horiz-adv-x="410" 
d="M352 -82h-315v131h166v561h-166v131h315v-823z" />
    <glyph glyph-name="asciicircum" unicode="^" horiz-adv-x="464" 
d="M153 421h-136l156 249h118l156 -249h-136l-79 126z" />
    <glyph glyph-name="underscore" unicode="_" horiz-adv-x="540" 
d="M520 -175h-500v119h500v-119z" />
    <glyph glyph-name="grave" unicode="`" horiz-adv-x="600" 
d="M320 719l71 -152h-142l-119 152h190z" />
    <glyph glyph-name="a" unicode="a" horiz-adv-x="644" 
d="M586 502v-502h-160v40q-61 -55 -156 -55q-66 0 -122.5 33.5t-89.5 94.5t-33 138t33 137.5t89.5 94.5t122.5 34q95 0 156 -55v40h160zM364 137.5q28 16.5 45 46t17 67.5q0 37 -17 67t-45 46.5t-61 16.5q-53 0 -87 -36.5t-34 -93.5q0 -58 34 -94t87 -36q33 0 61 16.5z" />
    <glyph glyph-name="b" unicode="b" horiz-adv-x="644" 
d="M496.5 483q56.5 -34 89.5 -94.5t33 -137.5t-33 -138t-89.5 -94.5t-122.5 -33.5q-95 0 -156 55v-40h-160v720h160v-258q61 55 156 55q66 0 122.5 -34zM428 157q34 36 34 94q0 57 -34 93.5t-87 36.5q-33 0 -61 -16.5t-45 -46.5t-17 -67q0 -38 17 -67.5t45 -46t61 -16.5
q53 0 87 36z" />
    <glyph glyph-name="c" unicode="c" horiz-adv-x="570" 
d="M545 147q-27 -75 -94 -118.5t-152 -43.5q-75 0 -137.5 33.5t-99.5 94t-37 138.5q0 77 37 137.5t99.5 94.5t137.5 34q82 0 148.5 -42t95.5 -114l-146 -49q-13 32 -39 48.5t-59 16.5q-54 0 -87 -35.5t-33 -90.5q0 -56 33 -91t87 -35q34 0 60.5 16.5t41.5 50.5z" />
    <glyph glyph-name="d" unicode="d" horiz-adv-x="644" 
d="M586 720v-720h-160v40q-61 -55 -156 -55q-66 0 -122.5 33.5t-89.5 94.5t-33 138t33 137.5t89.5 94.5t122.5 34q95 0 156 -55v258h160zM364 137.5q28 16.5 45 46t17 67.5q0 37 -17 67t-45 46.5t-61 16.5q-53 0 -87 -36.5t-34 -93.5q0 -58 34 -94t87 -36q33 0 61 16.5z" />
    <glyph glyph-name="e" unicode="e" horiz-adv-x="575" 
d="M550 210h-368q10 -45 41 -71t74 -26q67 0 102 44l127 -60q-36 -56 -94.5 -84t-134.5 -28q-74 0 -136.5 33.5t-99 94t-36.5 138.5q0 77 35.5 137.5t96.5 94.5t134 34q71 0 129.5 -32.5t93.5 -93t36 -140.5v-41zM225.5 366q-29.5 -21 -40.5 -58h207q-12 39 -39 59t-62 20
q-36 0 -65.5 -21z" />
    <glyph glyph-name="f" unicode="f" horiz-adv-x="374" 
d="M246 502h121v-127h-121v-375h-159v375h-85v127h85v39q0 88 55.5 140.5t146.5 52.5q51 0 99 -21l-34 -124q-24 8 -43 8q-29 0 -47 -17t-18 -46v-32z" />
    <glyph glyph-name="g" unicode="g" horiz-adv-x="634" 
d="M575 50q0 -75 -38.5 -129.5t-104.5 -82.5t-146 -28q-146 0 -221 76l102 100q29 -24 54.5 -34.5t62.5 -10.5q56 0 95 32.5t39 89.5v15q-55 -49 -151 -49q-65 0 -120.5 32t-88.5 88.5t-33 125.5q0 68 33 123.5t88.5 87t120.5 31.5q97 0 151 -48v33h157v-452zM384 192.5
q34 32.5 34 82.5q0 49 -34 81.5t-83 32.5q-53 0 -86.5 -32t-33.5 -82t34 -82.5t86 -32.5q49 0 83 32.5z" />
    <glyph glyph-name="h" unicode="h" horiz-adv-x="619" 
d="M474 491q44 -26 68.5 -73.5t24.5 -109.5v-308h-159v274q0 44 -24 71.5t-63 27.5q-48 0 -75.5 -35t-27.5 -105v-233h-160v720h160v-266q61 63 155 63q57 0 101 -26z" />
    <glyph glyph-name="i" unicode="i" horiz-adv-x="292" 
d="M212.5 714q26.5 -27 26.5 -64q0 -38 -26.5 -63.5t-66.5 -25.5t-66 25.5t-26 63.5t26 64.5t66 26.5t66.5 -27zM226 0h-160v502h160v-502z" />
    <glyph glyph-name="j" unicode="j" horiz-adv-x="303" 
d="M223.5 714q26.5 -27 26.5 -64q0 -38 -26.5 -63.5t-66.5 -25.5t-66 25.5t-26 63.5t26 64.5t66 26.5t66.5 -27zM37 -41q19 0 30.5 11t11.5 29v503h159v-521q0 -73 -43.5 -117t-116.5 -44q-53 0 -105 21l24 126q26 -8 40 -8z" />
    <glyph glyph-name="k" unicode="k" horiz-adv-x="612" 
d="M615 0h-218l-168 181h-11v-181h-160v720h160v-389h8l167 171h199l-243 -237z" />
    <glyph glyph-name="l" unicode="l" horiz-adv-x="276" 
d="M218 0h-160v720h160v-720z" />
    <glyph glyph-name="m" unicode="m" horiz-adv-x="951" 
d="M805 491.5q44 -25.5 69.5 -71.5t25.5 -106v-314h-159v280q0 42 -24 67.5t-60 25.5q-45 0 -71.5 -32.5t-26.5 -94.5v-246h-160v280q0 42 -24 67.5t-61 25.5q-45 0 -70.5 -32.5t-25.5 -94.5v-246h-160v502h160v-46q55 61 148 61q53 0 96 -22t68 -63q31 40 76 62.5t102 22.5
q53 0 97 -25.5z" />
    <glyph glyph-name="n" unicode="n" horiz-adv-x="618" 
d="M474 491q44 -26 68.5 -73.5t24.5 -109.5v-308h-159v274q0 44 -24 71.5t-62 27.5q-49 0 -76.5 -34.5t-27.5 -105.5v-233h-160v502h160v-48q61 63 154 63q58 0 102 -26z" />
    <glyph glyph-name="o" unicode="o" horiz-adv-x="603" 
d="M441 481.5q63 -33.5 100 -93.5t37 -137t-37 -137.5t-100 -94t-138 -33.5q-76 0 -139.5 33.5t-101 94t-37.5 137.5t37.5 137t101 93.5t139.5 33.5q75 0 138 -33.5zM362 137.5q28 16.5 45 46t17 67.5t-17 67.5t-45 46t-59 16.5q-33 0 -61.5 -16.5t-45.5 -46t-17 -67.5
t17 -68t45.5 -46t61.5 -16q31 0 59 16.5z" />
    <glyph glyph-name="p" unicode="p" horiz-adv-x="644" 
d="M496.5 483q56.5 -34 89.5 -94.5t33 -137.5t-33 -138t-89.5 -94.5t-122.5 -33.5q-95 0 -156 55v-210h-160v672h160v-40q61 55 156 55q66 0 122.5 -34zM428 157q34 36 34 94q0 57 -34 93.5t-87 36.5q-33 0 -61 -16.5t-45 -46.5t-17 -67q0 -38 17 -67.5t45 -46t61 -16.5
q53 0 87 36z" />
    <glyph glyph-name="q" unicode="q" horiz-adv-x="644" 
d="M586 502v-672h-160v210q-61 -55 -156 -55q-66 0 -122.5 33.5t-89.5 94.5t-33 138t33 137.5t89.5 94.5t122.5 34q95 0 156 -55v40h160zM364 137.5q28 16.5 45 46t17 67.5q0 37 -17 67t-45 46.5t-61 16.5q-53 0 -87 -36.5t-34 -93.5q0 -58 34 -94t87 -36q33 0 61 16.5z" />
    <glyph glyph-name="r" unicode="r" horiz-adv-x="437" 
d="M427 505l-7 -160h-29q-173 0 -173 -188v-157h-160v502h160v-96q62 103 173 103q20 0 36 -4z" />
    <glyph glyph-name="s" unicode="s" horiz-adv-x="515" 
d="M214.5 116q22.5 -12 54.5 -12q30 0 47.5 11.5t17.5 28.5q0 14 -11 23t-38 14l-98 20q-71 14 -108.5 50.5t-37.5 95.5q0 51 27.5 89.5t76.5 59.5t112 21q82 0 138.5 -30.5t80.5 -84.5l-142 -43q-9 19 -29.5 31.5t-49.5 12.5q-30 0 -43.5 -11.5t-13.5 -27.5q0 -12 8 -21
t30 -14l113 -24q70 -15 104.5 -54.5t34.5 -96.5q0 -81 -63 -125t-165 -44q-83 0 -144.5 28.5t-83.5 86.5l152 53q8 -25 30.5 -37z" />
    <glyph glyph-name="t" unicode="t" horiz-adv-x="433" 
d="M430 22q-33 -18 -65 -27.5t-72 -9.5q-95 0 -147.5 51t-52.5 149v190h-91v127h91v148h160v-148h148v-127h-148v-174q0 -73 67 -73q17 0 37 5.5t36 14.5z" />
    <glyph glyph-name="u" unicode="u" horiz-adv-x="618" 
d="M560 502v-502h-160v48q-29 -30 -68 -46.5t-86 -16.5q-58 0 -102 26t-68.5 73.5t-24.5 109.5v308h159v-274q0 -44 24 -71.5t62 -27.5q49 0 76.5 34.5t27.5 105.5v233h160z" />
    <glyph glyph-name="v" unicode="v" horiz-adv-x="593" 
d="M586 503l-208 -503h-163l-208 503h169l120 -310l121 310h169z" />
    <glyph glyph-name="w" unicode="w" horiz-adv-x="795" 
d="M788 502l-161 -503h-139l-90 272l-91 -272h-139l-161 503h157l83 -270l94 270h113l94 -270l83 270h157z" />
    <glyph glyph-name="x" unicode="x" horiz-adv-x="604" 
d="M416 243l166 -243h-184l-96 145l-97 -145h-183l165 243l-165 260h183l97 -155l96 155h184z" />
    <glyph glyph-name="y" unicode="y" horiz-adv-x="604" 
d="M597 503l-330 -673h-173l120 243l-207 430h172l123 -250l123 250h172z" />
    <glyph glyph-name="z" unicode="z" horiz-adv-x="538" 
d="M501 127v-127h-464v103l251 272h-245v127h449v-105l-251 -270h260z" />
    <glyph glyph-name="braceleft" unicode="{" horiz-adv-x="421" 
d="M246.5 370q-16.5 -28 -46.5 -41q30 -13 46.5 -41t16.5 -65v-147q0 -13 7 -21t19 -8h95v-129h-133q-62 0 -99.5 36t-37.5 94v154q0 24 -15 36t-45 22l-34 10v118l34 10q30 10 45 22t15 36v154q0 59 38 95t99 36h133v-130h-95q-12 0 -19 -8t-7 -21v-147q0 -37 -16.5 -65z
" />
    <glyph glyph-name="bar" unicode="|" horiz-adv-x="265" 
d="M207 -72h-149v813h149v-813z" />
    <glyph glyph-name="braceright" unicode="}" horiz-adv-x="421" 
d="M401 388v-118l-34 -10q-31 -10 -46 -22t-15 -36v-154q0 -59 -37.5 -94.5t-98.5 -35.5h-133v129h94q12 0 19.5 8t7.5 21v147q0 38 16 65.5t46 40.5q-30 13 -46 40.5t-16 65.5v147q0 13 -7.5 21t-19.5 8h-94v130h133q61 0 98.5 -36t37.5 -95v-154q0 -24 15 -36t46 -22z" />
    <glyph glyph-name="asciitilde" unicode="~" horiz-adv-x="507" 
d="M63.5 324.5q20.5 37.5 50.5 53.5t60 16q29 0 49 -7t41 -19q28 -15 44 -15t25.5 11t8.5 28h123q0 -62 -21.5 -99.5t-53 -53.5t-62.5 -16q-28 0 -47.5 6.5t-42.5 18.5q-10 5 -21 9.5t-20 4.5q-17 0 -26.5 -9.5t-10.5 -25.5h-117q0 60 20.5 97.5z" />
    <glyph glyph-name="exclamdown" unicode="&#xa1;" horiz-adv-x="297" 
d="M85 365q-26 26 -26 63q0 38 26 63t66 25t65.5 -25t25.5 -63q0 -37 -26 -63t-65 -26q-40 0 -66 26zM60 -128l10 410h158l10 -410v-31h-178v31z" />
    <glyph glyph-name="cent" unicode="&#xa2;" horiz-adv-x="580" 
d="M475.5 47q-47.5 -41 -111.5 -55v-122h-133v123q-91 21 -148.5 90.5t-57.5 167.5q0 65 26.5 119t73.5 89.5t106 49.5v121h133v-120q62 -14 109 -53t70 -96l-146 -49q-13 32 -39 48.5t-59 16.5q-54 0 -87 -35.5t-33 -90.5q0 -56 33 -91t87 -35q34 0 60.5 16.5t41.5 50.5
l144 -45q-22 -59 -69.5 -100z" />
    <glyph glyph-name="sterling" unicode="&#xa3;" horiz-adv-x="617" 
d="M272 143h317v-143h-552v103l74 22v108h-74v137h74v85q0 68 29.5 120t84 81t125.5 29q103 0 167 -62.5t72 -163.5l-154 -28q-10 105 -85 105q-35 0 -56.5 -22t-21.5 -59v-85h166v-137h-166v-90z" />
    <glyph glyph-name="yen" unicode="&#xa5;" horiz-adv-x="698" 
d="M480 331h123v-103h-175v-43h175v-104h-175v-81h-165v81h-167v104h167v43h-167v103h115l-194 339h175l154 -278l152 278h183z" />
    <glyph glyph-name="section" unicode="&#xa7;" horiz-adv-x="550" 
d="M500.5 168.5q-22.5 -34.5 -59.5 -55.5q26 -37 26 -89q0 -80 -56.5 -123t-144.5 -43q-100 0 -157 49t-59 131l134 25q4 -47 23 -67t52 -20q25 0 41.5 14.5t16.5 37.5q0 17 -10.5 30t-37.5 24l-124 49q-65 26 -95 63.5t-30 94.5q0 91 82 139q-26 37 -26 89q0 82 56 125
t145 43q95 0 150.5 -48t60.5 -127l-136 -24q-2 42 -20.5 61t-47.5 19q-25 0 -41.5 -14.5t-16.5 -37.5q0 -17 10.5 -30t37.5 -24l124 -49q65 -25 95 -63t30 -95q0 -50 -22.5 -84.5zM335 191l11 -5q19 12 28 23.5t9 28.5q0 18 -11 31.5t-37 26.5l-127 56q-4 1 -12 5
q-36 -20 -36 -53q0 -18 10.5 -31.5t37.5 -26.5z" />
    <glyph glyph-name="dieresis" unicode="&#xa8;" horiz-adv-x="600" 
d="M250 705q26 -26 26 -62q0 -38 -25.5 -62.5t-64.5 -24.5t-64 24.5t-25 62.5q0 36 25.5 62t63.5 26t64 -26zM478 705q26 -26 26 -62q0 -38 -25.5 -62.5t-64.5 -24.5t-64 24.5t-25 62.5q0 36 25.5 62t63.5 26t64 -26z" />
    <glyph glyph-name="copyright" unicode="&#xa9;" horiz-adv-x="756" 
d="M551 639.5q80 -45.5 127.5 -126t47.5 -180.5q0 -99 -47.5 -178.5t-127.5 -124.5t-175 -45t-175.5 45t-128 124.5t-47.5 178.5q0 100 47.5 180.5t128 126t175.5 45.5t175 -45.5zM231.5 591q-66.5 -38 -105.5 -105.5t-39 -151.5q0 -83 39 -150t105 -104.5t145 -37.5
q78 0 144 37.5t105 104.5t39 150q0 84 -39 151t-105 105.5t-144 38.5t-144.5 -38zM506 481.5q50 -40.5 56 -101.5l-96 -18q-7 30 -30.5 47.5t-55.5 17.5q-38 0 -63.5 -26.5t-25.5 -66.5t25.5 -66.5t63.5 -26.5q33 0 57 18.5t28 52.5l97 -16q-5 -66 -54.5 -108t-126.5 -42
q-51 0 -95 23.5t-70.5 66.5t-26.5 98t26.5 98t70.5 66.5t95 23.5q75 0 125 -40.5z" />
    <glyph glyph-name="ordfeminine" unicode="&#xaa;" horiz-adv-x="390" 
d="M319 639.5q44 -34.5 44 -102.5v-203h-114v19q-37 -28 -93 -28q-55 0 -89.5 30t-34.5 79q0 48 39 76t106 28h72v10q1 18 -10.5 29.5t-31.5 11.5t-31.5 -9t-17.5 -28l-104 21q13 49 51.5 75t96.5 26q73 0 117 -34.5zM232.5 418q16.5 14 16.5 38v15h-58q-20 0 -32 -9
t-12 -24q0 -16 11.5 -25t30.5 -9q27 0 43.5 14z" />
    <glyph glyph-name="guillemotleft" unicode="&#xab;" horiz-adv-x="505" 
d="M25 262l105 178h150l-105 -178l105 -178h-150zM225 262l105 178h150l-105 -178l105 -178h-150z" />
    <glyph glyph-name="registered" unicode="&#xae;" horiz-adv-x="487" 
d="M343.5 659q45.5 -26 72.5 -72t27 -103t-27 -102.5t-72.5 -71.5t-100.5 -26t-100.5 26t-72.5 71.5t-27 102.5t27 103t72.5 72t100.5 26t100.5 -26zM322 346.5q36 20.5 57 57t21 80.5q0 45 -21 81.5t-57 57.5t-79 21q-42 0 -78 -21t-57 -57.5t-21 -81.5q0 -44 21 -80
t57 -57t78 -21q43 0 79 20.5zM320 483.5q-11 -15.5 -31 -22.5l51 -62h-54l-46 56h-25v-56h-46v182h88q34 0 54 -17t20 -44q0 -21 -11 -36.5zM215 494h41q14 0 22.5 7t8.5 18t-8.5 17t-22.5 6h-41v-48z" />
    <glyph glyph-name="macron" unicode="&#xaf;" horiz-adv-x="600" 
d="M466 570h-332v124h332v-124z" />
    <glyph glyph-name="degree" unicode="&#xb0;" horiz-adv-x="428" 
d="M293 666q36 -19 57.5 -54t21.5 -80t-21.5 -79.5t-57.5 -53.5t-78 -19q-43 0 -79.5 19t-58 53.5t-21.5 79.5t21.5 80t58 54t79.5 19q42 0 78 -19zM256 487q18 17 18 46q0 28 -18 45t-41 17q-25 0 -43 -17t-18 -45q0 -29 18 -46t43 -17q23 0 41 17z" />
    <glyph glyph-name="plusminus" unicode="&#xb1;" horiz-adv-x="573" 
d="M523 465v-130h-171v-141h-131v141h-171v130h171v160h131v-160h171zM50 130h473v-130h-473v130z" />
    <glyph glyph-name="acute" unicode="&#xb4;" horiz-adv-x="600" 
d="M341 567h-142l71 152h190z" />
    <glyph glyph-name="paragraph" unicode="&#xb6;" horiz-adv-x="606" 
d="M390 0h-111v299h-50q-59 0 -106.5 23t-75 66t-27.5 100q0 88 52.5 135t142.5 47h175v-670zM547 0h-110v670h110v-670z" />
    <glyph glyph-name="periodcentered" unicode="&#xb7;" horiz-adv-x="246" 
d="M188.5 324.5q26.5 -26.5 26.5 -63.5q0 -38 -26 -64t-66 -26q-39 0 -65 26t-26 64q0 37 26 63.5t65 26.5t65.5 -26.5z" />
    <glyph glyph-name="cedilla" unicode="&#xb8;" horiz-adv-x="600" 
d="M281 0h115l-49 -160h-166z" />
    <glyph glyph-name="ordmasculine" unicode="&#xba;" horiz-adv-x="422" 
d="M302.5 652q42.5 -22 67.5 -62t25 -91t-25 -90.5t-67.5 -61.5t-92.5 -22t-91.5 22t-66.5 61.5t-25 90.5t25 91t66.5 62t91.5 22t92.5 -22zM261 447q21 21 21 52t-21 52.5t-51 21.5q-29 0 -49 -21.5t-20 -52.5t20 -52t49 -21q30 0 51 21z" />
    <glyph glyph-name="guillemotright" unicode="&#xbb;" horiz-adv-x="505" 
d="M25 84l105 178l-105 178h150l105 -178l-105 -178h-150zM225 84l105 178l-105 178h150l105 -178l-105 -178h-150z" />
    <glyph glyph-name="onequarter" unicode="&#xbc;" horiz-adv-x="750" 
d="M204 287h-109v244l-78 -46v111l115 74h72v-383zM83 0l484 670h94l-485 -670h-93zM727 64h-48v-64h-101v64h-196v98l170 221h127v-230h48v-89zM578 153v121l-92 -121h92z" />
    <glyph glyph-name="onehalf" unicode="&#xbd;" horiz-adv-x="805" 
d="M204 287h-109v244l-78 -46v111l115 74h72v-383zM67 0l484 670h94l-485 -670h-93zM601 93h128v-93h-294v69l141 124q28 25 39 38.5t11 31.5q0 17 -11.5 27.5t-30.5 10.5q-22 0 -35 -15.5t-14 -46.5l-97 21q0 60 40 96.5t106 36.5t106.5 -34.5t40.5 -95.5q0 -38 -20.5 -67
t-62.5 -64z" />
    <glyph glyph-name="threequarters" unicode="&#xbe;" horiz-adv-x="825" 
d="M324 406q0 -54 -42.5 -89.5t-108.5 -35.5q-64 0 -106 34t-46 91l95 21q3 -28 18 -42.5t40 -14.5q21 0 34 11t13 28t-13.5 26.5t-34.5 9.5h-42v76h36q22 0 36.5 9.5t14.5 25.5q0 17 -12.5 27t-33.5 10q-23 0 -36.5 -14t-14.5 -40l-98 21q6 53 46.5 86.5t101.5 33.5
q65 0 106 -34t41 -86q0 -24 -12 -43t-34 -31q52 -26 52 -80zM152 0l484 670h94l-485 -670h-93zM802 64h-48v-64h-101v64h-196v98l170 221h127v-230h48v-89zM653 153v121l-92 -121h92z" />
    <glyph glyph-name="questiondown" unicode="&#xbf;" horiz-adv-x="505" 
d="M187 365q-26 26 -26 63q0 38 26 63t66 25t65.5 -25t25.5 -63q0 -37 -26 -63t-65 -26q-40 0 -66 26zM470 -54q-31 -53 -92 -86.5t-139 -33.5q-67 0 -117.5 25t-77.5 70t-27 102q0 67 39.5 114.5t121.5 70.5v72h146l-1 -161q-82 -9 -115 -33t-33 -59q0 -29 17.5 -45
t47.5 -16q57 0 95 52z" />
    <glyph glyph-name="Agrave" unicode="&#xc0;" horiz-adv-x="699" 
d="M699 0h-176l-44 122h-258l-44 -122h-177l263 670h173zM429 264l-79 220l-79 -220h158zM352 887l71 -152h-142l-119 152h190z" />
    <glyph glyph-name="Aacute" unicode="&#xc1;" horiz-adv-x="699" 
d="M699 0h-176l-44 122h-258l-44 -122h-177l263 670h173zM429 264l-79 220l-79 -220h158zM423 735h-142l71 152h190z" />
    <glyph glyph-name="Acircumflex" unicode="&#xc2;" horiz-adv-x="699" 
d="M699 0h-176l-44 122h-258l-44 -122h-177l263 670h173zM429 264l-79 220l-79 -220h158zM391 729l-40 56l-41 -56h-154l115 155h159l116 -155h-155z" />
    <glyph glyph-name="Atilde" unicode="&#xc3;" horiz-adv-x="699" 
d="M699 0h-176l-44 122h-258l-44 -122h-177l263 670h173zM429 264l-79 220l-79 -220h158zM210 861q34 38 81 38q24 0 40 -5.5t35 -16.5q26 -15 46 -15q26 0 31 36h97q0 -78 -33.5 -116t-82.5 -38q-24 0 -40 5.5t-34 15.5q-13 8 -23 11.5t-23 3.5q-26 0 -31 -33h-97
q0 76 34 114z" />
    <glyph glyph-name="Adieresis" unicode="&#xc4;" horiz-adv-x="699" 
d="M699 0h-176l-44 122h-258l-44 -122h-177l263 670h173zM429 264l-79 220l-79 -220h158zM300 873q26 -26 26 -62q0 -38 -25.5 -62.5t-64.5 -24.5t-64 24.5t-25 62.5q0 36 25.5 62t63.5 26t64 -26zM528 873q26 -26 26 -62q0 -38 -25.5 -62.5t-64.5 -24.5t-64 24.5t-25 62.5
q0 36 25.5 62t63.5 26t64 -26z" />
    <glyph glyph-name="Aring" unicode="&#xc5;" horiz-adv-x="699" 
d="M699 0h-176l-44 122h-258l-44 -122h-177l263 670h173zM429 264l-79 220l-79 -220h158zM439.5 746.5q-36.5 -35.5 -89.5 -35.5t-89.5 35.5t-36.5 86.5q0 52 36.5 87.5t89.5 35.5t89.5 -35.5t36.5 -87.5q0 -51 -36.5 -86.5zM379 861.5q-12 11.5 -29 11.5t-29 -11.5
t-12 -28.5q0 -16 12 -27.5t29 -11.5t29 11.5t12 27.5q0 17 -12 28.5z" />
    <glyph glyph-name="AE" unicode="&#xc6;" horiz-adv-x="1046" 
d="M1007 142v-142h-521v109h-229l-65 -109h-192l429 670h575v-142h-354v-126h326v-134h-326v-126h357zM486 251v242l-145 -242h145z" />
    <glyph glyph-name="Ccedilla" unicode="&#xc7;" horiz-adv-x="736" 
d="M599 45q-70 -48 -162 -58l-45 -147h-166l95 152q-82 15 -147 64t-102 121.5t-37 157.5q0 96 47.5 176.5t129 127t179.5 46.5q95 0 174.5 -41.5t123.5 -115.5l-148 -73q-24 39 -62.5 59t-87.5 20q-52 0 -96 -26t-69.5 -71.5t-25.5 -101.5t25.5 -102t69.5 -72t96 -26
q53 0 93.5 24t63.5 72l155 -60q-34 -78 -104 -126z" />
    <glyph glyph-name="Egrave" unicode="&#xc8;" horiz-adv-x="625" 
d="M580 142v-142h-522v670h519v-142h-354v-126h325v-134h-325v-126h357zM330 887l71 -152h-142l-119 152h190z" />
    <glyph glyph-name="Eacute" unicode="&#xc9;" horiz-adv-x="625" 
d="M580 142v-142h-522v670h519v-142h-354v-126h325v-134h-325v-126h357zM400 735h-142l71 152h190z" />
    <glyph glyph-name="Ecircumflex" unicode="&#xca;" horiz-adv-x="625" 
d="M580 142v-142h-522v670h519v-142h-354v-126h325v-134h-325v-126h357zM369 729l-40 56l-41 -56h-154l115 155h159l116 -155h-155z" />
    <glyph glyph-name="Edieresis" unicode="&#xcb;" horiz-adv-x="625" 
d="M580 142v-142h-522v670h519v-142h-354v-126h325v-134h-325v-126h357zM278 873q26 -26 26 -62q0 -38 -25.5 -62.5t-64.5 -24.5t-64 24.5t-25 62.5q0 36 25.5 62t63.5 26t64 -26zM506 873q26 -26 26 -62q0 -38 -25.5 -62.5t-64.5 -24.5t-64 24.5t-25 62.5q0 36 25.5 62
t63.5 26t64 -26z" />
    <glyph glyph-name="Igrave" unicode="&#xcc;" horiz-adv-x="281" 
d="M223 0h-165v670h165v-670zM143 887l71 -152h-142l-119 152h190z" />
    <glyph glyph-name="Iacute" unicode="&#xcd;" horiz-adv-x="281" 
d="M223 0h-165v670h165v-670zM213 735h-142l71 152h190z" />
    <glyph glyph-name="Icircumflex" unicode="&#xce;" horiz-adv-x="281" 
d="M223 0h-165v670h165v-670zM181 729l-40 56l-41 -56h-154l115 155h159l116 -155h-155z" />
    <glyph glyph-name="Idieresis" unicode="&#xcf;" horiz-adv-x="281" 
d="M223 0h-165v670h165v-670zM91 873q26 -26 26 -62q0 -38 -25.5 -62.5t-64.5 -24.5t-64 24.5t-25 62.5q0 36 25.5 62t63.5 26t64 -26zM319 873q26 -26 26 -62q0 -38 -25.5 -62.5t-64.5 -24.5t-64 24.5t-25 62.5q0 36 25.5 62t63.5 26t64 -26z" />
    <glyph glyph-name="Eth" unicode="&#xd0;" horiz-adv-x="733" 
d="M534 628q83 -42 128.5 -118t45.5 -175t-45.5 -175t-128.5 -118t-192 -42h-265v263h-54v144h54v263h265q109 0 192 -42zM486 195.5q57 52.5 57 139.5t-57 139.5t-151 52.5h-94v-120h113v-144h-113v-120h94q94 0 151 52.5z" />
    <glyph glyph-name="Ntilde" unicode="&#xd1;" horiz-adv-x="757" 
d="M698 670v-670h-136l-339 388v-388h-165v670h137l339 -400v400h164zM241 861q34 38 81 38q24 0 40 -5.5t35 -16.5q26 -15 46 -15q26 0 31 36h97q0 -78 -33.5 -116t-82.5 -38q-24 0 -40 5.5t-34 15.5q-13 8 -23 11.5t-23 3.5q-26 0 -31 -33h-97q0 76 34 114z" />
    <glyph glyph-name="Ograve" unicode="&#xd2;" horiz-adv-x="784" 
d="M572 638q82 -47 129.5 -127t47.5 -177q0 -96 -47.5 -176t-129.5 -126.5t-180 -46.5t-180 46.5t-129.5 126.5t-47.5 176q0 97 47.5 177t129.5 127t180 47t180 -47zM490 161.5q44 25.5 69 71t25 101.5q0 57 -25 102.5t-69 71.5t-98 26t-98 -26t-69 -71.5t-25 -102.5
q0 -56 25 -101.5t69 -71t98 -25.5t98 25.5zM394 887l71 -152h-142l-119 152h190z" />
    <glyph glyph-name="Oacute" unicode="&#xd3;" horiz-adv-x="784" 
d="M572 638q82 -47 129.5 -127t47.5 -177q0 -96 -47.5 -176t-129.5 -126.5t-180 -46.5t-180 46.5t-129.5 126.5t-47.5 176q0 97 47.5 177t129.5 127t180 47t180 -47zM490 161.5q44 25.5 69 71t25 101.5q0 57 -25 102.5t-69 71.5t-98 26t-98 -26t-69 -71.5t-25 -102.5
q0 -56 25 -101.5t69 -71t98 -25.5t98 25.5zM464 735h-142l71 152h190z" />
    <glyph glyph-name="Ocircumflex" unicode="&#xd4;" horiz-adv-x="784" 
d="M572 638q82 -47 129.5 -127t47.5 -177q0 -96 -47.5 -176t-129.5 -126.5t-180 -46.5t-180 46.5t-129.5 126.5t-47.5 176q0 97 47.5 177t129.5 127t180 47t180 -47zM490 161.5q44 25.5 69 71t25 101.5q0 57 -25 102.5t-69 71.5t-98 26t-98 -26t-69 -71.5t-25 -102.5
q0 -56 25 -101.5t69 -71t98 -25.5t98 25.5zM433 729l-40 56l-41 -56h-154l115 155h159l116 -155h-155z" />
    <glyph glyph-name="Otilde" unicode="&#xd5;" horiz-adv-x="784" 
d="M572 638q82 -47 129.5 -127t47.5 -177q0 -96 -47.5 -176t-129.5 -126.5t-180 -46.5t-180 46.5t-129.5 126.5t-47.5 176q0 97 47.5 177t129.5 127t180 47t180 -47zM490 161.5q44 25.5 69 71t25 101.5q0 57 -25 102.5t-69 71.5t-98 26t-98 -26t-69 -71.5t-25 -102.5
q0 -56 25 -101.5t69 -71t98 -25.5t98 25.5zM251 861q34 38 81 38q24 0 40 -5.5t35 -16.5q26 -15 46 -15q26 0 31 36h97q0 -78 -33.5 -116t-82.5 -38q-24 0 -40 5.5t-34 15.5q-13 8 -23 11.5t-23 3.5q-26 0 -31 -33h-97q0 76 34 114z" />
    <glyph glyph-name="Odieresis" unicode="&#xd6;" horiz-adv-x="784" 
d="M572 638q82 -47 129.5 -127t47.5 -177q0 -96 -47.5 -176t-129.5 -126.5t-180 -46.5t-180 46.5t-129.5 126.5t-47.5 176q0 97 47.5 177t129.5 127t180 47t180 -47zM490 161.5q44 25.5 69 71t25 101.5q0 57 -25 102.5t-69 71.5t-98 26t-98 -26t-69 -71.5t-25 -102.5
q0 -56 25 -101.5t69 -71t98 -25.5t98 25.5zM342 873q26 -26 26 -62q0 -38 -25.5 -62.5t-64.5 -24.5t-64 24.5t-25 62.5q0 36 25.5 62t63.5 26t64 -26zM570 873q26 -26 26 -62q0 -38 -25.5 -62.5t-64.5 -24.5t-64 24.5t-25 62.5q0 36 25.5 62t63.5 26t64 -26z" />
    <glyph glyph-name="multiply" unicode="&#xd7;" horiz-adv-x="531" 
d="M359 303l132 -131l-93 -93l-132 132l-133 -132l-92 93l132 131l-132 132l92 93l133 -132l132 132l93 -93z" />
    <glyph glyph-name="Oslash" unicode="&#xd8;" horiz-adv-x="784" 
d="M749 334q0 -96 -47.5 -176t-129.5 -126.5t-180 -46.5q-110 0 -201 59l-67 -67l-80 80l64 64q-73 94 -73 213q0 97 47.5 177t129.5 127t180 47q59 0 113 -17.5t99 -49.5l56 55l80 -80l-55 -56q64 -91 64 -203zM223 237l270 269q-45 28 -101 28q-54 0 -98 -26t-69 -71.5
t-25 -102.5q0 -51 23 -97zM490 161.5q44 25.5 69 71t25 101.5q0 46 -17 85l-263 -263q40 -20 88 -20q54 0 98 25.5z" />
    <glyph glyph-name="Ugrave" unicode="&#xd9;" horiz-adv-x="713" 
d="M657 670v-368q0 -95 -37 -167t-104.5 -111t-155.5 -39q-90 0 -159 39t-107 111t-38 167v368h165v-368q0 -76 38 -120.5t101 -44.5q60 0 96 44.5t36 120.5v368h165zM358 887l71 -152h-142l-119 152h190z" />
    <glyph glyph-name="Uacute" unicode="&#xda;" horiz-adv-x="713" 
d="M657 670v-368q0 -95 -37 -167t-104.5 -111t-155.5 -39q-90 0 -159 39t-107 111t-38 167v368h165v-368q0 -76 38 -120.5t101 -44.5q60 0 96 44.5t36 120.5v368h165zM428 735h-142l71 152h190z" />
    <glyph glyph-name="Ucircumflex" unicode="&#xdb;" horiz-adv-x="713" 
d="M657 670v-368q0 -95 -37 -167t-104.5 -111t-155.5 -39q-90 0 -159 39t-107 111t-38 167v368h165v-368q0 -76 38 -120.5t101 -44.5q60 0 96 44.5t36 120.5v368h165zM397 729l-40 56l-41 -56h-154l115 155h159l116 -155h-155z" />
    <glyph glyph-name="Udieresis" unicode="&#xdc;" horiz-adv-x="713" 
d="M657 670v-368q0 -95 -37 -167t-104.5 -111t-155.5 -39q-90 0 -159 39t-107 111t-38 167v368h165v-368q0 -76 38 -120.5t101 -44.5q60 0 96 44.5t36 120.5v368h165zM306 873q26 -26 26 -62q0 -38 -25.5 -62.5t-64.5 -24.5t-64 24.5t-25 62.5q0 36 25.5 62t63.5 26t64 -26z
M534 873q26 -26 26 -62q0 -38 -25.5 -62.5t-64.5 -24.5t-64 24.5t-25 62.5q0 36 25.5 62t63.5 26t64 -26z" />
    <glyph glyph-name="Yacute" unicode="&#xdd;" horiz-adv-x="706" 
d="M434 209v-209h-168v208l-259 462h180l165 -294l163 294h184zM425 735h-142l71 152h190z" />
    <glyph glyph-name="Thorn" unicode="&#xde;" horiz-adv-x="651" 
d="M501.5 536.5q55.5 -28.5 86 -80.5t30.5 -120t-31.5 -120.5t-88.5 -81.5t-131 -29h-144v-105h-165v670h165v-105h150q73 0 128.5 -28.5zM429 268q27 25 27 66t-27 65.5t-72 24.5h-134v-181h134q45 0 72 25z" />
    <glyph glyph-name="germandbls" unicode="&#xdf;" horiz-adv-x="664" 
d="M601.5 319q34.5 -46 34.5 -116q0 -60 -28 -108.5t-79 -76t-117 -27.5q-69 0 -137 12l17 131q7 -1 35.5 -5.5t59.5 -4.5q44 0 73 26t29 61q0 45 -35 70.5t-98 25.5h-43v128h22q46 0 73 22t27 57q0 40 -26.5 64.5t-70.5 24.5q-54 0 -87 -34t-33 -92v-477h-160v465
q0 80 35 142t98.5 96t146.5 34q73 0 130.5 -27t89.5 -73.5t32 -105.5q0 -53 -22.5 -91.5t-61.5 -56.5q61 -18 95.5 -64z" />
    <glyph glyph-name="agrave" unicode="&#xe0;" horiz-adv-x="644" 
d="M586 502v-502h-160v40q-61 -55 -156 -55q-66 0 -122.5 33.5t-89.5 94.5t-33 138t33 137.5t89.5 94.5t122.5 34q95 0 156 -55v40h160zM364 137.5q28 16.5 45 46t17 67.5q0 37 -17 67t-45 46.5t-61 16.5q-53 0 -87 -36.5t-34 -93.5q0 -58 34 -94t87 -36q33 0 61 16.5z
M323 719l71 -152h-142l-119 152h190z" />
    <glyph glyph-name="aacute" unicode="&#xe1;" horiz-adv-x="644" 
d="M586 502v-502h-160v40q-61 -55 -156 -55q-66 0 -122.5 33.5t-89.5 94.5t-33 138t33 137.5t89.5 94.5t122.5 34q95 0 156 -55v40h160zM364 137.5q28 16.5 45 46t17 67.5q0 37 -17 67t-45 46.5t-61 16.5q-53 0 -87 -36.5t-34 -93.5q0 -58 34 -94t87 -36q33 0 61 16.5z
M394 567h-142l71 152h190z" />
    <glyph glyph-name="acircumflex" unicode="&#xe2;" horiz-adv-x="644" 
d="M586 502v-502h-160v40q-61 -55 -156 -55q-66 0 -122.5 33.5t-89.5 94.5t-33 138t33 137.5t89.5 94.5t122.5 34q95 0 156 -55v40h160zM364 137.5q28 16.5 45 46t17 67.5q0 37 -17 67t-45 46.5t-61 16.5q-53 0 -87 -36.5t-34 -93.5q0 -58 34 -94t87 -36q33 0 61 16.5z
M362 561l-40 56l-41 -56h-154l115 155h159l116 -155h-155z" />
    <glyph glyph-name="atilde" unicode="&#xe3;" horiz-adv-x="644" 
d="M586 502v-502h-160v40q-61 -55 -156 -55q-66 0 -122.5 33.5t-89.5 94.5t-33 138t33 137.5t89.5 94.5t122.5 34q95 0 156 -55v40h160zM364 137.5q28 16.5 45 46t17 67.5q0 37 -17 67t-45 46.5t-61 16.5q-53 0 -87 -36.5t-34 -93.5q0 -58 34 -94t87 -36q33 0 61 16.5z
M181 693q34 38 81 38q24 0 40 -5.5t35 -16.5q26 -15 46 -15q26 0 31 36h97q0 -78 -33.5 -116t-82.5 -38q-24 0 -40 5.5t-34 15.5q-13 8 -23 11.5t-23 3.5q-26 0 -31 -33h-97q0 76 34 114z" />
    <glyph glyph-name="adieresis" unicode="&#xe4;" horiz-adv-x="644" 
d="M586 502v-502h-160v40q-61 -55 -156 -55q-66 0 -122.5 33.5t-89.5 94.5t-33 138t33 137.5t89.5 94.5t122.5 34q95 0 156 -55v40h160zM364 137.5q28 16.5 45 46t17 67.5q0 37 -17 67t-45 46.5t-61 16.5q-53 0 -87 -36.5t-34 -93.5q0 -58 34 -94t87 -36q33 0 61 16.5z
M271 705q26 -26 26 -62q0 -38 -25.5 -62.5t-64.5 -24.5t-64 24.5t-25 62.5q0 36 25.5 62t63.5 26t64 -26zM499 705q26 -26 26 -62q0 -38 -25.5 -62.5t-64.5 -24.5t-64 24.5t-25 62.5q0 36 25.5 62t63.5 26t64 -26z" />
    <glyph glyph-name="aring" unicode="&#xe5;" horiz-adv-x="644" 
d="M586 502v-502h-160v40q-61 -55 -156 -55q-66 0 -122.5 33.5t-89.5 94.5t-33 138t33 137.5t89.5 94.5t122.5 34q95 0 156 -55v40h160zM364 137.5q28 16.5 45 46t17 67.5q0 37 -17 67t-45 46.5t-61 16.5q-53 0 -87 -36.5t-34 -93.5q0 -58 34 -94t87 -36q33 0 61 16.5z
M410.5 578.5q-36.5 -35.5 -89.5 -35.5t-89.5 35.5t-36.5 86.5q0 52 36.5 87.5t89.5 35.5t89.5 -35.5t36.5 -87.5q0 -51 -36.5 -86.5zM350 693.5q-12 11.5 -29 11.5t-29 -11.5t-12 -28.5q0 -16 12 -27.5t29 -11.5t29 11.5t12 27.5q0 17 -12 28.5z" />
    <glyph glyph-name="ae" unicode="&#xe6;" horiz-adv-x="897" 
d="M872 204h-366q11 -43 39.5 -67t70.5 -24q31 0 56.5 9.5t45.5 34.5l128 -60q-35 -54 -94.5 -83t-135.5 -29q-56 0 -103.5 18.5t-83.5 52.5q-35 -32 -86 -51.5t-115 -19.5q-97 0 -150 44t-53 117t54.5 112.5t154.5 39.5h128v23q0 33 -21.5 53t-56.5 20q-33 0 -54 -17
t-26 -48l-147 30q11 70 71.5 114t156.5 44q104 0 166 -53q72 53 162 53q73 0 132 -33t93 -95t34 -145v-40zM715 298q-9 46 -35.5 68.5t-64.5 22.5q-40 0 -70.5 -23.5t-39.5 -67.5h210zM361 202h-109q-34 0 -51.5 -12.5t-17.5 -34.5q0 -24 19 -38.5t50 -14.5q42 0 75.5 25
t33.5 60v15z" />
    <glyph glyph-name="ccedilla" unicode="&#xe7;" horiz-adv-x="570" 
d="M472 43.5q-51 -41.5 -119 -53.5l-46 -150h-166l95 152q-60 13 -108 48.5t-75.5 90t-27.5 120.5q0 77 37 137.5t99.5 94.5t137.5 34q82 0 148.5 -42t95.5 -114l-146 -49q-13 32 -39 48.5t-59 16.5q-54 0 -87 -35.5t-33 -90.5q0 -56 33 -91t87 -35q34 0 60.5 16.5
t41.5 50.5l144 -45q-22 -62 -73 -103.5z" />
    <glyph glyph-name="egrave" unicode="&#xe8;" horiz-adv-x="575" 
d="M550 210h-368q10 -45 41 -71t74 -26q67 0 102 44l127 -60q-36 -56 -94.5 -84t-134.5 -28q-74 0 -136.5 33.5t-99 94t-36.5 138.5q0 77 35.5 137.5t96.5 94.5t134 34q71 0 129.5 -32.5t93.5 -93t36 -140.5v-41zM225.5 366q-29.5 -21 -40.5 -58h207q-12 39 -39 59t-62 20
q-36 0 -65.5 -21zM295 719l71 -152h-142l-119 152h190z" />
    <glyph glyph-name="eacute" unicode="&#xe9;" horiz-adv-x="575" 
d="M550 210h-368q10 -45 41 -71t74 -26q67 0 102 44l127 -60q-36 -56 -94.5 -84t-134.5 -28q-74 0 -136.5 33.5t-99 94t-36.5 138.5q0 77 35.5 137.5t96.5 94.5t134 34q71 0 129.5 -32.5t93.5 -93t36 -140.5v-41zM225.5 366q-29.5 -21 -40.5 -58h207q-12 39 -39 59t-62 20
q-36 0 -65.5 -21zM365 567h-142l71 152h190z" />
    <glyph glyph-name="ecircumflex" unicode="&#xea;" horiz-adv-x="575" 
d="M550 210h-368q10 -45 41 -71t74 -26q67 0 102 44l127 -60q-36 -56 -94.5 -84t-134.5 -28q-74 0 -136.5 33.5t-99 94t-36.5 138.5q0 77 35.5 137.5t96.5 94.5t134 34q71 0 129.5 -32.5t93.5 -93t36 -140.5v-41zM225.5 366q-29.5 -21 -40.5 -58h207q-12 39 -39 59t-62 20
q-36 0 -65.5 -21zM334 561l-40 56l-41 -56h-154l115 155h159l116 -155h-155z" />
    <glyph glyph-name="edieresis" unicode="&#xeb;" horiz-adv-x="575" 
d="M550 210h-368q10 -45 41 -71t74 -26q67 0 102 44l127 -60q-36 -56 -94.5 -84t-134.5 -28q-74 0 -136.5 33.5t-99 94t-36.5 138.5q0 77 35.5 137.5t96.5 94.5t134 34q71 0 129.5 -32.5t93.5 -93t36 -140.5v-41zM225.5 366q-29.5 -21 -40.5 -58h207q-12 39 -39 59t-62 20
q-36 0 -65.5 -21zM243 705q26 -26 26 -62q0 -38 -25.5 -62.5t-64.5 -24.5t-64 24.5t-25 62.5q0 36 25.5 62t63.5 26t64 -26zM471 705q26 -26 26 -62q0 -38 -25.5 -62.5t-64.5 -24.5t-64 24.5t-25 62.5q0 36 25.5 62t63.5 26t64 -26z" />
    <glyph glyph-name="igrave" unicode="&#xec;" horiz-adv-x="297" 
d="M228 0h-159v502h159v-502zM151 719l71 -152h-142l-119 152h190z" />
    <glyph glyph-name="iacute" unicode="&#xed;" horiz-adv-x="297" 
d="M228 0h-159v502h159v-502zM221 567h-142l71 152h190z" />
    <glyph glyph-name="icircumflex" unicode="&#xee;" horiz-adv-x="297" 
d="M228 0h-159v502h159v-502zM189 561l-40 56l-41 -56h-154l115 155h159l116 -155h-155z" />
    <glyph glyph-name="idieresis" unicode="&#xef;" horiz-adv-x="297" 
d="M228 0h-159v502h159v-502zM99 705q26 -26 26 -62q0 -38 -25.5 -62.5t-64.5 -24.5t-64 24.5t-25 62.5q0 36 25.5 62t63.5 26t64 -26zM327 705q26 -26 26 -62q0 -38 -25.5 -62.5t-64.5 -24.5t-64 24.5t-25 62.5q0 36 25.5 62t63.5 26t64 -26z" />
    <glyph glyph-name="eth" unicode="&#xf0;" horiz-adv-x="605" 
d="M533 448q47 -94 47 -195q0 -88 -40 -148.5t-103 -90t-132 -29.5q-76 0 -140 33.5t-102 94t-38 138.5t32.5 138.5t90 94t129.5 33.5q32 0 59 -11q-25 31 -58 59l-134 -52l-36 87l75 29q-64 34 -130 60v31h242q15 -9 42 -29l104 40l36 -88l-62 -24q71 -77 118 -171z
M368 140q27 19 41.5 49.5t14.5 63.5q0 54 -35 91t-86 37q-54 0 -89 -36.5t-35 -93.5q0 -37 17 -66.5t45.5 -46.5t62.5 -17q37 0 64 19z" />
    <glyph glyph-name="ntilde" unicode="&#xf1;" horiz-adv-x="618" 
d="M474 491q44 -26 68.5 -73.5t24.5 -109.5v-308h-159v274q0 44 -24 71.5t-62 27.5q-49 0 -76.5 -34.5t-27.5 -105.5v-233h-160v502h160v-48q61 63 154 63q58 0 102 -26zM172 693q34 38 81 38q24 0 40 -5.5t35 -16.5q26 -15 46 -15q26 0 31 36h97q0 -78 -33.5 -116
t-82.5 -38q-24 0 -40 5.5t-34 15.5q-13 8 -23 11.5t-23 3.5q-26 0 -31 -33h-97q0 76 34 114z" />
    <glyph glyph-name="ograve" unicode="&#xf2;" horiz-adv-x="603" 
d="M441 481.5q63 -33.5 100 -93.5t37 -137t-37 -137.5t-100 -94t-138 -33.5q-76 0 -139.5 33.5t-101 94t-37.5 137.5t37.5 137t101 93.5t139.5 33.5q75 0 138 -33.5zM362 137.5q28 16.5 45 46t17 67.5t-17 67.5t-45 46t-59 16.5q-33 0 -61.5 -16.5t-45.5 -46t-17 -67.5
t17 -68t45.5 -46t61.5 -16q31 0 59 16.5zM305 719l71 -152h-142l-119 152h190z" />
    <glyph glyph-name="oacute" unicode="&#xf3;" horiz-adv-x="603" 
d="M441 481.5q63 -33.5 100 -93.5t37 -137t-37 -137.5t-100 -94t-138 -33.5q-76 0 -139.5 33.5t-101 94t-37.5 137.5t37.5 137t101 93.5t139.5 33.5q75 0 138 -33.5zM362 137.5q28 16.5 45 46t17 67.5t-17 67.5t-45 46t-59 16.5q-33 0 -61.5 -16.5t-45.5 -46t-17 -67.5
t17 -68t45.5 -46t61.5 -16q31 0 59 16.5zM375 567h-142l71 152h190z" />
    <glyph glyph-name="ocircumflex" unicode="&#xf4;" horiz-adv-x="603" 
d="M441 481.5q63 -33.5 100 -93.5t37 -137t-37 -137.5t-100 -94t-138 -33.5q-76 0 -139.5 33.5t-101 94t-37.5 137.5t37.5 137t101 93.5t139.5 33.5q75 0 138 -33.5zM362 137.5q28 16.5 45 46t17 67.5t-17 67.5t-45 46t-59 16.5q-33 0 -61.5 -16.5t-45.5 -46t-17 -67.5
t17 -68t45.5 -46t61.5 -16q31 0 59 16.5zM343 561l-40 56l-41 -56h-154l115 155h159l116 -155h-155z" />
    <glyph glyph-name="otilde" unicode="&#xf5;" horiz-adv-x="603" 
d="M441 481.5q63 -33.5 100 -93.5t37 -137t-37 -137.5t-100 -94t-138 -33.5q-76 0 -139.5 33.5t-101 94t-37.5 137.5t37.5 137t101 93.5t139.5 33.5q75 0 138 -33.5zM362 137.5q28 16.5 45 46t17 67.5t-17 67.5t-45 46t-59 16.5q-33 0 -61.5 -16.5t-45.5 -46t-17 -67.5
t17 -68t45.5 -46t61.5 -16q31 0 59 16.5zM162 693q34 38 81 38q24 0 40 -5.5t35 -16.5q26 -15 46 -15q26 0 31 36h97q0 -78 -33.5 -116t-82.5 -38q-24 0 -40 5.5t-34 15.5q-13 8 -23 11.5t-23 3.5q-26 0 -31 -33h-97q0 76 34 114z" />
    <glyph glyph-name="odieresis" unicode="&#xf6;" horiz-adv-x="603" 
d="M441 481.5q63 -33.5 100 -93.5t37 -137t-37 -137.5t-100 -94t-138 -33.5q-76 0 -139.5 33.5t-101 94t-37.5 137.5t37.5 137t101 93.5t139.5 33.5q75 0 138 -33.5zM362 137.5q28 16.5 45 46t17 67.5t-17 67.5t-45 46t-59 16.5q-33 0 -61.5 -16.5t-45.5 -46t-17 -67.5
t17 -68t45.5 -46t61.5 -16q31 0 59 16.5zM253 705q26 -26 26 -62q0 -38 -25.5 -62.5t-64.5 -24.5t-64 24.5t-25 62.5q0 36 25.5 62t63.5 26t64 -26zM481 705q26 -26 26 -62q0 -38 -25.5 -62.5t-64.5 -24.5t-64 24.5t-25 62.5q0 36 25.5 62t63.5 26t64 -26z" />
    <glyph glyph-name="divide" unicode="&#xf7;" horiz-adv-x="573" 
d="M345.5 558q24.5 -25 24.5 -59q0 -36 -24.5 -60t-61.5 -24t-61.5 24t-24.5 60q0 34 24.5 59t61.5 25t61.5 -25zM523 248h-473v131h473v-131zM345.5 190q24.5 -25 24.5 -59q0 -36 -24.5 -60t-61.5 -24t-61.5 24t-24.5 60q0 34 24.5 59t61.5 25t61.5 -25z" />
    <glyph glyph-name="oslash" unicode="&#xf8;" horiz-adv-x="603" 
d="M578 251q0 -77 -37 -137.5t-100 -94t-138 -33.5q-87 0 -158 44l-52 -52l-64 64l49 49q-53 69 -53 160q0 77 37.5 137t101 93.5t139.5 33.5q86 0 155 -44l51 51l64 -64l-47 -47q52 -68 52 -160zM188 201l167 167q-26 13 -52 13q-33 0 -61.5 -16.5t-45.5 -46t-17 -67.5
q0 -27 9 -50zM362 137.5q28 16.5 45 46t17 67.5q0 28 -9 49l-167 -167q25 -12 55 -12q31 0 59 16.5z" />
    <glyph glyph-name="ugrave" unicode="&#xf9;" horiz-adv-x="618" 
d="M560 502v-502h-160v48q-29 -30 -68 -46.5t-86 -16.5q-58 0 -102 26t-68.5 73.5t-24.5 109.5v308h159v-274q0 -44 24 -71.5t62 -27.5q49 0 76.5 34.5t27.5 105.5v233h160zM309 719l71 -152h-142l-119 152h190z" />
    <glyph glyph-name="uacute" unicode="&#xfa;" horiz-adv-x="618" 
d="M560 502v-502h-160v48q-29 -30 -68 -46.5t-86 -16.5q-58 0 -102 26t-68.5 73.5t-24.5 109.5v308h159v-274q0 -44 24 -71.5t62 -27.5q49 0 76.5 34.5t27.5 105.5v233h160zM380 567h-142l71 152h190z" />
    <glyph glyph-name="ucircumflex" unicode="&#xfb;" horiz-adv-x="618" 
d="M560 502v-502h-160v48q-29 -30 -68 -46.5t-86 -16.5q-58 0 -102 26t-68.5 73.5t-24.5 109.5v308h159v-274q0 -44 24 -71.5t62 -27.5q49 0 76.5 34.5t27.5 105.5v233h160zM348 561l-40 56l-41 -56h-154l115 155h159l116 -155h-155z" />
    <glyph glyph-name="udieresis" unicode="&#xfc;" horiz-adv-x="618" 
d="M560 502v-502h-160v48q-29 -30 -68 -46.5t-86 -16.5q-58 0 -102 26t-68.5 73.5t-24.5 109.5v308h159v-274q0 -44 24 -71.5t62 -27.5q49 0 76.5 34.5t27.5 105.5v233h160zM257 705q26 -26 26 -62q0 -38 -25.5 -62.5t-64.5 -24.5t-64 24.5t-25 62.5q0 36 25.5 62t63.5 26
t64 -26zM485 705q26 -26 26 -62q0 -38 -25.5 -62.5t-64.5 -24.5t-64 24.5t-25 62.5q0 36 25.5 62t63.5 26t64 -26z" />
    <glyph glyph-name="yacute" unicode="&#xfd;" horiz-adv-x="604" 
d="M597 503l-330 -673h-173l120 243l-207 430h172l123 -250l123 250h172zM374 568h-142l71 152h190z" />
    <glyph glyph-name="thorn" unicode="&#xfe;" horiz-adv-x="644" 
d="M496.5 483q56.5 -34 89.5 -94.5t33 -137.5t-33 -138t-89.5 -94.5t-122.5 -33.5q-95 0 -156 55v-210h-160v890h160v-258q61 55 156 55q66 0 122.5 -34zM428 157q34 36 34 94q0 57 -34 93.5t-87 36.5q-33 0 -61 -16.5t-45 -46.5t-17 -67q0 -38 17 -67.5t45 -46t61 -16.5
q53 0 87 36z" />
    <glyph glyph-name="ydieresis" unicode="&#xff;" horiz-adv-x="604" 
d="M597 503l-330 -673h-173l120 243l-207 430h172l123 -250l123 250h172zM252 706q26 -26 26 -62q0 -38 -25.5 -62.5t-64.5 -24.5t-64 24.5t-25 62.5q0 36 25.5 62t63.5 26t64 -26zM480 706q26 -26 26 -62q0 -38 -25.5 -62.5t-64.5 -24.5t-64 24.5t-25 62.5q0 36 25.5 62
t63.5 26t64 -26z" />
    <glyph glyph-name="Amacron" unicode="&#x100;" horiz-adv-x="699" 
d="M699 0h-176l-44 122h-258l-44 -122h-177l263 670h173zM429 264l-79 220l-79 -220h158zM516 738h-332v124h332v-124z" />
    <glyph glyph-name="amacron" unicode="&#x101;" horiz-adv-x="644" 
d="M586 502v-502h-160v40q-61 -55 -156 -55q-66 0 -122.5 33.5t-89.5 94.5t-33 138t33 137.5t89.5 94.5t122.5 34q95 0 156 -55v40h160zM364 137.5q28 16.5 45 46t17 67.5q0 37 -17 67t-45 46.5t-61 16.5q-53 0 -87 -36.5t-34 -93.5q0 -58 34 -94t87 -36q33 0 61 16.5z
M487 570h-332v124h332v-124z" />
    <glyph glyph-name="Abreve" unicode="&#x102;" horiz-adv-x="699" 
d="M699 0h-176l-44 122h-258l-44 -122h-177l263 670h173zM429 264l-79 220l-79 -220h158zM220.5 761q-48.5 43 -48.5 115h126q0 -22 15 -36.5t37 -14.5q23 0 37.5 14.5t14.5 36.5h126q0 -72 -48.5 -115t-129.5 -43t-129.5 43z" />
    <glyph glyph-name="abreve" unicode="&#x103;" horiz-adv-x="644" 
d="M586 502v-502h-160v40q-61 -55 -156 -55q-66 0 -122.5 33.5t-89.5 94.5t-33 138t33 137.5t89.5 94.5t122.5 34q95 0 156 -55v40h160zM364 137.5q28 16.5 45 46t17 67.5q0 37 -17 67t-45 46.5t-61 16.5q-53 0 -87 -36.5t-34 -93.5q0 -58 34 -94t87 -36q33 0 61 16.5z
M191.5 593q-48.5 43 -48.5 115h126q0 -22 15 -36.5t37 -14.5q23 0 37.5 14.5t14.5 36.5h126q0 -72 -48.5 -115t-129.5 -43t-129.5 43z" />
    <glyph glyph-name="Aogonek" unicode="&#x104;" horiz-adv-x="699" 
d="M723 -191q-21 -10 -46.5 -16t-46.5 -6q-45 0 -73.5 24.5t-28.5 68.5q0 64 67 120h-72l-44 122h-258l-44 -122h-177l263 670h173l263 -670l-17 -18q-26 -30 -34.5 -42t-8.5 -26q0 -24 28 -24q17 0 50 10zM429 264l-79 220l-79 -220h158z" />
    <glyph glyph-name="aogonek" unicode="&#x105;" horiz-adv-x="644" 
d="M609 -191q-21 -10 -46.5 -16t-46.5 -6q-45 0 -73.5 24.5t-28.5 68.5q0 64 67 120h-55v40q-61 -55 -156 -55q-66 0 -122.5 33.5t-89.5 94.5t-33 138t33 137.5t89.5 94.5t122.5 34q95 0 156 -55v40h160v-502h-1l-17 -18q-26 -30 -34.5 -42t-8.5 -26q0 -24 28 -24
q17 0 50 10zM364 137.5q28 16.5 45 46t17 67.5q0 37 -17 67t-45 46.5t-61 16.5q-53 0 -87 -36.5t-34 -93.5q0 -58 34 -94t87 -36q33 0 61 16.5z" />
    <glyph glyph-name="Cacute" unicode="&#x106;" horiz-adv-x="736" 
d="M703 171q-39 -88 -121.5 -137t-190.5 -49q-98 0 -179.5 46.5t-129 126.5t-47.5 177q0 96 47.5 176.5t129 127t179.5 46.5q95 0 174.5 -41.5t123.5 -115.5l-148 -73q-24 39 -62.5 59t-87.5 20q-52 0 -96 -26t-69.5 -71.5t-25.5 -101.5t25.5 -102t69.5 -72t96 -26
q53 0 93.5 24t63.5 72zM463 735h-142l71 152h190z" />
    <glyph glyph-name="cacute" unicode="&#x107;" horiz-adv-x="570" 
d="M545 147q-27 -75 -94 -118.5t-152 -43.5q-75 0 -137.5 33.5t-99.5 94t-37 138.5q0 77 37 137.5t99.5 94.5t137.5 34q82 0 148.5 -42t95.5 -114l-146 -49q-13 32 -39 48.5t-59 16.5q-54 0 -87 -35.5t-33 -90.5q0 -56 33 -91t87 -35q34 0 60.5 16.5t41.5 50.5zM371 567
h-142l71 152h190z" />
    <glyph glyph-name="Cdotaccent" unicode="&#x10a;" horiz-adv-x="736" 
d="M703 171q-39 -88 -121.5 -137t-190.5 -49q-98 0 -179.5 46.5t-129 126.5t-47.5 177q0 96 47.5 176.5t129 127t179.5 46.5q95 0 174.5 -41.5t123.5 -115.5l-148 -73q-24 39 -62.5 59t-87.5 20q-52 0 -96 -26t-69.5 -71.5t-25.5 -101.5t25.5 -102t69.5 -72t96 -26
q53 0 93.5 24t63.5 72zM454 881.5q26 -25.5 26 -61.5q0 -38 -25.5 -63t-64.5 -25t-64 25t-25 63q0 36 25.5 61.5t63.5 25.5t64 -25.5z" />
    <glyph glyph-name="cdotaccent" unicode="&#x10b;" horiz-adv-x="570" 
d="M545 147q-27 -75 -94 -118.5t-152 -43.5q-75 0 -137.5 33.5t-99.5 94t-37 138.5q0 77 37 137.5t99.5 94.5t137.5 34q82 0 148.5 -42t95.5 -114l-146 -49q-13 32 -39 48.5t-59 16.5q-54 0 -87 -35.5t-33 -90.5q0 -56 33 -91t87 -35q34 0 60.5 16.5t41.5 50.5zM362 713.5
q26 -25.5 26 -61.5q0 -38 -25.5 -63t-64.5 -25t-64 25t-25 63q0 36 25.5 61.5t63.5 25.5t64 -25.5z" />
    <glyph glyph-name="Ccaron" unicode="&#x10c;" horiz-adv-x="736" 
d="M703 171q-39 -88 -121.5 -137t-190.5 -49q-98 0 -179.5 46.5t-129 126.5t-47.5 177q0 96 47.5 176.5t129 127t179.5 46.5q95 0 174.5 -41.5t123.5 -115.5l-148 -73q-24 39 -62.5 59t-87.5 20q-52 0 -96 -26t-69.5 -71.5t-25.5 -101.5t25.5 -102t69.5 -72t96 -26
q53 0 93.5 24t63.5 72zM586 884l-116 -155h-159l-115 155h154l41 -56l40 56h155z" />
    <glyph glyph-name="ccaron" unicode="&#x10d;" horiz-adv-x="570" 
d="M545 147q-27 -75 -94 -118.5t-152 -43.5q-75 0 -137.5 33.5t-99.5 94t-37 138.5q0 77 37 137.5t99.5 94.5t137.5 34q82 0 148.5 -42t95.5 -114l-146 -49q-13 32 -39 48.5t-59 16.5q-54 0 -87 -35.5t-33 -90.5q0 -56 33 -91t87 -35q34 0 60.5 16.5t41.5 50.5zM494 716
l-116 -155h-159l-115 155h154l41 -56l40 56h155z" />
    <glyph glyph-name="Dcaron" unicode="&#x10e;" horiz-adv-x="725" 
d="M515.5 628q83.5 -42 129 -118t45.5 -175t-45.5 -175t-129 -118t-192.5 -42h-265v670h265q109 0 192.5 -42zM467.5 195.5q56.5 52.5 56.5 139.5t-56.5 139.5t-150.5 52.5h-94v-384h94q94 0 150.5 52.5zM548 884l-116 -155h-159l-115 155h154l41 -56l40 56h155z" />
    <glyph glyph-name="dcaron" unicode="&#x10f;" horiz-adv-x="644" 
d="M753 521h-115v199h150zM586 720v-720h-160v40q-61 -55 -156 -55q-66 0 -122.5 33.5t-89.5 94.5t-33 138t33 137.5t89.5 94.5t122.5 34q95 0 156 -55v258h160zM364 137.5q28 16.5 45 46t17 67.5q0 37 -17 67t-45 46.5t-61 16.5q-53 0 -87 -36.5t-34 -93.5q0 -58 34 -94
t87 -36q33 0 61 16.5z" />
    <glyph glyph-name="Dcroat" unicode="&#x110;" horiz-adv-x="733" 
d="M534 628q83 -42 128.5 -118t45.5 -175t-45.5 -175t-128.5 -118t-192 -42h-265v263h-54v144h54v263h265q109 0 192 -42zM486 195.5q57 52.5 57 139.5t-57 139.5t-151 52.5h-94v-120h113v-144h-113v-120h94q94 0 151 52.5z" />
    <glyph glyph-name="dcroat" unicode="&#x111;" horiz-adv-x="662" 
d="M636 546h-50v-546h-160v40q-61 -55 -156 -55q-66 0 -122.5 33.5t-89.5 94.5t-33 138t33 137.5t89.5 94.5t122.5 34q95 0 156 -55v84h-135v119h135v55h160v-55h50v-119zM364 137.5q28 16.5 45 46t17 67.5q0 37 -17 67t-45 46.5t-61 16.5q-53 0 -87 -36.5t-34 -93.5
q0 -58 34 -94t87 -36q33 0 61 16.5z" />
    <glyph glyph-name="Emacron" unicode="&#x112;" horiz-adv-x="625" 
d="M580 142v-142h-522v670h519v-142h-354v-126h325v-134h-325v-126h357zM494 738h-332v124h332v-124z" />
    <glyph glyph-name="emacron" unicode="&#x113;" horiz-adv-x="575" 
d="M550 210h-368q10 -45 41 -71t74 -26q67 0 102 44l127 -60q-36 -56 -94.5 -84t-134.5 -28q-74 0 -136.5 33.5t-99 94t-36.5 138.5q0 77 35.5 137.5t96.5 94.5t134 34q71 0 129.5 -32.5t93.5 -93t36 -140.5v-41zM225.5 366q-29.5 -21 -40.5 -58h207q-12 39 -39 59t-62 20
q-36 0 -65.5 -21zM459 570h-332v124h332v-124z" />
    <glyph glyph-name="Edotaccent" unicode="&#x116;" horiz-adv-x="625" 
d="M580 142v-142h-522v670h519v-142h-354v-126h325v-134h-325v-126h357zM391 881.5q26 -25.5 26 -61.5q0 -38 -25.5 -63t-64.5 -25t-64 25t-25 63q0 36 25.5 61.5t63.5 25.5t64 -25.5z" />
    <glyph glyph-name="edotaccent" unicode="&#x117;" horiz-adv-x="575" 
d="M550 210h-368q10 -45 41 -71t74 -26q67 0 102 44l127 -60q-36 -56 -94.5 -84t-134.5 -28q-74 0 -136.5 33.5t-99 94t-36.5 138.5q0 77 35.5 137.5t96.5 94.5t134 34q71 0 129.5 -32.5t93.5 -93t36 -140.5v-41zM225.5 366q-29.5 -21 -40.5 -58h207q-12 39 -39 59t-62 20
q-36 0 -65.5 -21zM356 713.5q26 -25.5 26 -61.5q0 -38 -25.5 -63t-64.5 -25t-64 25t-25 63q0 36 25.5 61.5t63.5 25.5t64 -25.5z" />
    <glyph glyph-name="Eogonek" unicode="&#x118;" horiz-adv-x="625" 
d="M551 0l-17 -18q-26 -30 -34.5 -42t-8.5 -26q0 -24 28 -24q17 0 50 10l6 -91q-21 -10 -46.5 -16t-46.5 -6q-45 0 -73.5 24.5t-28.5 68.5q0 64 67 120h-389v670h519v-142h-354v-126h325v-134h-325v-126h357v-142h-29z" />
    <glyph glyph-name="eogonek" unicode="&#x119;" horiz-adv-x="575" 
d="M550 210h-368q10 -45 41 -71t74 -26q67 0 102 44l127 -60q-13 -21 -35 -43l-40 -44q-39 -43 -49.5 -56.5t-10.5 -29.5q0 -24 28 -24q16 0 49 10l7 -91q-22 -10 -47.5 -16t-46.5 -6q-45 0 -73.5 24.5t-28.5 68.5q0 50 42 96q-8 -1 -24 -1q-74 0 -136.5 33.5t-99 94
t-36.5 138.5q0 77 35.5 137.5t96.5 94.5t134 34q71 0 129.5 -32.5t93.5 -93t36 -140.5v-41zM225.5 366q-29.5 -21 -40.5 -58h207q-12 39 -39 59t-62 20q-36 0 -65.5 -21z" />
    <glyph glyph-name="Ecaron" unicode="&#x11a;" horiz-adv-x="625" 
d="M580 142v-142h-522v670h519v-142h-354v-126h325v-134h-325v-126h357zM524 884l-116 -155h-159l-115 155h154l41 -56l40 56h155z" />
    <glyph glyph-name="ecaron" unicode="&#x11b;" horiz-adv-x="575" 
d="M550 210h-368q10 -45 41 -71t74 -26q67 0 102 44l127 -60q-36 -56 -94.5 -84t-134.5 -28q-74 0 -136.5 33.5t-99 94t-36.5 138.5q0 77 35.5 137.5t96.5 94.5t134 34q71 0 129.5 -32.5t93.5 -93t36 -140.5v-41zM225.5 366q-29.5 -21 -40.5 -58h207q-12 39 -39 59t-62 20
q-36 0 -65.5 -21zM489 716l-116 -155h-159l-115 155h154l41 -56l40 56h155z" />
    <glyph glyph-name="Gbreve" unicode="&#x11e;" horiz-adv-x="778" 
d="M743 334q0 -100 -44.5 -179.5t-123.5 -124.5t-179 -45t-182.5 46.5t-130.5 126.5t-48 177q0 96 48.5 176.5t131 127t181.5 46.5q80 0 150 -30t118 -86l-135 -92q-49 57 -133 57q-54 0 -98.5 -26t-70.5 -71.5t-26 -101.5t26 -102t71 -72t100 -26q65 0 111 32t65 88h-158
v140h323q4 -32 4 -61zM268.5 761q-48.5 43 -48.5 115h126q0 -22 15 -36.5t37 -14.5q23 0 37.5 14.5t14.5 36.5h126q0 -72 -48.5 -115t-129.5 -43t-129.5 43z" />
    <glyph glyph-name="gbreve" unicode="&#x11f;" horiz-adv-x="634" 
d="M575 50q0 -75 -38.5 -129.5t-104.5 -82.5t-146 -28q-146 0 -221 76l102 100q29 -24 54.5 -34.5t62.5 -10.5q56 0 95 32.5t39 89.5v15q-55 -49 -151 -49q-65 0 -120.5 32t-88.5 88.5t-33 125.5q0 68 33 123.5t88.5 87t120.5 31.5q97 0 151 -48v33h157v-452zM384 192.5
q34 32.5 34 82.5q0 49 -34 81.5t-83 32.5q-53 0 -86.5 -32t-33.5 -82t34 -82.5t86 -32.5q49 0 83 32.5zM184.5 593q-48.5 43 -48.5 115h126q0 -22 15 -36.5t37 -14.5q23 0 37.5 14.5t14.5 36.5h126q0 -72 -48.5 -115t-129.5 -43t-129.5 43z" />
    <glyph glyph-name="Gdotaccent" unicode="&#x120;" horiz-adv-x="778" 
d="M743 334q0 -100 -44.5 -179.5t-123.5 -124.5t-179 -45t-182.5 46.5t-130.5 126.5t-48 177q0 96 48.5 176.5t131 127t181.5 46.5q80 0 150 -30t118 -86l-135 -92q-49 57 -133 57q-54 0 -98.5 -26t-70.5 -71.5t-26 -101.5t26 -102t71 -72t100 -26q65 0 111 32t65 88h-158
v140h323q4 -32 4 -61zM461 881.5q26 -25.5 26 -61.5q0 -38 -25.5 -63t-64.5 -25t-64 25t-25 63q0 36 25.5 61.5t63.5 25.5t64 -25.5z" />
    <glyph glyph-name="gdotaccent" unicode="&#x121;" horiz-adv-x="634" 
d="M575 50q0 -75 -38.5 -129.5t-104.5 -82.5t-146 -28q-146 0 -221 76l102 100q29 -24 54.5 -34.5t62.5 -10.5q56 0 95 32.5t39 89.5v15q-55 -49 -151 -49q-65 0 -120.5 32t-88.5 88.5t-33 125.5q0 68 33 123.5t88.5 87t120.5 31.5q97 0 151 -48v33h157v-452zM384 192.5
q34 32.5 34 82.5q0 49 -34 81.5t-83 32.5q-53 0 -86.5 -32t-33.5 -82t34 -82.5t86 -32.5q49 0 83 32.5zM377 713.5q26 -25.5 26 -61.5q0 -38 -25.5 -63t-64.5 -25t-64 25t-25 63q0 36 25.5 61.5t63.5 25.5t64 -25.5z" />
    <glyph glyph-name="Gcommaaccent" unicode="&#x122;" horiz-adv-x="778" 
d="M743 334q0 -100 -44.5 -179.5t-123.5 -124.5t-179 -45t-182.5 46.5t-130.5 126.5t-48 177q0 96 48.5 176.5t131 127t181.5 46.5q80 0 150 -30t118 -86l-135 -92q-49 57 -133 57q-54 0 -98.5 -26t-70.5 -71.5t-26 -101.5t26 -102t71 -72t100 -26q65 0 111 32t65 88h-158
v140h323q4 -32 4 -61zM260 -202l51 157h162l-99 -157h-114z" />
    <glyph glyph-name="gcommaaccent" unicode="&#x123;" horiz-adv-x="634" 
d="M397 564h-162l99 157h114zM575 50q0 -75 -38.5 -129.5t-104.5 -82.5t-146 -28q-146 0 -221 76l102 100q29 -24 54.5 -34.5t62.5 -10.5q56 0 95 32.5t39 89.5v15q-55 -49 -151 -49q-65 0 -120.5 32t-88.5 88.5t-33 125.5q0 68 33 123.5t88.5 87t120.5 31.5q97 0 151 -48
v33h157v-452zM384 192.5q34 32.5 34 82.5q0 49 -34 81.5t-83 32.5q-53 0 -86.5 -32t-33.5 -82t34 -82.5t86 -32.5q49 0 83 32.5z" />
    <glyph glyph-name="Hbar" unicode="&#x126;" horiz-adv-x="764" 
d="M738 439h-54v-439h-165v221h-277v-221h-164v439h-55v127h55v104h164v-104h277v104h165v-104h54v-127zM519 439h-277v-81h277v81z" />
    <glyph glyph-name="hbar" unicode="&#x127;" horiz-adv-x="637" 
d="M493 491q44 -26 68.5 -73.5t24.5 -109.5v-308h-160v274q0 44 -23.5 71.5t-62.5 27.5q-49 0 -76.5 -34.5t-27.5 -105.5v-233h-159v556h-54v109h54v55h159v-55h132v-109h-132v-103q61 64 155 64q58 0 102 -26z" />
    <glyph glyph-name="Imacron" unicode="&#x12a;" horiz-adv-x="281" 
d="M223 0h-165v670h165v-670zM307 738h-332v124h332v-124z" />
    <glyph glyph-name="imacron" unicode="&#x12b;" horiz-adv-x="297" 
d="M228 0h-159v502h159v-502zM315 570h-332v124h332v-124z" />
    <glyph glyph-name="Iogonek" unicode="&#x12e;" horiz-adv-x="281" 
d="M246 -191q-21 -10 -46.5 -16t-46.5 -6q-45 0 -73.5 24.5t-28.5 68.5q0 64 67 120h-60v670h165v-670h-1l-17 -18q-26 -30 -34.5 -42t-8.5 -26q0 -24 28 -24q17 0 50 10z" />
    <glyph glyph-name="iogonek" unicode="&#x12f;" horiz-adv-x="297" 
d="M84 589q-25 25 -25 63q0 36 25.5 61.5t63.5 25.5t64 -25.5t26 -61.5q0 -38 -25.5 -63t-64.5 -25t-64 25zM252 -191q-21 -10 -46.5 -16t-46.5 -6q-45 0 -73.5 24.5t-28.5 68.5q0 64 67 120h-55v502h159v-502l-17 -18q-26 -30 -34.5 -42t-8.5 -26q0 -24 28 -24q17 0 50 10z
" />
    <glyph glyph-name="Idotaccent" unicode="&#x130;" horiz-adv-x="281" 
d="M223 0h-165v670h165v-670zM204 881.5q26 -25.5 26 -61.5q0 -38 -25.5 -63t-64.5 -25t-64 25t-25 63q0 36 25.5 61.5t63.5 25.5t64 -25.5z" />
    <glyph glyph-name="dotlessi" unicode="&#x131;" horiz-adv-x="297" 
d="M228 0h-159v502h159v-502z" />
    <glyph glyph-name="IJ" unicode="&#x132;" horiz-adv-x="889" 
d="M223 0h-165v670h165v-670zM833 670v-429q0 -74 -34 -132.5t-95 -91t-141 -32.5q-112 0 -182.5 61t-85.5 164l160 32q5 -52 33 -81t75 -29t76 30.5t29 78.5v429h165z" />
    <glyph glyph-name="ij" unicode="&#x133;" horiz-adv-x="596" 
d="M212.5 714q26.5 -27 26.5 -64q0 -38 -26.5 -63.5t-66.5 -25.5t-66 25.5t-26 63.5t26 64.5t66 26.5t66.5 -27zM226 0h-160v502h160v-502zM515.5 714q26.5 -27 26.5 -64q0 -38 -26.5 -63.5t-66.5 -25.5t-66 25.5t-26 63.5t26 64.5t66 26.5t66.5 -27zM329 -41q19 0 30.5 11
t11.5 29v503h159v-521q0 -73 -43.5 -117t-116.5 -44q-53 0 -105 21l24 126q26 -8 40 -8z" />
    <glyph glyph-name="Kcommaaccent" unicode="&#x136;" horiz-adv-x="655" 
d="M658 0h-212l-204 252h-19v-252h-165v670h165v-266h19l211 266h187l-270 -337zM196 -202l51 157h162l-99 -157h-114z" />
    <glyph glyph-name="kcommaaccent" unicode="&#x137;" horiz-adv-x="612" 
d="M615 0h-218l-168 181h-11v-181h-160v720h160v-389h8l167 171h199l-243 -237zM181 -202l51 157h162l-99 -157h-114z" />
    <glyph glyph-name="Lacute" unicode="&#x139;" horiz-adv-x="587" 
d="M553 144v-144h-495v670h165v-526h330zM214 735h-142l71 152h190z" />
    <glyph glyph-name="lacute" unicode="&#x13a;" horiz-adv-x="276" 
d="M218 0h-160v720h160v-720zM212 785h-142l71 152h190z" />
    <glyph glyph-name="Lcommaaccent" unicode="&#x13b;" horiz-adv-x="587" 
d="M553 144v-144h-495v670h165v-526h330zM170 -202l51 157h162l-99 -157h-114z" />
    <glyph glyph-name="lcommaaccent" unicode="&#x13c;" horiz-adv-x="276" 
d="M218 0h-160v720h160v-720zM8 -202l51 157h162l-99 -157h-114z" />
    <glyph glyph-name="Lcaron" unicode="&#x13d;" horiz-adv-x="587" 
d="M553 144v-144h-495v670h165v-526h330zM422 471h-115v199h150z" />
    <glyph glyph-name="lcaron" unicode="&#x13e;" horiz-adv-x="276" 
d="M218 0h-160v720h160v-720zM388 521h-115v199h150z" />
    <glyph glyph-name="Ldot" unicode="&#x13f;" horiz-adv-x="590" 
d="M553 144v-144h-495v670h165v-526h330zM479 420.5q26 -25.5 26 -61.5q0 -38 -25.5 -63t-64.5 -25t-64 25t-25 63q0 36 25.5 61.5t63.5 25.5t64 -25.5z" />
    <glyph glyph-name="ldot" unicode="&#x140;" horiz-adv-x="437" 
d="M218 0h-160v720h160v-720zM405 420.5q26 -25.5 26 -61.5q0 -38 -25.5 -63t-64.5 -25t-64 25t-25 63q0 36 25.5 61.5t63.5 25.5t64 -25.5z" />
    <glyph glyph-name="Lslash" unicode="&#x141;" horiz-adv-x="605" 
d="M573 144v-144h-495v218l-55 -25v143l55 25v309h165v-233l109 49v-143l-109 -50v-149h330z" />
    <glyph glyph-name="lslash" unicode="&#x142;" horiz-adv-x="322" 
d="M299 356l-58 -32v-324h-159v238l-59 -32v150l59 32v332h159v-245l58 31v-150z" />
    <glyph glyph-name="Nacute" unicode="&#x143;" horiz-adv-x="757" 
d="M698 670v-670h-136l-339 388v-388h-165v670h137l339 -400v400h164zM454 735h-142l71 152h190z" />
    <glyph glyph-name="nacute" unicode="&#x144;" horiz-adv-x="618" 
d="M474 491q44 -26 68.5 -73.5t24.5 -109.5v-308h-159v274q0 44 -24 71.5t-62 27.5q-49 0 -76.5 -34.5t-27.5 -105.5v-233h-160v502h160v-48q61 63 154 63q58 0 102 -26zM385 567h-142l71 152h190z" />
    <glyph glyph-name="Ncommaaccent" unicode="&#x145;" horiz-adv-x="757" 
d="M698 670v-670h-136l-339 388v-388h-165v670h137l339 -400v400h164zM267 -202l51 157h162l-99 -157h-114z" />
    <glyph glyph-name="ncommaaccent" unicode="&#x146;" horiz-adv-x="618" 
d="M474 491q44 -26 68.5 -73.5t24.5 -109.5v-308h-159v274q0 44 -24 71.5t-62 27.5q-49 0 -76.5 -34.5t-27.5 -105.5v-233h-160v502h160v-48q61 63 154 63q58 0 102 -26zM183 -202l51 157h162l-99 -157h-114z" />
    <glyph glyph-name="Ncaron" unicode="&#x147;" horiz-adv-x="757" 
d="M698 670v-670h-136l-339 388v-388h-165v670h137l339 -400v400h164zM578 884l-116 -155h-159l-115 155h154l41 -56l40 56h155z" />
    <glyph glyph-name="ncaron" unicode="&#x148;" horiz-adv-x="618" 
d="M474 491q44 -26 68.5 -73.5t24.5 -109.5v-308h-159v274q0 44 -24 71.5t-62 27.5q-49 0 -76.5 -34.5t-27.5 -105.5v-233h-160v502h160v-48q61 63 154 63q58 0 102 -26zM508 716l-116 -155h-159l-115 155h154l41 -56l40 56h155z" />
    <glyph glyph-name="Eng" unicode="&#x14a;" horiz-adv-x="743" 
d="M698 670v-694q0 -70 -44 -113t-116 -43q-38 0 -65.5 6t-58.5 17l22 112q47 -9 61 -9q19 0 30.5 9.5t11.5 27.5v44l-316 361v-388h-165v670h137l339 -400v400h164z" />
    <glyph glyph-name="eng" unicode="&#x14b;" horiz-adv-x="619" 
d="M474 491q44 -26 68.5 -73.5t24.5 -109.5v-332q0 -70 -44 -113t-116 -43q-38 0 -65.5 6t-58.5 17l22 112q47 -9 61 -9q19 0 30.5 9.5t11.5 27.5v291q0 44 -24 71.5t-62 27.5q-49 0 -76.5 -34.5t-27.5 -105.5v-233h-160v502h160v-48q61 63 154 63q58 0 102 -26z" />
    <glyph glyph-name="Omacron" unicode="&#x14c;" horiz-adv-x="784" 
d="M572 638q82 -47 129.5 -127t47.5 -177q0 -96 -47.5 -176t-129.5 -126.5t-180 -46.5t-180 46.5t-129.5 126.5t-47.5 176q0 97 47.5 177t129.5 127t180 47t180 -47zM490 161.5q44 25.5 69 71t25 101.5q0 57 -25 102.5t-69 71.5t-98 26t-98 -26t-69 -71.5t-25 -102.5
q0 -56 25 -101.5t69 -71t98 -25.5t98 25.5zM558 738h-332v124h332v-124z" />
    <glyph glyph-name="omacron" unicode="&#x14d;" horiz-adv-x="603" 
d="M441 481.5q63 -33.5 100 -93.5t37 -137t-37 -137.5t-100 -94t-138 -33.5q-76 0 -139.5 33.5t-101 94t-37.5 137.5t37.5 137t101 93.5t139.5 33.5q75 0 138 -33.5zM362 137.5q28 16.5 45 46t17 67.5t-17 67.5t-45 46t-59 16.5q-33 0 -61.5 -16.5t-45.5 -46t-17 -67.5
t17 -68t45.5 -46t61.5 -16q31 0 59 16.5zM469 570h-332v124h332v-124z" />
    <glyph glyph-name="Ohungarumlaut" unicode="&#x150;" horiz-adv-x="784" 
d="M572 638q82 -47 129.5 -127t47.5 -177q0 -96 -47.5 -176t-129.5 -126.5t-180 -46.5t-180 46.5t-129.5 126.5t-47.5 176q0 97 47.5 177t129.5 127t180 47t180 -47zM490 161.5q44 25.5 69 71t25 101.5q0 57 -25 102.5t-69 71.5t-98 26t-98 -26t-69 -71.5t-25 -102.5
q0 -56 25 -101.5t69 -71t98 -25.5t98 25.5zM356 735h-137l74 152h180zM556 735h-136l74 152h183z" />
    <glyph glyph-name="ohungarumlaut" unicode="&#x151;" horiz-adv-x="603" 
d="M441 481.5q63 -33.5 100 -93.5t37 -137t-37 -137.5t-100 -94t-138 -33.5q-76 0 -139.5 33.5t-101 94t-37.5 137.5t37.5 137t101 93.5t139.5 33.5q75 0 138 -33.5zM362 137.5q28 16.5 45 46t17 67.5t-17 67.5t-45 46t-59 16.5q-33 0 -61.5 -16.5t-45.5 -46t-17 -67.5
t17 -68t45.5 -46t61.5 -16q31 0 59 16.5zM267 567h-137l74 152h180zM467 567h-136l74 152h183z" />
    <glyph glyph-name="OE" unicode="&#x152;" horiz-adv-x="1029" 
d="M984 142v-142h-565q-113 0 -200.5 43t-135.5 119t-48 173t48 173t135.5 119t200.5 43h562v-142h-354v-126h325v-134h-325v-126h357zM462 142v386h-43q-103 0 -161 -53t-58 -140t58 -140t161 -53h43z" />
    <glyph glyph-name="oe" unicode="&#x153;" horiz-adv-x="974" 
d="M949 210h-368q10 -45 41 -71t74 -26q67 0 102 44l128 -60q-36 -56 -94.5 -84t-135.5 -28q-57 0 -107.5 20t-88.5 57q-38 -36 -89 -56t-108 -20q-76 0 -139.5 33.5t-101 94t-37.5 137.5t37.5 137t101 93.5t139.5 33.5q57 0 107.5 -19.5t88.5 -55.5q37 37 86.5 57t105.5 20
q71 0 129 -32.5t93 -93t36 -140.5v-41zM625 366q-30 -21 -41 -58h207q-11 39 -38 59t-62 20q-36 0 -66 -21zM385.5 155q35.5 34 38.5 88v8v8q-3 54 -38.5 88t-82.5 34q-33 0 -61.5 -16.5t-45.5 -46t-17 -67.5t17 -68t45.5 -46t61.5 -16q47 0 82.5 34z" />
    <glyph glyph-name="Racute" unicode="&#x154;" horiz-adv-x="679" 
d="M659 0h-206l-145 203h-85v-203h-165v670h316q75 0 135 -29t94.5 -82t34.5 -121q0 -77 -41.5 -133.5t-113.5 -82.5zM223 341h143q48 0 79 26.5t31 68.5q0 41 -31 67t-79 26h-143v-188zM390 735h-142l71 152h190z" />
    <glyph glyph-name="racute" unicode="&#x155;" horiz-adv-x="437" 
d="M427 505l-7 -160h-29q-173 0 -173 -188v-157h-160v502h160v-96q62 103 173 103q20 0 36 -4zM306 567h-142l71 152h190z" />
    <glyph glyph-name="Rcommaaccent" unicode="&#x156;" horiz-adv-x="679" 
d="M659 0h-206l-145 203h-85v-203h-165v670h316q75 0 135 -29t94.5 -82t34.5 -121q0 -77 -41.5 -133.5t-113.5 -82.5zM223 341h143q48 0 79 26.5t31 68.5q0 41 -31 67t-79 26h-143v-188zM198 -202l51 157h162l-99 -157h-114z" />
    <glyph glyph-name="rcommaaccent" unicode="&#x157;" horiz-adv-x="437" 
d="M427 505l-7 -160h-29q-173 0 -173 -188v-157h-160v502h160v-96q62 103 173 103q20 0 36 -4zM8 -202l51 157h162l-99 -157h-114z" />
    <glyph glyph-name="Rcaron" unicode="&#x158;" horiz-adv-x="679" 
d="M659 0h-206l-145 203h-85v-203h-165v670h316q75 0 135 -29t94.5 -82t34.5 -121q0 -77 -41.5 -133.5t-113.5 -82.5zM223 341h143q48 0 79 26.5t31 68.5q0 41 -31 67t-79 26h-143v-188zM513 884l-116 -155h-159l-115 155h154l41 -56l40 56h155z" />
    <glyph glyph-name="rcaron" unicode="&#x159;" horiz-adv-x="437" 
d="M427 505l-7 -160h-29q-173 0 -173 -188v-157h-160v502h160v-96q62 103 173 103q20 0 36 -4zM429 716l-116 -155h-159l-115 155h154l41 -56l40 56h155z" />
    <glyph glyph-name="Sacute" unicode="&#x15a;" horiz-adv-x="646" 
d="M149 28q-77 43 -103 121l165 59q29 -86 128 -86q46 0 72.5 19t26.5 50q0 24 -13.5 38t-48.5 21l-134 30q-180 39 -180 194q0 64 33.5 112t94 73.5t138.5 25.5q95 0 163.5 -38.5t98.5 -108.5l-156 -51q-15 32 -44.5 48.5t-63.5 16.5q-40 0 -65 -19.5t-25 -48.5
q0 -22 11.5 -36t41.5 -20l133 -31q184 -43 184 -195q0 -69 -37 -118t-100 -74t-139 -25q-104 0 -181 43zM402 735h-142l71 152h190z" />
    <glyph glyph-name="sacute" unicode="&#x15b;" horiz-adv-x="515" 
d="M214.5 116q22.5 -12 54.5 -12q30 0 47.5 11.5t17.5 28.5q0 14 -11 23t-38 14l-98 20q-71 14 -108.5 50.5t-37.5 95.5q0 51 27.5 89.5t76.5 59.5t112 21q82 0 138.5 -30.5t80.5 -84.5l-142 -43q-9 19 -29.5 31.5t-49.5 12.5q-30 0 -43.5 -11.5t-13.5 -27.5q0 -12 8 -21
t30 -14l113 -24q70 -15 104.5 -54.5t34.5 -96.5q0 -81 -63 -125t-165 -44q-83 0 -144.5 28.5t-83.5 86.5l152 53q8 -25 30.5 -37zM335 567h-142l71 152h190z" />
    <glyph glyph-name="Scedilla" unicode="&#x15e;" horiz-adv-x="646" 
d="M546 57.5q-60 -55.5 -156 -68.5l-46 -149h-166l93 149q-83 11 -143 52.5t-82 107.5l165 59q29 -86 128 -86q46 0 72.5 19t26.5 50q0 24 -13.5 38t-48.5 21l-134 30q-180 39 -180 194q0 64 33.5 112t94 73.5t138.5 25.5q95 0 163.5 -38.5t98.5 -108.5l-156 -51
q-15 32 -44.5 48.5t-63.5 16.5q-40 0 -65 -19.5t-25 -48.5q0 -22 11.5 -36t41.5 -20l133 -31q184 -43 184 -195q0 -89 -60 -144.5z" />
    <glyph glyph-name="scedilla" unicode="&#x15f;" horiz-adv-x="515" 
d="M445.5 46q-42.5 -42 -116.5 -55l-46 -151h-166l92 148q-65 8 -111.5 36t-65.5 76l152 53q8 -25 30.5 -37t54.5 -12q30 0 47.5 11.5t17.5 28.5q0 14 -11 23t-38 14l-98 20q-71 14 -108.5 50.5t-37.5 95.5q0 51 27.5 89.5t76.5 59.5t112 21q82 0 138.5 -30.5t80.5 -84.5
l-142 -43q-9 19 -29.5 31.5t-49.5 12.5q-30 0 -43.5 -11.5t-13.5 -27.5q0 -12 8 -21t30 -14l113 -24q70 -15 104.5 -54.5t34.5 -96.5q0 -66 -42.5 -108z" />
    <glyph glyph-name="Scaron" unicode="&#x160;" horiz-adv-x="646" 
d="M149 28q-77 43 -103 121l165 59q29 -86 128 -86q46 0 72.5 19t26.5 50q0 24 -13.5 38t-48.5 21l-134 30q-180 39 -180 194q0 64 33.5 112t94 73.5t138.5 25.5q95 0 163.5 -38.5t98.5 -108.5l-156 -51q-15 32 -44.5 48.5t-63.5 16.5q-40 0 -65 -19.5t-25 -48.5
q0 -22 11.5 -36t41.5 -20l133 -31q184 -43 184 -195q0 -69 -37 -118t-100 -74t-139 -25q-104 0 -181 43zM525 884l-116 -155h-159l-115 155h154l41 -56l40 56h155z" />
    <glyph glyph-name="scaron" unicode="&#x161;" horiz-adv-x="515" 
d="M214.5 116q22.5 -12 54.5 -12q30 0 47.5 11.5t17.5 28.5q0 14 -11 23t-38 14l-98 20q-71 14 -108.5 50.5t-37.5 95.5q0 51 27.5 89.5t76.5 59.5t112 21q82 0 138.5 -30.5t80.5 -84.5l-142 -43q-9 19 -29.5 31.5t-49.5 12.5q-30 0 -43.5 -11.5t-13.5 -27.5q0 -12 8 -21
t30 -14l113 -24q70 -15 104.5 -54.5t34.5 -96.5q0 -81 -63 -125t-165 -44q-83 0 -144.5 28.5t-83.5 86.5l152 53q8 -25 30.5 -37zM458 716l-116 -155h-159l-115 155h154l41 -56l40 56h155z" />
    <glyph glyph-name="uni0163" unicode="&#x163;" horiz-adv-x="433" 
d="M323 -13l-45 -146h-166l98 157q-56 19 -86.5 66.5t-30.5 120.5v190h-91v127h91v148h160v-148h148v-127h-148v-174q0 -73 67 -73q17 0 37 5.5t36 14.5l37 -126q-57 -30 -107 -35z" />
    <glyph glyph-name="Tcaron" unicode="&#x164;" horiz-adv-x="638" 
d="M618 526h-217v-526h-164v526h-217v144h598v-144zM515 884l-116 -155h-159l-115 155h154l41 -56l40 56h155z" />
    <glyph glyph-name="tcaron" unicode="&#x165;" horiz-adv-x="433" 
d="M430 22q-33 -18 -65 -27.5t-72 -9.5q-95 0 -147.5 51t-52.5 149v190h-91v127h91v148h160v-148h148v-127h-148v-174q0 -73 67 -73q17 0 37 5.5t36 14.5zM411 536h-115v199h150z" />
    <glyph glyph-name="Tbar" unicode="&#x166;" horiz-adv-x="638" 
d="M401 526v-135h114v-131h-114v-260h-164v260h-114v131h114v135h-217v144h598v-144h-217z" />
    <glyph glyph-name="tbar" unicode="&#x167;" horiz-adv-x="443" 
d="M440 22q-33 -18 -65 -27.5t-72 -9.5q-95 0 -147.5 51t-52.5 149v45h-84v112h84v40h-105v120h105v148h160v-148h138v-120h-138v-40h88v-112h-88v-29q0 -73 67 -73q17 0 37 5.5t36 14.5z" />
    <glyph glyph-name="Umacron" unicode="&#x16a;" horiz-adv-x="713" 
d="M657 670v-368q0 -95 -37 -167t-104.5 -111t-155.5 -39q-90 0 -159 39t-107 111t-38 167v368h165v-368q0 -76 38 -120.5t101 -44.5q60 0 96 44.5t36 120.5v368h165zM522 738h-332v124h332v-124z" />
    <glyph glyph-name="umacron" unicode="&#x16b;" horiz-adv-x="618" 
d="M560 502v-502h-160v48q-29 -30 -68 -46.5t-86 -16.5q-58 0 -102 26t-68.5 73.5t-24.5 109.5v308h159v-274q0 -44 24 -71.5t62 -27.5q49 0 76.5 34.5t27.5 105.5v233h160zM473 570h-332v124h332v-124z" />
    <glyph glyph-name="Uring" unicode="&#x16e;" horiz-adv-x="713" 
d="M657 670v-368q0 -95 -37 -167t-104.5 -111t-155.5 -39q-90 0 -159 39t-107 111t-38 167v368h165v-368q0 -76 38 -120.5t101 -44.5q60 0 96 44.5t36 120.5v368h165zM445.5 746.5q-36.5 -35.5 -89.5 -35.5t-89.5 35.5t-36.5 86.5q0 52 36.5 87.5t89.5 35.5t89.5 -35.5
t36.5 -87.5q0 -51 -36.5 -86.5zM385 861.5q-12 11.5 -29 11.5t-29 -11.5t-12 -28.5q0 -16 12 -27.5t29 -11.5t29 11.5t12 27.5q0 17 -12 28.5z" />
    <glyph glyph-name="uring" unicode="&#x16f;" horiz-adv-x="618" 
d="M560 502v-502h-160v48q-29 -30 -68 -46.5t-86 -16.5q-58 0 -102 26t-68.5 73.5t-24.5 109.5v308h159v-274q0 -44 24 -71.5t62 -27.5q49 0 76.5 34.5t27.5 105.5v233h160zM396.5 578.5q-36.5 -35.5 -89.5 -35.5t-89.5 35.5t-36.5 86.5q0 52 36.5 87.5t89.5 35.5
t89.5 -35.5t36.5 -87.5q0 -51 -36.5 -86.5zM336 693.5q-12 11.5 -29 11.5t-29 -11.5t-12 -28.5q0 -16 12 -27.5t29 -11.5t29 11.5t12 27.5q0 17 -12 28.5z" />
    <glyph glyph-name="Uhungarumlaut" unicode="&#x170;" horiz-adv-x="713" 
d="M657 670v-368q0 -95 -37 -167t-104.5 -111t-155.5 -39q-90 0 -159 39t-107 111t-38 167v368h165v-368q0 -76 38 -120.5t101 -44.5q60 0 96 44.5t36 120.5v368h165zM320 735h-137l74 152h180zM520 735h-136l74 152h183z" />
    <glyph glyph-name="uhungarumlaut" unicode="&#x171;" horiz-adv-x="618" 
d="M560 502v-502h-160v48q-29 -30 -68 -46.5t-86 -16.5q-58 0 -102 26t-68.5 73.5t-24.5 109.5v308h159v-274q0 -44 24 -71.5t62 -27.5q49 0 76.5 34.5t27.5 105.5v233h160zM271 567h-137l74 152h180zM471 567h-136l74 152h183z" />
    <glyph glyph-name="Uogonek" unicode="&#x172;" horiz-adv-x="713" 
d="M490 -18q-19 -25 -19 -58q0 -14 8.5 -22t22.5 -8t56 14l25 -93q-63 -33 -124 -33q-48 0 -79.5 27t-31.5 69q0 56 47 109q-22 -2 -35 -2q-90 0 -159 38t-107 108t-38 162v377h165v-377q0 -72 38 -114t101 -42q60 0 96 42t36 114v377h165v-377q0 -148 -101 -241
q-47 -45 -66 -70z" />
    <glyph glyph-name="uogonek" unicode="&#x173;" horiz-adv-x="618" 
d="M584 -191q-21 -10 -46.5 -16t-46.5 -6q-45 0 -73.5 24.5t-28.5 68.5q0 64 67 120h-56v48q-29 -30 -68 -46.5t-86 -16.5q-58 0 -102 26t-68.5 73.5t-24.5 109.5v308h159v-274q0 -44 24 -71.5t62 -27.5q49 0 76.5 34.5t27.5 105.5v233h160v-502l-17 -18q-26 -30 -34.5 -42
t-8.5 -26q0 -24 28 -24q17 0 50 10z" />
    <glyph glyph-name="Wcircumflex" unicode="&#x174;" horiz-adv-x="973" 
d="M967 670l-191 -670h-177l-112 414l-113 -414h-176l-191 670h169l117 -422l115 422h157l115 -422l117 422h170zM527 729l-40 56l-41 -56h-154l115 155h159l116 -155h-155z" />
    <glyph glyph-name="wcircumflex" unicode="&#x175;" horiz-adv-x="795" 
d="M788 502l-161 -503h-139l-90 272l-91 -272h-139l-161 503h157l83 -270l94 270h113l94 -270l83 270h157zM439 561l-40 56l-41 -56h-154l115 155h159l116 -155h-155z" />
    <glyph glyph-name="Ycircumflex" unicode="&#x176;" horiz-adv-x="706" 
d="M434 209v-209h-168v208l-259 462h180l165 -294l163 294h184zM393 729l-40 56l-41 -56h-154l115 155h159l116 -155h-155z" />
    <glyph glyph-name="ycircumflex" unicode="&#x177;" horiz-adv-x="604" 
d="M597 503l-330 -673h-173l120 243l-207 430h172l123 -250l123 250h172zM343 562l-40 56l-41 -56h-154l115 155h159l116 -155h-155z" />
    <glyph glyph-name="Ydieresis" unicode="&#x178;" horiz-adv-x="706" 
d="M434 209v-209h-168v208l-259 462h180l165 -294l163 294h184zM303 873q26 -26 26 -62q0 -38 -25.5 -62.5t-64.5 -24.5t-64 24.5t-25 62.5q0 36 25.5 62t63.5 26t64 -26zM531 873q26 -26 26 -62q0 -38 -25.5 -62.5t-64.5 -24.5t-64 24.5t-25 62.5q0 36 25.5 62t63.5 26
t64 -26z" />
    <glyph glyph-name="Zacute" unicode="&#x179;" horiz-adv-x="635" 
d="M597 139v-139h-556v106l338 425h-328v139h538v-126l-314 -405h322zM393 735h-142l71 152h190z" />
    <glyph glyph-name="zacute" unicode="&#x17a;" horiz-adv-x="538" 
d="M501 127v-127h-464v103l251 272h-245v127h449v-105l-251 -270h260zM345 567h-142l71 152h190z" />
    <glyph glyph-name="Zdotaccent" unicode="&#x17b;" horiz-adv-x="635" 
d="M597 139v-139h-556v106l338 425h-328v139h538v-126l-314 -405h322zM384 881.5q26 -25.5 26 -61.5q0 -38 -25.5 -63t-64.5 -25t-64 25t-25 63q0 36 25.5 61.5t63.5 25.5t64 -25.5z" />
    <glyph glyph-name="zdotaccent" unicode="&#x17c;" horiz-adv-x="538" 
d="M501 127v-127h-464v103l251 272h-245v127h449v-105l-251 -270h260zM336 713.5q26 -25.5 26 -61.5q0 -38 -25.5 -63t-64.5 -25t-64 25t-25 63q0 36 25.5 61.5t63.5 25.5t64 -25.5z" />
    <glyph glyph-name="Zcaron" unicode="&#x17d;" horiz-adv-x="635" 
d="M597 139v-139h-556v106l338 425h-328v139h538v-126l-314 -405h322zM517 884l-116 -155h-159l-115 155h154l41 -56l40 56h155z" />
    <glyph glyph-name="zcaron" unicode="&#x17e;" horiz-adv-x="538" 
d="M501 127v-127h-464v103l251 272h-245v127h449v-105l-251 -270h260zM468 716l-116 -155h-159l-115 155h154l41 -56l40 56h155z" />
    <glyph glyph-name="florin" unicode="&#x192;" horiz-adv-x="588" 
d="M400.5 529q-20.5 -18 -27.5 -52l-15 -85h137v-127h-160l-46 -250q-15 -83 -70 -131.5t-136 -48.5q-36 0 -58.5 8t-51.5 24l47 121q33 -11 56 -11q21 0 36.5 12.5t19.5 31.5l44 244h-96v127h119l16 91q17 92 80.5 146.5t154.5 54.5q70 0 125 -34l-50 -124
q-17 10 -36.5 15.5t-36.5 5.5q-31 0 -51.5 -18z" />
    <glyph glyph-name="AEacute" unicode="&#x1fc;" horiz-adv-x="1046" 
d="M1007 142v-142h-521v109h-229l-65 -109h-192l429 670h575v-142h-354v-126h326v-134h-326v-126h357zM486 251v242l-145 -242h145zM737 735h-142l71 152h190z" />
    <glyph glyph-name="aeacute" unicode="&#x1fd;" horiz-adv-x="897" 
d="M872 204h-366q11 -43 39.5 -67t70.5 -24q31 0 56.5 9.5t45.5 34.5l128 -60q-35 -54 -94.5 -83t-135.5 -29q-56 0 -103.5 18.5t-83.5 52.5q-35 -32 -86 -51.5t-115 -19.5q-97 0 -150 44t-53 117t54.5 112.5t154.5 39.5h128v23q0 33 -21.5 53t-56.5 20q-33 0 -54 -17
t-26 -48l-147 30q11 70 71.5 114t156.5 44q104 0 166 -53q72 53 162 53q73 0 132 -33t93 -95t34 -145v-40zM715 298q-9 46 -35.5 68.5t-64.5 22.5q-40 0 -70.5 -23.5t-39.5 -67.5h210zM361 202h-109q-34 0 -51.5 -12.5t-17.5 -34.5q0 -24 19 -38.5t50 -14.5q42 0 75.5 25
t33.5 60v15zM517 567h-142l71 152h190z" />
    <glyph glyph-name="Scommaaccent" unicode="&#x218;" horiz-adv-x="646" 
d="M149 28q-77 43 -103 121l165 59q29 -86 128 -86q46 0 72.5 19t26.5 50q0 24 -13.5 38t-48.5 21l-134 30q-180 39 -180 194q0 64 33.5 112t94 73.5t138.5 25.5q95 0 163.5 -38.5t98.5 -108.5l-156 -51q-15 32 -44.5 48.5t-63.5 16.5q-40 0 -65 -19.5t-25 -48.5
q0 -22 11.5 -36t41.5 -20l133 -31q184 -43 184 -195q0 -69 -37 -118t-100 -74t-139 -25q-104 0 -181 43zM199 -202l51 157h162l-99 -157h-114z" />
    <glyph glyph-name="scommaaccent" unicode="&#x219;" horiz-adv-x="515" 
d="M214.5 116q22.5 -12 54.5 -12q30 0 47.5 11.5t17.5 28.5q0 14 -11 23t-38 14l-98 20q-71 14 -108.5 50.5t-37.5 95.5q0 51 27.5 89.5t76.5 59.5t112 21q82 0 138.5 -30.5t80.5 -84.5l-142 -43q-9 19 -29.5 31.5t-49.5 12.5q-30 0 -43.5 -11.5t-13.5 -27.5q0 -12 8 -21
t30 -14l113 -24q70 -15 104.5 -54.5t34.5 -96.5q0 -81 -63 -125t-165 -44q-83 0 -144.5 28.5t-83.5 86.5l152 53q8 -25 30.5 -37zM138 -202l51 157h162l-99 -157h-114z" />
    <glyph glyph-name="uni021A" unicode="&#x21a;" horiz-adv-x="638" 
d="M618 526h-217v-526h-164v526h-217v144h598v-144zM192 -202l51 157h162l-99 -157h-114z" />
    <glyph glyph-name="uni021B" unicode="&#x21b;" horiz-adv-x="433" 
d="M430 22q-33 -18 -65 -27.5t-72 -9.5q-95 0 -147.5 51t-52.5 149v190h-91v127h91v148h160v-148h148v-127h-148v-174q0 -73 67 -73q17 0 37 5.5t36 14.5zM133 -201l51 157h162l-99 -157h-114z" />
    <glyph glyph-name="circumflex" unicode="&#x2c6;" horiz-adv-x="600" 
d="M341 561l-40 56l-41 -56h-154l115 155h159l116 -155h-155z" />
    <glyph glyph-name="caron" unicode="&#x2c7;" horiz-adv-x="600" 
d="M496 716l-116 -155h-159l-115 155h154l41 -56l40 56h155z" />
    <glyph glyph-name="breve" unicode="&#x2d8;" horiz-adv-x="600" 
d="M170.5 592q-48.5 43 -48.5 115h126q0 -22 15 -36.5t37 -14.5q23 0 37.5 14.5t14.5 36.5h126q0 -72 -48.5 -115t-129.5 -43t-129.5 43z" />
    <glyph glyph-name="dotaccent" unicode="&#x2d9;" horiz-adv-x="600" 
d="M364 713.5q26 -25.5 26 -61.5q0 -38 -25.5 -63t-64.5 -25t-64 25t-25 63q0 36 25.5 61.5t63.5 25.5t64 -25.5z" />
    <glyph glyph-name="ring" unicode="&#x2da;" horiz-adv-x="600" 
d="M389.5 578.5q-36.5 -35.5 -89.5 -35.5t-89.5 35.5t-36.5 86.5q0 52 36.5 87.5t89.5 35.5t89.5 -35.5t36.5 -87.5q0 -51 -36.5 -86.5zM329 693.5q-12 11.5 -29 11.5t-29 -11.5t-12 -28.5q0 -16 12 -27.5t29 -11.5t29 11.5t12 27.5q0 17 -12 28.5z" />
    <glyph glyph-name="ogonek" unicode="&#x2db;" horiz-adv-x="600" 
d="M312 -18q-26 -30 -34.5 -42t-8.5 -26q0 -24 28 -24q17 0 50 10l6 -91q-21 -10 -46.5 -16t-46.5 -6q-45 0 -73.5 24.5t-28.5 68.5q0 66 71 123l100 -3z" />
    <glyph glyph-name="tilde" unicode="&#x2dc;" horiz-adv-x="600" 
d="M160 693q34 38 81 38q24 0 40 -5.5t35 -16.5q26 -15 46 -15q26 0 31 36h97q0 -78 -33.5 -116t-82.5 -38q-24 0 -40 5.5t-34 15.5q-13 8 -23 11.5t-23 3.5q-26 0 -31 -33h-97q0 76 34 114z" />
    <glyph glyph-name="hungarumlaut" unicode="&#x2dd;" horiz-adv-x="600" 
d="M214 567h-137l74 152h180zM414 567h-136l74 152h183z" />
    <glyph glyph-name="uni0326" unicode="&#x326;" horiz-adv-x="0" 
d="M-414 -202l51 157h162l-99 -157h-114z" />
    <glyph glyph-name="Wgrave" unicode="&#x1e80;" horiz-adv-x="973" 
d="M967 670l-191 -670h-177l-112 414l-113 -414h-176l-191 670h169l117 -422l115 422h157l115 -422l117 422h170zM489 887l71 -152h-142l-119 152h190z" />
    <glyph glyph-name="wgrave" unicode="&#x1e81;" horiz-adv-x="795" 
d="M788 502l-161 -503h-139l-90 272l-91 -272h-139l-161 503h157l83 -270l94 270h113l94 -270l83 270h157zM400 719l71 -152h-142l-119 152h190z" />
    <glyph glyph-name="Wacute" unicode="&#x1e82;" horiz-adv-x="973" 
d="M967 670l-191 -670h-177l-112 414l-113 -414h-176l-191 670h169l117 -422l115 422h157l115 -422l117 422h170zM559 735h-142l71 152h190z" />
    <glyph glyph-name="wacute" unicode="&#x1e83;" horiz-adv-x="795" 
d="M788 502l-161 -503h-139l-90 272l-91 -272h-139l-161 503h157l83 -270l94 270h113l94 -270l83 270h157zM470 567h-142l71 152h190z" />
    <glyph glyph-name="Wdieresis" unicode="&#x1e84;" horiz-adv-x="973" 
d="M967 670l-191 -670h-177l-112 414l-113 -414h-176l-191 670h169l117 -422l115 422h157l115 -422l117 422h170zM437 873q26 -26 26 -62q0 -38 -25.5 -62.5t-64.5 -24.5t-64 24.5t-25 62.5q0 36 25.5 62t63.5 26t64 -26zM665 873q26 -26 26 -62q0 -38 -25.5 -62.5
t-64.5 -24.5t-64 24.5t-25 62.5q0 36 25.5 62t63.5 26t64 -26z" />
    <glyph glyph-name="wdieresis" unicode="&#x1e85;" horiz-adv-x="795" 
d="M788 502l-161 -503h-139l-90 272l-91 -272h-139l-161 503h157l83 -270l94 270h113l94 -270l83 270h157zM348 705q26 -26 26 -62q0 -38 -25.5 -62.5t-64.5 -24.5t-64 24.5t-25 62.5q0 36 25.5 62t63.5 26t64 -26zM576 705q26 -26 26 -62q0 -38 -25.5 -62.5t-64.5 -24.5
t-64 24.5t-25 62.5q0 36 25.5 62t63.5 26t64 -26z" />
    <glyph glyph-name="Ygrave" unicode="&#x1ef2;" horiz-adv-x="706" 
d="M434 209v-209h-168v208l-259 462h180l165 -294l163 294h184zM355 887l71 -152h-142l-119 152h190z" />
    <glyph glyph-name="ygrave" unicode="&#x1ef3;" horiz-adv-x="604" 
d="M597 503l-330 -673h-173l120 243l-207 430h172l123 -250l123 250h172zM304 720l71 -152h-142l-119 152h190z" />
    <glyph glyph-name="endash" unicode="&#x2013;" horiz-adv-x="620" 
d="M560 201h-500v123h500v-123z" />
    <glyph glyph-name="emdash" unicode="&#x2014;" horiz-adv-x="1040" 
d="M980 201h-920v123h920v-123z" />
    <glyph glyph-name="quoteleft" unicode="&#x2018;" horiz-adv-x="299" 
d="M147 670h121l-59 -288h-177v4z" />
    <glyph glyph-name="quoteright" unicode="&#x2019;" horiz-adv-x="299" 
d="M152 382h-121l59 288h177v-4z" />
    <glyph glyph-name="quotesinglbase" unicode="&#x201a;" horiz-adv-x="299" 
d="M152 -132h-121l59 288h177v-4z" />
    <glyph glyph-name="quotedblleft" unicode="&#x201c;" horiz-adv-x="513" 
d="M147 670h121l-59 -288h-177v4zM360 670h121l-59 -288h-177v4z" />
    <glyph glyph-name="quotedblright" unicode="&#x201d;" horiz-adv-x="513" 
d="M366 382h-121l59 288h177v-4zM152 382h-121l59 288h177v-4z" />
    <glyph glyph-name="quotedblbase" unicode="&#x201e;" horiz-adv-x="513" 
d="M366 -132h-121l59 288h177v-4zM152 -132h-121l59 288h177v-4z" />
    <glyph glyph-name="dagger" unicode="&#x2020;" horiz-adv-x="400" 
d="M362 650v-93h-112v-248h-100v248h-112v93h112v90h100v-90h112z" />
    <glyph glyph-name="daggerdbl" unicode="&#x2021;" horiz-adv-x="400" 
d="M250 557v-65h112v-93h-112v-90h-100v90h-112v93h112v65h-112v93h112v90h100v-90h112v-93h-112z" />
    <glyph glyph-name="bullet" unicode="&#x2022;" horiz-adv-x="415" 
d="M297 409q40 -24 63 -63.5t23 -85.5q0 -48 -23 -87t-63 -61.5t-90 -22.5t-90 22.5t-62.5 61.5t-22.5 87q0 46 22.5 85.5t62.5 63.5t90 24t90 -24z" />
    <glyph glyph-name="ellipsis" unicode="&#x2026;" horiz-adv-x="800" 
d="M465.5 148.5q26.5 -26.5 26.5 -63.5q0 -38 -26 -64t-66 -26q-39 0 -65 26t-26 64q0 37 26 63.5t65 26.5t65.5 -26.5zM741.5 148.5q26.5 -26.5 26.5 -63.5q0 -38 -26 -64t-66 -26q-39 0 -65 26t-26 64q0 37 26 63.5t65 26.5t65.5 -26.5zM188.5 148.5
q26.5 -26.5 26.5 -63.5q0 -38 -26 -64t-66 -26q-39 0 -65 26t-26 64q0 37 26 63.5t65 26.5t65.5 -26.5z" />
    <glyph glyph-name="perthousand" unicode="&#x2030;" horiz-adv-x="1271" 
d="M300.5 664q39.5 -21 63 -59t23.5 -88q0 -49 -23.5 -87t-63 -59t-86.5 -21t-87 21t-63.5 59t-23.5 87q0 50 23.5 88t63.5 59t87 21t86.5 -21zM143 0l484 670h94l-485 -670h-93zM167.5 567.5q-19.5 -18.5 -19.5 -49.5q0 -32 19.5 -50.5t46.5 -18.5q26 0 45.5 19t19.5 50
t-19.5 49.5t-45.5 18.5q-27 0 -46.5 -18.5zM738.5 299q39.5 -21 63 -59t23.5 -88q0 -49 -23.5 -87t-63 -59t-86.5 -21t-87 21t-63.5 59t-23.5 87q0 50 23.5 88t63.5 59t87 21t86.5 -21zM1145 299q39 -21 62.5 -59t23.5 -88q0 -49 -23.5 -87t-62.5 -59t-86 -21t-87 21
t-63.5 59t-23.5 87q0 50 23.5 88t63.5 59t87 21t86 -21zM605.5 202.5q-19.5 -18.5 -19.5 -49.5q0 -32 19.5 -50.5t46.5 -18.5q26 0 45.5 19t19.5 50t-19.5 49.5t-45.5 18.5q-27 0 -46.5 -18.5zM1012 202.5q-20 -18.5 -20 -49.5t20 -50t47 -19q26 0 45.5 19t19.5 50
t-19.5 49.5t-45.5 18.5q-27 0 -47 -18.5z" />
    <glyph glyph-name="guilsinglleft" unicode="&#x2039;" horiz-adv-x="305" 
d="M25 262l105 178h150l-105 -178l105 -178h-150z" />
    <glyph glyph-name="guilsinglright" unicode="&#x203a;" horiz-adv-x="305" 
d="M25 84l105 178l-105 178h150l105 -178l-105 -178h-150z" />
    <glyph glyph-name="fraction" unicode="&#x2044;" horiz-adv-x="245" 
d="M-173 0l484 670h94l-485 -670h-93z" />
    <glyph glyph-name="Euro" unicode="&#x20ac;" horiz-adv-x="761" 
d="M726 235q-22 -114 -99.5 -182t-189.5 -68q-106 0 -181.5 62.5t-102.5 169.5h-98v96h84q-1 7 -1 22t1 22h-84v95h97q28 108 103.5 170.5t181.5 62.5q112 0 188.5 -67.5t100.5 -180.5l-163 -31q-13 68 -46.5 101.5t-79.5 33.5q-39 0 -68.5 -23t-46.5 -66h178l-21 -95h-176
l-1 -22l1 -22h168l-21 -96h-127q17 -42 46 -64.5t68 -22.5q46 0 79 33.5t50 103.5z" />
    <glyph glyph-name="uni2116" unicode="&#x2116;" horiz-adv-x="1198" 
d="M862.5 353q-41.5 22 -66.5 61.5t-25 90.5t25 91t66.5 62t91.5 22q51 0 93.5 -22t67 -62t24.5 -91t-24.5 -90.5t-67 -61.5t-93.5 -22q-50 0 -91.5 22zM534 670h164v-670h-136l-339 388v-388h-165v670h137l339 -400v400zM908.5 553.5q-18.5 -19.5 -18.5 -48.5
q0 -28 19 -47.5t45 -19.5q29 0 48 19.5t19 47.5q0 29 -19 48.5t-48 19.5q-27 0 -45.5 -19.5zM779 285h353v-120h-353v120z" />
    <glyph glyph-name="uni2117" unicode="&#x2117;" horiz-adv-x="756" 
d="M551 639.5q80 -45.5 127.5 -126t47.5 -180.5q0 -99 -47.5 -178.5t-127.5 -124.5t-175 -45t-175.5 45t-128 124.5t-47.5 178.5q0 100 47.5 180.5t128 126t175.5 45.5t175 -45.5zM520 79.5q66 37.5 105 104.5t39 150q0 84 -39 151t-105 105.5t-144 38.5t-144.5 -38
t-105.5 -105.5t-39 -151.5q0 -83 39 -150t105 -104.5t145 -37.5q78 0 144 37.5zM521 480.5q38 -35.5 38 -92.5q0 -60 -40 -96t-107 -36h-76v-104h-94v364h174q67 0 105 -35.5zM451.5 349.5q16.5 14.5 16.5 37.5q0 22 -16.5 35.5t-45.5 13.5h-70v-101h70q29 0 45.5 14.5z" />
    <glyph glyph-name="trademark" unicode="&#x2122;" horiz-adv-x="689" 
d="M292 596h-85v-203h-88v203h-84v74h257v-74zM643 393h-82v133l-56 -132h-44l-56 132v-133h-83v277h94l67 -150l67 150h93v-277z" />
    <glyph glyph-name="oneeighth" unicode="&#x215b;" horiz-adv-x="814" 
d="M204 287h-109v244l-78 -46v111l115 74h72v-383zM87 0l484 670h94l-485 -670h-93zM782 104q0 -49 -44 -81.5t-116 -32.5q-71 0 -115 32.5t-44 81.5q0 70 66 95q-51 26 -51 82q0 30 19 54.5t52 39t74 14.5q40 0 73.5 -14.5t52.5 -39t19 -54.5q0 -56 -53 -82q67 -26 67 -95z
M588.5 299q-13.5 -11 -13.5 -29q0 -17 13.5 -28.5t33.5 -11.5t34 11t14 29t-13.5 29t-34.5 11q-20 0 -33.5 -11zM658 86q14 12 14 30q0 19 -14.5 31t-35.5 12q-22 0 -36 -12t-14 -31t14.5 -30.5t36.5 -11.5q21 0 35 12z" />
    <glyph glyph-name="threeeighths" unicode="&#x215c;" horiz-adv-x="866" 
d="M324 406q0 -54 -42.5 -89.5t-108.5 -35.5q-64 0 -106 34t-46 91l95 21q3 -28 18 -42.5t40 -14.5q21 0 34 11t13 28t-13.5 26.5t-34.5 9.5h-42v76h36q22 0 36.5 9.5t14.5 25.5q0 17 -12.5 27t-33.5 10q-23 0 -36.5 -14t-14.5 -40l-98 21q6 53 46.5 86.5t101.5 33.5
q65 0 106 -34t41 -86q0 -24 -12 -43t-34 -31q52 -26 52 -80zM138 0l484 670h94l-485 -670h-93zM831 104q0 -49 -44 -81.5t-116 -32.5q-71 0 -115 32.5t-44 81.5q0 70 66 95q-51 26 -51 82q0 30 19 54.5t52 39t74 14.5q40 0 73.5 -14.5t52.5 -39t19 -54.5q0 -56 -53 -82
q67 -26 67 -95zM637.5 299q-13.5 -11 -13.5 -29q0 -17 13.5 -28.5t33.5 -11.5t34 11t14 29t-13.5 29t-34.5 11q-20 0 -33.5 -11zM707 86q14 12 14 30q0 19 -14.5 31t-35.5 12q-22 0 -36 -12t-14 -31t14.5 -30.5t36.5 -11.5q21 0 35 12z" />
    <glyph glyph-name="fiveeighths" unicode="&#x215d;" horiz-adv-x="845" 
d="M294.5 504q36.5 -34 36.5 -90q0 -61 -42 -98.5t-110 -37.5q-65 0 -108 34.5t-49 85.5l102 18q4 -22 19 -34.5t35 -12.5q21 0 35 11t14 31t-15 30.5t-39 10.5h-137l30 218h244v-94h-160l-5 -38h53q60 0 96.5 -34zM131 0l484 670h94l-485 -670h-93zM814 104
q0 -49 -44 -81.5t-116 -32.5q-71 0 -115 32.5t-44 81.5q0 70 66 95q-51 26 -51 82q0 30 19 54.5t52 39t74 14.5q40 0 73.5 -14.5t52.5 -39t19 -54.5q0 -56 -53 -82q67 -26 67 -95zM620.5 299q-13.5 -11 -13.5 -29q0 -17 13.5 -28.5t33.5 -11.5t34 11t14 29t-13.5 29
t-34.5 11q-20 0 -33.5 -11zM690 86q14 12 14 30q0 19 -14.5 31t-35.5 12q-22 0 -36 -12t-14 -31t14.5 -30.5t36.5 -11.5q21 0 35 12z" />
    <glyph glyph-name="seveneighths" unicode="&#x215e;" horiz-adv-x="769" 
d="M298 587l-132 -300h-116l133 289h-176v94h291v-83zM55 0l484 670h94l-485 -670h-93zM738 104q0 -49 -44 -81.5t-116 -32.5q-71 0 -115 32.5t-44 81.5q0 70 66 95q-51 26 -51 82q0 30 19 54.5t52 39t74 14.5q40 0 73.5 -14.5t52.5 -39t19 -54.5q0 -56 -53 -82
q67 -26 67 -95zM544.5 299q-13.5 -11 -13.5 -29q0 -17 13.5 -28.5t33.5 -11.5t34 11t14 29t-13.5 29t-34.5 11q-20 0 -33.5 -11zM614 86q14 12 14 30q0 19 -14.5 31t-35.5 12q-22 0 -36 -12t-14 -31t14.5 -30.5t36.5 -11.5q21 0 35 12z" />
    <glyph glyph-name="arrowleft" unicode="&#x2190;" horiz-adv-x="727" 
d="M687 250h-394l154 -155l-104 -104l-333 333l334 334l104 -105l-155 -155h394v-148z" />
    <glyph glyph-name="arrowup" unicode="&#x2191;" horiz-adv-x="747" 
d="M603 240l-155 154v-394h-148v394l-155 -155l-105 104l334 334l333 -333z" />
    <glyph glyph-name="arrowright" unicode="&#x2192;" horiz-adv-x="727" 
d="M717 324l-333 -333l-104 104l154 155h-394v148h394l-155 155l104 105z" />
    <glyph glyph-name="arrowdown" unicode="&#x2193;" horiz-adv-x="747" 
d="M707 326l-333 -333l-334 334l105 104l155 -155v394h148v-394l155 154z" />
    <glyph glyph-name="uni2196" unicode="&#x2196;" horiz-adv-x="748" 
d="M599 -9l-421 422v-235h-148v492h491l-1 -148h-234l422 -422z" />
    <glyph glyph-name="uni2197" unicode="&#x2197;" horiz-adv-x="747" 
d="M717 670v-492h-148v235l-421 -422l-109 109l422 422h-234l-1 148h491z" />
    <glyph glyph-name="uni2198" unicode="&#x2198;" horiz-adv-x="748" 
d="M718 492v-492h-491l1 148h234l-422 422l109 109l421 -422v235h148z" />
    <glyph glyph-name="uni2199" unicode="&#x2199;" horiz-adv-x="748" 
d="M520 148l1 -148h-491v492h148v-236l421 423l109 -109l-422 -422h234z" />
    <glyph glyph-name="minus" unicode="&#x2212;" horiz-adv-x="573" 
d="M523 238h-473v131h473v-131z" />
    <glyph glyph-name="approxequal" unicode="&#x2248;" horiz-adv-x="572" 
d="M416 318q-36 0 -63 6t-62 18q-36 12 -61 18t-59 6q-33 0 -67 -7t-54 -22v119q20 15 53 23t68 8t62.5 -6t62.5 -18q36 -12 62.5 -18t59.5 -6q65 0 104 21v-121q-44 -21 -106 -21zM416 160q-36 0 -64 6.5t-61 18.5q-36 12 -61 18t-59 6q-32 0 -66.5 -7.5t-54.5 -21.5v118
q20 15 53.5 23.5t67.5 8.5q35 0 62 -6t63 -18t62.5 -18t59.5 -6q28 0 56 5t48 15v-120q-46 -22 -106 -22z" />
    <glyph glyph-name="notequal" unicode="&#x2260;" horiz-adv-x="573" 
d="M369 351l-39 -71h193v-127h-261l-43 -77h-123l42 77h-88v127h157l39 71h-196v127h265l40 74h123l-40 -74h85v-127h-154z" />
    <glyph glyph-name="lessequal" unicode="&#x2264;" horiz-adv-x="457" 
d="M419 216l-387 114v150l387 114v-143l-233 -46l233 -49v-140zM419 200v-130h-387v130h387z" />
    <glyph glyph-name="greaterequal" unicode="&#x2265;" horiz-adv-x="457" 
d="M273 405l-233 46v143l387 -114v-150l-387 -114v140zM427 70h-387v130h387v-130z" />
    <glyph glyph-name="K.ss03" horiz-adv-x="714" 
d="M717 0h-200l-176 256l-118 -141v-115h-165v670h165v-331l279 331h187l-241 -287z" />
    <glyph glyph-name="Kcommaaccent.ss03" horiz-adv-x="714" 
d="M717 0h-200l-176 256l-118 -141v-115h-165v670h165v-331l279 331h187l-241 -287zM239 -202l51 157h162l-99 -157h-114z" />
    <glyph glyph-name="Q.ss04" horiz-adv-x="784" 
d="M571 -170l-119 160q-32 -5 -60 -5q-98 0 -180 46.5t-129.5 126.5t-47.5 176q0 97 47.5 177t129.5 127t180 47t180 -47t129.5 -127t47.5 -177q0 -83 -36.5 -155.5t-99.5 -120.5l174 -228h-216zM225 232.5q25 -45.5 69 -71t98 -25.5t98 25.5t69 71t25 101.5q0 57 -25 102.5
t-69 71.5t-98 26t-98 -26t-69 -71.5t-25 -102.5q0 -56 25 -101.5z" />
    <glyph glyph-name="I.ss05" horiz-adv-x="458" 
d="M311 526v-382h127v-144h-418v144h127v382h-127v144h418v-144h-127z" />
    <glyph glyph-name="IJ.ss05" horiz-adv-x="1066" 
d="M311 526v-382h127v-144h-418v144h127v382h-127v144h418v-144h-127zM1010 241q0 -74 -34 -132.5t-95 -91t-141 -32.5q-112 0 -182.5 61t-85.5 164l160 32q5 -52 33 -81t75 -29t76 30.5t29 78.5v285h-207v144h372v-429z" />
    <glyph glyph-name="Iacute.ss05" horiz-adv-x="458" 
d="M311 526v-382h127v-144h-418v144h127v382h-127v144h418v-144h-127zM301 735h-142l71 152h190z" />
    <glyph glyph-name="Icircumflex.ss05" horiz-adv-x="458" 
d="M311 526v-382h127v-144h-418v144h127v382h-127v144h418v-144h-127zM270 729l-40 56l-41 -56h-154l115 155h159l116 -155h-155z" />
    <glyph glyph-name="Idieresis.ss05" horiz-adv-x="458" 
d="M311 526v-382h127v-144h-418v144h127v382h-127v144h418v-144h-127zM179 873q26 -26 26 -62q0 -38 -25.5 -62.5t-64.5 -24.5t-64 24.5t-25 62.5q0 36 25.5 62t63.5 26t64 -26zM407 873q26 -26 26 -62q0 -38 -25.5 -62.5t-64.5 -24.5t-64 24.5t-25 62.5q0 36 25.5 62
t63.5 26t64 -26z" />
    <glyph glyph-name="Idotaccent.ss05" horiz-adv-x="458" 
d="M311 526v-382h127v-144h-418v144h127v382h-127v144h418v-144h-127zM292 881.5q26 -25.5 26 -61.5q0 -38 -25.5 -63t-64.5 -25t-64 25t-25 63q0 36 25.5 61.5t63.5 25.5t64 -25.5z" />
    <glyph glyph-name="Igrave.ss05" horiz-adv-x="458" 
d="M311 526v-382h127v-144h-418v144h127v382h-127v144h418v-144h-127zM231 887l71 -152h-142l-119 152h190z" />
    <glyph glyph-name="Imacron.ss05" horiz-adv-x="458" 
d="M311 526v-382h127v-144h-418v144h127v382h-127v144h418v-144h-127zM395 738h-332v124h332v-124z" />
    <glyph glyph-name="Iogonek.ss05" horiz-adv-x="458" 
d="M311 526v-382h127v-144h-127l-17 -18q-26 -30 -34.5 -42t-8.5 -26q0 -24 28 -24q17 0 50 10l6 -91q-21 -10 -46.5 -16t-46.5 -6q-45 0 -73.5 24.5t-28.5 68.5q0 64 67 120h-187v144h127v382h-127v144h418v-144h-127z" />
    <glyph glyph-name="J.ss05" horiz-adv-x="608" 
d="M552 241q0 -74 -34 -132.5t-95 -91t-141 -32.5q-112 0 -182.5 61t-85.5 164l160 32q5 -52 33 -81t75 -29t76 30.5t29 78.5v285h-207v144h372v-429z" />
    <glyph glyph-name="i.loclTRK" horiz-adv-x="297" 
d="M228 0h-159v502h159v-502zM212 713.5q26 -25.5 26 -61.5q0 -38 -25.5 -63t-64.5 -25t-64 25t-25 63q0 36 25.5 61.5t63.5 25.5t64 -25.5z" />
    <glyph glyph-name="germandbls.case" horiz-adv-x="1276" 
d="M149 28q-77 43 -103 121l165 59q29 -86 128 -86q46 0 72.5 19t26.5 50q0 24 -13.5 38t-48.5 21l-134 30q-180 39 -180 194q0 64 33.5 112t94 73.5t138.5 25.5q95 0 163.5 -38.5t98.5 -108.5l-156 -51q-15 32 -44.5 48.5t-63.5 16.5q-40 0 -65 -19.5t-25 -48.5
q0 -22 11.5 -36t41.5 -20l133 -31q184 -43 184 -195q0 -69 -37 -118t-100 -74t-139 -25q-104 0 -181 43zM779 28q-77 43 -103 121l165 59q29 -86 128 -86q46 0 72.5 19t26.5 50q0 24 -13.5 38t-48.5 21l-134 30q-180 39 -180 194q0 64 33.5 112t94 73.5t138.5 25.5
q95 0 163.5 -38.5t98.5 -108.5l-156 -51q-15 32 -44.5 48.5t-63.5 16.5q-40 0 -65 -19.5t-25 -48.5q0 -22 11.5 -36t41.5 -20l133 -31q184 -43 184 -195q0 -69 -37 -118t-100 -74t-139 -25q-104 0 -181 43z" />
    <glyph glyph-name="a.ss01" horiz-adv-x="556" 
d="M452.5 465q61.5 -52 61.5 -147v-318h-154v37q-59 -52 -150 -52q-84 0 -135.5 45t-51.5 119q0 75 55 118.5t154 43.5h128v10q0 31 -19.5 50.5t-51.5 19.5q-37 0 -57.5 -15t-26.5 -48l-151 31q17 73 78.5 115.5t151.5 42.5q107 0 168.5 -52zM329 131q31 26 31 67v11h-110
q-30 0 -47.5 -14.5t-17.5 -37.5q0 -24 19 -38t51 -14q43 0 74 26z" />
    <glyph glyph-name="aacute.ss01" horiz-adv-x="556" 
d="M452.5 465q61.5 -52 61.5 -147v-318h-154v37q-59 -52 -150 -52q-84 0 -135.5 45t-51.5 119q0 75 55 118.5t154 43.5h128v10q0 31 -19.5 50.5t-51.5 19.5q-37 0 -57.5 -15t-26.5 -48l-151 31q17 73 78.5 115.5t151.5 42.5q107 0 168.5 -52zM329 131q31 26 31 67v11h-110
q-30 0 -47.5 -14.5t-17.5 -37.5q0 -24 19 -38t51 -14q43 0 74 26zM355 567h-142l71 152h190z" />
    <glyph glyph-name="abreve.ss01" horiz-adv-x="556" 
d="M452.5 465q61.5 -52 61.5 -147v-318h-154v37q-59 -52 -150 -52q-84 0 -135.5 45t-51.5 119q0 75 55 118.5t154 43.5h128v10q0 31 -19.5 50.5t-51.5 19.5q-37 0 -57.5 -15t-26.5 -48l-151 31q17 73 78.5 115.5t151.5 42.5q107 0 168.5 -52zM329 131q31 26 31 67v11h-110
q-30 0 -47.5 -14.5t-17.5 -37.5q0 -24 19 -38t51 -14q43 0 74 26zM153.5 593q-48.5 43 -48.5 115h126q0 -22 15 -36.5t37 -14.5q23 0 37.5 14.5t14.5 36.5h126q0 -72 -48.5 -115t-129.5 -43t-129.5 43z" />
    <glyph glyph-name="acircumflex.ss01" horiz-adv-x="556" 
d="M452.5 465q61.5 -52 61.5 -147v-318h-154v37q-59 -52 -150 -52q-84 0 -135.5 45t-51.5 119q0 75 55 118.5t154 43.5h128v10q0 31 -19.5 50.5t-51.5 19.5q-37 0 -57.5 -15t-26.5 -48l-151 31q17 73 78.5 115.5t151.5 42.5q107 0 168.5 -52zM329 131q31 26 31 67v11h-110
q-30 0 -47.5 -14.5t-17.5 -37.5q0 -24 19 -38t51 -14q43 0 74 26zM324 561l-40 56l-41 -56h-154l115 155h159l116 -155h-155z" />
    <glyph glyph-name="adieresis.ss01" horiz-adv-x="556" 
d="M452.5 465q61.5 -52 61.5 -147v-318h-154v37q-59 -52 -150 -52q-84 0 -135.5 45t-51.5 119q0 75 55 118.5t154 43.5h128v10q0 31 -19.5 50.5t-51.5 19.5q-37 0 -57.5 -15t-26.5 -48l-151 31q17 73 78.5 115.5t151.5 42.5q107 0 168.5 -52zM329 131q31 26 31 67v11h-110
q-30 0 -47.5 -14.5t-17.5 -37.5q0 -24 19 -38t51 -14q43 0 74 26zM233 705q26 -26 26 -62q0 -38 -25.5 -62.5t-64.5 -24.5t-64 24.5t-25 62.5q0 36 25.5 62t63.5 26t64 -26zM461 705q26 -26 26 -62q0 -38 -25.5 -62.5t-64.5 -24.5t-64 24.5t-25 62.5q0 36 25.5 62t63.5 26
t64 -26z" />
    <glyph glyph-name="agrave.ss01" horiz-adv-x="556" 
d="M452.5 465q61.5 -52 61.5 -147v-318h-154v37q-59 -52 -150 -52q-84 0 -135.5 45t-51.5 119q0 75 55 118.5t154 43.5h128v10q0 31 -19.5 50.5t-51.5 19.5q-37 0 -57.5 -15t-26.5 -48l-151 31q17 73 78.5 115.5t151.5 42.5q107 0 168.5 -52zM329 131q31 26 31 67v11h-110
q-30 0 -47.5 -14.5t-17.5 -37.5q0 -24 19 -38t51 -14q43 0 74 26zM285 719l71 -152h-142l-119 152h190z" />
    <glyph glyph-name="amacron.ss01" horiz-adv-x="556" 
d="M452.5 465q61.5 -52 61.5 -147v-318h-154v37q-59 -52 -150 -52q-84 0 -135.5 45t-51.5 119q0 75 55 118.5t154 43.5h128v10q0 31 -19.5 50.5t-51.5 19.5q-37 0 -57.5 -15t-26.5 -48l-151 31q17 73 78.5 115.5t151.5 42.5q107 0 168.5 -52zM329 131q31 26 31 67v11h-110
q-30 0 -47.5 -14.5t-17.5 -37.5q0 -24 19 -38t51 -14q43 0 74 26zM449 570h-332v124h332v-124z" />
    <glyph glyph-name="aogonek.ss01" horiz-adv-x="556" 
d="M537 -191q-21 -10 -46.5 -16t-46.5 -6q-45 0 -73.5 24.5t-28.5 68.5q0 64 67 120h-49v37q-59 -52 -150 -52q-84 0 -135.5 45t-51.5 119q0 75 55 118.5t154 43.5h128v10q0 31 -19.5 50.5t-51.5 19.5q-37 0 -57.5 -15t-26.5 -48l-151 31q17 73 78.5 115.5t151.5 42.5
q107 0 168.5 -52t61.5 -147v-318h-1l-17 -18q-26 -30 -34.5 -42t-8.5 -26q0 -24 28 -24q17 0 50 10zM329 131q31 26 31 67v11h-110q-30 0 -47.5 -14.5t-17.5 -37.5q0 -24 19 -38t51 -14q43 0 74 26z" />
    <glyph glyph-name="aring.ss01" horiz-adv-x="556" 
d="M452.5 465q61.5 -52 61.5 -147v-318h-154v37q-59 -52 -150 -52q-84 0 -135.5 45t-51.5 119q0 75 55 118.5t154 43.5h128v10q0 31 -19.5 50.5t-51.5 19.5q-37 0 -57.5 -15t-26.5 -48l-151 31q17 73 78.5 115.5t151.5 42.5q107 0 168.5 -52zM329 131q31 26 31 67v11h-110
q-30 0 -47.5 -14.5t-17.5 -37.5q0 -24 19 -38t51 -14q43 0 74 26zM372.5 578.5q-36.5 -35.5 -89.5 -35.5t-89.5 35.5t-36.5 86.5q0 52 36.5 87.5t89.5 35.5t89.5 -35.5t36.5 -87.5q0 -51 -36.5 -86.5zM312 693.5q-12 11.5 -29 11.5t-29 -11.5t-12 -28.5q0 -16 12 -27.5
t29 -11.5t29 11.5t12 27.5q0 17 -12 28.5z" />
    <glyph glyph-name="atilde.ss01" horiz-adv-x="556" 
d="M452.5 465q61.5 -52 61.5 -147v-318h-154v37q-59 -52 -150 -52q-84 0 -135.5 45t-51.5 119q0 75 55 118.5t154 43.5h128v10q0 31 -19.5 50.5t-51.5 19.5q-37 0 -57.5 -15t-26.5 -48l-151 31q17 73 78.5 115.5t151.5 42.5q107 0 168.5 -52zM329 131q31 26 31 67v11h-110
q-30 0 -47.5 -14.5t-17.5 -37.5q0 -24 19 -38t51 -14q43 0 74 26zM142 693q34 38 81 38q24 0 40 -5.5t35 -16.5q26 -15 46 -15q26 0 31 36h97q0 -78 -33.5 -116t-82.5 -38q-24 0 -40 5.5t-34 15.5q-13 8 -23 11.5t-23 3.5q-26 0 -31 -33h-97q0 76 34 114z" />
    <glyph glyph-name="l.ss02" horiz-adv-x="339" 
d="M211 171q0 -20 13 -32t35 -12q18 0 58 14l25 -125q-33 -16 -56.5 -23.5t-61.5 -7.5q-78 0 -125.5 48t-47.5 126v561h160v-549z" />
    <glyph glyph-name="lacute.ss02" horiz-adv-x="339" 
d="M211 171q0 -20 13 -32t35 -12q18 0 58 14l25 -125q-33 -16 -56.5 -23.5t-61.5 -7.5q-78 0 -125.5 48t-47.5 126v561h160v-549zM204 785h-142l71 152h190z" />
    <glyph glyph-name="lcaron.ss02" horiz-adv-x="339" 
d="M211 171q0 -20 13 -32t35 -12q18 0 58 14l25 -125q-33 -16 -56.5 -23.5t-61.5 -7.5q-78 0 -125.5 48t-47.5 126v561h160v-549zM370 521h-115v199h150z" />
    <glyph glyph-name="lcommaaccent.ss02" horiz-adv-x="339" 
d="M211 171q0 -20 13 -32t35 -12q18 0 58 14l25 -125q-33 -16 -56.5 -23.5t-61.5 -7.5q-78 0 -125.5 48t-47.5 126v561h160v-549zM67 -202l51 157h162l-99 -157h-114z" />
    <glyph glyph-name="ldot.ss02" horiz-adv-x="442" 
d="M211 171q0 -20 13 -32t35 -12q18 0 58 14l25 -125q-33 -16 -56.5 -23.5t-61.5 -7.5q-78 0 -125.5 48t-47.5 126v561h160v-549zM412 420.5q26 -25.5 26 -61.5q0 -38 -25.5 -63t-64.5 -25t-64 25t-25 63q0 36 25.5 61.5t63.5 25.5t64 -25.5z" />
    <glyph glyph-name="lslash.ss02" horiz-adv-x="364" 
d="M368 16q-35 -16 -57.5 -23.5t-60.5 -7.5q-78 0 -125.5 48t-47.5 126v76l-54 -29v150l54 30v334h159v-248l63 34v-150l-63 -34v-151q0 -20 13.5 -32t35.5 -12q19 0 57 14z" />
    <glyph glyph-name="k.ss03" horiz-adv-x="622" 
d="M625 0h-197l-134 171l-76 -87v-84h-160v720h160v-418l181 200h187l-185 -210z" />
    <glyph glyph-name="kcommaaccent.ss03" horiz-adv-x="622" 
d="M625 0h-197l-134 171l-76 -87v-84h-160v720h160v-418l181 200h187l-185 -210zM196 -202l51 157h162l-99 -157h-114z" />
    <glyph glyph-name="f_j" horiz-adv-x="684" 
d="M472 586.5q-26 25.5 -26 63.5t26 64.5t66 26.5t66.5 -27t26.5 -64q0 -38 -26.5 -63.5t-66.5 -25.5t-66 25.5zM619 -19q0 -73 -43.5 -117t-116.5 -44q-53 0 -105 21l24 126q26 -8 40 -8q19 0 30.5 11t11.5 29v376h-214v-375h-159v375h-85v127h85v39q0 88 55.5 140.5
t148.5 52.5q46 0 91 -17l-29 -126q-28 6 -40 6q-30 0 -48.5 -16.5t-18.5 -46.5v-32h373v-521z" />
    <glyph glyph-name="f_t" horiz-adv-x="806" 
d="M794 22q-33 -18 -65.5 -27.5t-71.5 -9.5q-95 0 -147.5 51t-52.5 149v190h-211v-375h-159v375h-85v127h85v39q0 88 55.5 140.5t148.5 52.5q46 0 91 -17l-29 -126q-28 6 -40 6q-30 0 -48.5 -16.5t-18.5 -46.5v-32h211v148h160v-148h148v-127h-148v-174q0 -73 66 -73
q17 0 37.5 5.5t36.5 14.5z" />
    <glyph glyph-name="fl.ss02" horiz-adv-x="716" 
d="M589 171q0 -20 13 -32t35 -12q18 0 58 14l25 -125q-33 -16 -56.5 -23.5t-61.5 -7.5q-78 0 -125.5 48t-47.5 126v561h160v-549zM246 502h121v-127h-121v-375h-159v375h-85v127h85v39q0 88 55.5 140.5t146.5 52.5q51 0 99 -21l-34 -124q-24 8 -43 8q-29 0 -47 -17t-18 -46
v-32z" />
    <glyph glyph-name="zero.tf" 
d="M451 641q63 -44 98 -123.5t35 -182.5t-35 -182.5t-98 -123.5t-146 -44t-146 44t-98 123.5t-35 182.5t35 182.5t98 123.5t146 44t146 -44zM387.5 184.5q30.5 54.5 30.5 150.5t-30.5 150t-82.5 54t-82.5 -54t-30.5 -150t30.5 -150.5t82.5 -54.5t82.5 54.5z" />
    <glyph glyph-name="one.tf" 
d="M553 146v-146h-488v146h180v330l-173 -80v150l229 124h104v-524h148z" />
    <glyph glyph-name="two.tf" 
d="M554 144v-144h-483h-3v108l231 217q32 30 48.5 47.5t29 42t12.5 52.5q0 36 -23 58t-60 22q-87 0 -96 -108l-153 29q5 100 73 158.5t175 58.5q71 0 126 -26.5t85.5 -76t30.5 -114.5q0 -45 -16 -82t-45 -71.5t-80 -82.5l-95 -88h243z" />
    <glyph glyph-name="three.tf" 
d="M539.5 283.5q21.5 -35.5 21.5 -82.5q0 -63 -32 -112t-88.5 -76.5t-129.5 -27.5q-106 0 -177 57.5t-82 154.5l156 29q7 -50 33.5 -77t70.5 -27q42 0 69 22.5t27 58.5q0 33 -24 51.5t-67 18.5h-90v131h83q43 0 66.5 18t23.5 50q0 35 -24.5 56t-64.5 21q-42 0 -69 -27
t-31 -81l-151 29q11 99 79 157t171 58q70 0 125 -27t85 -75t30 -109q0 -45 -18.5 -80t-53.5 -55q40 -20 61.5 -55.5z" />
    <glyph glyph-name="four.tf" 
d="M582 123h-72v-123h-156v123h-322v148l274 399h204v-415h72v-132zM354 255v253l-164 -253h164z" />
    <glyph glyph-name="five.tf" 
d="M441 407.5q55 -27.5 85.5 -77t30.5 -113.5q0 -69 -32 -121.5t-89 -81.5t-130 -29q-102 0 -174 49.5t-88 140.5l156 34q9 -43 37.5 -64t68.5 -21q41 0 68.5 26t27.5 67q0 38 -27.5 62t-68.5 24h-244l39 367h426v-143h-293l-10 -92h89q73 0 128 -27.5z" />
    <glyph glyph-name="six.tf" 
d="M472 407q53 -28 81.5 -78.5t28.5 -115.5q0 -66 -32.5 -118t-90 -81t-130.5 -29q-86 0 -150 39.5t-99 116t-35 182.5q0 189 93 283q77 79 193 79q90 0 153 -42.5t84 -121.5l-155 -30q-9 31 -31 44t-57 13q-47 0 -82 -38q-43 -48 -45 -136q28 29 68 45t83 16q70 0 123 -28z
M395.5 148q30.5 28 30.5 70t-30.5 69.5t-70.5 27.5t-69 -28t-29 -71q0 -41 29.5 -68.5t68.5 -27.5q40 0 70.5 28z" />
    <glyph glyph-name="seven.tf" 
d="M562 551l-260 -551h-178l255 526h-341v144h524v-119z" />
    <glyph glyph-name="eight.tf" 
d="M537.5 279q31.5 -41 31.5 -96q0 -58 -33 -103t-92.5 -70t-136.5 -25q-78 0 -138 25t-93 70t-33 103q0 55 32 96.5t90 63.5q-48 22 -73.5 61.5t-25.5 92.5q0 54 30.5 97t85.5 67t125 24t125 -24t85.5 -67t30.5 -97q0 -53 -26 -92.5t-74 -61.5q58 -23 89.5 -64zM244 540.5
q-25 -20.5 -25 -57.5q0 -36 25.5 -56.5t61.5 -20.5q37 0 63 21t26 57t-26 56.5t-63 20.5t-62 -20.5zM371.5 137q27.5 22 27.5 60q0 37 -27.5 58.5t-65.5 21.5q-39 0 -65 -21.5t-26 -60.5q0 -37 26 -58.5t65 -21.5q38 0 65.5 22z" />
    <glyph glyph-name="nine.tf" 
d="M430 644.5q64 -39.5 99 -116t35 -182.5q0 -189 -93 -283q-77 -79 -193 -79q-90 0 -153 42.5t-84 121.5l155 30q9 -31 31 -44t57 -13q47 0 82 38q43 48 45 136q-28 -29 -68 -45t-83 -16q-70 0 -123 28t-81.5 78.5t-28.5 115.5q0 66 32.5 118t90 81t130.5 29
q86 0 150 -39.5zM353 382q29 28 29 71q0 41 -29.5 68.5t-68.5 27.5q-40 0 -70.5 -28t-30.5 -70t30.5 -69.5t70.5 -27.5t69 28z" />
    <glyph glyph-name="zero.zero.tf" 
d="M451 641q63 -44 98 -123.5t35 -182.5t-35 -182.5t-98 -123.5t-146 -44t-146 44t-98 123.5t-35 182.5t35 182.5t98 123.5t146 44t146 -44zM222.5 485q-30.5 -54 -30.5 -150q0 -25 4 -67l178 237q-27 34 -69 34q-52 0 -82.5 -54zM387.5 184.5q30.5 54.5 30.5 150.5
q0 32 -5 65l-176 -237q27 -33 68 -33q52 0 82.5 54.5z" />
    <glyph glyph-name="zero.zero" horiz-adv-x="653" 
d="M487 641q67 -44 104 -123.5t37 -182.5t-37 -182.5t-104 -123.5t-155 -44t-154.5 44t-103.5 123.5t-37 182.5t37 182.5t103.5 123.5t154.5 44t155 -44zM238 484.5q-35 -55.5 -35 -149.5q0 -39 6 -72l190 254q-29 23 -67 23q-59 0 -94 -55.5zM426.5 185.5
q35.5 55.5 35.5 149.5q0 50 -11 92l-197 -263q32 -34 78 -34q59 0 94.5 55.5z" />
    <glyph glyph-name="zero.dnom" horiz-adv-x="409" 
d="M331.5 335.5q47.5 -54.5 47.5 -145.5t-47.5 -145.5t-126.5 -54.5q-78 0 -126 55t-48 145t48 145t126 55q79 0 126.5 -54.5zM248.5 112q15.5 27 15.5 78q0 50 -15.5 77t-43.5 27q-27 0 -43 -27t-16 -77q0 -51 15.5 -78t43.5 -27t43.5 27z" />
    <glyph glyph-name="one.dnom" horiz-adv-x="257" 
d="M204 0h-109v244l-78 -46v111l115 74h72v-383z" />
    <glyph glyph-name="two.dnom" horiz-adv-x="357" 
d="M193 93h128v-93h-294v69l141 124q28 25 39 38.5t11 31.5q0 17 -11.5 27.5t-30.5 10.5q-22 0 -35 -15.5t-14 -46.5l-97 21q0 60 40 96.5t106 36.5t106.5 -34.5t40.5 -95.5q0 -38 -20.5 -67t-62.5 -64z" />
    <glyph glyph-name="three.dnom" horiz-adv-x="351" 
d="M324 115q0 -54 -42.5 -89.5t-108.5 -35.5q-64 0 -106 34t-46 91l95 21q3 -28 18 -42.5t40 -14.5q21 0 34 11t13 28t-13.5 26.5t-34.5 9.5h-42v76h36q22 0 36.5 9.5t14.5 25.5q0 17 -12.5 27t-33.5 10q-23 0 -36.5 -14t-14.5 -40l-98 21q6 53 46.5 86.5t101.5 33.5
q65 0 106 -34t41 -86q0 -24 -12 -43t-34 -31q52 -26 52 -80z" />
    <glyph glyph-name="four.dnom" horiz-adv-x="386" 
d="M363 64h-48v-64h-101v64h-196v98l170 221h127v-230h48v-89zM214 153v121l-92 -121h92z" />
    <glyph glyph-name="five.dnom" horiz-adv-x="352" 
d="M294.5 216q36.5 -34 36.5 -90q0 -61 -42 -98.5t-110 -37.5q-65 0 -108 34.5t-49 85.5l102 18q4 -22 19 -34.5t35 -12.5q21 0 35 11t14 31t-15 30.5t-39 10.5h-137l30 218h244v-94h-160l-5 -38h53q60 0 96.5 -34z" />
    <glyph glyph-name="six.dnom" horiz-adv-x="359" 
d="M302 213.5q37 -35.5 37 -92.5q0 -58 -42.5 -94.5t-106.5 -36.5q-79 0 -124.5 50t-45.5 140q0 51 14 93.5t42 70.5q45 45 114 45q59 0 97 -28.5t48 -81.5l-104 -16q-4 21 -15 29.5t-29 8.5q-22 0 -39 -19q-17 -20 -20 -54q34 21 78 21q59 0 96 -35.5zM223 88.5
q15 14.5 15 36.5t-15 36.5t-37 14.5t-37 -14.5t-15 -36.5t14.5 -36.5t37.5 -14.5q22 0 37 14.5z" />
    <glyph glyph-name="seven.dnom" horiz-adv-x="307" 
d="M298 300l-132 -300h-116l133 289h-176v94h291v-83z" />
    <glyph glyph-name="eight.dnom" horiz-adv-x="376" 
d="M348 104q0 -49 -44 -81.5t-116 -32.5q-71 0 -115 32.5t-44 81.5q0 70 66 95q-51 26 -51 82q0 30 19 54.5t52 39t74 14.5q40 0 73.5 -14.5t52.5 -39t19 -54.5q0 -56 -53 -82q67 -26 67 -95zM154.5 299q-13.5 -11 -13.5 -29q0 -17 13.5 -28.5t33.5 -11.5t34 11t14 29
t-13.5 29t-34.5 11q-20 0 -33.5 -11zM224 86q14 12 14 30q0 19 -14.5 31t-35.5 12q-22 0 -36 -12t-14 -31t14.5 -30.5t36.5 -11.5q21 0 35 12z" />
    <glyph glyph-name="nine.dnom" horiz-adv-x="359" 
d="M293.5 339q45.5 -50 45.5 -140q0 -51 -14 -93.5t-42 -71.5q-44 -44 -115 -44q-58 0 -96.5 28.5t-47.5 80.5l103 16q6 -37 45 -37q23 0 39 19q17 22 20 55q-34 -23 -78 -23q-59 0 -96 36t-37 92q0 59 42 95.5t107 36.5q79 0 124.5 -50zM210 217.5q15 14.5 15 36.5t-15 36
t-37 14q-23 0 -38 -14t-15 -36t15 -36.5t38 -14.5q22 0 37 14.5z" />
    <glyph glyph-name="zero.numr" horiz-adv-x="409" 
d="M331.5 625.5q47.5 -54.5 47.5 -145.5t-47.5 -145.5t-126.5 -54.5q-78 0 -126 55t-48 145t48 145t126 55q79 0 126.5 -54.5zM248.5 402q15.5 27 15.5 78q0 50 -15.5 77t-43.5 27q-27 0 -43 -27t-16 -77q0 -51 15.5 -78t43.5 -27t43.5 27z" />
    <glyph glyph-name="one.numr" horiz-adv-x="257" 
d="M204 287h-109v244l-78 -46v111l115 74h72v-383z" />
    <glyph glyph-name="two.numr" horiz-adv-x="357" 
d="M193 380h128v-93h-294v69l141 124q28 25 39 38.5t11 31.5q0 17 -11.5 27.5t-30.5 10.5q-22 0 -35 -15.5t-14 -46.5l-97 21q0 60 40 96.5t106 36.5t106.5 -34.5t40.5 -95.5q0 -38 -20.5 -67t-62.5 -64z" />
    <glyph glyph-name="three.numr" horiz-adv-x="351" 
d="M324 406q0 -54 -42.5 -89.5t-108.5 -35.5q-64 0 -106 34t-46 91l95 21q3 -28 18 -42.5t40 -14.5q21 0 34 11t13 28t-13.5 26.5t-34.5 9.5h-42v76h36q22 0 36.5 9.5t14.5 25.5q0 17 -12.5 27t-33.5 10q-23 0 -36.5 -14t-14.5 -40l-98 21q6 53 46.5 86.5t101.5 33.5
q65 0 106 -34t41 -86q0 -24 -12 -43t-34 -31q52 -26 52 -80z" />
    <glyph glyph-name="four.numr" horiz-adv-x="386" 
d="M363 351h-48v-64h-101v64h-196v98l170 221h127v-230h48v-89zM214 440v120l-92 -120h92z" />
    <glyph glyph-name="five.numr" horiz-adv-x="352" 
d="M294.5 504q36.5 -34 36.5 -90q0 -61 -42 -98.5t-110 -37.5q-65 0 -108 34.5t-49 85.5l102 18q4 -22 19 -34.5t35 -12.5q21 0 35 11t14 31t-15 30.5t-39 10.5h-137l30 218h244v-94h-160l-5 -38h53q60 0 96.5 -34z" />
    <glyph glyph-name="six.numr" horiz-adv-x="359" 
d="M302 504.5q37 -35.5 37 -92.5q0 -58 -42.5 -94.5t-106.5 -36.5q-79 0 -124.5 50t-45.5 140q0 51 14 93.5t42 70.5q45 45 114 45q59 0 97 -28.5t48 -81.5l-104 -16q-4 21 -15 29.5t-29 8.5q-22 0 -39 -19q-17 -20 -20 -54q34 21 78 21q59 0 96 -35.5zM223 379.5
q15 14.5 15 36.5t-15 36.5t-37 14.5t-37 -14.5t-15 -36.5t14.5 -36.5t37.5 -14.5q22 0 37 14.5z" />
    <glyph glyph-name="seven.numr" horiz-adv-x="307" 
d="M298 587l-132 -300h-116l133 289h-176v94h291v-83z" />
    <glyph glyph-name="eight.numr" horiz-adv-x="376" 
d="M348 395q0 -49 -44 -81.5t-116 -32.5q-71 0 -115 32.5t-44 81.5q0 68 66 95q-51 26 -51 81q0 30 19 55t52 39.5t74 14.5q40 0 73.5 -14.5t52.5 -39.5t19 -55q0 -28 -14 -48.5t-39 -32.5q67 -26 67 -95zM154.5 590q-13.5 -11 -13.5 -30q0 -16 13.5 -27.5t33.5 -11.5t34 11
t14 28q0 19 -13.5 30t-34.5 11q-20 0 -33.5 -11zM224 376.5q14 11.5 14 30.5q0 18 -14.5 30t-35.5 12q-22 0 -36 -11.5t-14 -30.5t14.5 -30.5t36.5 -11.5q21 0 35 11.5z" />
    <glyph glyph-name="nine.numr" horiz-adv-x="359" 
d="M293.5 630q45.5 -50 45.5 -140q0 -51 -14 -93.5t-42 -71.5q-44 -44 -115 -44q-58 0 -96.5 28.5t-47.5 80.5l103 16q6 -37 45 -37q23 0 39 19q17 22 20 55q-34 -23 -78 -23q-59 0 -96 36t-37 92q0 59 42 95.5t107 36.5q79 0 124.5 -50zM210 508.5q15 14.5 15 36.5t-15 36
t-37 14q-23 0 -38 -14t-15 -36t15 -36.5t38 -14.5q22 0 37 14.5z" />
    <glyph glyph-name="backslash.case" horiz-adv-x="435" 
d="M411 0h-150l-237 670h150z" />
    <glyph glyph-name="periodcentered.case" horiz-adv-x="246" 
d="M188.5 389.5q26.5 -26.5 26.5 -63.5q0 -38 -26 -64t-66 -26q-39 0 -65 26t-26 64q0 37 26 63.5t65 26.5t65.5 -26.5z" />
    <glyph glyph-name="bullet.case" horiz-adv-x="415" 
d="M297 474q40 -24 63 -63.5t23 -85.5q0 -48 -23 -87t-63 -61.5t-90 -22.5t-90 22.5t-62.5 61.5t-22.5 87q0 46 22.5 85.5t62.5 63.5t90 24t90 -24z" />
    <glyph glyph-name="colon.case" horiz-adv-x="246" 
d="M188.5 536.5q26.5 -26.5 26.5 -63.5q0 -38 -26 -64t-66 -26q-39 0 -65 26t-26 64q0 37 26 63.5t65 26.5t65.5 -26.5zM188.5 228.5q26.5 -26.5 26.5 -63.5q0 -38 -26 -64t-66 -26q-39 0 -65 26t-26 64q0 37 26 63.5t65 26.5t65.5 -26.5z" />
    <glyph glyph-name="exclamdown.case" horiz-adv-x="297" 
d="M85 524q-26 26 -26 63q0 38 26 63t66 25t65.5 -25t25.5 -63q0 -37 -26 -63t-65 -26q-40 0 -66 26zM60 31l10 410h158l10 -410v-31h-178v31z" />
    <glyph glyph-name="questiondown.case" horiz-adv-x="505" 
d="M187 529q-26 26 -26 63q0 38 26 63t66 25t65.5 -25t25.5 -63q0 -37 -26 -63t-65 -26q-40 0 -66 26zM470 110q-31 -53 -91.5 -86.5t-139.5 -33.5q-67 0 -117.5 25t-77.5 69.5t-27 101.5q0 67 39.5 115t121.5 71v72h146l-1 -161q-82 -10 -115 -33.5t-33 -59.5
q0 -29 17.5 -45t47.5 -16q57 0 95 52z" />
    <glyph glyph-name="semicolon.case" horiz-adv-x="280" 
d="M124 -132h-121l59 288h177v-4zM222.5 536.5q26.5 -26.5 26.5 -63.5q0 -38 -26 -64t-66 -26q-39 0 -65 26t-26 64q0 37 26 63.5t65 26.5t65.5 -26.5z" />
    <glyph glyph-name="slash.case" horiz-adv-x="481" 
d="M182 0h-135l252 670h135z" />
    <glyph glyph-name="braceleft.case" horiz-adv-x="421" 
d="M247 374q-16 -28 -46 -41q30 -13 46 -41t16 -66v-68q0 -13 7 -21t19 -8h95v-129h-133q-62 0 -99.5 36t-37.5 95v74q0 24 -15 37t-45 22l-34 10v119l34 10q30 9 45 21t15 36v79q0 59 38 95t99 36h133v-129h-95q-12 0 -19 -8t-7 -22v-71q0 -38 -16 -66z" />
    <glyph glyph-name="braceright.case" horiz-adv-x="421" 
d="M401 393v-119l-34 -10q-30 -10 -45.5 -22.5t-15.5 -36.5v-74q0 -59 -37 -95t-99 -36h-133v129h94q12 0 19.5 8t7.5 21v68q0 38 16 66t45 41q-29 13 -45 41.5t-16 65.5v71q0 13 -7.5 21.5t-19.5 8.5h-94v129h133q61 0 98.5 -36t37.5 -95v-79q0 -24 15.5 -36t45.5 -21z" />
    <glyph glyph-name="bracketleft.case" horiz-adv-x="410" 
d="M207 539v-408h166v-131h-315v670h315v-131h-166z" />
    <glyph glyph-name="bracketright.case" horiz-adv-x="410" 
d="M352 0h-315v131h166v408h-166v131h315v-670z" />
    <glyph glyph-name="parenleft.case" horiz-adv-x="350" 
d="M231 202.5q27 -57.5 84 -124.5l-103 -95q-86 77 -131.5 163t-45.5 189t45.5 189t131.5 163l100 -96q-55 -67 -81.5 -124t-26.5 -132t27 -132.5z" />
    <glyph glyph-name="parenright.case" horiz-adv-x="350" 
d="M269.5 524q45.5 -86 45.5 -189t-45.5 -189t-132.5 -163l-102 95q57 67 84 124.5t27 132.5t-26.5 132t-81.5 124l99 96q87 -77 132.5 -163z" />
    <glyph glyph-name="emdash.case" horiz-adv-x="1040" 
d="M980 267h-920v123h920v-123z" />
    <glyph glyph-name="endash.case" horiz-adv-x="620" 
d="M560 267h-500v123h500v-123z" />
    <glyph glyph-name="hyphen.case" horiz-adv-x="451" 
d="M391 261h-331v135h331v-135z" />
    <glyph glyph-name="guillemotleft.case" horiz-adv-x="505" 
d="M25 322l105 178h150l-105 -178l105 -178h-150zM225 322l105 178h150l-105 -178l105 -178h-150z" />
    <glyph glyph-name="guillemotright.case" horiz-adv-x="505" 
d="M25 144l105 178l-105 178h150l105 -178l-105 -178h-150zM225 144l105 178l-105 178h150l105 -178l-105 -178h-150z" />
    <glyph glyph-name="guilsinglleft.case" horiz-adv-x="305" 
d="M25 322l105 178h150l-105 -178l105 -178h-150z" />
    <glyph glyph-name="guilsinglright.case" horiz-adv-x="305" 
d="M25 144l105 178l-105 178h150l105 -178l-105 -178h-150z" />
    <glyph glyph-name="cent.tf" 
d="M479 47q-48 -41 -112 -55v-122h-133v123q-91 21 -148.5 90.5t-57.5 167.5q0 65 26.5 119t73.5 89.5t106 49.5v121h133v-120q61 -14 108.5 -53t70.5 -96l-145 -49q-14 32 -39.5 48.5t-59.5 16.5q-54 0 -87 -35.5t-33 -90.5q0 -56 33 -91t87 -35q34 0 60.5 16.5t41.5 50.5
l144 -45q-21 -59 -69 -100z" />
    <glyph glyph-name="dollar.tf" 
d="M513.5 81.5q-51.5 -50.5 -134.5 -66.5v-115h-134v113q-75 12 -128.5 50.5t-73.5 98.5l153 55q27 -80 120 -80q43 0 67.5 17.5t24.5 46.5q0 22 -13 35.5t-45 20.5l-124 28q-168 35 -168 181q0 77 50.5 127.5t136.5 64.5v112h134v-114q61 -13 105 -46.5t66 -84.5l-146 -48
q-14 30 -41 45.5t-59 15.5q-37 0 -60.5 -18t-23.5 -45q0 -21 10.5 -34t38.5 -19l125 -28q171 -41 171 -183q0 -79 -51.5 -129.5z" />
    <glyph glyph-name="Euro.tf" 
d="M588 228q-21 -109 -91.5 -176t-172.5 -67q-100 0 -169 61t-93 173h-48v96h37v20v20h-37v95h48q24 113 93 174t169 61q103 0 174 -68t90 -180l-161 -28q-12 68 -39 100t-64 32q-72 0 -96 -91h150l-20 -95h-143v-20v-20h138l-20 -96h-105q25 -89 96 -89q36 0 61 30.5
t41 97.5z" />
    <glyph glyph-name="florin.tf" 
d="M431.5 529q-20.5 -18 -27.5 -52l-15 -85h137v-127h-160l-46 -250q-15 -83 -70 -131.5t-136 -48.5q-36 0 -58.5 8t-51.5 24l47 121q33 -11 56 -11q21 0 36.5 12.5t19.5 31.5l44 244h-96v127h119l16 91q17 92 80.5 146.5t154.5 54.5q70 0 125 -34l-50 -124
q-17 10 -36.5 15.5t-36.5 5.5q-31 0 -51.5 -18z" />
    <glyph glyph-name="sterling.tf" 
d="M574 143v-143h-539v103l72 22v108h-72v137h72v91q0 66 29 117t82 79t123 28q101 0 162.5 -59t68.5 -160l-149 -26q-8 54 -28 75t-54 21q-33 0 -53 -20.5t-20 -54.5v-91h157v-137h-157v-90h306z" />
    <glyph glyph-name="yen.tf" 
d="M428 331h102v-103h-147v-43h147v-104h-147v-81h-164v81h-139v104h139v43h-139v103h95l-166 339h175l117 -278l116 278h183z" />
    <glyph glyph-name="approxequal.tf" 
d="M435 318q-36 0 -63 6t-62 18q-36 12 -61 18t-59 6q-33 0 -67 -7t-54 -22v119q20 15 53 23t68 8t62 -6t63 -18t62.5 -18t59.5 -6q65 0 104 21v-121q-44 -21 -106 -21zM435 160q-36 0 -64 6.5t-61 18.5q-36 12 -61 18t-59 6q-32 0 -66.5 -7.5t-54.5 -21.5v118
q20 15 53.5 23.5t67.5 8.5q35 0 62 -6t63 -18t62.5 -18t59.5 -6q28 0 56 5t48 15v-120q-46 -22 -106 -22z" />
    <glyph glyph-name="divide.tf" 
d="M361 537q24 -24 24 -57q0 -35 -23.5 -58t-59.5 -23t-59 23t-23 58q0 33 23.5 57t58.5 24t59 -24zM542 238h-474v131h474v-131zM361 176q24 -24 24 -57q0 -35 -23.5 -58t-59.5 -23t-59 23t-23 58q0 33 23.5 57t58.5 24t59 -24z" />
    <glyph glyph-name="equal.tf" 
d="M541 351h-473v127h473v-127zM541 153h-473v127h473v-127z" />
    <glyph glyph-name="greater.tf" 
d="M348 328l-229 65v154l398 -143v-155l-398 -141v152z" />
    <glyph glyph-name="greaterequal.tf" 
d="M348 405l-233 46v143l387 -114v-150l-387 -114v140zM502 70h-387v130h387v-130z" />
    <glyph glyph-name="less.tf" 
d="M491 108l-398 141v155l398 143v-154l-229 -65l229 -68v-152z" />
    <glyph glyph-name="lessequal.tf" 
d="M496 216l-387 114v150l387 114v-143l-233 -46l233 -49v-140zM496 200v-130h-387v130h387z" />
    <glyph glyph-name="minus.tf" 
d="M541 238h-473v131h473v-131z" />
    <glyph glyph-name="multiply.tf" 
d="M398 303l132 -131l-93 -93l-132 132l-133 -132l-92 93l132 131l-132 132l92 93l133 -132l132 132l93 -93z" />
    <glyph glyph-name="notequal.tf" 
d="M387 351l-39 -71h193v-127h-261l-43 -77h-123l42 77h-88v127h157l39 71h-196v127h265l40 74h123l-40 -74h85v-127h-154z" />
    <glyph glyph-name="plus.tf" 
d="M541 238h-171v-174h-131v174h-171v131h171v174h131v-174h171v-131z" />
    <glyph glyph-name="plusminus.tf" 
d="M541 465v-130h-171v-141h-131v141h-171v130h171v160h131v-160h171zM68 130h473v-130h-473v130z" />
    <glyph glyph-name="bar.case" horiz-adv-x="265" 
d="M207 -41h-149v752h149v-752z" />
    <glyph glyph-name="at.case" horiz-adv-x="936" 
d="M671 509v-278q0 -22 14.5 -34t35.5 -12q39 0 60 48.5t21 111.5q0 88 -43.5 156.5t-118 106t-164.5 37.5q-96 0 -174.5 -43t-123 -119t-44.5 -171q0 -94 44.5 -169t121 -117t170.5 -42q132 0 240 83l45 -71q-55 -45 -129 -69.5t-154 -24.5q-119 0 -216.5 52.5t-153 145.5
t-55.5 210q0 118 56.5 213t154.5 148.5t218 53.5q113 0 207.5 -48.5t150 -134t55.5 -193.5q0 -60 -18.5 -116t-62 -92.5t-113.5 -36.5q-43 0 -73.5 15.5t-46.5 45.5q-48 -59 -137 -59q-56 0 -101 25t-71 71.5t-26 108.5q0 63 26.5 110t71.5 72t100 25q75 0 122 -47v38h111z
M531.5 238q28.5 28 28.5 74q0 45 -28.5 73t-67.5 28t-67 -27.5t-28 -73.5t28 -74t67 -28t67.5 28z" />
    <glyph glyph-name="caron.alt" horiz-adv-x="600" 
d="M354 451h-115v199h150z" />
    </font>
</defs>
</svg>
