<?xml version="1.0" standalone="no"?>
<!DOCTYPE svg PUBLIC "-//W3C//DTD SVG 1.1//EN" "http://www.w3.org/Graphics/SVG/1.1/DTD/svg11.dtd" >
<svg xmlns="http://www.w3.org/2000/svg" xmlns:xlink="http://www.w3.org/1999/xlink" version="1.1">
<metadata>
Created by FontForge 20170731 at Wed Sep 30 03:24:27 2015
 By Aleksey,,,
Copyright (c) 2015 by Rene' Bieder. All rights reserved.
</metadata>
<defs>
<font id="VIC-Regular" horiz-adv-x="610" >
  <font-face 
    font-family="VIC"
    font-weight="400"
    font-stretch="normal"
    units-per-em="1000"
    panose-1="0 0 5 0 0 0 0 0 0 0"
    ascent="800"
    descent="-200"
    x-height="493"
    cap-height="670"
    bbox="-382 -201 1187 935"
    underline-thickness="50"
    underline-position="-150"
    unicode-range="U+0020-FB02"
  />
<missing-glyph horiz-adv-x="792" 
d="M570 638.5q80 -45.5 127 -125.5t47 -180q0 -99 -47 -178.5t-127 -124.5t-174 -45t-174 45t-127 124.5t-47 178.5q0 100 47 180t127 125.5t174 45.5t174 -45.5zM242 606.5q-71 -40.5 -112.5 -112t-41.5 -160.5q0 -88 41.5 -159.5t112.5 -112t154 -40.5t154 40.5t112.5 112
t41.5 159.5q0 89 -41.5 160.5t-112.5 112t-154 40.5t-154 -40.5zM495 325q-32 -30 -82 -35v-43h-44v81h26q37 0 61.5 20t24.5 52q0 34 -22.5 55t-60.5 21q-39 0 -63.5 -24.5t-25.5 -63.5l-46 8q1 52 38.5 87t96.5 35q58 0 93.5 -32.5t35.5 -85.5q0 -45 -32 -75zM412 193.5
q9 -8.5 9 -20.5q0 -14 -9 -23t-22 -9t-22 9.5t-9 22.5q0 11 9 20t22 9t22 -8.5z" />
    <glyph glyph-name="fi" unicode="fi" horiz-adv-x="620" 
d="M524 0h-77v429h-265v-429h-76v429h-103v64h103v73q0 78 46 124.5t124 46.5q50 0 92 -24l-20 -62q-32 17 -67 17q-46 0 -72.5 -27.5t-26.5 -74.5v-73h342v-493zM448 605.5q-15 14.5 -15 36.5q0 21 15 36t37 15t37.5 -15t15.5 -36q0 -22 -15 -36.5t-38 -14.5
q-22 0 -37 14.5z" />
    <glyph glyph-name="fl" unicode="fl" horiz-adv-x="608" 
d="M182 493h162v-64h-162v-429h-76v429h-103v64h103v73q0 78 46 124.5t123 46.5q44 0 80 -18l-19 -62q-28 11 -56 11q-45 0 -71.5 -27.5t-26.5 -74.5v-73zM520 0h-76v720h76v-720z" />
    <glyph glyph-name=".notdef" horiz-adv-x="792" 
d="M570 638.5q80 -45.5 127 -125.5t47 -180q0 -99 -47 -178.5t-127 -124.5t-174 -45t-174 45t-127 124.5t-47 178.5q0 100 47 180t127 125.5t174 45.5t174 -45.5zM242 606.5q-71 -40.5 -112.5 -112t-41.5 -160.5q0 -88 41.5 -159.5t112.5 -112t154 -40.5t154 40.5t112.5 112
t41.5 159.5q0 89 -41.5 160.5t-112.5 112t-154 40.5t-154 -40.5zM495 325q-32 -30 -82 -35v-43h-44v81h26q37 0 61.5 20t24.5 52q0 34 -22.5 55t-60.5 21q-39 0 -63.5 -24.5t-25.5 -63.5l-46 8q1 52 38.5 87t96.5 35q58 0 93.5 -32.5t35.5 -85.5q0 -45 -32 -75zM412 193.5
q9 -8.5 9 -20.5q0 -14 -9 -23t-22 -9t-22 9.5t-9 22.5q0 11 9 20t22 9t22 -8.5z" />
    <glyph glyph-name=".null" horiz-adv-x="0" 
 />
    <glyph glyph-name="nonmarkingreturn" horiz-adv-x="333" 
 />
    <glyph glyph-name="space" unicode=" " horiz-adv-x="252" 
 />
    <glyph glyph-name="exclam" unicode="!" horiz-adv-x="269" 
d="M177 670v-31l-3 -440h-78l-2 440v31h83zM172 83q15 -15 15 -36t-15 -35.5t-37 -14.5t-37 14.5t-15 35.5t15 36t37 15t37 -15z" />
    <glyph glyph-name="quotedbl" unicode="&#x22;" horiz-adv-x="338" 
d="M55 392v278h78v-278h-78zM205 392v278h78v-278h-78z" />
    <glyph glyph-name="numbersign" unicode="#" horiz-adv-x="679" 
d="M525 421l-47 -185h108l-18 -65h-106l-43 -171h-69l43 171h-188l-43 -171h-69l43 171h-107l17 65h107l47 185h-108l18 65h106l47 184h69l-47 -184h187l47 184h69l-47 -184h109l-19 -65h-106zM456 421h-187l-47 -185h187z" />
    <glyph glyph-name="dollar" unicode="$" horiz-adv-x="590" 
d="M481.5 71.5q-54.5 -48.5 -145.5 -56.5v-115h-66v115q-79 8 -135.5 47t-74.5 103l75 29q13 -46 49 -75t88 -37v228l-41 10q-69 16 -109.5 53t-40.5 107q0 73 51 120.5t138 55.5v114h66v-114q64 -7 111.5 -39t70.5 -81l-71 -24q-16 31 -45.5 51t-67.5 26v-219l46 -11
q72 -17 114 -54.5t42 -107.5q0 -77 -54.5 -125.5zM272 384v206q-51 -7 -82 -36t-31 -72q0 -39 23.5 -60t70.5 -33zM428 115.5q34 30.5 34 77.5q0 41 -24.5 63t-75.5 34l-28 6v-216q60 5 94 35.5z" />
    <glyph glyph-name="percent" unicode="%" horiz-adv-x="847" 
d="M296.5 663.5q37.5 -19.5 60 -56t22.5 -84.5q0 -46 -22.5 -82t-60 -56t-81.5 -20t-81.5 20t-60.5 56t-23 82q0 48 22.5 84.5t60.5 56t82 19.5t81.5 -19.5zM139 0l501 670h55l-501 -670h-55zM140 600q-32 -29 -32 -76t32 -76t75 -29q42 0 73.5 29t31.5 76t-31.5 76
t-73.5 29q-43 0 -75 -29zM714.5 286.5q37.5 -19.5 60 -56t22.5 -84.5q0 -46 -22.5 -82.5t-60 -56.5t-81.5 -20t-81.5 20t-60.5 56.5t-23 82.5q0 48 22.5 84.5t60.5 56t82 19.5t81.5 -19.5zM558 223q-32 -29 -32 -76t32 -76t75 -29q42 0 73.5 29t31.5 76t-31.5 76t-73.5 29
q-43 0 -75 -29z" />
    <glyph glyph-name="ampersand" unicode="&#x26;" horiz-adv-x="711" 
d="M618 0l-90 76q-41 -44 -97 -66.5t-119 -22.5q-74 0 -130 25t-87 70.5t-31 104.5q0 60 34.5 107t93.5 75q-30 34 -43 67t-13 71q0 52 25 92t68.5 62t99.5 22q82 0 133.5 -47t62.5 -129l-72 -14q-6 64 -39 94.5t-85 30.5q-53 0 -86 -30.5t-33 -81.5q0 -47 31.5 -88
t113.5 -108l157 -133q25 53 25 120v43h68v-43q0 -95 -38 -166l156 -131h-105zM400.5 70q42.5 17 73.5 51l-177 150q-29 22 -59 51q-47 -22 -73.5 -57t-26.5 -78q0 -61 48 -97.5t126 -36.5q46 0 88.5 17z" />
    <glyph glyph-name="quotesingle" unicode="'" horiz-adv-x="188" 
d="M55 392v278h78v-278h-78z" />
    <glyph glyph-name="parenleft" unicode="(" horiz-adv-x="353" 
d="M173.5 140.5q36.5 -88.5 124.5 -175.5l-54 -47q-99 91 -144 194.5t-45 222.5t45 222.5t144 194.5l54 -48q-88 -86 -124.5 -174.5t-36.5 -194.5t36.5 -194.5z" />
    <glyph glyph-name="parenright" unicode=")" horiz-adv-x="353" 
d="M253 557.5q45 -103.5 45 -222.5t-45 -222.5t-144 -194.5l-54 47q88 87 124.5 175.5t36.5 194.5t-36.5 194.5t-124.5 174.5l54 48q99 -91 144 -194.5z" />
    <glyph glyph-name="asterisk" unicode="*" horiz-adv-x="427" 
d="M264 544l121 -69l-26 -44l-118 68v-132h-55v132l-118 -68l-26 44l120 69l-120 69l26 44l118 -68v131h55v-131l118 68l26 -44z" />
    <glyph glyph-name="plus" unicode="+" horiz-adv-x="580" 
d="M510 271h-186v-188h-68v188h-186v68h186v188h68v-188h186v-68z" />
    <glyph glyph-name="comma" unicode="," horiz-adv-x="210" 
d="M75 -132h-60l66 263h90v-2z" />
    <glyph glyph-name="hyphen" unicode="-" horiz-adv-x="443" 
d="M383 222h-323v67h323v-67z" />
    <glyph glyph-name="period" unicode="." horiz-adv-x="204" 
d="M139 83q15 -15 15 -36t-15 -35.5t-37 -14.5t-37 14.5t-15 35.5t15 36t37 15t37 -15z" />
    <glyph glyph-name="slash" unicode="/" horiz-adv-x="368" 
d="M361 741l-288 -813h-65l288 813h65z" />
    <glyph glyph-name="zero" unicode="0" horiz-adv-x="665" 
d="M478 639.5q63 -43.5 97.5 -122.5t34.5 -182t-34.5 -182t-97.5 -122.5t-145 -43.5t-145 43.5t-98 122.5t-35 182q0 102 35 181t98 123t145 44t145 -43.5zM436.5 95.5q44.5 34.5 69 96.5t24.5 143t-24.5 143.5t-69 97t-103.5 34.5t-104 -34.5t-69.5 -97t-24.5 -143.5
t24.5 -143t69.5 -96.5t104 -34.5t103.5 34.5z" />
    <glyph glyph-name="one" unicode="1" horiz-adv-x="355" 
d="M268 670v-670h-77v575l-179 -100v73l207 122h49z" />
    <glyph glyph-name="two" unicode="2" horiz-adv-x="515" 
d="M482 72v-72h-451v51l239 223q48 44 73 71t40.5 59.5t15.5 72.5q0 61 -40.5 99t-105.5 38q-69 0 -109.5 -42t-43.5 -118l-73 15q4 97 66 155.5t161 58.5q65 0 115.5 -26t78 -72.5t27.5 -106.5q0 -48 -17 -87t-49 -76.5t-91 -92.5l-163 -150h327z" />
    <glyph glyph-name="three" unicode="3" horiz-adv-x="586" 
d="M497.5 288.5q30.5 -39.5 30.5 -96.5q0 -61 -28.5 -107.5t-80.5 -72t-119 -25.5q-70 0 -124 27.5t-85 76.5t-35 114l74 15q5 -75 50 -119t120 -44q69 0 112.5 37t43.5 97q0 55 -39.5 86t-109.5 31h-93v69h88q65 0 102.5 29.5t37.5 81.5q0 56 -40 90.5t-106 34.5
q-69 0 -111.5 -40.5t-46.5 -114.5l-73 14q7 95 69.5 153t162.5 58q65 0 114.5 -24.5t76.5 -69t27 -101.5q0 -53 -27 -91.5t-75 -54.5q54 -14 84.5 -53.5z" />
    <glyph glyph-name="four" unicode="4" horiz-adv-x="620" 
d="M589 161h-104v-161h-77v161h-373v76l350 433h100v-444h104v-65zM408 226v361l-287 -361h287z" />
    <glyph glyph-name="five" unicode="5" horiz-adv-x="560" 
d="M400.5 395q53.5 -28 83 -76.5t29.5 -108.5q0 -63 -29.5 -114t-83 -80t-120.5 -29q-90 0 -157 48t-85 131l76 20q13 -60 58.5 -93.5t107.5 -33.5q44 0 79.5 20t55.5 54.5t20 76.5q0 39 -20 71.5t-55.5 51.5t-79.5 19h-217l40 318h391v-71h-324l-23 -176h133
q67 0 120.5 -28z" />
    <glyph glyph-name="six" unicode="6" horiz-adv-x="609" 
d="M446 404.5q52 -28.5 80 -78.5t28 -113q0 -64 -29.5 -115.5t-82.5 -81t-123 -29.5q-125 0 -194.5 87t-69.5 243q0 199 91 293q34 35 79 54t98 19q79 0 136 -38.5t77 -108.5l-76 -15q-14 46 -50 69t-90 23q-38 0 -69 -14t-54 -39q-73 -80 -67 -234q25 49 78.5 78t116.5 29
q69 0 121 -28.5zM399 79.5q36 20.5 56.5 56t20.5 78.5t-20.5 78t-56.5 55t-81 20q-47 0 -84 -21t-57 -56.5t-20 -78.5q0 -44 21.5 -78.5t58.5 -54t81 -19.5q45 0 81 20.5z" />
    <glyph glyph-name="seven" unicode="7" horiz-adv-x="495" 
d="M477 616l-282 -616h-87l280 599h-365v71h454v-54z" />
    <glyph glyph-name="eight" unicode="8" horiz-adv-x="578" 
d="M498.5 279q36.5 -46 36.5 -102t-30.5 -99t-86 -67t-128.5 -24t-129 24t-87 67t-31 99t37 101.5t109 64.5q-64 19 -95.5 62.5t-31.5 100.5q0 53 28 93t80 62t120 22t119.5 -22t79.5 -62t28 -93q0 -56 -32 -100t-95 -63q72 -18 108.5 -64zM181 414q41 -32 108 -32
q68 0 109 33t41 86t-42 85t-108 32t-107.5 -32.5t-41.5 -87.5q0 -52 41 -84zM404 89.5q45 34.5 45 91.5q0 56 -44 91t-116 35q-71 0 -115 -35t-44 -92q0 -58 44 -91.5t115 -33.5q70 0 115 34.5z" />
    <glyph glyph-name="nine" unicode="9" horiz-adv-x="609" 
d="M484.5 596q69.5 -87 69.5 -243q0 -97 -21.5 -170t-69.5 -123q-34 -35 -79 -54t-98 -19q-79 0 -136 39t-76 109l76 14q13 -46 49.5 -69t89.5 -23q37 0 68.5 14t54.5 39q73 80 67 234q-26 -49 -79.5 -78t-115.5 -29q-69 0 -121 28.5t-80 79t-28 113.5q0 64 29.5 115.5
t83 80.5t122.5 29q125 0 194.5 -87zM375.5 324q36.5 21 57 57t20.5 78q0 44 -21.5 79t-58.5 54.5t-81 19.5q-46 0 -82 -20.5t-56 -56t-20 -78.5q0 -44 20.5 -79t56.5 -55t81 -20q47 0 83.5 21z" />
    <glyph glyph-name="colon" unicode=":" horiz-adv-x="204" 
d="M139 447q15 -15 15 -36t-15 -35.5t-37 -14.5t-37 14.5t-15 35.5t15 36t37 15t37 -15zM139 83q15 -15 15 -36t-15 -35.5t-37 -14.5t-37 14.5t-15 35.5t15 36t37 15t37 -15z" />
    <glyph glyph-name="semicolon" unicode=";" horiz-adv-x="231" 
d="M75 -132h-60l66 263h90v-2zM166 447q15 -15 15 -36t-15 -35.5t-37 -14.5t-37 14.5t-15 35.5t15 36t37 15t37 -15z" />
    <glyph glyph-name="less" unicode="&#x3c;" horiz-adv-x="437" 
d="M398 120l-366 159v76l366 160v-82l-274 -116l274 -117v-80z" />
    <glyph glyph-name="equal" unicode="=" horiz-adv-x="580" 
d="M510 379h-440v68h440v-68zM510 190h-440v68h440v-68z" />
    <glyph glyph-name="greater" unicode="&#x3e;" horiz-adv-x="437" 
d="M314 317l-274 116v82l367 -160v-76l-367 -159v80z" />
    <glyph glyph-name="question" unicode="?" horiz-adv-x="481" 
d="M345 659.5q46 -23.5 71.5 -66.5t25.5 -99q0 -74 -47.5 -125t-141.5 -72v-95h-72v143q92 12 139.5 50t47.5 98q0 55 -36 88.5t-95 33.5q-43 0 -82.5 -23t-66.5 -69l-61 37q31 58 87 90.5t124 32.5q61 0 107 -23.5zM254 83q15 -15 15 -36t-15 -35.5t-37 -14.5t-37 14.5
t-15 35.5t15 36t37 15t37 -15z" />
    <glyph glyph-name="at" unicode="@" horiz-adv-x="959" 
d="M663 473v-295q0 -30 20.5 -48t51.5 -18q52 0 79.5 55.5t27.5 130.5q0 97 -47.5 174t-129.5 120t-182 43q-103 0 -186.5 -46t-131 -127.5t-47.5 -182.5t47.5 -182.5t128 -127.5t177.5 -46q61 0 126 18.5t113 51.5l27 -43q-50 -36 -123 -56.5t-142 -20.5q-111 0 -204.5 52
t-148 145t-54.5 208t54.5 207.5t150 145t213.5 52.5q114 0 208 -49.5t148.5 -137t54.5 -196.5q0 -95 -41 -164.5t-125 -69.5q-47 0 -77.5 21.5t-38.5 58.5q-25 -36 -64 -56t-88 -20q-56 0 -101.5 25.5t-72 72t-26.5 107.5t26.5 108t72 72.5t100.5 25.5q47 0 86 -19.5
t65 -54.5v66h53zM538 141q33 19 52.5 54t19.5 81q0 45 -19.5 79.5t-52.5 53t-72 18.5t-72 -18.5t-53 -53t-20 -79.5q0 -46 20 -81t53 -54t72 -19t72 19z" />
    <glyph glyph-name="A" unicode="A" horiz-adv-x="663" 
d="M653 0h-85l-70 170h-333l-70 -170h-85l284 670h75zM468 241l-136 331l-137 -331h273z" />
    <glyph glyph-name="B" unicode="B" horiz-adv-x="668" 
d="M578.5 291.5q38.5 -42.5 38.5 -109.5q0 -82 -54.5 -132t-153.5 -50h-321v670h308q93 0 146 -48t53 -128q0 -61 -33.5 -102.5t-79.5 -47.5v-3q58 -7 96.5 -49.5zM167 602v-232h228q56 0 90.5 33t34.5 87q0 51 -35.5 81.5t-95.5 30.5h-222zM500.5 101q36.5 33 36.5 88
q0 53 -37.5 85t-96.5 32h-236v-238h235q62 0 98.5 33z" />
    <glyph glyph-name="C" unicode="C" horiz-adv-x="743" 
d="M691 141q-43 -73 -118.5 -113.5t-169.5 -40.5q-96 0 -176 46t-126 126t-46 176t46 176t126 126t176 46q88 0 160.5 -35.5t117.5 -99.5l-69 -38q-35 48 -89 73.5t-120 25.5q-74 0 -135.5 -36t-97 -99t-35.5 -139t35.5 -138.5t97 -99t135.5 -36.5q70 0 126.5 29t90.5 84z
" />
    <glyph glyph-name="D" unicode="D" horiz-adv-x="736" 
d="M509 626.5q84 -43.5 128 -119.5t44 -172q0 -95 -44.5 -171.5t-128 -120t-198.5 -43.5h-222v670h222q115 0 199 -43.5zM466 106.5q66 34.5 100.5 94t34.5 134.5t-34.5 135t-100.5 94.5t-157 34.5h-142v-527h142q91 0 157 34.5z" />
    <glyph glyph-name="E" unicode="E" horiz-adv-x="637" 
d="M577 72v-72h-489v670h488v-71h-409v-227h380v-71h-380v-229h410z" />
    <glyph glyph-name="F" unicode="F" horiz-adv-x="590" 
d="M167 599v-234h366v-71h-366v-294h-79v670h480v-71h-401z" />
    <glyph glyph-name="G" unicode="G" horiz-adv-x="795" 
d="M740 334q0 -96 -42.5 -175.5t-119.5 -125.5t-174 -46q-96 0 -176 46t-126.5 126t-46.5 176t46.5 175.5t127 126t176.5 46.5q82 0 151 -31t115 -88l-65 -44q-35 42 -87 65.5t-114 23.5q-74 0 -136 -36t-98 -99t-36 -139t36 -138.5t98 -99t137 -36.5q70 0 125.5 30.5
t89.5 83.5t42 121h-229v72h305q1 -13 1 -34z" />
    <glyph glyph-name="H" unicode="H" horiz-adv-x="736" 
d="M648 670v-670h-79v302h-402v-302h-79v670h79v-297h402v297h79z" />
    <glyph glyph-name="I" unicode="I" horiz-adv-x="254" 
d="M167 0h-79v670h79v-670z" />
    <glyph glyph-name="J" unicode="J" horiz-adv-x="595" 
d="M516 670v-426q0 -74 -31 -132.5t-87.5 -91.5t-129.5 -33q-100 0 -165 59.5t-79 156.5l75 17q9 -73 53.5 -117t115.5 -44q75 0 122 52t47 133v426h79z" />
    <glyph glyph-name="K" unicode="K" horiz-adv-x="631" 
d="M606 0h-108l-313 297h-18v-297h-79v670h79v-302h18l307 302h93l-336 -336z" />
    <glyph glyph-name="L" unicode="L" horiz-adv-x="586" 
d="M551 72v-72h-463v670h79v-598h384z" />
    <glyph glyph-name="M" unicode="M" horiz-adv-x="848" 
d="M760 670v-670h-76v525l-239 -352h-41l-240 352v-525h-76v670h69l267 -398l267 398h69z" />
    <glyph glyph-name="N" unicode="N" horiz-adv-x="760" 
d="M673 670v-670h-68l-438 532v-532h-79v670h68l438 -538v538h79z" />
    <glyph glyph-name="O" unicode="O" horiz-adv-x="803" 
d="M576.5 636.5q79.5 -46.5 125.5 -126t46 -175.5t-46 -176t-125 -126t-175 -46t-175.5 46t-125.5 126t-46 176t46 175.5t125.5 126t175.5 46.5q95 0 174.5 -46.5zM536.5 98q60.5 36 96 98.5t35.5 138.5t-35.5 138.5t-96.5 99t-134 36.5q-74 0 -135 -36.5t-96.5 -99
t-35.5 -138.5t35.5 -138.5t96.5 -98.5t135 -36t134.5 36z" />
    <glyph glyph-name="P" unicode="P" horiz-adv-x="651" 
d="M503 644q53 -26 81.5 -73.5t28.5 -108.5t-28.5 -108.5t-81.5 -73.5t-123 -26h-213v-254h-79v670h292q70 0 123 -26zM493 363q42 38 42 99t-42 99t-113 38h-213v-274h213q71 0 113 38z" />
    <glyph glyph-name="Q" unicode="Q" horiz-adv-x="803" 
d="M671 0l-56 60q-44 -35 -98.5 -54t-114.5 -19q-96 0 -175.5 46t-125.5 126t-46 176t46 175.5t125.5 126t175.5 46.5q95 0 174.5 -46.5t125.5 -126t46 -175.5q0 -64 -21.5 -122t-59.5 -104l101 -109h-97zM563 116l-129 140h97l83 -90q54 73 54 169q0 76 -35.5 138.5
t-96.5 99t-134 36.5q-74 0 -135 -36.5t-96.5 -99t-35.5 -138.5t35.5 -138.5t96.5 -98.5t135 -36q93 0 161 54z" />
    <glyph glyph-name="R" unicode="R" horiz-adv-x="670" 
d="M635 0h-101l-207 252h-160v-252h-79v670h292q70 0 123.5 -26t83.5 -73.5t30 -109.5q0 -85 -54 -140.5t-145 -66.5zM167 324h213q71 0 114.5 38t43.5 99q0 62 -43.5 100t-114.5 38h-213v-275z" />
    <glyph glyph-name="S" unicode="S" horiz-adv-x="627" 
d="M155.5 30q-71.5 43 -95.5 119l80 30q18 -58 69 -90t122 -32q76 0 119.5 34.5t43.5 90.5q0 46 -25 68.5t-84 36.5l-143 33q-161 36 -161 171q0 57 29.5 100.5t83.5 67.5t125 24q82 0 142.5 -35t90.5 -96l-76 -26q-21 42 -62.5 65t-96.5 23q-68 0 -110 -33.5t-42 -87.5
q0 -43 25 -65.5t76 -34.5l138 -33q78 -19 123.5 -59t45.5 -115q0 -60 -31 -105t-87 -69.5t-131 -24.5q-97 0 -168.5 43z" />
    <glyph glyph-name="T" unicode="T" horiz-adv-x="627" 
d="M602 599h-248v-599h-80v599h-249v71h577v-71z" />
    <glyph glyph-name="U" unicode="U" horiz-adv-x="721" 
d="M641 670v-377q0 -91 -34.5 -160t-98 -107.5t-146.5 -38.5q-84 0 -148 38.5t-99 107.5t-35 160v377h79v-377q0 -69 25.5 -121t71.5 -80.5t106 -28.5q59 0 104.5 28.5t70.5 80.5t25 121v377h79z" />
    <glyph glyph-name="V" unicode="V" horiz-adv-x="696" 
d="M678 670l-292 -670h-76l-292 670h86l244 -562l244 562h86z" />
    <glyph glyph-name="W" unicode="W" horiz-adv-x="953" 
d="M936 670l-206 -670h-83l-170 544l-171 -544h-82l-206 670h82l167 -549l171 549h77l171 -549l167 549h83z" />
    <glyph glyph-name="X" unicode="X" horiz-adv-x="632" 
d="M518 0l-202 286l-201 -286h-97l239 337l-234 333h96l197 -282l197 282h97l-235 -333l240 -337h-97z" />
    <glyph glyph-name="Y" unicode="Y" horiz-adv-x="671" 
d="M374 234v-234h-79v233l-277 437h88l228 -357l228 357h91z" />
    <glyph glyph-name="Z" unicode="Z" horiz-adv-x="626" 
d="M575 68v-68h-516v50l410 552h-398v68h500v-57l-401 -545h405z" />
    <glyph glyph-name="bracketleft" unicode="[" horiz-adv-x="391" 
d="M162 674v-690h174v-66h-248v823h248v-67h-174z" />
    <glyph glyph-name="backslash" unicode="\" horiz-adv-x="368" 
d="M361 -72h-65l-288 813h65z" />
    <glyph glyph-name="bracketright" unicode="]" horiz-adv-x="391" 
d="M304 -82h-249v66h174v690h-174v67h249v-823z" />
    <glyph glyph-name="asciicircum" unicode="^" horiz-adv-x="394" 
d="M95 456h-70l145 214h54l145 -214h-70l-102 148z" />
    <glyph glyph-name="underscore" unicode="_" horiz-adv-x="505" 
d="M485 -121h-465v65h465v-65z" />
    <glyph glyph-name="grave" unicode="`" horiz-adv-x="600" 
d="M259 707l79 -140h-66l-102 140h89z" />
    <glyph glyph-name="a" unicode="a" horiz-adv-x="644" 
d="M556 493v-493h-76v77q-34 -43 -84.5 -66.5t-111.5 -23.5q-66 0 -122.5 32.5t-90 91.5t-33.5 135t33.5 135t90 91.5t122.5 32.5q61 0 111.5 -23.5t84.5 -66.5v78h76zM382 77q41 22 67.5 62t30.5 92v30q-4 53 -30.5 93t-67.5 62t-86 22q-51 0 -93 -23.5t-66.5 -67
t-24.5 -101.5q0 -57 24.5 -100.5t66.5 -67t93 -23.5q45 0 86 22z" />
    <glyph glyph-name="b" unicode="b" horiz-adv-x="649" 
d="M482.5 472.5q56.5 -32.5 90 -91.5t33.5 -135t-33.5 -135t-90 -91.5t-122.5 -32.5q-61 0 -112 23.5t-84 67.5v-78h-76v720h76v-306q33 44 84 67.5t112 23.5q66 0 122.5 -32.5zM441 78.5q42 23.5 66.5 67t24.5 100.5q0 58 -24.5 101.5t-66.5 67t-93 23.5q-47 0 -89.5 -24
t-68.5 -67.5t-26 -100.5q0 -56 26 -99.5t68.5 -67.5t89.5 -24q51 0 93 23.5z" />
    <glyph glyph-name="c" unicode="c" horiz-adv-x="565" 
d="M523 125q-29 -64 -89 -101t-134 -37q-70 0 -128.5 32.5t-93.5 91.5t-35 135q0 75 35 134.5t93.5 92t128.5 32.5q71 0 130 -34.5t90 -95.5l-71 -28q-22 43 -61.5 65.5t-87.5 22.5q-50 0 -92 -24t-66.5 -67t-24.5 -98q0 -56 24.5 -99t66 -66t92.5 -23q50 0 90 23.5t63 69.5
z" />
    <glyph glyph-name="d" unicode="d" horiz-adv-x="649" 
d="M561 720v-720h-76v77q-34 -43 -84.5 -66.5t-111.5 -23.5q-66 0 -122.5 32.5t-90 91.5t-33.5 135t33.5 135t90 91.5t122.5 32.5q61 0 111.5 -23.5t84.5 -66.5v305h76zM387 77q41 22 67.5 62t30.5 92v30q-4 53 -30.5 93t-67.5 62t-86 22q-51 0 -93 -23.5t-66.5 -67
t-24.5 -101.5q0 -57 24.5 -100.5t66.5 -67t93 -23.5q45 0 86 22z" />
    <glyph glyph-name="e" unicode="e" horiz-adv-x="583" 
d="M540 231h-423q3 -54 29 -94t66 -61.5t85 -21.5q105 0 158 76l61 -31q-33 -55 -89.5 -83.5t-129.5 -28.5q-67 0 -125.5 32t-93.5 91t-35 135q0 77 35 136t93.5 91.5t126.5 32.5q66 0 120.5 -31t87 -87t34.5 -128v-28zM219 420q-38 -18 -65 -52t-34 -80h343
q-10 71 -55.5 110.5t-109.5 39.5q-41 0 -79 -18z" />
    <glyph glyph-name="f" unicode="f" horiz-adv-x="356" 
d="M182 493h162v-64h-162v-429h-76v429h-103v64h103v73q0 78 46 124.5t123 46.5q44 0 80 -18l-19 -62q-28 11 -56 11q-45 0 -71.5 -27.5t-26.5 -74.5v-73z" />
    <glyph glyph-name="g" unicode="g" horiz-adv-x="633" 
d="M546 40q0 -71 -33.5 -123t-91.5 -79.5t-133 -27.5q-70 0 -125.5 22t-88.5 63l51 56q59 -72 162 -72q81 0 132.5 46.5t51.5 124.5v60q-30 -39 -77 -60t-108 -21q-65 0 -120.5 31t-89 85.5t-33.5 122.5t33.5 122t89 84.5t120.5 30.5q60 0 107 -21t78 -60v69h74zM383 116.5
q40 21.5 64 61t24 90.5t-24 90t-64 60t-86 21q-50 0 -91 -21t-65 -60t-24 -90t24 -90.5t65 -61t91 -21.5q46 0 86 21.5z" />
    <glyph glyph-name="h" unicode="h" horiz-adv-x="625" 
d="M454 478.5q45 -26.5 69.5 -74t24.5 -109.5v-295h-76v281q0 69 -38 111.5t-99 42.5q-79 0 -125 -52t-46 -146v-237h-76v720h76v-308q30 45 77.5 69t108.5 24q59 0 104 -26.5z" />
    <glyph glyph-name="i" unicode="i" horiz-adv-x="269" 
d="M171.5 678q15.5 -15 15.5 -36q0 -22 -15 -36.5t-38 -14.5q-22 0 -37 14.5t-15 36.5q0 21 15 36t37 15t37.5 -15zM173 0h-77v493h77v-493z" />
    <glyph glyph-name="j" unicode="j" horiz-adv-x="285" 
d="M188 678q15 -15 15 -36q0 -22 -15 -36.5t-37 -14.5q-23 0 -38 14.5t-15 36.5q0 21 15 36t38 15q22 0 37 -15zM48 -108q29 0 47 16.5t18 44.5v540h77v-549q0 -56 -34 -90t-90 -34q-43 0 -82 17l17 66q25 -11 47 -11z" />
    <glyph glyph-name="k" unicode="k" horiz-adv-x="569" 
d="M564 0h-113l-272 218h-15v-218h-76v720h76v-427h17l247 200h104l-296 -238z" />
    <glyph glyph-name="l" unicode="l" horiz-adv-x="252" 
d="M164 0h-76v720h76v-720z" />
    <glyph glyph-name="m" unicode="m" horiz-adv-x="946" 
d="M780 481.5q42 -23.5 66 -65.5t24 -97v-319h-76v306q0 58 -35.5 93.5t-91.5 35.5q-69 0 -110 -48.5t-41 -134.5v-252h-76v306q0 58 -35.5 93.5t-90.5 35.5q-69 0 -109.5 -48.5t-40.5 -134.5v-252h-76v493h76v-74q27 41 69.5 63.5t98.5 22.5q57 0 101.5 -26.5t66.5 -74.5
q29 48 76.5 74.5t109.5 26.5q52 0 94 -23.5z" />
    <glyph glyph-name="n" unicode="n" horiz-adv-x="624" 
d="M454 478.5q45 -26.5 69.5 -74t24.5 -109.5v-295h-76v281q0 69 -38 111.5t-99 42.5q-79 0 -125 -52t-46 -146v-237h-76v493h76v-81q30 45 77.5 69t108.5 24q59 0 104 -26.5z" />
    <glyph glyph-name="o" unicode="o" horiz-adv-x="608" 
d="M437 471q60 -33 94.5 -91.5t34.5 -132.5t-35 -133t-94.5 -92.5t-131.5 -33.5q-73 0 -133 33.5t-94.5 92.5t-34.5 133t34.5 132.5t94.5 91.5t133 33q72 0 132 -33zM398 79.5q43 24.5 68 68t25 99.5q0 55 -25 98.5t-68 67.5t-93 24q-51 0 -94 -24t-68.5 -67.5t-25.5 -98.5
q0 -56 25.5 -99.5t68.5 -68t94 -24.5q50 0 93 24.5z" />
    <glyph glyph-name="p" unicode="p" horiz-adv-x="649" 
d="M482.5 472.5q56.5 -32.5 90 -91.5t33.5 -135t-33.5 -135t-90 -91.5t-122.5 -32.5q-61 0 -112 23.5t-84 67.5v-248h-76v663h76v-79q33 44 84 67.5t112 23.5q66 0 122.5 -32.5zM441 78.5q42 23.5 66.5 67t24.5 100.5q0 58 -24.5 101.5t-66.5 67t-93 23.5q-47 0 -89.5 -24
t-68.5 -67.5t-26 -100.5q0 -56 26 -99.5t68.5 -67.5t89.5 -24q51 0 93 23.5z" />
    <glyph glyph-name="q" unicode="q" horiz-adv-x="649" 
d="M561 493v-663h-76v247q-34 -43 -84.5 -66.5t-111.5 -23.5q-66 0 -122.5 32.5t-90 91.5t-33.5 135t33.5 135t90 91.5t122.5 32.5q61 0 111.5 -23.5t84.5 -66.5v78h76zM387 77q41 22 67.5 62t30.5 92v30q-4 53 -30.5 93t-67.5 62t-86 22q-51 0 -93 -23.5t-66.5 -67
t-24.5 -101.5q0 -57 24.5 -100.5t66.5 -67t93 -23.5q45 0 86 22z" />
    <glyph glyph-name="r" unicode="r" horiz-adv-x="412" 
d="M398 494l-6 -73q-9 1 -29 1q-95 0 -146.5 -64t-51.5 -168v-190h-77v493h77v-122q32 58 82 92.5t116 34.5q21 0 35 -4z" />
    <glyph glyph-name="s" unicode="s" horiz-adv-x="506" 
d="M174.5 71.5q38.5 -21.5 92.5 -21.5q53 0 85.5 23t32.5 61q0 29 -20.5 45.5t-60.5 25.5l-108 25q-128 28 -128 126q0 67 51 108t136 41q72 0 121.5 -29.5t70.5 -79.5l-71 -22q-13 32 -45 50.5t-78 18.5q-51 0 -80 -22.5t-29 -58.5q0 -28 18.5 -43.5t56.5 -24.5l114 -26
q127 -30 127 -129q0 -72 -54.5 -112t-144.5 -40q-78 0 -134.5 30.5t-74.5 86.5l73 29q11 -40 49.5 -61.5z" />
    <glyph glyph-name="t" unicode="t" horiz-adv-x="394" 
d="M384 26q-30 -21 -57 -30t-57 -9q-75 0 -119 43.5t-44 123.5v275h-107v64h107v157h77v-157h176v-64h-176v-270q0 -47 24.5 -73.5t66.5 -26.5q21 0 43 8t41 22z" />
    <glyph glyph-name="u" unicode="u" horiz-adv-x="624" 
d="M537 493v-492h-77v80q-30 -45 -77.5 -69t-108.5 -24q-59 0 -104 26.5t-69.5 74t-24.5 109.5v295h77v-281q0 -69 37.5 -111t98.5 -42q79 0 125 51.5t46 145.5v237h77z" />
    <glyph glyph-name="v" unicode="v" horiz-adv-x="555" 
d="M537 493l-218 -493h-83l-218 493h83l176 -404l177 404h83z" />
    <glyph glyph-name="w" unicode="w" horiz-adv-x="769" 
d="M751 493l-166 -495h-71l-129 374l-130 -374h-71l-166 495h77l127 -382l132 382h61l131 -383l128 383h77z" />
    <glyph glyph-name="x" unicode="x" horiz-adv-x="578" 
d="M345 243l188 -243h-92l-152 197l-152 -197h-92l188 243l-188 250h92l152 -203l152 203h92z" />
    <glyph glyph-name="y" unicode="y" horiz-adv-x="563" 
d="M545 493l-337 -663h-85l116 228l-221 435h86l179 -348l177 348h85z" />
    <glyph glyph-name="z" unicode="z" horiz-adv-x="506" 
d="M466 64v-64h-426v52l321 377h-312v64h407v-53l-321 -376h331z" />
    <glyph glyph-name="braceleft" unicode="{" horiz-adv-x="430" 
d="M209 372q-18 -29 -50 -43q32 -14 50 -42.5t18 -67.5v-168q0 -31 18 -49.5t47 -18.5h83v-65h-92q-59 0 -94.5 34.5t-35.5 91.5v167q0 36 -23 57.5t-62 26.5l-23 5v59l23 5q39 5 62 26t23 58v167q0 56 36 91t94 35h92v-66h-83q-29 0 -47 -18.5t-18 -48.5v-168
q0 -39 -18 -68z" />
    <glyph glyph-name="bar" unicode="|" horiz-adv-x="250" 
d="M162 -72h-74v813h74v-813z" />
    <glyph glyph-name="braceright" unicode="}" horiz-adv-x="430" 
d="M385 359v-59l-23 -5q-39 -5 -62 -26.5t-23 -57.5v-167q0 -57 -35.5 -91.5t-94.5 -34.5h-92v65h83q29 0 47 18.5t18 49.5v168q0 39 18 67.5t49 42.5q-31 14 -49 43t-18 68v168q0 30 -18 48.5t-47 18.5h-83v66h92q58 0 94 -35t36 -91v-167q0 -37 23 -58t62 -26z" />
    <glyph glyph-name="asciitilde" unicode="~" horiz-adv-x="476" 
d="M78 334.5q33 31.5 78 31.5q28 0 47.5 -9t44.5 -27q20 -14 34 -21t31 -7q25 0 39.5 17t13.5 46h67q0 -66 -34.5 -98t-80.5 -32q-28 0 -47 9t-46 27q-19 14 -32.5 21t-30.5 7q-26 0 -41 -17t-13 -44h-63q0 65 33 96.5z" />
    <glyph glyph-name="exclamdown" unicode="&#xa1;" horiz-adv-x="269" 
d="M98 418q-15 15 -15 36t15 35.5t37 14.5t37 -14.5t15 -35.5t-15 -36t-37 -15t-37 15zM94 -138l2 440h78l3 -440v-31h-83v31z" />
    <glyph glyph-name="cent" unicode="&#xa2;" horiz-adv-x="576" 
d="M444 31q-52 -36 -117 -42v-119h-66v120q-61 9 -110.5 43t-78.5 89t-29 124q0 68 29 123.5t78.5 89.5t110.5 43v128h66v-126q63 -7 114 -41t79 -88l-71 -28q-19 37 -51.5 59t-72.5 27v-373q42 5 75 28t53 63l70 -26q-27 -58 -79 -94zM158 122.5q41 -49.5 106 -61.5v370
q-65 -12 -106 -62t-41 -123q0 -74 41 -123.5z" />
    <glyph glyph-name="sterling" unicode="&#xa3;" horiz-adv-x="643" 
d="M595 72v-72h-540v49l85 16v207h-85v71h85v118q0 65 28.5 115.5t79.5 78.5t118 28q100 0 160.5 -61t64.5 -160l-74 -15q-4 76 -44 118t-107 42q-66 0 -106.5 -40t-40.5 -106v-118h234v-71h-234v-200h376z" />
    <glyph glyph-name="yen" unicode="&#xa5;" horiz-adv-x="666" 
d="M404 313h161v-60h-194v-75h194v-60h-194v-118h-79v118h-190v60h190v75h-190v60h157l-229 357h88l214 -338l213 338h91z" />
    <glyph glyph-name="section" unicode="&#xa7;" horiz-adv-x="532" 
d="M468.5 153q-23.5 -34 -60.5 -50q36 -39 36 -93q0 -70 -51.5 -110.5t-133.5 -40.5q-97 0 -150.5 48t-53.5 128l67 14q2 -63 36.5 -96.5t97.5 -33.5q50 0 81.5 26t31.5 67q0 27 -16 47.5t-52 36.5l-148 65q-64 27 -92 60.5t-28 83.5q0 49 24 82.5t61 50.5q-37 38 -37 93
q0 70 51.5 111t133.5 41q90 0 142.5 -48t54.5 -125l-68 -14q-1 60 -34.5 92.5t-90.5 32.5q-51 0 -82.5 -25.5t-31.5 -66.5q0 -27 16 -47t52 -36l148 -66q64 -27 92 -60.5t28 -83.5q0 -49 -23.5 -83zM404.5 178q16.5 21 16.5 53q0 28 -17.5 49t-63.5 43l-149 67q-8 3 -22 11
q-65 -29 -65 -91q0 -28 17.5 -49t63.5 -42l150 -68l20 -10q33 16 49.5 37z" />
    <glyph glyph-name="dieresis" unicode="&#xa8;" horiz-adv-x="600" 
d="M238.5 664q15.5 -15 15.5 -36q0 -22 -15 -36.5t-38 -14.5q-22 0 -37 14.5t-15 36.5q0 21 15 36t37 15t37.5 -15zM436.5 664q15.5 -15 15.5 -36q0 -22 -15 -36.5t-38 -14.5q-22 0 -37 14.5t-15 36.5q0 21 15 36t37 15t37.5 -15z" />
    <glyph glyph-name="copyright" unicode="&#xa9;" horiz-adv-x="775" 
d="M560 638q80 -45 126.5 -125t46.5 -180q0 -98 -47 -177t-126.5 -124t-173.5 -45t-173.5 45t-126.5 124t-47 177q0 100 46.5 180t126.5 125t174 45t174 -45zM233 605q-70 -40 -111.5 -111.5t-41.5 -159.5q0 -87 41.5 -157.5t111.5 -110.5t153 -40t153 40t111.5 110.5
t41.5 157.5q0 88 -41.5 159.5t-111.5 111.5t-153 40t-153 -40zM511 485.5q49 -37.5 58 -95.5l-53 -11q-10 41 -45 66.5t-79 25.5q-56 0 -94 -38.5t-38 -97.5q0 -60 38 -98.5t94 -38.5q45 0 80 26t44 69l53 -10q-10 -61 -58.5 -99t-118.5 -38q-51 0 -94.5 23.5t-69 67
t-25.5 98.5t25.5 98t69 66.5t94.5 23.5q70 0 119 -37.5z" />
    <glyph glyph-name="ordfeminine" unicode="&#xaa;" horiz-adv-x="387" 
d="M302.5 641q37.5 -32 37.5 -93v-205h-58v39q-40 -47 -116 -47q-52 0 -83.5 27.5t-31.5 72.5t37.5 71.5t102.5 26.5h91v18q0 35 -21 55.5t-56 20.5q-68 0 -84 -68l-52 12q10 50 45.5 76t87.5 26q63 0 100.5 -32zM253 404.5q29 25.5 29 64.5v25h-86q-41 0 -63.5 -16
t-22.5 -43q0 -26 18.5 -41t49.5 -15q46 0 75 25.5z" />
    <glyph glyph-name="guillemotleft" unicode="&#xab;" horiz-adv-x="415" 
d="M25 262l122 178h78l-122 -178l122 -178h-78zM190 262l122 178h78l-122 -178l122 -178h-78z" />
    <glyph glyph-name="registered" unicode="&#xae;" horiz-adv-x="500" 
d="M350.5 657q45.5 -26 72.5 -72t27 -103t-27 -102.5t-72.5 -71.5t-100.5 -26t-100.5 26t-72.5 71.5t-27 102.5t27 103t72.5 72t100.5 26t100.5 -26zM336.5 332.5q39.5 22.5 62.5 61.5t23 88t-23 89t-62.5 62.5t-86.5 22.5t-86 -22.5t-62 -62.5t-23 -89q0 -48 23 -87.5
t62 -62t86 -22.5t86.5 22.5zM321 481q-15 -16 -40 -21l66 -67h-36l-64 65h-40v-65h-28v189h83q34 0 54 -16.5t20 -44.5q0 -24 -15 -40zM207 484h54q21 0 34 10t13 27q0 16 -12.5 26t-33.5 10h-55v-73z" />
    <glyph glyph-name="macron" unicode="&#xaf;" horiz-adv-x="600" 
d="M442 584h-284v62h284v-62z" />
    <glyph glyph-name="degree" unicode="&#xb0;" horiz-adv-x="407" 
d="M300.5 646q39.5 -37 39.5 -96q0 -58 -40 -94.5t-96 -36.5t-96 36.5t-40 94.5q0 59 39.5 96t96.5 37t96.5 -37zM260.5 492q24.5 23 24.5 59t-24.5 59t-56.5 23t-56.5 -23t-24.5 -59t24.5 -59t56.5 -23t56.5 23z" />
    <glyph glyph-name="plusminus" unicode="&#xb1;" horiz-adv-x="580" 
d="M510 394v-68h-186v-168h-68v168h-186v68h186v178h68v-178h186zM70 68h440v-68h-440v68z" />
    <glyph glyph-name="acute" unicode="&#xb4;" horiz-adv-x="600" 
d="M314 567h-67l80 140h89z" />
    <glyph glyph-name="paragraph" unicode="&#xb6;" horiz-adv-x="561" 
d="M340 0h-61v299h-50q-59 0 -106.5 23t-75 66t-27.5 100q0 88 52.5 135t142.5 47h125v-670zM473 0h-61v670h61v-670z" />
    <glyph glyph-name="periodcentered" unicode="&#xb7;" horiz-adv-x="204" 
d="M139 299q15 -15 15 -36t-15 -35.5t-37 -14.5t-37 14.5t-15 35.5t15 36t37 15t37 -15z" />
    <glyph glyph-name="cedilla" unicode="&#xb8;" horiz-adv-x="600" 
d="M293 0h59l-77 -170h-83z" />
    <glyph glyph-name="ordmasculine" unicode="&#xba;" horiz-adv-x="439" 
d="M305.5 651.5q39.5 -21.5 63 -60t23.5 -87.5t-23.5 -87.5t-63 -60t-86.5 -21.5q-46 0 -85.5 21.5t-63 60t-23.5 87.5t23.5 87.5t63 60t85.5 21.5q47 0 86.5 -21.5zM300 421q34 33 34 83t-34 83t-81 33q-46 0 -79.5 -33t-33.5 -83t33.5 -83t79.5 -33q47 0 81 33z" />
    <glyph glyph-name="guillemotright" unicode="&#xbb;" horiz-adv-x="415" 
d="M25 84l122 178l-122 178h78l122 -178l-122 -178h-78zM190 84l122 178l-122 178h78l122 -178l-122 -178h-78z" />
    <glyph glyph-name="onequarter" unicode="&#xbc;" horiz-adv-x="702" 
d="M165 301h-58v292l-83 -51v62l103 66h38v-369zM65 0l501 670h55l-501 -670h-55zM677 83h-58v-83h-55v83h-203v54l191 232h67v-238h58v-48zM564 131v176l-146 -176h146z" />
    <glyph glyph-name="onehalf" unicode="&#xbd;" horiz-adv-x="777" 
d="M165 301h-58v292l-83 -51v62l103 66h38v-369zM56 0l501 670h55l-501 -670h-55zM743 51v-51h-268v39l140 119q40 35 55 55t15 46q0 31 -20.5 49.5t-54.5 18.5q-37 0 -58 -23t-22 -62l-51 11q0 55 35.5 89.5t95.5 34.5q59 0 95 -31.5t36 -85.5q0 -39 -21.5 -69.5
t-67.5 -67.5l-85 -72h176z" />
    <glyph glyph-name="threequarters" unicode="&#xbe;" horiz-adv-x="793" 
d="M290.5 463.5q16.5 -21.5 16.5 -51.5q0 -49 -38 -81.5t-97 -32.5q-60 0 -100 33.5t-41 90.5l49 11q1 -41 26.5 -63.5t65.5 -22.5q36 0 58 18.5t22 47.5q0 28 -21.5 44t-57.5 16h-37v42h33q34 0 55.5 15t21.5 41q0 28 -21.5 45t-55.5 17q-36 0 -59 -21t-24 -59l-51 11
q3 53 40 84.5t94 31.5t93.5 -30t36.5 -77q0 -27 -14.5 -46.5t-40.5 -30.5q30 -11 46.5 -32.5zM157 0l501 670h55l-501 -670h-55zM769 83h-58v-83h-55v83h-203v54l191 232h67v-238h58v-48zM656 131v176l-146 -176h146z" />
    <glyph glyph-name="questiondown" unicode="&#xbf;" horiz-adv-x="481" 
d="M205 418q-15 15 -15 36t15 35.5t37 14.5t37 -14.5t15 -35.5t-15 -36t-37 -15t-37 15zM433 -59q-31 -58 -87.5 -90.5t-123.5 -32.5q-61 0 -107.5 23.5t-72 67t-25.5 99.5q0 73 48 124t142 73l-1 94h72v-142q-92 -12 -139 -50.5t-47 -98.5q0 -55 35.5 -88.5t94.5 -33.5
q43 0 83 23t67 69z" />
    <glyph glyph-name="Agrave" unicode="&#xc0;" horiz-adv-x="663" 
d="M653 0h-85l-70 170h-333l-70 -170h-85l284 670h75zM468 241l-136 331l-137 -331h273zM284 885l79 -140h-66l-102 140h89z" />
    <glyph glyph-name="Aacute" unicode="&#xc1;" horiz-adv-x="663" 
d="M653 0h-85l-70 170h-333l-70 -170h-85l284 670h75zM468 241l-136 331l-137 -331h273zM371 745h-67l80 140h89z" />
    <glyph glyph-name="Acircumflex" unicode="&#xc2;" horiz-adv-x="663" 
d="M653 0h-85l-70 170h-333l-70 -170h-85l284 670h75zM468 241l-136 331l-137 -331h273zM408 737l-75 93l-76 -93h-77l116 142h73l117 -142h-78z" />
    <glyph glyph-name="Atilde" unicode="&#xc3;" horiz-adv-x="663" 
d="M653 0h-85l-70 170h-333l-70 -170h-85l284 670h75zM468 241l-136 331l-137 -331h273zM209.5 847q25.5 25 61.5 25q21 0 36.5 -7t33.5 -20q15 -11 26.5 -16t25.5 -5q17 0 27 13t10 34h54q0 -53 -25.5 -78.5t-61.5 -25.5q-21 0 -36.5 7t-33.5 20q-15 11 -26.5 16t-25.5 5
q-17 0 -27 -12.5t-10 -32.5h-54q0 52 25.5 77z" />
    <glyph glyph-name="Adieresis" unicode="&#xc4;" horiz-adv-x="663" 
d="M653 0h-85l-70 170h-333l-70 -170h-85l284 670h75zM468 241l-136 331l-137 -331h273zM270.5 842q15.5 -15 15.5 -36q0 -22 -15 -36.5t-38 -14.5q-22 0 -37 14.5t-15 36.5q0 21 15 36t37 15t37.5 -15zM468.5 842q15.5 -15 15.5 -36q0 -22 -15 -36.5t-38 -14.5
q-22 0 -37 14.5t-15 36.5q0 21 15 36t37 15t37.5 -15z" />
    <glyph glyph-name="Aring" unicode="&#xc5;" horiz-adv-x="663" 
d="M653 0h-85l-70 170h-333l-70 -170h-85l284 670h75zM468 241l-136 331l-137 -331h273zM405.5 756.5q-30.5 -29.5 -73.5 -29.5t-73 29.5t-30 71.5q0 41 30 70.5t73 29.5t73.5 -29.5t30.5 -70.5q0 -42 -30.5 -71.5zM372 866q-16 16 -40 16q-23 0 -39.5 -16t-16.5 -38
t16.5 -38t39.5 -16q24 0 40 15.5t16 38.5q0 22 -16 38z" />
    <glyph glyph-name="AE" unicode="&#xc6;" horiz-adv-x="1040" 
d="M1000 72v-72h-489v155h-301l-108 -155h-92l480 670h509v-71h-409v-227h380v-71h-380v-229h410zM511 226v355l-250 -355h250z" />
    <glyph glyph-name="Ccedilla" unicode="&#xc7;" horiz-adv-x="743" 
d="M580.5 32.5q-70.5 -39.5 -157.5 -44.5l-72 -158h-83l95 160q-87 9 -157 57t-110.5 123.5t-40.5 164.5q0 96 46 176t126 126t176 46q88 0 160.5 -35.5t117.5 -99.5l-69 -38q-35 48 -89 73.5t-120 25.5q-74 0 -135.5 -36t-97 -99t-35.5 -139t35.5 -138.5t97 -99
t135.5 -36.5q70 0 126.5 29t90.5 84l71 -33q-40 -69 -110.5 -108.5z" />
    <glyph glyph-name="Egrave" unicode="&#xc8;" horiz-adv-x="637" 
d="M577 72v-72h-489v670h488v-71h-409v-227h380v-71h-380v-229h410zM293 885l79 -140h-66l-102 140h89z" />
    <glyph glyph-name="Eacute" unicode="&#xc9;" horiz-adv-x="637" 
d="M577 72v-72h-489v670h488v-71h-409v-227h380v-71h-380v-229h410zM379 745h-67l80 140h89z" />
    <glyph glyph-name="Ecircumflex" unicode="&#xca;" horiz-adv-x="637" 
d="M577 72v-72h-489v670h488v-71h-409v-227h380v-71h-380v-229h410zM416 737l-75 93l-76 -93h-77l116 142h73l117 -142h-78z" />
    <glyph glyph-name="Edieresis" unicode="&#xcb;" horiz-adv-x="637" 
d="M577 72v-72h-489v670h488v-71h-409v-227h380v-71h-380v-229h410zM278.5 842q15.5 -15 15.5 -36q0 -22 -15 -36.5t-38 -14.5q-22 0 -37 14.5t-15 36.5q0 21 15 36t37 15t37.5 -15zM476.5 842q15.5 -15 15.5 -36q0 -22 -15 -36.5t-38 -14.5q-22 0 -37 14.5t-15 36.5
q0 21 15 36t37 15t37.5 -15z" />
    <glyph glyph-name="Igrave" unicode="&#xcc;" horiz-adv-x="254" 
d="M167 0h-79v670h79v-670zM79 885l79 -140h-66l-102 140h89z" />
    <glyph glyph-name="Iacute" unicode="&#xcd;" horiz-adv-x="254" 
d="M167 0h-79v670h79v-670zM166 745h-67l80 140h89z" />
    <glyph glyph-name="Icircumflex" unicode="&#xce;" horiz-adv-x="254" 
d="M167 0h-79v670h79v-670zM203 737l-75 93l-76 -93h-77l116 142h73l117 -142h-78z" />
    <glyph glyph-name="Idieresis" unicode="&#xcf;" horiz-adv-x="254" 
d="M167 0h-79v670h79v-670zM65.5 842q15.5 -15 15.5 -36q0 -22 -15 -36.5t-38 -14.5q-22 0 -37 14.5t-15 36.5q0 21 15 36t37 15t37.5 -15zM263.5 842q15.5 -15 15.5 -36q0 -22 -15 -36.5t-38 -14.5q-22 0 -37 14.5t-15 36.5q0 21 15 36t37 15t37.5 -15z" />
    <glyph glyph-name="Eth" unicode="&#xd0;" horiz-adv-x="743" 
d="M526 626.5q84 -43.5 128 -119.5t44 -172q0 -95 -44.5 -171.5t-128 -120t-198.5 -43.5h-222v302h-75v71h75v297h222q115 0 199 -43.5zM484 106.5q66 34.5 100.5 94t34.5 134.5t-34.5 135t-100.5 94.5t-157 34.5h-143v-226h164v-71h-164v-230h143q91 0 157 34.5z" />
    <glyph glyph-name="Ntilde" unicode="&#xd1;" horiz-adv-x="760" 
d="M673 670v-670h-68l-438 532v-532h-79v670h68l438 -538v538h79zM266.5 847q25.5 25 61.5 25q21 0 36.5 -7t33.5 -20q15 -11 26.5 -16t25.5 -5q17 0 27 13t10 34h54q0 -53 -25.5 -78.5t-61.5 -25.5q-21 0 -36.5 7t-33.5 20q-15 11 -26.5 16t-25.5 5q-17 0 -27 -12.5
t-10 -32.5h-54q0 52 25.5 77z" />
    <glyph glyph-name="Ograve" unicode="&#xd2;" horiz-adv-x="803" 
d="M576.5 636.5q79.5 -46.5 125.5 -126t46 -175.5t-46 -176t-125 -126t-175 -46t-175.5 46t-125.5 126t-46 176t46 175.5t125.5 126t175.5 46.5q95 0 174.5 -46.5zM536.5 98q60.5 36 96 98.5t35.5 138.5t-35.5 138.5t-96.5 99t-134 36.5q-74 0 -135 -36.5t-96.5 -99
t-35.5 -138.5t35.5 -138.5t96.5 -98.5t135 -36t134.5 36zM354 885l79 -140h-66l-102 140h89z" />
    <glyph glyph-name="Oacute" unicode="&#xd3;" horiz-adv-x="803" 
d="M576.5 636.5q79.5 -46.5 125.5 -126t46 -175.5t-46 -176t-125 -126t-175 -46t-175.5 46t-125.5 126t-46 176t46 175.5t125.5 126t175.5 46.5q95 0 174.5 -46.5zM536.5 98q60.5 36 96 98.5t35.5 138.5t-35.5 138.5t-96.5 99t-134 36.5q-74 0 -135 -36.5t-96.5 -99
t-35.5 -138.5t35.5 -138.5t96.5 -98.5t135 -36t134.5 36zM441 745h-67l80 140h89z" />
    <glyph glyph-name="Ocircumflex" unicode="&#xd4;" horiz-adv-x="803" 
d="M576.5 636.5q79.5 -46.5 125.5 -126t46 -175.5t-46 -176t-125 -126t-175 -46t-175.5 46t-125.5 126t-46 176t46 175.5t125.5 126t175.5 46.5q95 0 174.5 -46.5zM536.5 98q60.5 36 96 98.5t35.5 138.5t-35.5 138.5t-96.5 99t-134 36.5q-74 0 -135 -36.5t-96.5 -99
t-35.5 -138.5t35.5 -138.5t96.5 -98.5t135 -36t134.5 36zM478 737l-75 93l-76 -93h-77l116 142h73l117 -142h-78z" />
    <glyph glyph-name="Otilde" unicode="&#xd5;" horiz-adv-x="803" 
d="M576.5 636.5q79.5 -46.5 125.5 -126t46 -175.5t-46 -176t-125 -126t-175 -46t-175.5 46t-125.5 126t-46 176t46 175.5t125.5 126t175.5 46.5q95 0 174.5 -46.5zM536.5 98q60.5 36 96 98.5t35.5 138.5t-35.5 138.5t-96.5 99t-134 36.5q-74 0 -135 -36.5t-96.5 -99
t-35.5 -138.5t35.5 -138.5t96.5 -98.5t135 -36t134.5 36zM279.5 847q25.5 25 61.5 25q21 0 36.5 -7t33.5 -20q15 -11 26.5 -16t25.5 -5q17 0 27 13t10 34h54q0 -53 -25.5 -78.5t-61.5 -25.5q-21 0 -36.5 7t-33.5 20q-15 11 -26.5 16t-25.5 5q-17 0 -27 -12.5t-10 -32.5h-54
q0 52 25.5 77z" />
    <glyph glyph-name="Odieresis" unicode="&#xd6;" horiz-adv-x="803" 
d="M576.5 636.5q79.5 -46.5 125.5 -126t46 -175.5t-46 -176t-125 -126t-175 -46t-175.5 46t-125.5 126t-46 176t46 175.5t125.5 126t175.5 46.5q95 0 174.5 -46.5zM536.5 98q60.5 36 96 98.5t35.5 138.5t-35.5 138.5t-96.5 99t-134 36.5q-74 0 -135 -36.5t-96.5 -99
t-35.5 -138.5t35.5 -138.5t96.5 -98.5t135 -36t134.5 36zM340.5 842q15.5 -15 15.5 -36q0 -22 -15 -36.5t-38 -14.5q-22 0 -37 14.5t-15 36.5q0 21 15 36t37 15t37.5 -15zM538.5 842q15.5 -15 15.5 -36q0 -22 -15 -36.5t-38 -14.5q-22 0 -37 14.5t-15 36.5q0 21 15 36t37 15
t37.5 -15z" />
    <glyph glyph-name="multiply" unicode="&#xd7;" horiz-adv-x="507" 
d="M303 305l141 -141l-49 -49l-141 141l-142 -141l-49 49l141 141l-141 141l49 50l142 -142l141 142l49 -50z" />
    <glyph glyph-name="Oslash" unicode="&#xd8;" horiz-adv-x="803" 
d="M728 452q20 -56 20 -117q0 -96 -46 -176t-125 -126t-175 -46q-63 0 -119 20t-101 57l-65 -65l-46 46l64 65q-38 46 -59 103.5t-21 121.5q0 96 46 175.5t125.5 126t175.5 46.5q63 0 120.5 -21.5t103.5 -60.5l61 60l46 -46l-61 -61q36 -46 56 -102zM190 165l382 382
q-35 30 -78.5 46t-91.5 16q-74 0 -135 -36.5t-96.5 -99t-35.5 -138.5q0 -98 55 -170zM536.5 98q60.5 36 96 98.5t35.5 138.5q0 92 -52 164l-380 -381q70 -56 166 -56q74 0 134.5 36z" />
    <glyph glyph-name="Ugrave" unicode="&#xd9;" horiz-adv-x="721" 
d="M641 670v-377q0 -91 -34.5 -160t-98 -107.5t-146.5 -38.5q-84 0 -148 38.5t-99 107.5t-35 160v377h79v-377q0 -69 25.5 -121t71.5 -80.5t106 -28.5q59 0 104.5 28.5t70.5 80.5t25 121v377h79zM313 885l79 -140h-66l-102 140h89z" />
    <glyph glyph-name="Uacute" unicode="&#xda;" horiz-adv-x="721" 
d="M641 670v-377q0 -91 -34.5 -160t-98 -107.5t-146.5 -38.5q-84 0 -148 38.5t-99 107.5t-35 160v377h79v-377q0 -69 25.5 -121t71.5 -80.5t106 -28.5q59 0 104.5 28.5t70.5 80.5t25 121v377h79zM399 745h-67l80 140h89z" />
    <glyph glyph-name="Ucircumflex" unicode="&#xdb;" horiz-adv-x="721" 
d="M641 670v-377q0 -91 -34.5 -160t-98 -107.5t-146.5 -38.5q-84 0 -148 38.5t-99 107.5t-35 160v377h79v-377q0 -69 25.5 -121t71.5 -80.5t106 -28.5q59 0 104.5 28.5t70.5 80.5t25 121v377h79zM436 737l-75 93l-76 -93h-77l116 142h73l117 -142h-78z" />
    <glyph glyph-name="Udieresis" unicode="&#xdc;" horiz-adv-x="721" 
d="M641 670v-377q0 -91 -34.5 -160t-98 -107.5t-146.5 -38.5q-84 0 -148 38.5t-99 107.5t-35 160v377h79v-377q0 -69 25.5 -121t71.5 -80.5t106 -28.5q59 0 104.5 28.5t70.5 80.5t25 121v377h79zM298.5 842q15.5 -15 15.5 -36q0 -22 -15 -36.5t-38 -14.5q-22 0 -37 14.5
t-15 36.5q0 21 15 36t37 15t37.5 -15zM496.5 842q15.5 -15 15.5 -36q0 -22 -15 -36.5t-38 -14.5q-22 0 -37 14.5t-15 36.5q0 21 15 36t37 15t37.5 -15z" />
    <glyph glyph-name="Yacute" unicode="&#xdd;" horiz-adv-x="671" 
d="M374 234v-234h-79v233l-277 437h88l228 -357l228 357h91zM374 745h-67l80 140h89z" />
    <glyph glyph-name="Thorn" unicode="&#xde;" horiz-adv-x="628" 
d="M482 522q53 -27 82 -75.5t29 -111.5q0 -62 -29 -110.5t-82 -75.5t-122 -27h-193v-122h-79v670h79v-121h193q69 0 122 -27zM471 233q44 40 44 102q0 63 -44 102.5t-115 39.5h-189v-284h189q71 0 115 40z" />
    <glyph glyph-name="germandbls" unicode="&#xdf;" horiz-adv-x="656" 
d="M571 321q40 -48 40 -122q0 -58 -26 -105t-75 -74.5t-115 -27.5q-84 0 -162 31l14 64q72 -30 143 -30q47 0 82.5 19.5t54 52t18.5 70.5q0 70 -52.5 109t-142.5 39h-47v64h37q69 0 111 34.5t42 90.5q0 60 -42.5 97t-111.5 37q-79 0 -127 -50.5t-48 -136.5v-483h-76v478
q0 77 31 136t88 91t132 32q67 0 118.5 -25t80 -68.5t28.5 -98.5q0 -57 -28 -100t-78 -60q71 -16 111 -64z" />
    <glyph glyph-name="agrave" unicode="&#xe0;" horiz-adv-x="644" 
d="M556 493v-493h-76v77q-34 -43 -84.5 -66.5t-111.5 -23.5q-66 0 -122.5 32.5t-90 91.5t-33.5 135t33.5 135t90 91.5t122.5 32.5q61 0 111.5 -23.5t84.5 -66.5v78h76zM382 77q41 22 67.5 62t30.5 92v30q-4 53 -30.5 93t-67.5 62t-86 22q-51 0 -93 -23.5t-66.5 -67
t-24.5 -101.5q0 -57 24.5 -100.5t66.5 -67t93 -23.5q45 0 86 22zM262 707l79 -140h-66l-102 140h89z" />
    <glyph glyph-name="aacute" unicode="&#xe1;" horiz-adv-x="644" 
d="M556 493v-493h-76v77q-34 -43 -84.5 -66.5t-111.5 -23.5q-66 0 -122.5 32.5t-90 91.5t-33.5 135t33.5 135t90 91.5t122.5 32.5q61 0 111.5 -23.5t84.5 -66.5v78h76zM382 77q41 22 67.5 62t30.5 92v30q-4 53 -30.5 93t-67.5 62t-86 22q-51 0 -93 -23.5t-66.5 -67
t-24.5 -101.5q0 -57 24.5 -100.5t66.5 -67t93 -23.5q45 0 86 22zM349 567h-67l80 140h89z" />
    <glyph glyph-name="acircumflex" unicode="&#xe2;" horiz-adv-x="644" 
d="M556 493v-493h-76v77q-34 -43 -84.5 -66.5t-111.5 -23.5q-66 0 -122.5 32.5t-90 91.5t-33.5 135t33.5 135t90 91.5t122.5 32.5q61 0 111.5 -23.5t84.5 -66.5v78h76zM382 77q41 22 67.5 62t30.5 92v30q-4 53 -30.5 93t-67.5 62t-86 22q-51 0 -93 -23.5t-66.5 -67
t-24.5 -101.5q0 -57 24.5 -100.5t66.5 -67t93 -23.5q45 0 86 22zM386 559l-75 93l-76 -93h-77l116 142h73l117 -142h-78z" />
    <glyph glyph-name="atilde" unicode="&#xe3;" horiz-adv-x="644" 
d="M556 493v-493h-76v77q-34 -43 -84.5 -66.5t-111.5 -23.5q-66 0 -122.5 32.5t-90 91.5t-33.5 135t33.5 135t90 91.5t122.5 32.5q61 0 111.5 -23.5t84.5 -66.5v78h76zM382 77q41 22 67.5 62t30.5 92v30q-4 53 -30.5 93t-67.5 62t-86 22q-51 0 -93 -23.5t-66.5 -67
t-24.5 -101.5q0 -57 24.5 -100.5t66.5 -67t93 -23.5q45 0 86 22zM187.5 669q25.5 25 61.5 25q21 0 36.5 -7t33.5 -20q15 -11 26.5 -16t25.5 -5q17 0 27 13t10 34h54q0 -53 -25.5 -78.5t-61.5 -25.5q-21 0 -36.5 7t-33.5 20q-15 11 -26.5 16t-25.5 5q-17 0 -27 -12.5
t-10 -32.5h-54q0 52 25.5 77z" />
    <glyph glyph-name="adieresis" unicode="&#xe4;" horiz-adv-x="644" 
d="M556 493v-493h-76v77q-34 -43 -84.5 -66.5t-111.5 -23.5q-66 0 -122.5 32.5t-90 91.5t-33.5 135t33.5 135t90 91.5t122.5 32.5q61 0 111.5 -23.5t84.5 -66.5v78h76zM382 77q41 22 67.5 62t30.5 92v30q-4 53 -30.5 93t-67.5 62t-86 22q-51 0 -93 -23.5t-66.5 -67
t-24.5 -101.5q0 -57 24.5 -100.5t66.5 -67t93 -23.5q45 0 86 22zM248.5 664q15.5 -15 15.5 -36q0 -22 -15 -36.5t-38 -14.5q-22 0 -37 14.5t-15 36.5q0 21 15 36t37 15t37.5 -15zM446.5 664q15.5 -15 15.5 -36q0 -22 -15 -36.5t-38 -14.5q-22 0 -37 14.5t-15 36.5
q0 21 15 36t37 15t37.5 -15z" />
    <glyph glyph-name="aring" unicode="&#xe5;" horiz-adv-x="644" 
d="M556 493v-493h-76v77q-34 -43 -84.5 -66.5t-111.5 -23.5q-66 0 -122.5 32.5t-90 91.5t-33.5 135t33.5 135t90 91.5t122.5 32.5q61 0 111.5 -23.5t84.5 -66.5v78h76zM382 77q41 22 67.5 62t30.5 92v30q-4 53 -30.5 93t-67.5 62t-86 22q-51 0 -93 -23.5t-66.5 -67
t-24.5 -101.5q0 -57 24.5 -100.5t66.5 -67t93 -23.5q45 0 86 22zM383.5 579.5q-30.5 -29.5 -73.5 -29.5t-73 29.5t-30 71.5q0 41 30 70.5t73 29.5t73.5 -29.5t30.5 -70.5q0 -42 -30.5 -71.5zM350 689q-16 16 -40 16q-23 0 -39.5 -16t-16.5 -38t16.5 -38t39.5 -16
q24 0 40 15.5t16 38.5q0 22 -16 38z" />
    <glyph glyph-name="ae" unicode="&#xe6;" horiz-adv-x="922" 
d="M880 222h-405q7 -78 53 -123t117 -45q42 0 82 19.5t66 58.5l61 -31q-32 -54 -88 -84t-121 -30q-71 0 -124.5 31.5t-84.5 88.5q-28 -55 -84.5 -87.5t-127.5 -32.5q-89 0 -137.5 42t-48.5 107q0 67 51 105t140 38h175v41q0 54 -36 87t-94 33q-59 0 -95 -27t-44 -74l-70 15
q8 68 64 109.5t146 41.5q61 0 107.5 -25.5t69.5 -70.5q33 46 81.5 71t109.5 25q66 0 120 -32.5t85 -91t32 -132.5v-27zM802 279q-8 74 -51 117.5t-105 43.5q-67 0 -116 -43.5t-56 -117.5h328zM404 222h-175q-55 0 -86.5 -22t-31.5 -61q0 -40 32 -64.5t89 -24.5q46 0 85.5 21
t63 58t23.5 83v10z" />
    <glyph glyph-name="ccedilla" unicode="&#xe7;" horiz-adv-x="565" 
d="M444.5 31.5q-51.5 -35.5 -116.5 -42.5l-72 -159h-83l95 159q-63 8 -114.5 41.5t-81 89t-29.5 126.5q0 75 35 134.5t93.5 92t128.5 32.5q71 0 130 -34.5t90 -95.5l-71 -28q-22 43 -61.5 65.5t-87.5 22.5q-50 0 -92 -24t-66.5 -67t-24.5 -98q0 -56 24.5 -99t66 -66
t92.5 -23q50 0 90 23.5t63 69.5l70 -26q-27 -58 -78.5 -93.5z" />
    <glyph glyph-name="egrave" unicode="&#xe8;" horiz-adv-x="583" 
d="M540 231h-423q3 -54 29 -94t66 -61.5t85 -21.5q105 0 158 76l61 -31q-33 -55 -89.5 -83.5t-129.5 -28.5q-67 0 -125.5 32t-93.5 91t-35 135q0 77 35 136t93.5 91.5t126.5 32.5q66 0 120.5 -31t87 -87t34.5 -128v-28zM219 420q-38 -18 -65 -52t-34 -80h343
q-10 71 -55.5 110.5t-109.5 39.5q-41 0 -79 -18zM250 707l79 -140h-66l-102 140h89z" />
    <glyph glyph-name="eacute" unicode="&#xe9;" horiz-adv-x="583" 
d="M540 231h-423q3 -54 29 -94t66 -61.5t85 -21.5q105 0 158 76l61 -31q-33 -55 -89.5 -83.5t-129.5 -28.5q-67 0 -125.5 32t-93.5 91t-35 135q0 77 35 136t93.5 91.5t126.5 32.5q66 0 120.5 -31t87 -87t34.5 -128v-28zM219 420q-38 -18 -65 -52t-34 -80h343
q-10 71 -55.5 110.5t-109.5 39.5q-41 0 -79 -18zM337 567h-67l80 140h89z" />
    <glyph glyph-name="ecircumflex" unicode="&#xea;" horiz-adv-x="583" 
d="M540 231h-423q3 -54 29 -94t66 -61.5t85 -21.5q105 0 158 76l61 -31q-33 -55 -89.5 -83.5t-129.5 -28.5q-67 0 -125.5 32t-93.5 91t-35 135q0 77 35 136t93.5 91.5t126.5 32.5q66 0 120.5 -31t87 -87t34.5 -128v-28zM219 420q-38 -18 -65 -52t-34 -80h343
q-10 71 -55.5 110.5t-109.5 39.5q-41 0 -79 -18zM374 559l-75 93l-76 -93h-77l116 142h73l117 -142h-78z" />
    <glyph glyph-name="edieresis" unicode="&#xeb;" horiz-adv-x="583" 
d="M540 231h-423q3 -54 29 -94t66 -61.5t85 -21.5q105 0 158 76l61 -31q-33 -55 -89.5 -83.5t-129.5 -28.5q-67 0 -125.5 32t-93.5 91t-35 135q0 77 35 136t93.5 91.5t126.5 32.5q66 0 120.5 -31t87 -87t34.5 -128v-28zM219 420q-38 -18 -65 -52t-34 -80h343
q-10 71 -55.5 110.5t-109.5 39.5q-41 0 -79 -18zM236.5 664q15.5 -15 15.5 -36q0 -22 -15 -36.5t-38 -14.5q-22 0 -37 14.5t-15 36.5q0 21 15 36t37 15t37.5 -15zM434.5 664q15.5 -15 15.5 -36q0 -22 -15 -36.5t-38 -14.5q-22 0 -37 14.5t-15 36.5q0 21 15 36t37 15
t37.5 -15z" />
    <glyph glyph-name="igrave" unicode="&#xec;" horiz-adv-x="279" 
d="M178 0h-77v493h77v-493zM92 707l79 -140h-66l-102 140h89z" />
    <glyph glyph-name="iacute" unicode="&#xed;" horiz-adv-x="279" 
d="M178 0h-77v493h77v-493zM178 567h-67l80 140h89z" />
    <glyph glyph-name="icircumflex" unicode="&#xee;" horiz-adv-x="279" 
d="M178 0h-77v493h77v-493zM215 559l-75 93l-76 -93h-77l116 142h73l117 -142h-78z" />
    <glyph glyph-name="idieresis" unicode="&#xef;" horiz-adv-x="279" 
d="M178 0h-77v493h77v-493zM77.5 664q15.5 -15 15.5 -36q0 -22 -15 -36.5t-38 -14.5q-22 0 -37 14.5t-15 36.5q0 21 15 36t37 15t37.5 -15zM275.5 664q15.5 -15 15.5 -36q0 -22 -15 -36.5t-38 -14.5q-22 0 -37 14.5t-15 36.5q0 21 15 36t37 15t37.5 -15z" />
    <glyph glyph-name="eth" unicode="&#xf0;" horiz-adv-x="607" 
d="M513 444.5q52 -98.5 52 -194.5q0 -81 -36.5 -140.5t-95.5 -91t-126 -31.5q-71 0 -131.5 32.5t-96.5 92t-36 134.5q0 76 33.5 135t90.5 91.5t126 32.5q34 0 65.5 -10t56.5 -28q-45 70 -108 123l-134 -59l-23 54l102 45q-60 40 -147 75v15h125q51 -26 94 -57l107 48l24 -55
l-79 -36q85 -77 137 -175.5zM406.5 84q41.5 29 62 74t20.5 92q0 53 -25.5 96t-68 67t-90.5 24q-51 0 -94 -24t-68.5 -67.5t-25.5 -99.5q0 -55 26 -99t69.5 -68t94.5 -24q58 0 99.5 29z" />
    <glyph glyph-name="ntilde" unicode="&#xf1;" horiz-adv-x="624" 
d="M454 478.5q45 -26.5 69.5 -74t24.5 -109.5v-295h-76v281q0 69 -38 111.5t-99 42.5q-79 0 -125 -52t-46 -146v-237h-76v493h76v-81q30 45 77.5 69t108.5 24q59 0 104 -26.5zM199.5 669q25.5 25 61.5 25q21 0 36.5 -7t33.5 -20q15 -11 26.5 -16t25.5 -5q17 0 27 13t10 34
h54q0 -53 -25.5 -78.5t-61.5 -25.5q-21 0 -36.5 7t-33.5 20q-15 11 -26.5 16t-25.5 5q-17 0 -27 -12.5t-10 -32.5h-54q0 52 25.5 77z" />
    <glyph glyph-name="ograve" unicode="&#xf2;" horiz-adv-x="608" 
d="M437 471q60 -33 94.5 -91.5t34.5 -132.5t-35 -133t-94.5 -92.5t-131.5 -33.5q-73 0 -133 33.5t-94.5 92.5t-34.5 133t34.5 132.5t94.5 91.5t133 33q72 0 132 -33zM398 79.5q43 24.5 68 68t25 99.5q0 55 -25 98.5t-68 67.5t-93 24q-51 0 -94 -24t-68.5 -67.5t-25.5 -98.5
q0 -56 25.5 -99.5t68.5 -68t94 -24.5q50 0 93 24.5zM257 712l79 -140h-66l-102 140h89z" />
    <glyph glyph-name="oacute" unicode="&#xf3;" horiz-adv-x="608" 
d="M437 471q60 -33 94.5 -91.5t34.5 -132.5t-35 -133t-94.5 -92.5t-131.5 -33.5q-73 0 -133 33.5t-94.5 92.5t-34.5 133t34.5 132.5t94.5 91.5t133 33q72 0 132 -33zM398 79.5q43 24.5 68 68t25 99.5q0 55 -25 98.5t-68 67.5t-93 24q-51 0 -94 -24t-68.5 -67.5t-25.5 -98.5
q0 -56 25.5 -99.5t68.5 -68t94 -24.5q50 0 93 24.5zM344 572h-67l80 140h89z" />
    <glyph glyph-name="ocircumflex" unicode="&#xf4;" horiz-adv-x="608" 
d="M437 471q60 -33 94.5 -91.5t34.5 -132.5t-35 -133t-94.5 -92.5t-131.5 -33.5q-73 0 -133 33.5t-94.5 92.5t-34.5 133t34.5 132.5t94.5 91.5t133 33q72 0 132 -33zM398 79.5q43 24.5 68 68t25 99.5q0 55 -25 98.5t-68 67.5t-93 24q-51 0 -94 -24t-68.5 -67.5t-25.5 -98.5
q0 -56 25.5 -99.5t68.5 -68t94 -24.5q50 0 93 24.5zM381 564l-75 93l-76 -93h-77l116 142h73l117 -142h-78z" />
    <glyph glyph-name="otilde" unicode="&#xf5;" horiz-adv-x="608" 
d="M437 471q60 -33 94.5 -91.5t34.5 -132.5t-35 -133t-94.5 -92.5t-131.5 -33.5q-73 0 -133 33.5t-94.5 92.5t-34.5 133t34.5 132.5t94.5 91.5t133 33q72 0 132 -33zM398 79.5q43 24.5 68 68t25 99.5q0 55 -25 98.5t-68 67.5t-93 24q-51 0 -94 -24t-68.5 -67.5t-25.5 -98.5
q0 -56 25.5 -99.5t68.5 -68t94 -24.5q50 0 93 24.5zM182.5 675q25.5 25 61.5 25q21 0 36.5 -7t33.5 -20q15 -11 26.5 -16t25.5 -5q17 0 27 13t10 34h54q0 -53 -25.5 -78.5t-61.5 -25.5q-21 0 -36.5 7t-33.5 20q-15 11 -26.5 16t-25.5 5q-17 0 -27 -12.5t-10 -32.5h-54
q0 52 25.5 77z" />
    <glyph glyph-name="odieresis" unicode="&#xf6;" horiz-adv-x="608" 
d="M437 471q60 -33 94.5 -91.5t34.5 -132.5t-35 -133t-94.5 -92.5t-131.5 -33.5q-73 0 -133 33.5t-94.5 92.5t-34.5 133t34.5 132.5t94.5 91.5t133 33q72 0 132 -33zM398 79.5q43 24.5 68 68t25 99.5q0 55 -25 98.5t-68 67.5t-93 24q-51 0 -94 -24t-68.5 -67.5t-25.5 -98.5
q0 -56 25.5 -99.5t68.5 -68t94 -24.5q50 0 93 24.5zM243.5 669q15.5 -15 15.5 -36q0 -22 -15 -36.5t-38 -14.5q-22 0 -37 14.5t-15 36.5q0 21 15 36t37 15t37.5 -15zM441.5 669q15.5 -15 15.5 -36q0 -22 -15 -36.5t-38 -14.5q-22 0 -37 14.5t-15 36.5q0 21 15 36t37 15
t37.5 -15z" />
    <glyph glyph-name="divide" unicode="&#xf7;" horiz-adv-x="580" 
d="M325 520.5q15 -14.5 15 -35.5q0 -22 -14.5 -36t-37.5 -14t-37.5 14t-14.5 36q0 21 15 35.5t37 14.5t37 -14.5zM510 271h-440v68h440v-68zM325 161.5q15 -14.5 15 -35.5q0 -22 -14.5 -36t-37.5 -14t-37.5 14t-14.5 36q0 21 15 35.5t37 14.5t37 -14.5z" />
    <glyph glyph-name="oslash" unicode="&#xf8;" horiz-adv-x="606" 
d="M566 247q0 -74 -35 -133t-94.5 -92.5t-131.5 -33.5q-95 0 -166 55l-55 -55l-39 39l54 55q-27 33 -41.5 75t-14.5 90q0 74 34.5 132.5t94.5 91.5t133 33q92 0 163 -54l55 55l39 -39l-54 -54q58 -71 58 -165zM151 134l267 266q-49 37 -113 37q-51 0 -94 -24t-68.5 -67.5
t-25.5 -98.5q0 -64 34 -113zM398 79.5q43 24.5 68 68t25 99.5q0 64 -35 113l-267 -266q50 -39 116 -39q50 0 93 24.5z" />
    <glyph glyph-name="ugrave" unicode="&#xf9;" horiz-adv-x="624" 
d="M537 493v-492h-77v80q-30 -45 -77.5 -69t-108.5 -24q-59 0 -104 26.5t-69.5 74t-24.5 109.5v295h77v-281q0 -69 37.5 -111t98.5 -42q79 0 125 51.5t46 145.5v237h77zM260 707l79 -140h-66l-102 140h89z" />
    <glyph glyph-name="uacute" unicode="&#xfa;" horiz-adv-x="624" 
d="M537 493v-492h-77v80q-30 -45 -77.5 -69t-108.5 -24q-59 0 -104 26.5t-69.5 74t-24.5 109.5v295h77v-281q0 -69 37.5 -111t98.5 -42q79 0 125 51.5t46 145.5v237h77zM346 567h-67l80 140h89z" />
    <glyph glyph-name="ucircumflex" unicode="&#xfb;" horiz-adv-x="624" 
d="M537 493v-492h-77v80q-30 -45 -77.5 -69t-108.5 -24q-59 0 -104 26.5t-69.5 74t-24.5 109.5v295h77v-281q0 -69 37.5 -111t98.5 -42q79 0 125 51.5t46 145.5v237h77zM383 559l-75 93l-76 -93h-77l116 142h73l117 -142h-78z" />
    <glyph glyph-name="udieresis" unicode="&#xfc;" horiz-adv-x="624" 
d="M537 493v-492h-77v80q-30 -45 -77.5 -69t-108.5 -24q-59 0 -104 26.5t-69.5 74t-24.5 109.5v295h77v-281q0 -69 37.5 -111t98.5 -42q79 0 125 51.5t46 145.5v237h77zM245.5 664q15.5 -15 15.5 -36q0 -22 -15 -36.5t-38 -14.5q-22 0 -37 14.5t-15 36.5q0 21 15 36t37 15
t37.5 -15zM443.5 664q15.5 -15 15.5 -36q0 -22 -15 -36.5t-38 -14.5q-22 0 -37 14.5t-15 36.5q0 21 15 36t37 15t37.5 -15z" />
    <glyph glyph-name="yacute" unicode="&#xfd;" horiz-adv-x="563" 
d="M545 493l-337 -663h-85l116 228l-221 435h86l179 -348l177 348h85zM321 568h-67l80 140h89z" />
    <glyph glyph-name="thorn" unicode="&#xfe;" horiz-adv-x="649" 
d="M482.5 472.5q56.5 -32.5 90 -91.5t33.5 -135t-33.5 -135t-90 -91.5t-122.5 -32.5q-61 0 -112 23.5t-84 67.5v-248h-76v890h76v-306q33 44 84 67.5t112 23.5q66 0 122.5 -32.5zM441 78.5q42 23.5 66.5 67t24.5 100.5q0 58 -24.5 101.5t-66.5 67t-93 23.5q-47 0 -89.5 -24
t-68.5 -67.5t-26 -100.5q0 -56 26 -99.5t68.5 -67.5t89.5 -24q51 0 93 23.5z" />
    <glyph glyph-name="ydieresis" unicode="&#xff;" horiz-adv-x="563" 
d="M545 493l-337 -663h-85l116 228l-221 435h86l179 -348l177 348h85zM219.5 665q15.5 -15 15.5 -36q0 -22 -15 -36.5t-38 -14.5q-22 0 -37 14.5t-15 36.5q0 21 15 36t37 15t37.5 -15zM417.5 665q15.5 -15 15.5 -36q0 -22 -15 -36.5t-38 -14.5q-22 0 -37 14.5t-15 36.5
q0 21 15 36t37 15t37.5 -15z" />
    <glyph glyph-name="Amacron" unicode="&#x100;" horiz-adv-x="663" 
d="M653 0h-85l-70 170h-333l-70 -170h-85l284 670h75zM468 241l-136 331l-137 -331h273zM474 762h-284v62h284v-62z" />
    <glyph glyph-name="amacron" unicode="&#x101;" horiz-adv-x="644" 
d="M556 493v-493h-76v77q-34 -43 -84.5 -66.5t-111.5 -23.5q-66 0 -122.5 32.5t-90 91.5t-33.5 135t33.5 135t90 91.5t122.5 32.5q61 0 111.5 -23.5t84.5 -66.5v78h76zM382 77q41 22 67.5 62t30.5 92v30q-4 53 -30.5 93t-67.5 62t-86 22q-51 0 -93 -23.5t-66.5 -67
t-24.5 -101.5q0 -57 24.5 -100.5t66.5 -67t93 -23.5q45 0 86 22zM452 584h-284v62h284v-62z" />
    <glyph glyph-name="Abreve" unicode="&#x102;" horiz-adv-x="663" 
d="M653 0h-85l-70 170h-333l-70 -170h-85l284 670h75zM468 241l-136 331l-137 -331h273zM227 769q-40 37 -40 98h64q0 -36 23 -58t58 -22t58 22t23 58h64q0 -61 -40 -98t-105 -37t-105 37z" />
    <glyph glyph-name="abreve" unicode="&#x103;" horiz-adv-x="644" 
d="M556 493v-493h-76v77q-34 -43 -84.5 -66.5t-111.5 -23.5q-66 0 -122.5 32.5t-90 91.5t-33.5 135t33.5 135t90 91.5t122.5 32.5q61 0 111.5 -23.5t84.5 -66.5v78h76zM382 77q41 22 67.5 62t30.5 92v30q-4 53 -30.5 93t-67.5 62t-86 22q-51 0 -93 -23.5t-66.5 -67
t-24.5 -101.5q0 -57 24.5 -100.5t66.5 -67t93 -23.5q45 0 86 22zM205 592q-40 37 -40 98h64q0 -36 23 -58t58 -22t58 22t23 58h64q0 -61 -40 -98t-105 -37t-105 37z" />
    <glyph glyph-name="Aogonek" unicode="&#x104;" horiz-adv-x="663" 
d="M678 -185q-39 -15 -68 -15q-35 0 -59.5 20t-24.5 63q0 29 15.5 56t54.5 61h-28l-70 170h-333l-70 -170h-85l284 670h75l283 -670h1q-41 -43 -55 -63t-14 -42q0 -21 12 -30.5t30 -9.5q9 0 20.5 3t25.5 7zM468 241l-136 331l-137 -331h273z" />
    <glyph glyph-name="aogonek" unicode="&#x105;" horiz-adv-x="644" 
d="M581 -185q-39 -15 -68 -15q-35 0 -59.5 20t-24.5 63q0 29 15.5 56t54.5 61h-19v77q-34 -43 -84.5 -66.5t-111.5 -23.5q-66 0 -122.5 32.5t-90 91.5t-33.5 135t33.5 135t90 91.5t122.5 32.5q61 0 111.5 -23.5t84.5 -66.5v78h76v-493q-41 -43 -55 -63t-14 -42
q0 -21 12 -30.5t30 -9.5q9 0 20.5 3t25.5 7zM382 77q41 22 67.5 62t30.5 92v30q-4 53 -30.5 93t-67.5 62t-86 22q-51 0 -93 -23.5t-66.5 -67t-24.5 -101.5q0 -57 24.5 -100.5t66.5 -67t93 -23.5q45 0 86 22z" />
    <glyph glyph-name="Cacute" unicode="&#x106;" horiz-adv-x="743" 
d="M691 141q-43 -73 -118.5 -113.5t-169.5 -40.5q-96 0 -176 46t-126 126t-46 176t46 176t126 126t176 46q88 0 160.5 -35.5t117.5 -99.5l-69 -38q-35 48 -89 73.5t-120 25.5q-74 0 -135.5 -36t-97 -99t-35.5 -139t35.5 -138.5t97 -99t135.5 -36.5q70 0 126.5 29t90.5 84z
M440 745h-67l80 140h89z" />
    <glyph glyph-name="cacute" unicode="&#x107;" horiz-adv-x="565" 
d="M523 125q-29 -64 -89 -101t-134 -37q-70 0 -128.5 32.5t-93.5 91.5t-35 135q0 75 35 134.5t93.5 92t128.5 32.5q71 0 130 -34.5t90 -95.5l-71 -28q-22 43 -61.5 65.5t-87.5 22.5q-50 0 -92 -24t-66.5 -67t-24.5 -98q0 -56 24.5 -99t66 -66t92.5 -23q50 0 90 23.5t63 69.5
zM340 567h-67l80 140h89z" />
    <glyph glyph-name="Cdotaccent" unicode="&#x10a;" horiz-adv-x="743" 
d="M691 141q-43 -73 -118.5 -113.5t-169.5 -40.5q-96 0 -176 46t-126 126t-46 176t46 176t126 126t176 46q88 0 160.5 -35.5t117.5 -99.5l-69 -38q-35 48 -89 73.5t-120 25.5q-74 0 -135.5 -36t-97 -99t-35.5 -139t35.5 -138.5t97 -99t135.5 -36.5q70 0 126.5 29t90.5 84z
M437 847.5q15 -14.5 15 -34.5q0 -22 -14.5 -36t-37.5 -14q-22 0 -36.5 14t-14.5 36q0 20 15 34.5t36 14.5q22 0 37 -14.5z" />
    <glyph glyph-name="cdotaccent" unicode="&#x10b;" horiz-adv-x="565" 
d="M523 125q-29 -64 -89 -101t-134 -37q-70 0 -128.5 32.5t-93.5 91.5t-35 135q0 75 35 134.5t93.5 92t128.5 32.5q71 0 130 -34.5t90 -95.5l-71 -28q-22 43 -61.5 65.5t-87.5 22.5q-50 0 -92 -24t-66.5 -67t-24.5 -98q0 -56 24.5 -99t66 -66t92.5 -23q50 0 90 23.5t63 69.5
zM338 669.5q15 -14.5 15 -34.5q0 -22 -14.5 -36t-37.5 -14q-22 0 -36.5 14t-14.5 36q0 20 15 34.5t36 14.5q22 0 37 -14.5z" />
    <glyph glyph-name="Ccaron" unicode="&#x10c;" horiz-adv-x="743" 
d="M691 141q-43 -73 -118.5 -113.5t-169.5 -40.5q-96 0 -176 46t-126 126t-46 176t46 176t126 126t176 46q88 0 160.5 -35.5t117.5 -99.5l-69 -38q-35 48 -89 73.5t-120 25.5q-74 0 -135.5 -36t-97 -99t-35.5 -139t35.5 -138.5t97 -99t135.5 -36.5q70 0 126.5 29t90.5 84z
M555 880l-117 -142h-73l-116 142h77l75 -92l76 92h78z" />
    <glyph glyph-name="ccaron" unicode="&#x10d;" horiz-adv-x="565" 
d="M523 125q-29 -64 -89 -101t-134 -37q-70 0 -128.5 32.5t-93.5 91.5t-35 135q0 75 35 134.5t93.5 92t128.5 32.5q71 0 130 -34.5t90 -95.5l-71 -28q-22 43 -61.5 65.5t-87.5 22.5q-50 0 -92 -24t-66.5 -67t-24.5 -98q0 -56 24.5 -99t66 -66t92.5 -23q50 0 90 23.5t63 69.5
zM455 702l-117 -142h-73l-116 142h77l75 -92l76 92h78z" />
    <glyph glyph-name="Dcaron" unicode="&#x10e;" horiz-adv-x="736" 
d="M509 626.5q84 -43.5 128 -119.5t44 -172q0 -95 -44.5 -171.5t-128 -120t-198.5 -43.5h-222v670h222q115 0 199 -43.5zM466 106.5q66 34.5 100.5 94t34.5 134.5t-34.5 135t-100.5 94.5t-157 34.5h-142v-527h142q91 0 157 34.5zM503 880l-117 -142h-73l-116 142h77l75 -92
l76 92h78z" />
    <glyph glyph-name="dcaron" unicode="&#x10f;" horiz-adv-x="649" 
d="M704 548h-61v172h77zM561 720v-720h-76v77q-34 -43 -84.5 -66.5t-111.5 -23.5q-66 0 -122.5 32.5t-90 91.5t-33.5 135t33.5 135t90 91.5t122.5 32.5q61 0 111.5 -23.5t84.5 -66.5v305h76zM387 77q41 22 67.5 62t30.5 92v30q-4 53 -30.5 93t-67.5 62t-86 22
q-51 0 -93 -23.5t-66.5 -67t-24.5 -101.5q0 -57 24.5 -100.5t66.5 -67t93 -23.5q45 0 86 22z" />
    <glyph glyph-name="Dcroat" unicode="&#x110;" horiz-adv-x="743" 
d="M526 626.5q84 -43.5 128 -119.5t44 -172q0 -95 -44.5 -171.5t-128 -120t-198.5 -43.5h-222v302h-75v71h75v297h222q115 0 199 -43.5zM484 106.5q66 34.5 100.5 94t34.5 134.5t-34.5 135t-100.5 94.5t-157 34.5h-143v-226h164v-71h-164v-230h143q91 0 157 34.5z" />
    <glyph glyph-name="dcroat" unicode="&#x111;" horiz-adv-x="668" 
d="M636 574h-75v-574h-76v77q-34 -43 -84.5 -66.5t-111.5 -23.5q-66 0 -122.5 32.5t-90 91.5t-33.5 135t33.5 135t90 91.5t122.5 32.5q61 0 111.5 -23.5t84.5 -66.5v159h-173v61h173v85h76v-85h75v-61zM387 77q41 22 67.5 62t30.5 92v30q-4 53 -30.5 93t-67.5 62t-86 22
q-51 0 -93 -23.5t-66.5 -67t-24.5 -101.5q0 -57 24.5 -100.5t66.5 -67t93 -23.5q45 0 86 22z" />
    <glyph glyph-name="Emacron" unicode="&#x112;" horiz-adv-x="637" 
d="M577 72v-72h-489v670h488v-71h-409v-227h380v-71h-380v-229h410zM482 762h-284v62h284v-62z" />
    <glyph glyph-name="emacron" unicode="&#x113;" horiz-adv-x="583" 
d="M540 231h-423q3 -54 29 -94t66 -61.5t85 -21.5q105 0 158 76l61 -31q-33 -55 -89.5 -83.5t-129.5 -28.5q-67 0 -125.5 32t-93.5 91t-35 135q0 77 35 136t93.5 91.5t126.5 32.5q66 0 120.5 -31t87 -87t34.5 -128v-28zM219 420q-38 -18 -65 -52t-34 -80h343
q-10 71 -55.5 110.5t-109.5 39.5q-41 0 -79 -18zM440 584h-284v62h284v-62z" />
    <glyph glyph-name="Edotaccent" unicode="&#x116;" horiz-adv-x="637" 
d="M577 72v-72h-489v670h488v-71h-409v-227h380v-71h-380v-229h410zM377 847.5q15 -14.5 15 -34.5q0 -22 -14.5 -36t-37.5 -14q-22 0 -36.5 14t-14.5 36q0 20 15 34.5t36 14.5q22 0 37 -14.5z" />
    <glyph glyph-name="edotaccent" unicode="&#x117;" horiz-adv-x="583" 
d="M540 231h-423q3 -54 29 -94t66 -61.5t85 -21.5q105 0 158 76l61 -31q-33 -55 -89.5 -83.5t-129.5 -28.5q-67 0 -125.5 32t-93.5 91t-35 135q0 77 35 136t93.5 91.5t126.5 32.5q66 0 120.5 -31t87 -87t34.5 -128v-28zM219 420q-38 -18 -65 -52t-34 -80h343
q-10 71 -55.5 110.5t-109.5 39.5q-41 0 -79 -18zM334 669.5q15 -14.5 15 -34.5q0 -22 -14.5 -36t-37.5 -14q-22 0 -36.5 14t-14.5 36q0 20 15 34.5t36 14.5q22 0 37 -14.5z" />
    <glyph glyph-name="Eogonek" unicode="&#x118;" horiz-adv-x="637" 
d="M546 0q-41 -43 -55 -63t-14 -42q0 -21 12 -30.5t30 -9.5q9 0 20.5 3t25.5 7l6 -50q-39 -15 -68 -15q-35 0 -59.5 20t-24.5 63q0 29 15.5 56t54.5 61h-401v670h488v-71h-409v-227h380v-71h-380v-229h410v-72h-31z" />
    <glyph glyph-name="eogonek" unicode="&#x119;" horiz-adv-x="583" 
d="M540 231h-423q3 -54 29 -94t66 -61.5t85 -21.5q105 0 158 76l61 -31q-17 -28 -43 -51l-38 -40q-41 -43 -55 -63t-14 -42q0 -21 12 -30.5t30 -9.5q9 0 20.5 3t25.5 7l6 -50q-39 -15 -68 -15q-35 0 -59.5 20t-24.5 63q0 26 12.5 50t42.5 53q-37 -7 -66 -7q-67 0 -125.5 32
t-93.5 91t-35 135q0 77 35 136t93.5 91.5t126.5 32.5q66 0 120.5 -31t87 -87t34.5 -128v-28zM219 420q-38 -18 -65 -52t-34 -80h343q-10 71 -55.5 110.5t-109.5 39.5q-41 0 -79 -18z" />
    <glyph glyph-name="Ecaron" unicode="&#x11a;" horiz-adv-x="637" 
d="M577 72v-72h-489v670h488v-71h-409v-227h380v-71h-380v-229h410zM494 880l-117 -142h-73l-116 142h77l75 -92l76 92h78z" />
    <glyph glyph-name="ecaron" unicode="&#x11b;" horiz-adv-x="583" 
d="M540 231h-423q3 -54 29 -94t66 -61.5t85 -21.5q105 0 158 76l61 -31q-33 -55 -89.5 -83.5t-129.5 -28.5q-67 0 -125.5 32t-93.5 91t-35 135q0 77 35 136t93.5 91.5t126.5 32.5q66 0 120.5 -31t87 -87t34.5 -128v-28zM219 420q-38 -18 -65 -52t-34 -80h343
q-10 71 -55.5 110.5t-109.5 39.5q-41 0 -79 -18zM452 702l-117 -142h-73l-116 142h77l75 -92l76 92h78z" />
    <glyph glyph-name="Gbreve" unicode="&#x11e;" horiz-adv-x="795" 
d="M740 334q0 -96 -42.5 -175.5t-119.5 -125.5t-174 -46q-96 0 -176 46t-126.5 126t-46.5 176t46.5 175.5t127 126t176.5 46.5q82 0 151 -31t115 -88l-65 -44q-35 42 -87 65.5t-114 23.5q-74 0 -136 -36t-98 -99t-36 -139t36 -138.5t98 -99t137 -36.5q70 0 125.5 30.5
t89.5 83.5t42 121h-229v72h305q1 -13 1 -34zM301 769q-40 37 -40 98h64q0 -36 23 -58t58 -22t58 22t23 58h64q0 -61 -40 -98t-105 -37t-105 37z" />
    <glyph glyph-name="gbreve" unicode="&#x11f;" horiz-adv-x="633" 
d="M546 40q0 -71 -33.5 -123t-91.5 -79.5t-133 -27.5q-70 0 -125.5 22t-88.5 63l51 56q59 -72 162 -72q81 0 132.5 46.5t51.5 124.5v60q-30 -39 -77 -60t-108 -21q-65 0 -120.5 31t-89 85.5t-33.5 122.5t33.5 122t89 84.5t120.5 30.5q60 0 107 -21t78 -60v69h74zM383 116.5
q40 21.5 64 61t24 90.5t-24 90t-64 60t-86 21q-50 0 -91 -21t-65 -60t-24 -90t24 -90.5t65 -61t91 -21.5q46 0 86 21.5zM199 592q-40 37 -40 98h64q0 -36 23 -58t58 -22t58 22t23 58h64q0 -61 -40 -98t-105 -37t-105 37z" />
    <glyph glyph-name="Gdotaccent" unicode="&#x120;" horiz-adv-x="795" 
d="M740 334q0 -96 -42.5 -175.5t-119.5 -125.5t-174 -46q-96 0 -176 46t-126.5 126t-46.5 176t46.5 175.5t127 126t176.5 46.5q82 0 151 -31t115 -88l-65 -44q-35 42 -87 65.5t-114 23.5q-74 0 -136 -36t-98 -99t-36 -139t36 -138.5t98 -99t137 -36.5q70 0 125.5 30.5
t89.5 83.5t42 121h-229v72h305q1 -13 1 -34zM442 847.5q15 -14.5 15 -34.5q0 -22 -14.5 -36t-37.5 -14q-22 0 -36.5 14t-14.5 36q0 20 15 34.5t36 14.5q22 0 37 -14.5z" />
    <glyph glyph-name="gdotaccent" unicode="&#x121;" horiz-adv-x="633" 
d="M546 40q0 -71 -33.5 -123t-91.5 -79.5t-133 -27.5q-70 0 -125.5 22t-88.5 63l51 56q59 -72 162 -72q81 0 132.5 46.5t51.5 124.5v60q-30 -39 -77 -60t-108 -21q-65 0 -120.5 31t-89 85.5t-33.5 122.5t33.5 122t89 84.5t120.5 30.5q60 0 107 -21t78 -60v69h74zM383 116.5
q40 21.5 64 61t24 90.5t-24 90t-64 60t-86 21q-50 0 -91 -21t-65 -60t-24 -90t24 -90.5t65 -61t91 -21.5q46 0 86 21.5zM341 669.5q15 -14.5 15 -34.5q0 -22 -14.5 -36t-37.5 -14q-22 0 -36.5 14t-14.5 36q0 20 15 34.5t36 14.5q22 0 37 -14.5z" />
    <glyph glyph-name="Gcommaaccent" unicode="&#x122;" horiz-adv-x="795" 
d="M740 334q0 -96 -42.5 -175.5t-119.5 -125.5t-174 -46q-96 0 -176 46t-126.5 126t-46.5 176t46.5 175.5t127 126t176.5 46.5q82 0 151 -31t115 -88l-65 -44q-35 42 -87 65.5t-114 23.5q-74 0 -136 -36t-98 -99t-36 -139t36 -138.5t98 -99t137 -36.5q70 0 125.5 30.5
t89.5 83.5t42 121h-229v72h305q1 -13 1 -34zM305 -188l48 143h83l-71 -143h-60z" />
    <glyph glyph-name="gcommaaccent" unicode="&#x123;" horiz-adv-x="633" 
d="M356 569h-83l72 143h59zM546 40q0 -71 -33.5 -123t-91.5 -79.5t-133 -27.5q-70 0 -125.5 22t-88.5 63l51 56q59 -72 162 -72q81 0 132.5 46.5t51.5 124.5v60q-30 -39 -77 -60t-108 -21q-65 0 -120.5 31t-89 85.5t-33.5 122.5t33.5 122t89 84.5t120.5 30.5q60 0 107 -21
t78 -60v69h74zM383 116.5q40 21.5 64 61t24 90.5t-24 90t-64 60t-86 21q-50 0 -91 -21t-65 -60t-24 -90t24 -90.5t65 -61t91 -21.5q46 0 86 21.5z" />
    <glyph glyph-name="Hbar" unicode="&#x126;" horiz-adv-x="758" 
d="M726 466h-70v-466h-79v282h-398v-282h-79v466h-70v66h70v138h79v-138h398v138h79v-138h70v-66zM577 466h-398v-113h398v113z" />
    <glyph glyph-name="hbar" unicode="&#x127;" horiz-adv-x="627" 
d="M472 478.5q45 -26.5 69.5 -74t24.5 -109.5v-295h-77v281q0 69 -37.5 111.5t-98.5 42.5q-79 0 -125 -52t-46 -146v-237h-77v579h-75v56h75v85h77v-85h172v-56h-172v-167q30 45 77.5 69t108.5 24q59 0 104 -26.5z" />
    <glyph glyph-name="Imacron" unicode="&#x12a;" horiz-adv-x="254" 
d="M167 0h-79v670h79v-670zM269 762h-284v62h284v-62z" />
    <glyph glyph-name="imacron" unicode="&#x12b;" horiz-adv-x="279" 
d="M178 0h-77v493h77v-493zM281 584h-284v62h284v-62z" />
    <glyph glyph-name="Iogonek" unicode="&#x12e;" horiz-adv-x="254" 
d="M191 -185q-39 -15 -68 -15q-35 0 -59.5 20t-24.5 63q0 29 15.5 56t54.5 61h-21v670h79v-670h-1q-41 -43 -55 -63t-14 -42q0 -21 12 -30.5t30 -9.5q9 0 20.5 3t25.5 7z" />
    <glyph glyph-name="iogonek" unicode="&#x12f;" horiz-adv-x="279" 
d="M102.5 599q-14.5 14 -14.5 36q0 20 15 34.5t36 14.5q22 0 37 -14.5t15 -34.5q0 -22 -14.5 -36t-37.5 -14q-22 0 -36.5 14zM202 -185q-39 -15 -68 -15q-35 0 -59.5 20t-24.5 63q0 29 15.5 56t54.5 61h-19v493h77v-493h-1q-41 -43 -55 -63t-14 -42q0 -21 12 -30.5t30 -9.5
q9 0 20.5 3t25.5 7z" />
    <glyph glyph-name="Idotaccent" unicode="&#x130;" horiz-adv-x="254" 
d="M167 0h-79v670h79v-670zM163 847.5q15 -14.5 15 -34.5q0 -22 -14.5 -36t-37.5 -14q-22 0 -36.5 14t-14.5 36q0 20 15 34.5t36 14.5q22 0 37 -14.5z" />
    <glyph glyph-name="dotlessi" unicode="&#x131;" horiz-adv-x="279" 
d="M178 0h-77v493h77v-493z" />
    <glyph glyph-name="IJ" unicode="&#x132;" horiz-adv-x="849" 
d="M167 0h-79v670h79v-670zM770 670v-426q0 -74 -31 -132.5t-87.5 -91.5t-129.5 -33q-100 0 -165 59.5t-79 156.5l75 17q9 -73 53.5 -117t115.5 -44q75 0 122 52t47 133v426h79z" />
    <glyph glyph-name="ij" unicode="&#x133;" horiz-adv-x="554" 
d="M171.5 678q15.5 -15 15.5 -36q0 -22 -15 -36.5t-38 -14.5q-22 0 -37 14.5t-15 36.5q0 21 15 36t37 15t37.5 -15zM173 0h-77v493h77v-493zM457 678q15 -15 15 -36q0 -22 -15 -36.5t-37 -14.5q-23 0 -38 14.5t-15 36.5q0 21 15 36t38 15q22 0 37 -15zM317 -108
q29 0 47 16.5t18 44.5v540h77v-549q0 -56 -34 -90t-90 -34q-43 0 -82 17l17 66q25 -11 47 -11z" />
    <glyph glyph-name="Kcommaaccent" unicode="&#x136;" horiz-adv-x="631" 
d="M606 0h-108l-313 297h-18v-297h-79v670h79v-302h18l307 302h93l-336 -336zM222 -188l48 143h83l-71 -143h-60z" />
    <glyph glyph-name="kcommaaccent" unicode="&#x137;" horiz-adv-x="569" 
d="M564 0h-113l-272 218h-15v-218h-76v720h76v-427h17l247 200h104l-296 -238zM212 -188l48 143h83l-71 -143h-60z" />
    <glyph glyph-name="Lacute" unicode="&#x139;" horiz-adv-x="586" 
d="M551 72v-72h-463v670h79v-598h384zM165 745h-67l80 140h89z" />
    <glyph glyph-name="lacute" unicode="&#x13a;" horiz-adv-x="252" 
d="M164 0h-76v720h76v-720zM165 795h-67l80 140h89z" />
    <glyph glyph-name="Lcommaaccent" unicode="&#x13b;" horiz-adv-x="586" 
d="M551 72v-72h-463v670h79v-598h384zM233 -188l48 143h83l-71 -143h-60z" />
    <glyph glyph-name="lcommaaccent" unicode="&#x13c;" horiz-adv-x="252" 
d="M164 0h-76v720h76v-720zM36 -188l48 143h83l-71 -143h-60z" />
    <glyph glyph-name="Lcaron" unicode="&#x13d;" horiz-adv-x="586" 
d="M551 72v-72h-463v670h79v-598h384zM369 498h-61v172h77z" />
    <glyph glyph-name="lcaron" unicode="&#x13e;" horiz-adv-x="252" 
d="M164 0h-76v720h76v-720zM300 548h-61v172h77z" />
    <glyph glyph-name="Ldot" unicode="&#x13f;" horiz-adv-x="581" 
d="M551 72v-72h-463v670h79v-598h384zM425 378.5q15 -14.5 15 -34.5q0 -22 -14.5 -36t-37.5 -14q-22 0 -36.5 14t-14.5 36q0 20 15 34.5t36 14.5q22 0 37 -14.5z" />
    <glyph glyph-name="ldot" unicode="&#x140;" horiz-adv-x="333" 
d="M164 0h-76v720h76v-720zM310 373.5q15 -14.5 15 -34.5q0 -22 -14.5 -36t-37.5 -14q-22 0 -36.5 14t-14.5 36q0 20 15 34.5t36 14.5q22 0 37 -14.5z" />
    <glyph glyph-name="Lslash" unicode="&#x141;" horiz-adv-x="596" 
d="M566 72v-72h-463v249l-73 -35v74l73 35v347h79v-308l158 76v-74l-158 -77v-215h384z" />
    <glyph glyph-name="lslash" unicode="&#x142;" horiz-adv-x="301" 
d="M271 388l-82 -51v-337h-76v290l-83 -52v75l83 52v355h76v-308l82 51v-75z" />
    <glyph glyph-name="Nacute" unicode="&#x143;" horiz-adv-x="760" 
d="M673 670v-670h-68l-438 532v-532h-79v670h68l438 -538v538h79zM427 745h-67l80 140h89z" />
    <glyph glyph-name="nacute" unicode="&#x144;" horiz-adv-x="624" 
d="M454 478.5q45 -26.5 69.5 -74t24.5 -109.5v-295h-76v281q0 69 -38 111.5t-99 42.5q-79 0 -125 -52t-46 -146v-237h-76v493h76v-81q30 45 77.5 69t108.5 24q59 0 104 -26.5zM360 567h-67l80 140h89z" />
    <glyph glyph-name="Ncommaaccent" unicode="&#x145;" horiz-adv-x="760" 
d="M673 670v-670h-68l-438 532v-532h-79v670h68l438 -538v538h79zM310 -188l48 143h83l-71 -143h-60z" />
    <glyph glyph-name="ncommaaccent" unicode="&#x146;" horiz-adv-x="624" 
d="M454 478.5q45 -26.5 69.5 -74t24.5 -109.5v-295h-76v281q0 69 -38 111.5t-99 42.5q-79 0 -125 -52t-46 -146v-237h-76v493h76v-81q30 45 77.5 69t108.5 24q59 0 104 -26.5zM232 -188l48 143h83l-71 -143h-60z" />
    <glyph glyph-name="Ncaron" unicode="&#x147;" horiz-adv-x="760" 
d="M673 670v-670h-68l-438 532v-532h-79v670h68l438 -538v538h79zM542 880l-117 -142h-73l-116 142h77l75 -92l76 92h78z" />
    <glyph glyph-name="ncaron" unicode="&#x148;" horiz-adv-x="624" 
d="M454 478.5q45 -26.5 69.5 -74t24.5 -109.5v-295h-76v281q0 69 -38 111.5t-99 42.5q-79 0 -125 -52t-46 -146v-237h-76v493h76v-81q30 45 77.5 69t108.5 24q59 0 104 -26.5zM475 702l-117 -142h-73l-116 142h77l75 -92l76 92h78z" />
    <glyph glyph-name="Eng" unicode="&#x14a;" horiz-adv-x="750" 
d="M673 670v-722q0 -56 -34.5 -92t-89.5 -36q-49 0 -93 22l16 60q30 -14 59 -14t47 16t18 44v63l-429 521v-532h-79v670h68l438 -538v538h79z" />
    <glyph glyph-name="eng" unicode="&#x14b;" horiz-adv-x="625" 
d="M454 478.5q45 -26.5 69.5 -74t24.5 -109.5v-347q0 -56 -34 -92t-90 -36q-48 0 -92 22l16 59q30 -14 59 -14t47 16.5t18 44.5v333q0 69 -38 111.5t-99 42.5q-79 0 -125 -52t-46 -146v-237h-76v493h76v-81q30 45 77.5 69t108.5 24q59 0 104 -26.5z" />
    <glyph glyph-name="Omacron" unicode="&#x14c;" horiz-adv-x="803" 
d="M576.5 636.5q79.5 -46.5 125.5 -126t46 -175.5t-46 -176t-125 -126t-175 -46t-175.5 46t-125.5 126t-46 176t46 175.5t125.5 126t175.5 46.5q95 0 174.5 -46.5zM536.5 98q60.5 36 96 98.5t35.5 138.5t-35.5 138.5t-96.5 99t-134 36.5q-74 0 -135 -36.5t-96.5 -99
t-35.5 -138.5t35.5 -138.5t96.5 -98.5t135 -36t134.5 36zM544 762h-284v62h284v-62z" />
    <glyph glyph-name="omacron" unicode="&#x14d;" horiz-adv-x="608" 
d="M437 471q60 -33 94.5 -91.5t34.5 -132.5t-35 -133t-94.5 -92.5t-131.5 -33.5q-73 0 -133 33.5t-94.5 92.5t-34.5 133t34.5 132.5t94.5 91.5t133 33q72 0 132 -33zM398 79.5q43 24.5 68 68t25 99.5q0 55 -25 98.5t-68 67.5t-93 24q-51 0 -94 -24t-68.5 -67.5t-25.5 -98.5
q0 -56 25.5 -99.5t68.5 -68t94 -24.5q50 0 93 24.5zM447 589h-284v62h284v-62z" />
    <glyph glyph-name="Ohungarumlaut" unicode="&#x150;" horiz-adv-x="803" 
d="M576.5 636.5q79.5 -46.5 125.5 -126t46 -175.5t-46 -176t-125 -126t-175 -46t-175.5 46t-125.5 126t-46 176t46 175.5t125.5 126t175.5 46.5q95 0 174.5 -46.5zM536.5 98q60.5 36 96 98.5t35.5 138.5t-35.5 138.5t-96.5 99t-134 36.5q-74 0 -135 -36.5t-96.5 -99
t-35.5 -138.5t35.5 -138.5t96.5 -98.5t135 -36t134.5 36zM357 745h-70l79 140h95zM511 745h-70l79 140h95z" />
    <glyph glyph-name="ohungarumlaut" unicode="&#x151;" horiz-adv-x="608" 
d="M437 471q60 -33 94.5 -91.5t34.5 -132.5t-35 -133t-94.5 -92.5t-131.5 -33.5q-73 0 -133 33.5t-94.5 92.5t-34.5 133t34.5 132.5t94.5 91.5t133 33q72 0 132 -33zM398 79.5q43 24.5 68 68t25 99.5q0 55 -25 98.5t-68 67.5t-93 24q-51 0 -94 -24t-68.5 -67.5t-25.5 -98.5
q0 -56 25.5 -99.5t68.5 -68t94 -24.5q50 0 93 24.5zM260 572h-70l79 140h95zM414 572h-70l79 140h95z" />
    <glyph glyph-name="OE" unicode="&#x152;" horiz-adv-x="1046" 
d="M986 72v-72h-536q-120 0 -209.5 43t-137.5 119t-48 173t48 173t137.5 119t209.5 43h535v-71h-379h-30v-227h380v-71h-380v-229h410zM497 72v527h-47q-99 0 -170 -33.5t-108 -93t-37 -137.5t37 -137.5t108 -92.5t170 -33h47z" />
    <glyph glyph-name="oe" unicode="&#x153;" horiz-adv-x="1032" 
d="M989 231h-423q3 -54 29 -94t66 -61.5t85 -21.5q105 0 158 76l61 -31q-33 -55 -89.5 -83.5t-129.5 -28.5q-67 0 -125.5 32.5t-92.5 89.5q-35 -56 -94 -88.5t-129 -32.5q-73 0 -133 33.5t-94.5 92.5t-34.5 133t34.5 132.5t94.5 91.5t133 33q71 0 130 -32t93 -89
q34 57 92.5 89.5t126.5 32.5q66 0 120.5 -31t87 -87t34.5 -128v-28zM668 420.5q-38 -17.5 -65 -51.5t-34 -81h343q-10 71 -55.5 110.5t-109.5 39.5q-41 0 -79 -17.5zM398 79.5q43 24.5 68 68t25 99.5q0 55 -25 98.5t-68 67.5t-93 24q-51 0 -94 -24t-68.5 -67.5t-25.5 -98.5
q0 -56 25.5 -99.5t68.5 -68t94 -24.5q50 0 93 24.5z" />
    <glyph glyph-name="Racute" unicode="&#x154;" horiz-adv-x="670" 
d="M635 0h-101l-207 252h-160v-252h-79v670h292q70 0 123.5 -26t83.5 -73.5t30 -109.5q0 -85 -54 -140.5t-145 -66.5zM167 324h213q71 0 114.5 38t43.5 99q0 62 -43.5 100t-114.5 38h-213v-275zM356 745h-67l80 140h89z" />
    <glyph glyph-name="racute" unicode="&#x155;" horiz-adv-x="412" 
d="M398 494l-6 -73q-9 1 -29 1q-95 0 -146.5 -64t-51.5 -168v-190h-77v493h77v-122q32 58 82 92.5t116 34.5q21 0 35 -4zM257 567h-67l80 140h89z" />
    <glyph glyph-name="Rcommaaccent" unicode="&#x156;" horiz-adv-x="670" 
d="M635 0h-101l-207 252h-160v-252h-79v670h292q70 0 123.5 -26t83.5 -73.5t30 -109.5q0 -85 -54 -140.5t-145 -66.5zM167 324h213q71 0 114.5 38t43.5 99q0 62 -43.5 100t-114.5 38h-213v-275zM234 -188l48 143h83l-71 -143h-60z" />
    <glyph glyph-name="rcommaaccent" unicode="&#x157;" horiz-adv-x="412" 
d="M398 494l-6 -73q-9 1 -29 1q-95 0 -146.5 -64t-51.5 -168v-190h-77v493h77v-122q32 58 82 92.5t116 34.5q21 0 35 -4zM37 -188l48 143h83l-71 -143h-60z" />
    <glyph glyph-name="Rcaron" unicode="&#x158;" horiz-adv-x="670" 
d="M635 0h-101l-207 252h-160v-252h-79v670h292q70 0 123.5 -26t83.5 -73.5t30 -109.5q0 -85 -54 -140.5t-145 -66.5zM167 324h213q71 0 114.5 38t43.5 99q0 62 -43.5 100t-114.5 38h-213v-275zM471 880l-117 -142h-73l-116 142h77l75 -92l76 92h78z" />
    <glyph glyph-name="rcaron" unicode="&#x159;" horiz-adv-x="412" 
d="M398 494l-6 -73q-9 1 -29 1q-95 0 -146.5 -64t-51.5 -168v-190h-77v493h77v-122q32 58 82 92.5t116 34.5q21 0 35 -4zM372 702l-117 -142h-73l-116 142h77l75 -92l76 92h78z" />
    <glyph glyph-name="Sacute" unicode="&#x15a;" horiz-adv-x="627" 
d="M155.5 30q-71.5 43 -95.5 119l80 30q18 -58 69 -90t122 -32q76 0 119.5 34.5t43.5 90.5q0 46 -25 68.5t-84 36.5l-143 33q-161 36 -161 171q0 57 29.5 100.5t83.5 67.5t125 24q82 0 142.5 -35t90.5 -96l-76 -26q-21 42 -62.5 65t-96.5 23q-68 0 -110 -33.5t-42 -87.5
q0 -43 25 -65.5t76 -34.5l138 -33q78 -19 123.5 -59t45.5 -115q0 -60 -31 -105t-87 -69.5t-131 -24.5q-97 0 -168.5 43zM359 745h-67l80 140h89z" />
    <glyph glyph-name="sacute" unicode="&#x15b;" horiz-adv-x="506" 
d="M174.5 71.5q38.5 -21.5 92.5 -21.5q53 0 85.5 23t32.5 61q0 29 -20.5 45.5t-60.5 25.5l-108 25q-128 28 -128 126q0 67 51 108t136 41q72 0 121.5 -29.5t70.5 -79.5l-71 -22q-13 32 -45 50.5t-78 18.5q-51 0 -80 -22.5t-29 -58.5q0 -28 18.5 -43.5t56.5 -24.5l114 -26
q127 -30 127 -129q0 -72 -54.5 -112t-144.5 -40q-78 0 -134.5 30.5t-74.5 86.5l73 29q11 -40 49.5 -61.5zM296 567h-67l80 140h89z" />
    <glyph glyph-name="Scedilla" unicode="&#x15e;" horiz-adv-x="627" 
d="M514 49.5q-59 -52.5 -158 -60.5l-72 -159h-83l94 159q-87 6 -150 47.5t-85 112.5l80 30q18 -58 69 -90t122 -32q76 0 119.5 34.5t43.5 90.5q0 46 -25 68.5t-84 36.5l-143 33q-161 36 -161 171q0 57 29.5 100.5t83.5 67.5t125 24q82 0 142.5 -35t90.5 -96l-76 -26
q-21 42 -62.5 65t-96.5 23q-68 0 -110 -33.5t-42 -87.5q0 -43 25 -65.5t76 -34.5l138 -33q78 -19 123.5 -59t45.5 -115q0 -84 -59 -136.5z" />
    <glyph glyph-name="scedilla" unicode="&#x15f;" horiz-adv-x="506" 
d="M416 36.5q-44 -39.5 -118 -47.5l-72 -159h-83l94 158q-70 5 -119 34.5t-66 81.5l73 29q11 -40 49.5 -61.5t92.5 -21.5q53 0 85.5 23t32.5 61q0 29 -20.5 45.5t-60.5 25.5l-108 25q-128 28 -128 126q0 67 51 108t136 41q72 0 121.5 -29.5t70.5 -79.5l-71 -22
q-13 32 -45 50.5t-78 18.5q-51 0 -80 -22.5t-29 -58.5q0 -28 18.5 -43.5t56.5 -24.5l114 -26q127 -30 127 -129q0 -63 -44 -102.5z" />
    <glyph glyph-name="Scaron" unicode="&#x160;" horiz-adv-x="627" 
d="M155.5 30q-71.5 43 -95.5 119l80 30q18 -58 69 -90t122 -32q76 0 119.5 34.5t43.5 90.5q0 46 -25 68.5t-84 36.5l-143 33q-161 36 -161 171q0 57 29.5 100.5t83.5 67.5t125 24q82 0 142.5 -35t90.5 -96l-76 -26q-21 42 -62.5 65t-96.5 23q-68 0 -110 -33.5t-42 -87.5
q0 -43 25 -65.5t76 -34.5l138 -33q78 -19 123.5 -59t45.5 -115q0 -60 -31 -105t-87 -69.5t-131 -24.5q-97 0 -168.5 43zM474 880l-117 -142h-73l-116 142h77l75 -92l76 92h78z" />
    <glyph glyph-name="scaron" unicode="&#x161;" horiz-adv-x="506" 
d="M174.5 71.5q38.5 -21.5 92.5 -21.5q53 0 85.5 23t32.5 61q0 29 -20.5 45.5t-60.5 25.5l-108 25q-128 28 -128 126q0 67 51 108t136 41q72 0 121.5 -29.5t70.5 -79.5l-71 -22q-13 32 -45 50.5t-78 18.5q-51 0 -80 -22.5t-29 -58.5q0 -28 18.5 -43.5t56.5 -24.5l114 -26
q127 -30 127 -129q0 -72 -54.5 -112t-144.5 -40q-78 0 -134.5 30.5t-74.5 86.5l73 29q11 -40 49.5 -61.5zM411 702l-117 -142h-73l-116 142h77l75 -92l76 92h78z" />
    <glyph glyph-name="uni0163" unicode="&#x163;" horiz-adv-x="394" 
d="M328.5 -3q-26.5 -9 -55.5 -9l-71 -158h-83l97 164q-51 14 -80 54.5t-29 105.5v275h-107v64h107v157h77v-157h176v-64h-176v-270q0 -47 24.5 -73.5t66.5 -26.5q21 0 43 8t41 22l25 -63q-29 -20 -55.5 -29z" />
    <glyph glyph-name="Tcaron" unicode="&#x164;" horiz-adv-x="627" 
d="M602 599h-248v-599h-80v599h-249v71h577v-71zM468 880l-117 -142h-73l-116 142h77l75 -92l76 92h78z" />
    <glyph glyph-name="tcaron" unicode="&#x165;" horiz-adv-x="394" 
d="M384 26q-30 -21 -57 -30t-57 -9q-75 0 -119 43.5t-44 123.5v275h-107v64h107v157h77v-157h176v-64h-176v-270q0 -47 24.5 -73.5t66.5 -26.5q21 0 43 8t41 22zM312 546h-61v172h77z" />
    <glyph glyph-name="Tbar" unicode="&#x166;" horiz-adv-x="637" 
d="M354 599v-230h132v-66h-132v-303h-80v303h-132v66h132v230h-249v71h577v-71h-248z" />
    <glyph glyph-name="tbar" unicode="&#x167;" horiz-adv-x="404" 
d="M394 26q-30 -21 -57 -30t-57 -9q-75 0 -119 43.5t-44 123.5v116h-99v63h99v96h-117v64h117v157h77v-157h161v-64h-161v-96h128v-63h-128v-111q0 -47 24.5 -73.5t66.5 -26.5q21 0 43 8t41 22z" />
    <glyph glyph-name="Umacron" unicode="&#x16a;" horiz-adv-x="721" 
d="M641 670v-377q0 -91 -34.5 -160t-98 -107.5t-146.5 -38.5q-84 0 -148 38.5t-99 107.5t-35 160v377h79v-377q0 -69 25.5 -121t71.5 -80.5t106 -28.5q59 0 104.5 28.5t70.5 80.5t25 121v377h79zM502 762h-284v62h284v-62z" />
    <glyph glyph-name="umacron" unicode="&#x16b;" horiz-adv-x="624" 
d="M537 493v-492h-77v80q-30 -45 -77.5 -69t-108.5 -24q-59 0 -104 26.5t-69.5 74t-24.5 109.5v295h77v-281q0 -69 37.5 -111t98.5 -42q79 0 125 51.5t46 145.5v237h77zM449 584h-284v62h284v-62z" />
    <glyph glyph-name="Uring" unicode="&#x16e;" horiz-adv-x="721" 
d="M641 670v-377q0 -91 -34.5 -160t-98 -107.5t-146.5 -38.5q-84 0 -148 38.5t-99 107.5t-35 160v377h79v-377q0 -69 25.5 -121t71.5 -80.5t106 -28.5q59 0 104.5 28.5t70.5 80.5t25 121v377h79zM433.5 756.5q-30.5 -29.5 -73.5 -29.5t-73 29.5t-30 71.5q0 41 30 70.5
t73 29.5t73.5 -29.5t30.5 -70.5q0 -42 -30.5 -71.5zM400 866q-16 16 -40 16q-23 0 -39.5 -16t-16.5 -38t16.5 -38t39.5 -16q24 0 40 15.5t16 38.5q0 22 -16 38z" />
    <glyph glyph-name="uring" unicode="&#x16f;" horiz-adv-x="624" 
d="M537 493v-492h-77v80q-30 -45 -77.5 -69t-108.5 -24q-59 0 -104 26.5t-69.5 74t-24.5 109.5v295h77v-281q0 -69 37.5 -111t98.5 -42q79 0 125 51.5t46 145.5v237h77zM380.5 579.5q-30.5 -29.5 -73.5 -29.5t-73 29.5t-30 71.5q0 41 30 70.5t73 29.5t73.5 -29.5t30.5 -70.5
q0 -42 -30.5 -71.5zM347 689q-16 16 -40 16q-23 0 -39.5 -16t-16.5 -38t16.5 -38t39.5 -16q24 0 40 15.5t16 38.5q0 22 -16 38z" />
    <glyph glyph-name="Uhungarumlaut" unicode="&#x170;" horiz-adv-x="721" 
d="M641 670v-377q0 -91 -34.5 -160t-98 -107.5t-146.5 -38.5q-84 0 -148 38.5t-99 107.5t-35 160v377h79v-377q0 -69 25.5 -121t71.5 -80.5t106 -28.5q59 0 104.5 28.5t70.5 80.5t25 121v377h79zM315 745h-70l79 140h95zM469 745h-70l79 140h95z" />
    <glyph glyph-name="uhungarumlaut" unicode="&#x171;" horiz-adv-x="624" 
d="M537 493v-492h-77v80q-30 -45 -77.5 -69t-108.5 -24q-59 0 -104 26.5t-69.5 74t-24.5 109.5v295h77v-281q0 -69 37.5 -111t98.5 -42q79 0 125 51.5t46 145.5v237h77zM262 567h-70l79 140h95zM416 567h-70l79 140h95z" />
    <glyph glyph-name="Uogonek" unicode="&#x172;" horiz-adv-x="721" 
d="M641 670v-386q0 -75 -26.5 -133t-71.5 -99q-56 -49 -77.5 -70.5t-32 -39.5t-10.5 -41q0 -20 12.5 -31.5t34.5 -11.5q10 0 22 3.5t29 9.5l15 -50q-28 -13 -47 -17.5t-37 -4.5q-42 0 -68 22.5t-26 59.5q0 32 14.5 58t46.5 55q-33 -7 -57 -7q-83 0 -147 37.5t-99.5 104.5
t-35.5 155v386h79v-386q0 -66 25.5 -116t71.5 -77.5t106 -27.5q59 0 104.5 27.5t70.5 77.5t25 116v386h79z" />
    <glyph glyph-name="uogonek" unicode="&#x173;" horiz-adv-x="624" 
d="M562 -185q-39 -15 -68 -15q-35 0 -59.5 20t-24.5 63q0 29 16 55.5t55 62.5h-21v80q-30 -45 -77.5 -69t-108.5 -24q-59 0 -104 26.5t-69.5 74t-24.5 109.5v295h77v-281q0 -69 37.5 -111t98.5 -42q79 0 125 51.5t46 145.5v237h77v-492h-18l18 -1q-41 -43 -55 -63t-14 -42
q0 -21 12 -30.5t30 -9.5q9 0 20.5 3t25.5 7z" />
    <glyph glyph-name="Wcircumflex" unicode="&#x174;" horiz-adv-x="953" 
d="M936 670l-206 -670h-83l-170 544l-171 -544h-82l-206 670h82l167 -549l171 549h77l171 -549l167 549h83zM553 737l-75 93l-76 -93h-77l116 142h73l117 -142h-78z" />
    <glyph glyph-name="wcircumflex" unicode="&#x175;" horiz-adv-x="769" 
d="M751 493l-166 -495h-71l-129 374l-130 -374h-71l-166 495h77l127 -382l132 382h61l131 -383l128 383h77zM461 559l-75 93l-76 -93h-77l116 142h73l117 -142h-78z" />
    <glyph glyph-name="Ycircumflex" unicode="&#x176;" horiz-adv-x="671" 
d="M374 234v-234h-79v233l-277 437h88l228 -357l228 357h91zM411 737l-75 93l-76 -93h-77l116 142h73l117 -142h-78z" />
    <glyph glyph-name="ycircumflex" unicode="&#x177;" horiz-adv-x="563" 
d="M545 493l-337 -663h-85l116 228l-221 435h86l179 -348l177 348h85zM357 560l-75 93l-76 -93h-77l116 142h73l117 -142h-78z" />
    <glyph glyph-name="Ydieresis" unicode="&#x178;" horiz-adv-x="671" 
d="M374 234v-234h-79v233l-277 437h88l228 -357l228 357h91zM273.5 842q15.5 -15 15.5 -36q0 -22 -15 -36.5t-38 -14.5q-22 0 -37 14.5t-15 36.5q0 21 15 36t37 15t37.5 -15zM471.5 842q15.5 -15 15.5 -36q0 -22 -15 -36.5t-38 -14.5q-22 0 -37 14.5t-15 36.5q0 21 15 36
t37 15t37.5 -15z" />
    <glyph glyph-name="Zacute" unicode="&#x179;" horiz-adv-x="626" 
d="M575 68v-68h-516v50l410 552h-398v68h500v-57l-401 -545h405zM360 745h-67l80 140h89z" />
    <glyph glyph-name="zacute" unicode="&#x17a;" horiz-adv-x="506" 
d="M466 64v-64h-426v52l321 377h-312v64h407v-53l-321 -376h331zM300 567h-67l80 140h89z" />
    <glyph glyph-name="Zdotaccent" unicode="&#x17b;" horiz-adv-x="626" 
d="M575 68v-68h-516v50l410 552h-398v68h500v-57l-401 -545h405zM357 847.5q15 -14.5 15 -34.5q0 -22 -14.5 -36t-37.5 -14q-22 0 -36.5 14t-14.5 36q0 20 15 34.5t36 14.5q22 0 37 -14.5z" />
    <glyph glyph-name="zdotaccent" unicode="&#x17c;" horiz-adv-x="506" 
d="M466 64v-64h-426v52l321 377h-312v64h407v-53l-321 -376h331zM297 669.5q15 -14.5 15 -34.5q0 -22 -14.5 -36t-37.5 -14q-22 0 -36.5 14t-14.5 36q0 20 15 34.5t36 14.5q22 0 37 -14.5z" />
    <glyph glyph-name="Zcaron" unicode="&#x17d;" horiz-adv-x="626" 
d="M575 68v-68h-516v50l410 552h-398v68h500v-57l-401 -545h405zM475 880l-117 -142h-73l-116 142h77l75 -92l76 92h78z" />
    <glyph glyph-name="zcaron" unicode="&#x17e;" horiz-adv-x="506" 
d="M466 64v-64h-426v52l321 377h-312v64h407v-53l-321 -376h331zM415 702l-117 -142h-73l-116 142h77l75 -92l76 92h78z" />
    <glyph glyph-name="florin" unicode="&#x192;" horiz-adv-x="552" 
d="M338 584.5q-32 -29.5 -41 -80.5l-26 -139h189v-64h-200l-59 -327q-12 -64 -55 -101.5t-104 -37.5q-47 0 -82 25l27 61q26 -14 56 -14q31 0 54 18.5t28 48.5l59 327h-120v64h131l26 139q14 82 67.5 130t133.5 48q66 0 112 -38l-29 -61q-17 15 -40 23t-48 8
q-47 0 -79 -29.5z" />
    <glyph glyph-name="AEacute" unicode="&#x1fc;" horiz-adv-x="1040" 
d="M1000 72v-72h-489v155h-301l-108 -155h-92l480 670h509v-71h-409v-227h380v-71h-380v-229h410zM511 226v355l-250 -355h250zM724 745h-67l80 140h89z" />
    <glyph glyph-name="aeacute" unicode="&#x1fd;" horiz-adv-x="922" 
d="M880 222h-405q7 -78 53 -123t117 -45q42 0 82 19.5t66 58.5l61 -31q-32 -54 -88 -84t-121 -30q-71 0 -124.5 31.5t-84.5 88.5q-28 -55 -84.5 -87.5t-127.5 -32.5q-89 0 -137.5 42t-48.5 107q0 67 51 105t140 38h175v41q0 54 -36 87t-94 33q-59 0 -95 -27t-44 -74l-70 15
q8 68 64 109.5t146 41.5q61 0 107.5 -25.5t69.5 -70.5q33 46 81.5 71t109.5 25q66 0 120 -32.5t85 -91t32 -132.5v-27zM802 279q-8 74 -51 117.5t-105 43.5q-67 0 -116 -43.5t-56 -117.5h328zM404 222h-175q-55 0 -86.5 -22t-31.5 -61q0 -40 32 -64.5t89 -24.5q46 0 85.5 21
t63 58t23.5 83v10zM492 567h-67l80 140h89z" />
    <glyph glyph-name="Scommaaccent" unicode="&#x218;" horiz-adv-x="627" 
d="M155.5 30q-71.5 43 -95.5 119l80 30q18 -58 69 -90t122 -32q76 0 119.5 34.5t43.5 90.5q0 46 -25 68.5t-84 36.5l-143 33q-161 36 -161 171q0 57 29.5 100.5t83.5 67.5t125 24q82 0 142.5 -35t90.5 -96l-76 -26q-21 42 -62.5 65t-96.5 23q-68 0 -110 -33.5t-42 -87.5
q0 -43 25 -65.5t76 -34.5l138 -33q78 -19 123.5 -59t45.5 -115q0 -60 -31 -105t-87 -69.5t-131 -24.5q-97 0 -168.5 43zM230 -188l48 143h83l-71 -143h-60z" />
    <glyph glyph-name="scommaaccent" unicode="&#x219;" horiz-adv-x="506" 
d="M174.5 71.5q38.5 -21.5 92.5 -21.5q53 0 85.5 23t32.5 61q0 29 -20.5 45.5t-60.5 25.5l-108 25q-128 28 -128 126q0 67 51 108t136 41q72 0 121.5 -29.5t70.5 -79.5l-71 -22q-13 32 -45 50.5t-78 18.5q-51 0 -80 -22.5t-29 -58.5q0 -28 18.5 -43.5t56.5 -24.5l114 -26
q127 -30 127 -129q0 -72 -54.5 -112t-144.5 -40q-78 0 -134.5 30.5t-74.5 86.5l73 29q11 -40 49.5 -61.5zM172 -188l48 143h83l-71 -143h-60z" />
    <glyph glyph-name="uni021A" unicode="&#x21a;" horiz-adv-x="627" 
d="M602 599h-248v-599h-80v599h-249v71h577v-71zM226 -188l48 143h83l-71 -143h-60z" />
    <glyph glyph-name="uni021B" unicode="&#x21b;" horiz-adv-x="394" 
d="M384 26q-30 -21 -57 -30t-57 -9q-75 0 -119 43.5t-44 123.5v275h-107v64h107v157h77v-157h176v-64h-176v-270q0 -47 24.5 -73.5t66.5 -26.5q21 0 43 8t41 22zM148 -188l48 143h83l-71 -143h-60z" />
    <glyph glyph-name="circumflex" unicode="&#x2c6;" horiz-adv-x="600" 
d="M376 559l-75 93l-76 -93h-77l116 142h73l117 -142h-78z" />
    <glyph glyph-name="caron" unicode="&#x2c7;" horiz-adv-x="600" 
d="M454 702l-117 -142h-73l-116 142h77l75 -92l76 92h78z" />
    <glyph glyph-name="breve" unicode="&#x2d8;" horiz-adv-x="600" 
d="M195 591q-40 37 -40 98h64q0 -36 23 -58t58 -22t58 22t23 58h64q0 -61 -40 -98t-105 -37t-105 37z" />
    <glyph glyph-name="dotaccent" unicode="&#x2d9;" horiz-adv-x="600" 
d="M337 669.5q15 -14.5 15 -34.5q0 -22 -14.5 -36t-37.5 -14q-22 0 -36.5 14t-14.5 36q0 20 15 34.5t36 14.5q22 0 37 -14.5z" />
    <glyph glyph-name="ring" unicode="&#x2da;" horiz-adv-x="600" 
d="M373.5 578.5q-30.5 -29.5 -73.5 -29.5t-73 29.5t-30 71.5q0 41 30 70.5t73 29.5t73.5 -29.5t30.5 -70.5q0 -42 -30.5 -71.5zM340 688q-16 16 -40 16q-23 0 -39.5 -16t-16.5 -38t16.5 -38t39.5 -16q24 0 40 15.5t16 38.5q0 22 -16 38z" />
    <glyph glyph-name="ogonek" unicode="&#x2db;" horiz-adv-x="600" 
d="M267 -63q-14 -20 -14 -42q0 -21 12 -30.5t30 -9.5q9 0 20.5 3t25.5 7l6 -50q-39 -15 -68 -15q-35 0 -59.5 20t-24.5 63q0 30 16 57t57 63l54 -3q-41 -43 -55 -63z" />
    <glyph glyph-name="tilde" unicode="&#x2dc;" horiz-adv-x="600" 
d="M178.5 670q25.5 25 61.5 25q21 0 36.5 -7t33.5 -20q15 -11 26.5 -16t25.5 -5q17 0 27 13t10 34h54q0 -53 -25.5 -78.5t-61.5 -25.5q-21 0 -36.5 7t-33.5 20q-15 11 -26.5 16t-25.5 5q-17 0 -27 -12.5t-10 -32.5h-54q0 52 25.5 77z" />
    <glyph glyph-name="hungarumlaut" unicode="&#x2dd;" horiz-adv-x="600" 
d="M219 567h-70l79 140h95zM373 567h-70l79 140h95z" />
    <glyph glyph-name="uni0326" unicode="&#x326;" horiz-adv-x="0" 
d="M-382 -188l48 143h83l-71 -143h-60z" />
    <glyph glyph-name="Wgrave" unicode="&#x1e80;" horiz-adv-x="953" 
d="M936 670l-206 -670h-83l-170 544l-171 -544h-82l-206 670h82l167 -549l171 549h77l171 -549l167 549h83zM429 885l79 -140h-66l-102 140h89z" />
    <glyph glyph-name="wgrave" unicode="&#x1e81;" horiz-adv-x="769" 
d="M751 493l-166 -495h-71l-129 374l-130 -374h-71l-166 495h77l127 -382l132 382h61l131 -383l128 383h77zM337 707l79 -140h-66l-102 140h89z" />
    <glyph glyph-name="Wacute" unicode="&#x1e82;" horiz-adv-x="953" 
d="M936 670l-206 -670h-83l-170 544l-171 -544h-82l-206 670h82l167 -549l171 549h77l171 -549l167 549h83zM516 745h-67l80 140h89z" />
    <glyph glyph-name="wacute" unicode="&#x1e83;" horiz-adv-x="769" 
d="M751 493l-166 -495h-71l-129 374l-130 -374h-71l-166 495h77l127 -382l132 382h61l131 -383l128 383h77zM424 567h-67l80 140h89z" />
    <glyph glyph-name="Wdieresis" unicode="&#x1e84;" horiz-adv-x="953" 
d="M936 670l-206 -670h-83l-170 544l-171 -544h-82l-206 670h82l167 -549l171 549h77l171 -549l167 549h83zM415.5 842q15.5 -15 15.5 -36q0 -22 -15 -36.5t-38 -14.5q-22 0 -37 14.5t-15 36.5q0 21 15 36t37 15t37.5 -15zM613.5 842q15.5 -15 15.5 -36q0 -22 -15 -36.5
t-38 -14.5q-22 0 -37 14.5t-15 36.5q0 21 15 36t37 15t37.5 -15z" />
    <glyph glyph-name="wdieresis" unicode="&#x1e85;" horiz-adv-x="769" 
d="M751 493l-166 -495h-71l-129 374l-130 -374h-71l-166 495h77l127 -382l132 382h61l131 -383l128 383h77zM323.5 664q15.5 -15 15.5 -36q0 -22 -15 -36.5t-38 -14.5q-22 0 -37 14.5t-15 36.5q0 21 15 36t37 15t37.5 -15zM521.5 664q15.5 -15 15.5 -36q0 -22 -15 -36.5
t-38 -14.5q-22 0 -37 14.5t-15 36.5q0 21 15 36t37 15t37.5 -15z" />
    <glyph glyph-name="Ygrave" unicode="&#x1ef2;" horiz-adv-x="671" 
d="M374 234v-234h-79v233l-277 437h88l228 -357l228 357h91zM288 885l79 -140h-66l-102 140h89z" />
    <glyph glyph-name="ygrave" unicode="&#x1ef3;" horiz-adv-x="563" 
d="M545 493l-337 -663h-85l116 228l-221 435h86l179 -348l177 348h85zM234 708l79 -140h-66l-102 140h89z" />
    <glyph glyph-name="endash" unicode="&#x2013;" horiz-adv-x="620" 
d="M560 225h-500v60h500v-60z" />
    <glyph glyph-name="emdash" unicode="&#x2014;" horiz-adv-x="1040" 
d="M980 225h-920v60h920v-60z" />
    <glyph glyph-name="quoteleft" unicode="&#x2018;" horiz-adv-x="250" 
d="M143 670h60l-66 -263h-90v3z" />
    <glyph glyph-name="quoteright" unicode="&#x2019;" horiz-adv-x="250" 
d="M108 407h-60l66 263h90v-2z" />
    <glyph glyph-name="quotesinglbase" unicode="&#x201a;" horiz-adv-x="250" 
d="M108 -132h-60l66 263h90v-2z" />
    <glyph glyph-name="quotedblleft" unicode="&#x201c;" horiz-adv-x="415" 
d="M144 670h60l-66 -263h-90v3zM309 670h60l-66 -263h-90v3z" />
    <glyph glyph-name="quotedblright" unicode="&#x201d;" horiz-adv-x="415" 
d="M273 407h-60l66 263h90v-2zM108 407h-60l66 263h90v-2z" />
    <glyph glyph-name="quotedblbase" unicode="&#x201e;" horiz-adv-x="415" 
d="M273 -132h-60l66 263h90v-2zM108 -132h-60l66 263h90v-2z" />
    <glyph glyph-name="dagger" unicode="&#x2020;" horiz-adv-x="358" 
d="M318 650v-52h-111v-241h-56v241h-111v52h111v90h56v-90h111z" />
    <glyph glyph-name="daggerdbl" unicode="&#x2021;" horiz-adv-x="358" 
d="M207 598v-99h111v-52h-111v-90h-56v90h-111v52h111v99h-111v52h111v90h56v-90h111v-52h-111z" />
    <glyph glyph-name="bullet" unicode="&#x2022;" horiz-adv-x="398" 
d="M274.5 387q34.5 -20 54 -53t19.5 -71q0 -61 -42.5 -102t-106.5 -41t-106.5 41t-42.5 102q0 38 19.5 71t54 53t75.5 20t75.5 -20z" />
    <glyph glyph-name="ellipsis" unicode="&#x2026;" horiz-adv-x="644" 
d="M359 83q15 -15 15 -36t-15 -35.5t-37 -14.5t-37 14.5t-15 35.5t15 36t37 15t37 -15zM579 83q15 -15 15 -36t-15 -35.5t-37 -14.5t-37 14.5t-15 35.5t15 36t37 15t37 -15zM139 83q15 -15 15 -36t-15 -35.5t-37 -14.5t-37 14.5t-15 35.5t15 36t37 15t37 -15z" />
    <glyph glyph-name="perthousand" unicode="&#x2030;" horiz-adv-x="1237" 
d="M296.5 663.5q37.5 -19.5 60 -56t22.5 -84.5q0 -46 -22.5 -82t-60 -56t-81.5 -20t-81.5 20t-60.5 56t-23 82q0 48 22.5 84.5t60.5 56t82 19.5t81.5 -19.5zM141 0l501 670h55l-501 -670h-55zM140 600q-32 -29 -32 -76t32 -76t75 -29q42 0 73.5 29t31.5 76t-31.5 76
t-73.5 29q-43 0 -75 -29zM714.5 286.5q37.5 -19.5 60 -56t22.5 -84.5q0 -46 -22.5 -82.5t-60 -56.5t-81.5 -20t-81.5 20t-60.5 56.5t-23 82.5q0 48 22.5 84.5t60.5 56t82 19.5t81.5 -19.5zM1104.5 286.5q37.5 -19.5 60 -56t22.5 -84.5q0 -46 -22.5 -82.5t-60 -56.5
t-81.5 -20t-81.5 20t-60.5 56.5t-23 82.5q0 48 22.5 84.5t60.5 56t82 19.5t81.5 -19.5zM558 223q-32 -29 -32 -76t32 -76t75 -29q42 0 73.5 29t31.5 76t-31.5 76t-73.5 29q-43 0 -75 -29zM948 223q-32 -29 -32 -76t32 -76t75 -29q42 0 73.5 29t31.5 76t-31.5 76t-73.5 29
q-43 0 -75 -29z" />
    <glyph glyph-name="guilsinglleft" unicode="&#x2039;" horiz-adv-x="250" 
d="M25 262l122 178h78l-122 -178l122 -178h-78z" />
    <glyph glyph-name="guilsinglright" unicode="&#x203a;" horiz-adv-x="250" 
d="M25 84l122 178l-122 178h78l122 -178l-122 -178h-78z" />
    <glyph glyph-name="fraction" unicode="&#x2044;" horiz-adv-x="216" 
d="M-175 0l501 670h55l-501 -670h-55z" />
    <glyph glyph-name="Euro" unicode="&#x20ac;" horiz-adv-x="792" 
d="M737 217q-25 -105 -95.5 -167t-169.5 -62q-102 0 -173 65t-95 177h-116v58h108q-2 15 -2 47q0 28 1 42h-107v58h115q23 114 94.5 181t174.5 67q99 0 169.5 -62.5t94.5 -168.5l-79 -17q-18 84 -67.5 129.5t-117.5 45.5q-70 0 -119 -47t-69 -128h257l-15 -58h-251
q-1 -14 -1 -42q0 -32 2 -47h227l-14 -58h-203q20 -79 69 -123.5t117 -44.5q67 0 116.5 44.5t71.5 128.5z" />
    <glyph glyph-name="uni2116" unicode="&#x2116;" horiz-adv-x="1223" 
d="M877 363.5q-39 21.5 -62.5 60t-23.5 87.5t23.5 87.5t62.5 60t85 21.5q47 0 87 -21.5t63 -60t23 -87.5t-23 -87.5t-63 -60t-87 -21.5q-46 0 -85 21.5zM594 670h79v-670h-68l-438 532v-532h-79v670h68l438 -538v538zM886.5 590.5q-32.5 -31.5 -32.5 -79.5t32.5 -79.5
t75.5 -31.5q46 0 78.5 31.5t32.5 79.5t-32.5 79.5t-78.5 31.5q-43 0 -75.5 -31.5zM801 265h324v-64h-324v64z" />
    <glyph glyph-name="uni2117" unicode="&#x2117;" horiz-adv-x="775" 
d="M560 638q80 -45 126.5 -125t46.5 -180q0 -98 -47 -177t-126.5 -124t-173.5 -45t-173.5 45t-126.5 124t-47 177q0 100 46.5 180t126.5 125t174 45t174 -45zM539 66q70 40 111.5 110.5t41.5 157.5q0 88 -41.5 159.5t-111.5 111.5t-153 40t-153 -40t-111.5 -111.5
t-41.5 -159.5q0 -87 41.5 -157.5t111.5 -110.5t153 -40t153 40zM523 482.5q38 -34.5 38 -90.5q0 -57 -38 -91.5t-102 -34.5h-112v-121h-49v372h161q64 0 102 -34.5zM487 333q26 22 26 59q0 36 -26 58t-69 22h-109v-161h109q43 0 69 22z" />
    <glyph glyph-name="trademark" unicode="&#x2122;" horiz-adv-x="650" 
d="M270 630h-93v-226h-48v226h-91v40h232v-40zM603 404h-45v179l-86 -177h-30l-86 177v-179h-45v266h51l95 -190l96 190h50v-266z" />
    <glyph glyph-name="oneeighth" unicode="&#x215b;" horiz-adv-x="758" 
d="M165 301h-58v292l-83 -51v62l103 66h38v-369zM60 0l501 670h55l-501 -670h-55zM708.5 155.5q20.5 -24.5 20.5 -59.5q0 -47 -40 -76.5t-105 -29.5q-66 0 -106 29.5t-40 76.5q0 35 21 59.5t60 35.5q-31 11 -49 32t-18 51q0 42 38 70t95 28q56 0 93.5 -28t37.5 -70
q0 -30 -18 -51t-50 -32q40 -11 60.5 -35.5zM527 227.5q23 -16.5 57 -16.5q35 0 57 16.5t22 42.5q0 27 -22.5 43t-56.5 16q-35 0 -57.5 -16.5t-22.5 -44.5q0 -24 23 -40.5zM645.5 55q23.5 18 23.5 47q0 28 -23 46t-62 18q-40 0 -63.5 -18t-23.5 -46q0 -29 24 -47t63 -18
q38 0 61.5 18z" />
    <glyph glyph-name="threeeighths" unicode="&#x215c;" horiz-adv-x="847" 
d="M290.5 463.5q16.5 -21.5 16.5 -51.5q0 -49 -38 -81.5t-97 -32.5q-60 0 -100 33.5t-41 90.5l49 11q1 -41 26.5 -63.5t65.5 -22.5q36 0 58 18.5t22 47.5q0 28 -21.5 44t-57.5 16h-37v42h33q34 0 55.5 15t21.5 41q0 28 -21.5 45t-55.5 17q-36 0 -59 -21t-24 -59l-51 11
q3 53 40 84.5t94 31.5t93.5 -30t36.5 -77q0 -27 -14.5 -46.5t-40.5 -30.5q30 -11 46.5 -32.5zM142 0l501 670h55l-501 -670h-55zM790.5 155.5q20.5 -24.5 20.5 -59.5q0 -47 -40 -76.5t-105 -29.5q-66 0 -106 29.5t-40 76.5q0 35 21 59.5t60 35.5q-31 11 -49 32t-18 51
q0 42 38 70t95 28q56 0 93.5 -28t37.5 -70q0 -30 -18 -51t-50 -32q40 -11 60.5 -35.5zM609 227.5q23 -16.5 57 -16.5q35 0 57 16.5t22 42.5q0 27 -22.5 43t-56.5 16q-35 0 -57.5 -16.5t-22.5 -44.5q0 -24 23 -40.5zM727.5 55q23.5 18 23.5 47q0 28 -23 46t-62 18
q-40 0 -63.5 -18t-23.5 -46q0 -29 24 -47t63 -18q38 0 61.5 18z" />
    <glyph glyph-name="fiveeighths" unicode="&#x215d;" horiz-adv-x="829" 
d="M277 505q35 -32 35 -85q0 -56 -38.5 -91t-101.5 -35q-56 0 -96 31t-46 78l56 9q5 -31 29 -49.5t57 -18.5q37 0 61 20t24 54q0 33 -23.5 51.5t-60.5 18.5h-124l29 182h216v-51h-172l-13 -82h78q55 0 90 -32zM139 0l501 670h55l-501 -670h-55zM779.5 155.5
q20.5 -24.5 20.5 -59.5q0 -47 -40 -76.5t-105 -29.5q-66 0 -106 29.5t-40 76.5q0 35 21 59.5t60 35.5q-31 11 -49 32t-18 51q0 42 38 70t95 28q56 0 93.5 -28t37.5 -70q0 -30 -18 -51t-50 -32q40 -11 60.5 -35.5zM598 227.5q23 -16.5 57 -16.5q35 0 57 16.5t22 42.5
q0 27 -22.5 43t-56.5 16q-35 0 -57.5 -16.5t-22.5 -44.5q0 -24 23 -40.5zM716.5 55q23.5 18 23.5 47q0 28 -23 46t-62 18q-40 0 -63.5 -18t-23.5 -46q0 -29 24 -47t63 -18q38 0 61.5 18z" />
    <glyph glyph-name="seveneighths" unicode="&#x215e;" horiz-adv-x="727" 
d="M272 626l-156 -325h-64l155 318h-200v51h265v-44zM39 0l501 670h55l-501 -670h-55zM677.5 155.5q20.5 -24.5 20.5 -59.5q0 -47 -40 -76.5t-105 -29.5q-66 0 -106 29.5t-40 76.5q0 35 21 59.5t60 35.5q-31 11 -49 32t-18 51q0 42 38 70t95 28q56 0 93.5 -28t37.5 -70
q0 -30 -18 -51t-50 -32q40 -11 60.5 -35.5zM496 227.5q23 -16.5 57 -16.5q35 0 57 16.5t22 42.5q0 27 -22.5 43t-56.5 16q-35 0 -57.5 -16.5t-22.5 -44.5q0 -24 23 -40.5zM614.5 55q23.5 18 23.5 47q0 28 -23 46t-62 18q-40 0 -63.5 -18t-23.5 -46q0 -29 24 -47t63 -18
q38 0 61.5 18z" />
    <glyph glyph-name="arrowleft" unicode="&#x2190;" horiz-adv-x="727" 
d="M687 285h-526l239 -238l-56 -57l-334 334l334 334l56 -56l-238 -238h525v-79z" />
    <glyph glyph-name="arrowup" unicode="&#x2191;" horiz-adv-x="748" 
d="M651 288l-237 237v-525h-79v525l-238 -238l-57 56l334 334l334 -333z" />
    <glyph glyph-name="arrowright" unicode="&#x2192;" horiz-adv-x="727" 
d="M717 324l-333 -334l-56 57l238 238h-526v79h525l-238 238l56 56z" />
    <glyph glyph-name="arrowdown" unicode="&#x2193;" horiz-adv-x="748" 
d="M708 327l-334 -334l-334 334l57 56l238 -239v526h79v-525l237 238z" />
    <glyph glyph-name="uni2196" unicode="&#x2196;" horiz-adv-x="746" 
d="M651 -7l-542 542v-357h-79v492h492v-79h-357l541 -541z" />
    <glyph glyph-name="uni2197" unicode="&#x2197;" horiz-adv-x="746" 
d="M716 670v-492h-79v357l-541 -542l-56 57l542 541h-357v79h491z" />
    <glyph glyph-name="uni2198" unicode="&#x2198;" horiz-adv-x="746" 
d="M716 493v-493h-491v79h357l-542 542l56 56l541 -541v357h79z" />
    <glyph glyph-name="uni2199" unicode="&#x2199;" horiz-adv-x="746" 
d="M165 79h357v-79h-492v493h79v-358l542 542l55 -56z" />
    <glyph glyph-name="minus" unicode="&#x2212;" horiz-adv-x="580" 
d="M510 271h-440v68h440v-68z" />
    <glyph glyph-name="approxequal" unicode="&#x2248;" horiz-adv-x="580" 
d="M412 344q-34 0 -59.5 7t-58.5 21q-32 13 -56 19.5t-55 6.5t-62.5 -8t-50.5 -25v66q19 15 50 23.5t63 8.5q33 0 58 -7t59 -21q35 -14 58.5 -20.5t54.5 -6.5q26 0 52.5 6.5t44.5 18.5v-68q-39 -21 -98 -21zM465.5 191q-25.5 -6 -53.5 -6q-34 0 -59.5 7t-58.5 21
q-30 13 -54.5 20t-56.5 7q-31 0 -62.5 -8.5t-50.5 -24.5v66q19 15 50 23.5t63 8.5q33 0 58 -7t59 -21q35 -14 58.5 -20.5t54.5 -6.5q26 0 52.5 6t44.5 18v-67q-19 -10 -44.5 -16z" />
    <glyph glyph-name="notequal" unicode="&#x2260;" horiz-adv-x="580" 
d="M362 379l-73 -121h221v-68h-262l-54 -89h-71l54 89h-107v68h147l74 121h-221v68h262l55 91h72l-56 -91h107v-68h-148z" />
    <glyph glyph-name="lessequal" unicode="&#x2264;" horiz-adv-x="422" 
d="M383 192l-351 134v70l351 134v-79l-263 -90l263 -92v-77zM383 157v-68h-349v68h349z" />
    <glyph glyph-name="greaterequal" unicode="&#x2265;" horiz-adv-x="422" 
d="M303 361l-263 90v79l352 -134v-70l-352 -134v77zM390 89h-350v68h350v-68z" />
    <glyph glyph-name="K.ss03" horiz-adv-x="704" 
d="M689 0h-100l-258 326l-164 -178v-148h-79v670h79v-424l390 424h92l-265 -287z" />
    <glyph glyph-name="Kcommaaccent.ss03" horiz-adv-x="704" 
d="M689 0h-100l-258 326l-164 -178v-148h-79v670h79v-424l390 424h92l-265 -287zM275 -188l48 143h83l-71 -143h-60z" />
    <glyph glyph-name="Q.ss04" horiz-adv-x="803" 
d="M674 -170l-147 180q-64 -23 -125 -23q-96 0 -175.5 46t-125.5 126t-46 176t46 175.5t125.5 126t175.5 46.5q95 0 174.5 -46.5t125.5 -126t46 -175.5q0 -88 -39 -162.5t-107 -122.5l181 -220h-109zM170.5 196.5q35.5 -62.5 96.5 -98.5t135 -36t134.5 36t96 98.5
t35.5 138.5t-35.5 138.5t-96.5 99t-134 36.5q-74 0 -135 -36.5t-96.5 -99t-35.5 -138.5t35.5 -138.5z" />
    <glyph glyph-name="I.ss05" horiz-adv-x="439" 
d="M259 599v-527h155v-72h-389v72h155v527h-155v71h389v-71h-155z" />
    <glyph glyph-name="IJ.ss05" horiz-adv-x="1034" 
d="M259 599v-527h155v-72h-389v72h155v527h-155v71h389v-71h-155zM955 244q0 -74 -31 -132.5t-87.5 -91.5t-129.5 -33q-100 0 -165 59.5t-79 156.5l75 17q9 -73 53.5 -117t115.5 -44q75 0 122 52t47 133v355h-251v71h330v-426z" />
    <glyph glyph-name="Iacute.ss05" horiz-adv-x="439" 
d="M259 599v-527h155v-72h-389v72h155v527h-155v71h389v-71h-155zM258 745h-67l80 140h89z" />
    <glyph glyph-name="Icircumflex.ss05" horiz-adv-x="439" 
d="M259 599v-527h155v-72h-389v72h155v527h-155v71h389v-71h-155zM295 737l-75 93l-76 -93h-77l116 142h73l117 -142h-78z" />
    <glyph glyph-name="Idieresis.ss05" horiz-adv-x="439" 
d="M259 599v-527h155v-72h-389v72h155v527h-155v71h389v-71h-155zM157.5 842q15.5 -15 15.5 -36q0 -22 -15 -36.5t-38 -14.5q-22 0 -37 14.5t-15 36.5q0 21 15 36t37 15t37.5 -15zM355.5 842q15.5 -15 15.5 -36q0 -22 -15 -36.5t-38 -14.5q-22 0 -37 14.5t-15 36.5
q0 21 15 36t37 15t37.5 -15z" />
    <glyph glyph-name="Idotaccent.ss05" horiz-adv-x="439" 
d="M259 599v-527h155v-72h-389v72h155v527h-155v71h389v-71h-155zM256 847.5q15 -14.5 15 -34.5q0 -22 -14.5 -36t-37.5 -14q-22 0 -36.5 14t-14.5 36q0 20 15 34.5t36 14.5q22 0 37 -14.5z" />
    <glyph glyph-name="Igrave.ss05" horiz-adv-x="439" 
d="M259 599v-527h155v-72h-389v72h155v527h-155v71h389v-71h-155zM172 885l79 -140h-66l-102 140h89z" />
    <glyph glyph-name="Imacron.ss05" horiz-adv-x="439" 
d="M259 599v-527h155v-72h-389v72h155v527h-155v71h389v-71h-155zM361 762h-284v62h284v-62z" />
    <glyph glyph-name="Iogonek.ss05" horiz-adv-x="439" 
d="M259 599v-527h155v-72h-155q-41 -43 -55 -63t-14 -42q0 -21 12 -30.5t30 -9.5q9 0 20.5 3t25.5 7l6 -50q-39 -15 -68 -15q-35 0 -59.5 20t-24.5 63q0 29 15.5 56t54.5 61h-177v72h155v527h-155v71h389v-71h-155z" />
    <glyph glyph-name="J.ss05" horiz-adv-x="595" 
d="M516 244q0 -74 -31 -132.5t-87.5 -91.5t-129.5 -33q-100 0 -165 59.5t-79 156.5l75 17q9 -73 53.5 -117t115.5 -44q75 0 122 52t47 133v355h-251v71h330v-426z" />
    <glyph glyph-name="i.loclTRK" horiz-adv-x="279" 
d="M178 0h-77v493h77v-493zM176 669.5q15 -14.5 15 -34.5q0 -22 -14.5 -36t-37.5 -14q-22 0 -36.5 14t-14.5 36q0 20 15 34.5t36 14.5q22 0 37 -14.5z" />
    <glyph glyph-name="germandbls.case" horiz-adv-x="1233" 
d="M155.5 30q-71.5 43 -95.5 119l80 30q18 -58 69 -90t122 -32q76 0 119.5 34.5t43.5 90.5q0 46 -25 68.5t-84 36.5l-143 33q-161 36 -161 171q0 57 29.5 100.5t83.5 67.5t125 24q82 0 142.5 -35t90.5 -96l-76 -26q-21 42 -62.5 65t-96.5 23q-68 0 -110 -33.5t-42 -87.5
q0 -43 25 -65.5t76 -34.5l138 -33q78 -19 123.5 -59t45.5 -115q0 -60 -31 -105t-87 -69.5t-131 -24.5q-97 0 -168.5 43zM762.5 30q-71.5 43 -95.5 119l80 30q18 -58 69 -90t122 -32q76 0 119.5 34.5t43.5 90.5q0 46 -25 68.5t-84 36.5l-143 33q-161 36 -161 171
q0 57 29.5 100.5t83.5 67.5t125 24q82 0 142.5 -35t90.5 -96l-76 -26q-21 42 -62.5 65t-96.5 23q-68 0 -110 -33.5t-42 -87.5q0 -43 25 -65.5t76 -34.5l138 -33q78 -19 123.5 -59t45.5 -115q0 -60 -31 -105t-87 -69.5t-131 -24.5q-97 0 -168.5 43z" />
    <glyph glyph-name="a.ss01" horiz-adv-x="545" 
d="M426 456.5q55 -48.5 55 -136.5v-320h-74v75q-30 -41 -77 -64.5t-108 -23.5q-81 0 -130 42t-49 109q0 69 52 111.5t146 42.5h166v23q0 57 -34 90t-92 33q-56 0 -93 -26.5t-45 -72.5l-73 16q12 67 69 108.5t138 41.5q94 0 149 -48.5zM320 70.5q40 20.5 63.5 56t23.5 79.5
v26h-167q-59 0 -91.5 -25.5t-32.5 -67.5q0 -39 32 -64t85 -25q47 0 87 20.5z" />
    <glyph glyph-name="aacute.ss01" horiz-adv-x="545" 
d="M426 456.5q55 -48.5 55 -136.5v-320h-74v75q-30 -41 -77 -64.5t-108 -23.5q-81 0 -130 42t-49 109q0 69 52 111.5t146 42.5h166v23q0 57 -34 90t-92 33q-56 0 -93 -26.5t-45 -72.5l-73 16q12 67 69 108.5t138 41.5q94 0 149 -48.5zM320 70.5q40 20.5 63.5 56t23.5 79.5
v26h-167q-59 0 -91.5 -25.5t-32.5 -67.5q0 -39 32 -64t85 -25q47 0 87 20.5zM319 567h-67l80 140h89z" />
    <glyph glyph-name="abreve.ss01" horiz-adv-x="545" 
d="M426 456.5q55 -48.5 55 -136.5v-320h-74v75q-30 -41 -77 -64.5t-108 -23.5q-81 0 -130 42t-49 109q0 69 52 111.5t146 42.5h166v23q0 57 -34 90t-92 33q-56 0 -93 -26.5t-45 -72.5l-73 16q12 67 69 108.5t138 41.5q94 0 149 -48.5zM320 70.5q40 20.5 63.5 56t23.5 79.5
v26h-167q-59 0 -91.5 -25.5t-32.5 -67.5q0 -39 32 -64t85 -25q47 0 87 20.5zM175 592q-40 37 -40 98h64q0 -36 23 -58t58 -22t58 22t23 58h64q0 -61 -40 -98t-105 -37t-105 37z" />
    <glyph glyph-name="acircumflex.ss01" horiz-adv-x="545" 
d="M426 456.5q55 -48.5 55 -136.5v-320h-74v75q-30 -41 -77 -64.5t-108 -23.5q-81 0 -130 42t-49 109q0 69 52 111.5t146 42.5h166v23q0 57 -34 90t-92 33q-56 0 -93 -26.5t-45 -72.5l-73 16q12 67 69 108.5t138 41.5q94 0 149 -48.5zM320 70.5q40 20.5 63.5 56t23.5 79.5
v26h-167q-59 0 -91.5 -25.5t-32.5 -67.5q0 -39 32 -64t85 -25q47 0 87 20.5zM356 559l-75 93l-76 -93h-77l116 142h73l117 -142h-78z" />
    <glyph glyph-name="adieresis.ss01" horiz-adv-x="545" 
d="M426 456.5q55 -48.5 55 -136.5v-320h-74v75q-30 -41 -77 -64.5t-108 -23.5q-81 0 -130 42t-49 109q0 69 52 111.5t146 42.5h166v23q0 57 -34 90t-92 33q-56 0 -93 -26.5t-45 -72.5l-73 16q12 67 69 108.5t138 41.5q94 0 149 -48.5zM320 70.5q40 20.5 63.5 56t23.5 79.5
v26h-167q-59 0 -91.5 -25.5t-32.5 -67.5q0 -39 32 -64t85 -25q47 0 87 20.5zM218.5 664q15.5 -15 15.5 -36q0 -22 -15 -36.5t-38 -14.5q-22 0 -37 14.5t-15 36.5q0 21 15 36t37 15t37.5 -15zM416.5 664q15.5 -15 15.5 -36q0 -22 -15 -36.5t-38 -14.5q-22 0 -37 14.5
t-15 36.5q0 21 15 36t37 15t37.5 -15z" />
    <glyph glyph-name="agrave.ss01" horiz-adv-x="545" 
d="M426 456.5q55 -48.5 55 -136.5v-320h-74v75q-30 -41 -77 -64.5t-108 -23.5q-81 0 -130 42t-49 109q0 69 52 111.5t146 42.5h166v23q0 57 -34 90t-92 33q-56 0 -93 -26.5t-45 -72.5l-73 16q12 67 69 108.5t138 41.5q94 0 149 -48.5zM320 70.5q40 20.5 63.5 56t23.5 79.5
v26h-167q-59 0 -91.5 -25.5t-32.5 -67.5q0 -39 32 -64t85 -25q47 0 87 20.5zM232 707l79 -140h-66l-102 140h89z" />
    <glyph glyph-name="amacron.ss01" horiz-adv-x="545" 
d="M426 456.5q55 -48.5 55 -136.5v-320h-74v75q-30 -41 -77 -64.5t-108 -23.5q-81 0 -130 42t-49 109q0 69 52 111.5t146 42.5h166v23q0 57 -34 90t-92 33q-56 0 -93 -26.5t-45 -72.5l-73 16q12 67 69 108.5t138 41.5q94 0 149 -48.5zM320 70.5q40 20.5 63.5 56t23.5 79.5
v26h-167q-59 0 -91.5 -25.5t-32.5 -67.5q0 -39 32 -64t85 -25q47 0 87 20.5zM422 584h-284v62h284v-62z" />
    <glyph glyph-name="aogonek.ss01" horiz-adv-x="545" 
d="M508 -185q-39 -15 -68 -15q-35 0 -59.5 20t-24.5 63q0 29 15.5 56t54.5 61h-19v75q-30 -41 -77 -64.5t-108 -23.5q-81 0 -130 42t-49 109q0 69 52 111.5t146 42.5h166v23q0 57 -34 90t-92 33q-56 0 -93 -26.5t-45 -72.5l-73 16q12 67 69 108.5t138 41.5q94 0 149 -48.5
t55 -136.5v-320h2q-41 -43 -55 -63t-14 -42q0 -21 12 -30.5t30 -9.5q9 0 20.5 3t25.5 7zM320 70.5q40 20.5 63.5 56t23.5 79.5v26h-167q-59 0 -91.5 -25.5t-32.5 -67.5q0 -39 32 -64t85 -25q47 0 87 20.5z" />
    <glyph glyph-name="aring.ss01" horiz-adv-x="545" 
d="M426 456.5q55 -48.5 55 -136.5v-320h-74v75q-30 -41 -77 -64.5t-108 -23.5q-81 0 -130 42t-49 109q0 69 52 111.5t146 42.5h166v23q0 57 -34 90t-92 33q-56 0 -93 -26.5t-45 -72.5l-73 16q12 67 69 108.5t138 41.5q94 0 149 -48.5zM320 70.5q40 20.5 63.5 56t23.5 79.5
v26h-167q-59 0 -91.5 -25.5t-32.5 -67.5q0 -39 32 -64t85 -25q47 0 87 20.5zM353.5 579.5q-30.5 -29.5 -73.5 -29.5t-73 29.5t-30 71.5q0 41 30 70.5t73 29.5t73.5 -29.5t30.5 -70.5q0 -42 -30.5 -71.5zM320 689q-16 16 -40 16q-23 0 -39.5 -16t-16.5 -38t16.5 -38t39.5 -16
q24 0 40 15.5t16 38.5q0 22 -16 38z" />
    <glyph glyph-name="atilde.ss01" horiz-adv-x="545" 
d="M426 456.5q55 -48.5 55 -136.5v-320h-74v75q-30 -41 -77 -64.5t-108 -23.5q-81 0 -130 42t-49 109q0 69 52 111.5t146 42.5h166v23q0 57 -34 90t-92 33q-56 0 -93 -26.5t-45 -72.5l-73 16q12 67 69 108.5t138 41.5q94 0 149 -48.5zM320 70.5q40 20.5 63.5 56t23.5 79.5
v26h-167q-59 0 -91.5 -25.5t-32.5 -67.5q0 -39 32 -64t85 -25q47 0 87 20.5zM157.5 669q25.5 25 61.5 25q21 0 36.5 -7t33.5 -20q15 -11 26.5 -16t25.5 -5q17 0 27 13t10 34h54q0 -53 -25.5 -78.5t-61.5 -25.5q-21 0 -36.5 7t-33.5 20q-15 11 -26.5 16t-25.5 5
q-17 0 -27 -12.5t-10 -32.5h-54q0 52 25.5 77z" />
    <glyph glyph-name="l.ss02" horiz-adv-x="312" 
d="M154 126q0 -30 19 -48t51 -18q29 0 59 16l16 -64q-21 -12 -41 -18.5t-46 -6.5q-61 0 -97.5 37t-36.5 98v598h76v-594z" />
    <glyph glyph-name="lacute.ss02" horiz-adv-x="312" 
d="M154 126q0 -30 19 -48t51 -18q29 0 59 16l16 -64q-21 -12 -41 -18.5t-46 -6.5q-61 0 -97.5 37t-36.5 98v598h76v-594zM153 795h-67l80 140h89z" />
    <glyph glyph-name="lcaron.ss02" horiz-adv-x="312" 
d="M154 126q0 -30 19 -48t51 -18q29 0 59 16l16 -64q-21 -12 -41 -18.5t-46 -6.5q-61 0 -97.5 37t-36.5 98v598h76v-594zM286 548h-61v172h77z" />
    <glyph glyph-name="lcommaaccent.ss02" horiz-adv-x="312" 
d="M154 126q0 -30 19 -48t51 -18q29 0 59 16l16 -64q-21 -12 -41 -18.5t-46 -6.5q-61 0 -97.5 37t-36.5 98v598h76v-594zM97 -188l48 143h83l-71 -143h-60z" />
    <glyph glyph-name="ldot.ss02" horiz-adv-x="358" 
d="M154 126q0 -30 19 -48t51 -18q29 0 59 16l16 -64q-21 -12 -41 -18.5t-46 -6.5q-61 0 -97.5 37t-36.5 98v598h76v-594zM335 373.5q15 -14.5 15 -34.5q0 -22 -14.5 -36t-37.5 -14q-22 0 -36.5 14t-14.5 36q0 20 15 34.5t36 14.5q22 0 37 -14.5z" />
    <glyph glyph-name="lslash.ss02" horiz-adv-x="339" 
d="M327 12q-21 -12 -41 -18.5t-47 -6.5q-60 0 -97 37t-37 98v163l-75 -47v75l75 47v360h77v-312l89 55v-75l-89 -55v-207q0 -30 19 -48t51 -18q29 0 59 16z" />
    <glyph glyph-name="k.ss03" horiz-adv-x="599" 
d="M589 0h-97l-210 232l-118 -124v-108h-76v720h76v-510l275 283h92l-197 -207z" />
    <glyph glyph-name="kcommaaccent.ss03" horiz-adv-x="599" 
d="M589 0h-97l-210 232l-118 -124v-108h-76v720h76v-510l275 283h92l-197 -207zM227 -188l48 143h83l-71 -143h-60z" />
    <glyph glyph-name="f_j" horiz-adv-x="647" 
d="M551 -56q0 -56 -34 -90t-90 -34q-42 0 -81 17l17 66q25 -11 47 -11q29 0 47 16.5t18 44.5v476h-293v-429h-76v429h-103v64h103v73q0 78 46 124.5t124 46.5q50 0 92 -24l-20 -62q-32 17 -67 17q-46 0 -72.5 -27.5t-26.5 -74.5v-73h369v-549zM475 605.5q-15 14.5 -15 36.5
q0 21 15 36t37 15t37.5 -15t15.5 -36q0 -22 -15 -36.5t-38 -14.5q-22 0 -37 14.5z" />
    <glyph glyph-name="f_t" horiz-adv-x="760" 
d="M740 26q-30 -21 -57 -30t-57 -9q-75 0 -119 43.5t-44 123.5v275h-281v-429h-76v429h-103v64h103v73q0 78 46 124.5t124 46.5q50 0 92 -24l-20 -62q-32 17 -67 17q-46 0 -72.5 -27.5t-26.5 -74.5v-73h174h107v157h77v-157h176v-64h-176v-270q0 -47 24.5 -73.5t66.5 -26.5
q21 0 43 8t41 22z" />
    <glyph glyph-name="fl.ss02" horiz-adv-x="668" 
d="M511 126q0 -30 19 -48t51 -18q29 0 59 16l16 -64q-21 -12 -41 -18.5t-46 -6.5q-61 0 -97.5 37t-36.5 98v598h76v-594zM182 493h162v-64h-162v-429h-76v429h-103v64h103v73q0 78 46 124.5t123 46.5q44 0 80 -18l-19 -62q-28 11 -56 11q-45 0 -71.5 -27.5t-26.5 -74.5v-73z
" />
    <glyph glyph-name="zero.tf" 
d="M446.5 639.5q61.5 -43.5 95 -122.5t33.5 -182t-33.5 -182t-95 -122.5t-141.5 -43.5t-141 43.5t-95 122.5t-34 182q0 102 34 181t95 123t141 44t141.5 -43.5zM405 95.5q43 34.5 66.5 96.5t23.5 143t-23.5 143.5t-66.5 97t-100 34.5t-100 -34.5t-66.5 -97t-23.5 -143.5
t23.5 -143t66.5 -96.5t100 -34.5t100 34.5z" />
    <glyph glyph-name="one.tf" 
d="M549 72v-72h-469v72h208v502l-198 -101v73l226 124h49v-598h184z" />
    <glyph glyph-name="two.tf" 
d="M543 72v-72h-451v51l239 223q48 44 73 71t40.5 59.5t15.5 72.5q0 61 -40.5 99t-105.5 38q-69 0 -109.5 -42t-43.5 -118l-73 15q4 97 66 155.5t161 58.5q65 0 115.5 -26t78 -72.5t27.5 -106.5q0 -48 -17 -87t-49 -76.5t-91 -92.5l-163 -150h327z" />
    <glyph glyph-name="three.tf" 
d="M523.5 288.5q30.5 -39.5 30.5 -96.5q0 -61 -28.5 -107.5t-80.5 -72t-119 -25.5q-70 0 -124 27.5t-85 76.5t-35 114l74 15q5 -75 50 -119t120 -44q69 0 112.5 37t43.5 97q0 55 -39.5 86t-109.5 31h-93v69h88q65 0 102.5 29.5t37.5 81.5q0 56 -40 90.5t-106 34.5
q-69 0 -111.5 -40.5t-46.5 -114.5l-73 14q7 95 69.5 153t162.5 58q65 0 114.5 -24.5t76.5 -69t27 -101.5q0 -53 -27 -91.5t-75 -54.5q54 -14 84.5 -53.5z" />
    <glyph glyph-name="four.tf" 
d="M576 161h-100v-161h-77v161h-357v76l334 433h100v-444h100v-65zM399 226v360l-278 -360h278z" />
    <glyph glyph-name="five.tf" 
d="M422.5 395q53.5 -28 83 -76.5t29.5 -108.5q0 -63 -29.5 -114t-83 -80t-120.5 -29q-90 0 -157 48t-85 131l76 20q13 -60 58.5 -93.5t107.5 -33.5q44 0 79.5 20t55.5 54.5t20 76.5q0 39 -20 71.5t-55.5 51.5t-79.5 19h-217l40 318h391v-71h-324l-23 -176h133
q67 0 120.5 -28z" />
    <glyph glyph-name="six.tf" 
d="M456 404.5q52 -28.5 80 -78.5t28 -113q0 -64 -29.5 -115.5t-83 -81t-122.5 -29.5q-125 0 -194.5 87t-69.5 243q0 97 21.5 170.5t69.5 122.5q34 35 79 54t98 19q79 0 136 -38.5t76 -108.5l-76 -15q-13 46 -49.5 69t-89.5 23q-38 0 -69 -14t-54 -39q-68 -75 -68 -208l1 -25
q26 48 79.5 77t115.5 29q69 0 121 -28.5zM409 79.5q36 20.5 56 56t20 78.5t-20.5 78t-56.5 55t-81 20q-47 0 -83.5 -21t-57 -57t-20.5 -78q0 -44 21.5 -78.5t58.5 -54t81 -19.5q46 0 82 20.5z" />
    <glyph glyph-name="seven.tf" 
d="M552 616l-314 -616h-89l309 599h-410v71h504v-54z" />
    <glyph glyph-name="eight.tf" 
d="M522.5 279q36.5 -46 36.5 -102t-30.5 -99t-86 -67t-128.5 -24t-129 24t-87 67t-31 99t37 101.5t109 64.5q-64 19 -95.5 62.5t-31.5 100.5q0 53 28 93t80 62t120 22t119.5 -22t79.5 -62t28 -93q0 -56 -32 -100t-95 -63q72 -18 108.5 -64zM205 414q41 -32 108 -32
q68 0 109 33t41 86t-42 85t-108 32t-107.5 -32.5t-41.5 -87.5q0 -52 41 -84zM428 89.5q45 34.5 45 91.5q0 56 -44 91t-116 35q-71 0 -115 -35t-44 -92q0 -58 44 -91.5t115 -33.5q70 0 115 34.5z" />
    <glyph glyph-name="nine.tf" 
d="M475.5 595q69.5 -87 69.5 -243q0 -97 -21.5 -170.5t-69.5 -122.5q-34 -35 -79 -54t-98 -19q-79 0 -136 38.5t-76 108.5l76 15q13 -46 49.5 -69t89.5 -23q38 0 69 14t54 39q68 75 68 208l-1 25q-26 -48 -79.5 -77t-115.5 -29q-69 0 -121 28.5t-80 78.5t-28 113
q0 64 29.5 115.5t83 81t122.5 29.5q125 0 194.5 -87zM366.5 323q36.5 21 57 57t20.5 78q0 44 -21.5 78.5t-58.5 54t-81 19.5q-46 0 -82 -20.5t-56 -56t-20 -78.5t20.5 -78t56.5 -55t81 -20q47 0 83.5 21z" />
    <glyph glyph-name="zero.zero.tf" 
d="M446.5 639.5q61.5 -43.5 95 -122.5t33.5 -182t-33.5 -182t-95 -122.5t-141.5 -43.5t-141 43.5t-95 122.5t-34 182q0 102 34 181t95 123t141 44t141.5 -43.5zM205 575.5q-43 -34.5 -66.5 -97t-23.5 -143.5q0 -87 26 -151l287 369q-51 57 -123 57q-57 0 -100 -34.5z
M405 95.5q43 34.5 66.5 96.5t23.5 143q0 94 -33 165l-289 -373q52 -66 132 -66q57 0 100 34.5z" />
    <glyph glyph-name="zero.zero" horiz-adv-x="650" 
d="M478 639.5q63 -43.5 97.5 -122.5t34.5 -182t-34.5 -182t-97.5 -122.5t-145 -43.5t-145 43.5t-98 122.5t-35 182q0 102 35 181t98 123t145 44t145 -43.5zM229 575.5q-45 -34.5 -69.5 -97t-24.5 -143.5q0 -82 25 -146l291 374q-50 47 -118 47q-59 0 -104 -34.5zM436.5 95.5
q44.5 34.5 69 96.5t24.5 143q0 105 -41 179l-297 -382q54 -71 141 -71q59 0 103.5 34.5z" />
    <glyph glyph-name="zero.dnom" horiz-adv-x="392" 
d="M311 319.5q43 -52.5 43 -138.5t-43 -138.5t-115 -52.5q-71 0 -114 52.5t-43 138.5t43 138.5t114 52.5q72 0 115 -52.5zM266.5 79.5q26.5 37.5 26.5 101.5t-26.5 101.5t-70.5 37.5q-43 0 -69 -38t-26 -101q0 -64 26 -101.5t69 -37.5q44 0 70.5 37.5z" />
    <glyph glyph-name="one.dnom" horiz-adv-x="231" 
d="M165 0h-58v292l-83 -51v62l103 66h38v-369z" />
    <glyph glyph-name="two.dnom" horiz-adv-x="330" 
d="M296 51v-51h-268v39l140 119q40 35 55 55t15 46q0 31 -20.5 49.5t-54.5 18.5q-37 0 -58 -23t-22 -62l-51 11q0 55 35.5 89.5t95.5 34.5q59 0 95 -31.5t36 -85.5q0 -39 -21.5 -69.5t-67.5 -67.5l-85 -72h176z" />
    <glyph glyph-name="three.dnom" horiz-adv-x="337" 
d="M290.5 155.5q16.5 -21.5 16.5 -51.5q0 -49 -38 -81.5t-97 -32.5q-60 0 -100 33.5t-41 90.5l49 11q1 -41 26.5 -63.5t65.5 -22.5q36 0 58 18.5t22 47.5q0 28 -21.5 44t-57.5 16h-37v42h33q34 0 55.5 15t21.5 41q0 28 -21.5 45t-55.5 17q-36 0 -59 -21t-24 -59l-51 11
q3 53 40 84.5t94 31.5t93.5 -30t36.5 -77q0 -27 -14.5 -46.5t-40.5 -30.5q30 -11 46.5 -32.5z" />
    <glyph glyph-name="four.dnom" horiz-adv-x="366" 
d="M341 83h-58v-83h-55v83h-203v54l191 232h67v-238h58v-48zM228 131v176l-146 -176h146z" />
    <glyph glyph-name="five.dnom" horiz-adv-x="340" 
d="M277 201q35 -32 35 -85q0 -56 -38.5 -91t-101.5 -35q-56 0 -96 31t-46 78l56 9q5 -31 29 -49.5t57 -18.5q37 0 61 20t24 54q0 33 -23.5 51.5t-60.5 18.5h-124l29 182h216v-51h-172l-13 -82h78q55 0 90 -32z" />
    <glyph glyph-name="six.dnom" horiz-adv-x="355" 
d="M288 203.5q35 -34.5 35 -88.5q0 -55 -37.5 -90t-97.5 -35q-73 0 -113 47.5t-40 131.5q0 110 53 163q19 19 45.5 29.5t56.5 10.5q49 0 83 -24t43 -68l-57 -9q-6 27 -24.5 40t-46.5 13q-37 0 -61 -26q-31 -35 -35 -103q18 20 45 31.5t59 11.5q57 0 92 -34.5zM246 60
q23 23 23 57q0 33 -23.5 56t-59.5 23q-38 0 -61.5 -23.5t-23.5 -56.5q0 -34 24.5 -56.5t60.5 -22.5q37 0 60 23z" />
    <glyph glyph-name="seven.dnom" horiz-adv-x="282" 
d="M272 325l-156 -325h-64l155 318h-200v51h265v-44z" />
    <glyph glyph-name="eight.dnom" horiz-adv-x="355" 
d="M302.5 155.5q20.5 -24.5 20.5 -59.5q0 -47 -40 -76.5t-105 -29.5q-66 0 -106 29.5t-40 76.5q0 35 21 59.5t60 35.5q-31 11 -49 32t-18 51q0 42 38 70t95 28q56 0 93.5 -28t37.5 -70q0 -30 -18 -51t-50 -32q40 -11 60.5 -35.5zM121 227.5q23 -16.5 57 -16.5q35 0 57 16.5
t22 42.5q0 27 -22.5 43t-56.5 16q-35 0 -57.5 -16.5t-22.5 -44.5q0 -24 23 -40.5zM239.5 55q23.5 18 23.5 47q0 28 -23 46t-62 18q-40 0 -63.5 -18t-23.5 -46q0 -29 24 -47t63 -18q38 0 61.5 18z" />
    <glyph glyph-name="nine.dnom" horiz-adv-x="355" 
d="M280 325q40 -47 40 -132q0 -110 -53 -163q-40 -40 -101 -40q-50 0 -84 24.5t-42 68.5l56 8q6 -27 25 -40t47 -13q37 0 61 27q30 34 34 102q-17 -20 -44.5 -31t-58.5 -11q-57 0 -92 34.5t-35 88.5t37 89t97 35q73 0 113 -47zM230.5 190.5q23.5 23.5 23.5 56.5
q0 34 -24.5 56t-60.5 22t-59 -22.5t-23 -56.5t23 -56.5t59 -22.5q38 0 61.5 23.5z" />
    <glyph glyph-name="zero.numr" horiz-adv-x="392" 
d="M311 627.5q43 -52.5 43 -138.5t-43 -138.5t-115 -52.5q-71 0 -114 52.5t-43 138.5t43 138.5t114 52.5q72 0 115 -52.5zM266.5 387.5q26.5 37.5 26.5 101.5t-26.5 101.5t-70.5 37.5q-43 0 -69 -38t-26 -101q0 -64 26 -101.5t69 -37.5q44 0 70.5 37.5z" />
    <glyph glyph-name="one.numr" horiz-adv-x="231" 
d="M165 301h-58v292l-83 -51v62l103 66h38v-369z" />
    <glyph glyph-name="two.numr" horiz-adv-x="330" 
d="M296 355v-51h-268v38l140 120q39 33 54.5 53.5t15.5 47.5q0 30 -20.5 49t-54.5 19q-37 0 -58 -23t-22 -63l-51 11q0 55 35.5 89.5t95.5 34.5q59 0 95 -31.5t36 -85.5q0 -38 -21.5 -68.5t-67.5 -68.5l-85 -71h176z" />
    <glyph glyph-name="three.numr" horiz-adv-x="337" 
d="M290.5 463.5q16.5 -21.5 16.5 -51.5q0 -49 -38 -81.5t-97 -32.5q-60 0 -100 33.5t-41 90.5l49 11q1 -41 26.5 -63.5t65.5 -22.5q36 0 58 18.5t22 47.5q0 28 -21.5 44t-57.5 16h-37v42h33q34 0 55.5 15t21.5 41q0 28 -21.5 45t-55.5 17q-36 0 -59 -21t-24 -59l-51 11
q3 53 40 84.5t94 31.5t93.5 -30t36.5 -77q0 -27 -14.5 -46.5t-40.5 -30.5q30 -11 46.5 -32.5z" />
    <glyph glyph-name="four.numr" horiz-adv-x="366" 
d="M341 384h-58v-83h-55v83h-203v54l191 232h67v-238h58v-48zM228 432v176l-146 -176h146z" />
    <glyph glyph-name="five.numr" horiz-adv-x="340" 
d="M277 505q35 -32 35 -85q0 -56 -38.5 -91t-101.5 -35q-56 0 -96 31t-46 78l56 9q5 -31 29 -49.5t57 -18.5q37 0 61 20t24 54q0 33 -23.5 51.5t-60.5 18.5h-124l29 182h216v-51h-172l-13 -82h78q55 0 90 -32z" />
    <glyph glyph-name="six.numr" horiz-adv-x="355" 
d="M288 511.5q35 -34.5 35 -88.5q0 -55 -37.5 -90t-97.5 -35q-73 0 -113 47.5t-40 131.5q0 110 53 163q19 19 45.5 29.5t56.5 10.5q49 0 83 -24t43 -68l-57 -9q-6 27 -24.5 40t-46.5 13q-37 0 -61 -26q-31 -35 -35 -103q18 20 45 31.5t59 11.5q57 0 92 -34.5zM246 368
q23 23 23 57q0 33 -23.5 56t-59.5 23q-38 0 -61.5 -23.5t-23.5 -56.5q0 -34 24.5 -56.5t60.5 -22.5q37 0 60 23z" />
    <glyph glyph-name="seven.numr" horiz-adv-x="282" 
d="M272 626l-156 -325h-64l155 318h-200v51h265v-44z" />
    <glyph glyph-name="eight.numr" horiz-adv-x="355" 
d="M302 463.5q21 -24.5 21 -59.5q0 -47 -40 -76.5t-105 -29.5q-66 0 -106 29.5t-40 76.5q0 35 21 59.5t60 35.5q-31 11 -49 32t-18 51q0 42 38 70t95 28q56 0 93.5 -28t37.5 -70q0 -58 -68 -84q39 -10 60 -34.5zM121 535.5q23 -16.5 57 -16.5q35 0 57 16.5t22 42.5
q0 27 -22.5 43t-56.5 16q-35 0 -57.5 -16.5t-22.5 -44.5q0 -24 23 -40.5zM239.5 363q23.5 18 23.5 47q0 28 -23 46t-62 18q-40 0 -63.5 -18t-23.5 -46q0 -29 24 -47t63 -18q38 0 61.5 18z" />
    <glyph glyph-name="nine.numr" horiz-adv-x="355" 
d="M280 633q40 -47 40 -132q0 -110 -53 -163q-40 -40 -101 -40q-50 0 -84 24.5t-42 68.5l56 8q6 -27 25 -40t47 -13q37 0 61 27q30 34 34 102q-17 -20 -44.5 -31t-58.5 -11q-57 0 -92 34.5t-35 88.5t37 89t97 35q73 0 113 -47zM230.5 498.5q23.5 23.5 23.5 56.5
q0 34 -24.5 56t-60.5 22t-59 -22.5t-23 -56.5t23 -56.5t59 -22.5q38 0 61.5 23.5z" />
    <glyph glyph-name="backslash.case" horiz-adv-x="368" 
d="M340 0h-75l-237 670h75z" />
    <glyph glyph-name="periodcentered.case" horiz-adv-x="204" 
d="M139 364q15 -15 15 -36t-15 -35.5t-37 -14.5t-37 14.5t-15 35.5t15 36t37 15t37 -15z" />
    <glyph glyph-name="bullet.case" horiz-adv-x="398" 
d="M274.5 455q34.5 -20 54 -53t19.5 -71q0 -61 -42.5 -102t-106.5 -41t-106.5 41t-42.5 102q0 38 19.5 71t54 53t75.5 20t75.5 -20z" />
    <glyph glyph-name="colon.case" horiz-adv-x="204" 
d="M139 527q15 -15 15 -36t-15 -35.5t-37 -14.5t-37 14.5t-15 35.5t15 36t37 15t37 -15zM139 188q15 -15 15 -36t-15 -35.5t-37 -14.5t-37 14.5t-15 35.5t15 36t37 15t37 -15z" />
    <glyph glyph-name="exclamdown.case" horiz-adv-x="269" 
d="M98 587q-15 15 -15 36t15 35.5t37 14.5t37 -14.5t15 -35.5t-15 -36t-37 -15t-37 15zM94 31l2 440h78l3 -440v-31h-83v31z" />
    <glyph glyph-name="questiondown.case" horiz-adv-x="481" 
d="M205 590q-15 15 -15 36t15 35.5t37 14.5t37 -14.5t15 -35.5t-15 -36t-37 -15t-37 15zM433 113q-31 -58 -87.5 -90.5t-123.5 -32.5q-61 0 -107.5 23.5t-72 66.5t-25.5 99q0 73 48 124.5t142 72.5l-1 95h72v-143q-92 -12 -139 -50t-47 -98q0 -55 35.5 -88.5t94.5 -33.5
q43 0 83 23t67 69z" />
    <glyph glyph-name="semicolon.case" horiz-adv-x="231" 
d="M75 -132h-60l66 263h90v-2zM166 527q15 -15 15 -36t-15 -35.5t-37 -14.5t-37 14.5t-15 35.5t15 36t37 15t37 -15z" />
    <glyph glyph-name="slash.case" horiz-adv-x="408" 
d="M110 0h-70l257 670h71z" />
    <glyph glyph-name="braceleft.case" horiz-adv-x="430" 
d="M209.5 375q-17.5 -29 -49.5 -43q32 -14 49.5 -43t17.5 -68v-87q0 -31 18 -49.5t47 -18.5h83v-66h-92q-59 0 -94.5 34.5t-35.5 92.5v86q0 37 -23 58.5t-62 26.5l-23 5v59l23 5q39 5 62 26.5t23 57.5v93q0 57 35.5 91.5t94.5 34.5h92v-65h-83q-29 0 -47 -18.5t-18 -49.5
v-94q0 -39 -17.5 -68z" />
    <glyph glyph-name="braceright.case" horiz-adv-x="430" 
d="M385 362v-59l-23 -5q-39 -5 -62 -26.5t-23 -58.5v-86q0 -58 -35.5 -92.5t-94.5 -34.5h-92v66h83q29 0 47 18.5t18 49.5v87q0 40 17.5 69t49.5 43q-32 14 -49.5 42.5t-17.5 67.5v94q0 31 -18 49.5t-47 18.5h-83v65h92q59 0 94.5 -34.5t35.5 -91.5v-93q0 -36 23 -57.5
t62 -26.5z" />
    <glyph glyph-name="bracketleft.case" horiz-adv-x="391" 
d="M162 604v-537h174v-67h-248v670h248v-66h-174z" />
    <glyph glyph-name="bracketright.case" horiz-adv-x="391" 
d="M304 0h-249v67h174v537h-174v66h249v-670z" />
    <glyph glyph-name="parenleft.case" horiz-adv-x="326" 
d="M169 493q-32 -73 -32 -158t32 -158t102 -144l-47 -46q-169 145 -169 348t169 348l47 -46q-70 -71 -102 -144z" />
    <glyph glyph-name="parenright.case" horiz-adv-x="326" 
d="M230.5 521q40.5 -87 40.5 -186t-40.5 -186t-128.5 -162l-47 46q71 71 102.5 143.5t31.5 158.5q0 85 -31.5 158t-102.5 144l47 46q88 -75 128.5 -162z" />
    <glyph glyph-name="emdash.case" horiz-adv-x="1040" 
d="M980 303h-920v60h920v-60z" />
    <glyph glyph-name="endash.case" horiz-adv-x="620" 
d="M560 303h-500v60h500v-60z" />
    <glyph glyph-name="hyphen.case" horiz-adv-x="443" 
d="M383 300h-323v67h323v-67z" />
    <glyph glyph-name="guillemotleft.case" horiz-adv-x="415" 
d="M25 322l122 178h78l-122 -178l122 -178h-78zM190 322l122 178h78l-122 -178l122 -178h-78z" />
    <glyph glyph-name="guillemotright.case" horiz-adv-x="415" 
d="M25 144l122 178l-122 178h78l122 -178l-122 -178h-78zM190 144l122 178l-122 178h78l122 -178l-122 -178h-78z" />
    <glyph glyph-name="guilsinglleft.case" horiz-adv-x="250" 
d="M25 322l122 178h78l-122 -178l122 -178h-78z" />
    <glyph glyph-name="guilsinglright.case" horiz-adv-x="250" 
d="M25 144l122 178l-122 178h78l122 -178l-122 -178h-78z" />
    <glyph glyph-name="cent.tf" 
d="M444 31q-52 -36 -117 -42v-119h-66v120q-61 9 -110.5 43t-78.5 89t-29 124q0 68 29 123.5t78.5 89.5t110.5 43v128h66v-126q63 -7 114 -41t79 -88l-71 -28q-19 37 -51.5 59t-72.5 27v-373q42 5 75 28t53 63l70 -26q-27 -58 -79 -94zM158 122.5q41 -49.5 106 -61.5v370
q-65 -12 -106 -62t-41 -123q0 -74 41 -123.5z" />
    <glyph glyph-name="dollar.tf" 
d="M486 71.5q-54 -48.5 -145 -56.5v-115h-67v115q-79 8 -135.5 47.5t-74.5 102.5l75 29q14 -46 50 -75t88 -37v228l-42 10q-69 16 -109 53t-40 107q0 73 51 120.5t137 55.5v114h67v-114q64 -7 111 -39t71 -81l-71 -24q-17 31 -46 51t-68 26v-219l47 -11q71 -17 113 -55
t42 -107q0 -77 -54 -125.5zM277 384v206q-52 -7 -82.5 -36t-30.5 -72q0 -39 23 -60t70 -33zM432 115.5q34 30.5 34 77.5q0 41 -24.5 63t-75.5 34l-28 6v-216q60 5 94 35.5z" />
    <glyph glyph-name="Euro.tf" 
d="M434 105q44 44 67 125l78 -16q-24 -103 -90 -165t-159 -62q-98 0 -165 64t-89 179h-56v58h49q-2 30 -2 47q0 28 1 42h-48v58h55q21 117 88.5 182.5t166.5 65.5q93 0 159 -62.5t90 -167.5l-78 -15q-19 82 -64.5 127t-106.5 45q-65 0 -111 -45.5t-63 -129.5h238l-15 -58
h-230q-2 -26 -2 -42q0 -17 2 -47h209l-13 -58h-187q18 -81 63 -125t109 -44q60 0 104 44z" />
    <glyph glyph-name="florin.tf" 
d="M395 584.5q-32 -29.5 -41 -80.5l-26 -139h189v-64h-200l-59 -327q-12 -64 -55 -101.5t-104 -37.5q-47 0 -82 25l27 61q26 -14 56 -14q31 0 54 18.5t28 48.5l59 327h-120v64h131l26 139q14 82 67.5 130t133.5 48q66 0 112 -38l-29 -61q-17 15 -40 23t-48 8
q-47 0 -79 -29.5z" />
    <glyph glyph-name="sterling.tf" 
d="M566 72v-72h-530v49l84 16v207h-84v71h84v123q0 64 27.5 113t78 76.5t115.5 27.5q98 0 157.5 -58.5t63.5 -156.5l-72 -13q-5 75 -44 113.5t-105 38.5q-64 0 -103 -38.5t-39 -102.5v-123h227v-71h-227v-200h367z" />
    <glyph glyph-name="yen.tf" 
d="M374 313h151v-60h-182v-75h182v-60h-182v-118h-79v118h-178v60h178v75h-178v60h147l-216 357h88l199 -338l198 338h91z" />
    <glyph glyph-name="approxequal.tf" 
d="M427 344q-34 0 -59.5 7t-58.5 21q-32 13 -56 19.5t-55 6.5t-62.5 -8t-50.5 -25v66q19 15 50 23.5t63 8.5q33 0 58 -7t59 -21q35 -14 58.5 -20.5t54.5 -6.5q26 0 52.5 6.5t44.5 18.5v-68q-39 -21 -98 -21zM480.5 191q-25.5 -6 -53.5 -6q-34 0 -59.5 7t-58.5 21
q-30 13 -54.5 20t-56.5 7q-31 0 -62.5 -8.5t-50.5 -24.5v66q19 15 50 23.5t63 8.5q33 0 58 -7t59 -21q35 -14 58.5 -20.5t54.5 -6.5q26 0 52.5 6t44.5 18v-67q-19 -10 -44.5 -16z" />
    <glyph glyph-name="divide.tf" 
d="M340 515.5q15 -14.5 15 -35.5q0 -22 -14.5 -36t-37.5 -14t-37.5 14t-14.5 36q0 21 15 35.5t37 14.5t37 -14.5zM525 271h-440v68h440v-68zM340 156.5q15 -14.5 15 -35.5q0 -22 -14.5 -36t-37.5 -14t-37.5 14t-14.5 36q0 21 15 35.5t37 14.5t37 -14.5z" />
    <glyph glyph-name="equal.tf" 
d="M525 379h-440v68h440v-68zM525 190h-440v68h440v-68z" />
    <glyph glyph-name="greater.tf" 
d="M409 317l-274 116v82l366 -160v-76l-366 -159v80z" />
    <glyph glyph-name="greaterequal.tf" 
d="M398 361l-263 90v79l352 -134v-70l-352 -134v77zM485 89h-350v68h350v-68z" />
    <glyph glyph-name="less.tf" 
d="M475 120l-366 159v76l366 160v-82l-274 -116l274 -117v-80z" />
    <glyph glyph-name="lessequal.tf" 
d="M476 192l-351 134v70l351 134v-79l-263 -90l263 -92v-77zM476 157v-68h-349v68h349z" />
    <glyph glyph-name="minus.tf" 
d="M525 271h-440v68h440v-68z" />
    <glyph glyph-name="multiply.tf" 
d="M354 305l141 -141l-49 -49l-141 141l-142 -141l-49 49l141 141l-141 141l49 50l142 -142l141 142l49 -50z" />
    <glyph glyph-name="notequal.tf" 
d="M377 379l-73 -121h221v-68h-262l-54 -89h-71l54 89h-107v68h147l74 121h-221v68h262l55 91h72l-56 -91h107v-68h-148z" />
    <glyph glyph-name="plus.tf" 
d="M525 271h-186v-188h-68v188h-186v68h186v188h68v-188h186v-68z" />
    <glyph glyph-name="plusminus.tf" 
d="M525 394v-68h-186v-168h-68v168h-186v68h186v178h68v-178h186zM85 68h440v-68h-440v68z" />
    <glyph glyph-name="bar.case" horiz-adv-x="250" 
d="M162 -41h-74v752h74v-752z" />
    <glyph glyph-name="at.case" horiz-adv-x="959" 
d="M663 513v-295q0 -30 20.5 -48t51.5 -18q52 0 79.5 55.5t27.5 130.5q0 97 -47.5 174t-129.5 120t-182 43q-103 0 -186.5 -46t-131 -127.5t-47.5 -182.5t47.5 -182.5t128 -127.5t177.5 -46q61 0 126 18.5t113 51.5l27 -43q-50 -36 -123 -56.5t-142 -20.5q-111 0 -204.5 52
t-148 145t-54.5 208t54.5 207.5t150 145t213.5 52.5q114 0 208 -49.5t148.5 -137t54.5 -196.5q0 -95 -41 -164.5t-125 -69.5q-47 0 -77.5 21.5t-38.5 58.5q-25 -36 -64 -56t-88 -20q-56 0 -101.5 25.5t-72 72t-26.5 107.5t26.5 108t72 72.5t100.5 25.5q47 0 86 -19.5
t65 -54.5v66h53zM538 181q33 19 52.5 54t19.5 81q0 45 -19.5 79.5t-52.5 53t-72 18.5t-72 -18.5t-53 -53t-20 -79.5q0 -46 20 -81t53 -54t72 -19t72 19z" />
    <glyph glyph-name="caron.alt" horiz-adv-x="600" 
d="M328 478h-61v172h77z" />
    </font>
</defs>
</svg>
