<svg version="1.1"
     xmlns="http://www.w3.org/2000/svg" xmlns:xlink="http://www.w3.org/1999/xlink" xmlns:a="http://ns.adobe.com/AdobeSVGViewerExtensions/3.0/"
     x="0px" y="0px" width="102.3px" height="36.8px" viewBox="0 0 102.3 36.8" enable-background="new 0 0 102.3 36.8"
     xml:space="preserve">
<path fill="#FFFFFF" d="M33.3,25.2V33l-6.5-7.8h-1.5v10.7h1.7v-7.7l6.5,7.7h1.5V25.2C35.1,25.2,33.3,25.2,33.3,25.2z
     M44.6,31.7L44.6,31.7v0.5h-6.5c0.1,1.5,1.3,2.4,2.5,2.4c0.9,0,1.6-0.2,2.2-1l1.3,0.6c-0.8,1.2-1.9,1.8-3.6,1.8
    c-2.3,0-4.1-1.6-4.1-4.2c0-2.5,1.8-4.2,4.1-4.2C42.7,27.7,44.6,29.3,44.6,31.7z M40.6,29.2c-1.1,0-2.2,0.6-2.4,1.9h4.6
    C42.6,29.9,41.7,29.2,40.6,29.2z M50.7,34.1c-0.4,0.3-1,0.4-1.3,0.4c-0.8,0-1.3-0.4-1.3-1.5v-3.8h2.7v-1.4h-2.7v-2.5h-1.6v2.5h-1.7
    v1.4h1.7v3.9c0,1.9,1.2,2.9,2.9,2.9c0.6,0,1.2-0.1,1.9-0.6L50.7,34.1z M61.5,27.9l-1.8,5.5l-1.8-5.5h-1.3l-1.8,5.5l-1.8-5.5h-1.6
    l2.7,8h1.5l1.8-5.3l1.8,5.3h1.5l2.7-8C63.3,27.9,61.5,27.9,61.5,27.9z M67.5,27.8c2.4,0,4.2,1.7,4.2,4.1c0,2.5-1.9,4.1-4.2,4.1
    c-2.4,0-4.3-1.7-4.3-4.1C63.2,29.4,65.2,27.8,67.5,27.8z M67.5,34.6c1.4,0,2.6-1.1,2.6-2.7s-1.3-2.7-2.6-2.7c-1.4,0-2.6,1.1-2.6,2.7
    C64.8,33.5,66.1,34.6,67.5,34.6z M77.7,27.8c-1.4,0-2.4,0.8-3,1.8v-1.7H73v7.9h1.6V33c0-2.2,1-3.6,3-3.6c0.1,0,0.3,0,0.4,0l0.1-1.6
    C78,27.8,77.9,27.8,77.7,27.8z M82.2,31.7l4.4-3.8h-2.2L81,31h-0.2v-6.6h-1.6v11.4h1.6v-3.2H81l3.8,3.2h2.3L82.2,31.7z"/>
<path fill="#FFFFFF" d="M25.3,21.6h1.8v-10h-1.8V21.6z M33.7,14c-1.2,0-2.2,0.4-2.9,1.1v-0.9h-1.6v7.4h1.6v-3.4
    c0-1.9,1-2.8,2.4-2.8c1.2,0,2,0.8,2,2v4.2H37v-4.5C36.9,15.3,35.5,14,33.7,14z M43.1,14c-1.2,0-2.2,0.4-2.8,1.1v-0.9h-1.6v7.4h1.6
    v-3.4c0-1.9,1-2.8,2.4-2.8c1.2,0,2,0.8,2,2v4.2h1.8v-4.5C46.4,15.3,45.1,14,43.1,14z M51.9,14.1c-2.4,0-4.4,1.6-4.4,3.9
    s2,3.9,4.4,3.9c2.4,0,4.3-1.6,4.3-3.9C56.2,15.6,54.2,14.1,51.9,14.1z M51.9,20.5c-1.4,0-2.7-1-2.7-2.5s1.3-2.5,2.7-2.5
    s2.6,1,2.6,2.5S53.2,20.5,51.9,20.5z M62.9,14.2l-2.5,5.6l-2.5-5.6H56l3.5,7.4h1.9l3.5-7.4C64.9,14.2,62.9,14.2,62.9,14.2z
     M71.6,14.2v0.9c-0.8-0.7-1.8-1.1-3-1.1c-2.1,0-4.1,1.6-4.1,3.9c0,2.4,1.9,3.9,4.1,3.9c1.2,0,2.2-0.4,3-1.1v0.9h1.6v-7.4
    C73.3,14.2,71.6,14.2,71.6,14.2z M69,20.5c-1.5,0-2.6-1-2.6-2.5c0-1.6,1.2-2.5,2.6-2.5c1.3,0,2.6,0.9,2.6,2.4v0.3
    C71.6,19.6,70.3,20.5,69,20.5z M80.3,20c-0.4,0.3-1,0.4-1.3,0.4c-0.8,0-1.3-0.4-1.3-1.4v-3.5h2.7v-1.3h-2.7v-2.3H76v2.3h-1.8v1.3H76
    v3.6c0,1.8,1.2,2.7,3,2.7c0.7,0,1.2-0.1,2-0.6L80.3,20z M82.5,11c-0.7,0-1.1,0.4-1.1,1s0.4,1,1.1,1s1.1-0.4,1.1-1
    C83.6,11.5,83,11,82.5,11z M81.6,21.6h1.6v-7.4h-1.6V21.6z M88.9,14.1c-2.4,0-4.4,1.6-4.4,3.9s2,3.9,4.4,3.9s4.3-1.6,4.3-3.9
    C93.2,15.6,91.2,14.1,88.9,14.1z M88.9,20.5c-1.4,0-2.7-1-2.7-2.5s1.3-2.5,2.7-2.5s2.6,1,2.6,2.5C91.6,19.5,90.2,20.5,88.9,20.5z
     M99,14c-1.2,0-2.2,0.4-2.8,1.1v-0.9h-1.6v7.4h1.6v-3.4c0-1.9,1-2.8,2.4-2.8c1.2,0,2,0.8,2,2v4.2h1.8v-4.5
    C102.2,15.3,100.9,14,99,14z"/>
<path fill="#FFFFFF" d="M9,36.8H0v-8.3L14,0h9v8.3L9,36.8z M1.8,35h6L21.2,7.9v-6h-6L1.8,28.9V35z"/>
</svg>
