<svg width="24" height="20" viewBox="0 0 24 20" fill="none" xmlns="http://www.w3.org/2000/svg">
<path fill-rule="evenodd" clip-rule="evenodd" d="M23.3333 10C23.3333 11.1046 22.4378 12 21.3333 12L2.66658 12C1.56202 12 0.666585 11.1046 0.666585 10C0.666585 8.89543 1.56202 8 2.66659 8L21.3333 8C22.4378 8 23.3333 8.89543 23.3333 10Z" fill="currentColor"/>
<path fill-rule="evenodd" clip-rule="evenodd" d="M1.25237 11.4142C0.471324 10.6332 0.471324 9.36683 1.25237 8.58578L9.25237 0.585784C10.0334 -0.195264 11.2998 -0.195264 12.0808 0.585784C12.8618 1.36683 12.8618 2.63316 12.0808 3.41421L4.0808 11.4142C3.29975 12.1953 2.03342 12.1953 1.25237 11.4142Z" fill="currentColor"/>
<path fill-rule="evenodd" clip-rule="evenodd" d="M12.0808 19.4142C11.2997 20.1953 10.0334 20.1953 9.25237 19.4142L1.25237 11.4142C0.471324 10.6332 0.471324 9.36683 1.25237 8.58578C2.03342 7.80474 3.29975 7.80474 4.0808 8.58578L12.0808 16.5858C12.8618 17.3668 12.8618 18.6332 12.0808 19.4142Z" fill="currentColor"/>
</svg>
