<svg width="28" height="23" viewBox="0 0 28 23" fill="none" xmlns="http://www.w3.org/2000/svg">
<path fill-rule="evenodd" clip-rule="evenodd" d="M8.00001 21.2256C6.15687 21.2256 4.34621 21.7108 2.75001 22.6324C2.03257 23.0466 1.11518 22.8008 0.700968 22.0833C0.286755 21.3659 0.532567 20.4485 1.25001 20.0343C3.30227 18.8494 5.63026 18.2256 8.00001 18.2256C10.0855 18.2256 12.1387 18.7088 14 19.6322C15.8614 18.7088 17.9145 18.2256 20 18.2256C22.3698 18.2256 24.6977 18.8494 26.75 20.0343C27.4674 20.4485 27.7133 21.3659 27.299 22.0833C26.8848 22.8008 25.9674 23.0466 25.25 22.6324C23.6538 21.7108 21.8431 21.2256 20 21.2256C18.1569 21.2256 16.3462 21.7108 14.75 22.6324C14.2859 22.9003 13.7141 22.9003 13.25 22.6324C11.6538 21.7108 9.84314 21.2256 8.00001 21.2256Z" fill="currentColor"/>
<path fill-rule="evenodd" clip-rule="evenodd" d="M8.00001 3.8923C6.15687 3.8923 4.34621 4.37747 2.75001 5.29904C2.03257 5.71325 1.11518 5.46744 0.700968 4.75C0.286755 4.03256 0.532567 3.11517 1.25001 2.70096C3.30227 1.51609 5.63026 0.892303 8.00001 0.892303C10.0855 0.892303 12.1387 1.37542 14 2.29891C15.8614 1.37542 17.9145 0.892303 20 0.892303C22.3698 0.892303 24.6977 1.51609 26.75 2.70096C27.4674 3.11517 27.7133 4.03256 27.299 4.75C26.8848 5.46744 25.9674 5.71325 25.25 5.29904C23.6538 4.37747 21.8431 3.8923 20 3.8923C18.1569 3.8923 16.3462 4.37747 14.75 5.29904C14.2859 5.56699 13.7141 5.56699 13.25 5.29904C11.6538 4.37747 9.84314 3.8923 8.00001 3.8923Z" fill="currentColor"/>
<path fill-rule="evenodd" clip-rule="evenodd" d="M2.00001 2.5C2.82843 2.5 3.50001 3.17157 3.50001 4V21.3333C3.50001 22.1618 2.82843 22.8333 2.00001 22.8333C1.17158 22.8333 0.500006 22.1618 0.500006 21.3333V4C0.500006 3.17157 1.17158 2.5 2.00001 2.5Z" fill="currentColor"/>
<path fill-rule="evenodd" clip-rule="evenodd" d="M14 2.5C14.8284 2.5 15.5 3.17157 15.5 4V21.3333C15.5 22.1618 14.8284 22.8333 14 22.8333C13.1716 22.8333 12.5 22.1618 12.5 21.3333V4C12.5 3.17157 13.1716 2.5 14 2.5Z" fill="currentColor"/>
<path fill-rule="evenodd" clip-rule="evenodd" d="M26 2.5C26.8284 2.5 27.5 3.17157 27.5 4V21.3333C27.5 22.1618 26.8284 22.8333 26 22.8333C25.1716 22.8333 24.5 22.1618 24.5 21.3333V4C24.5 3.17157 25.1716 2.5 26 2.5Z" fill="currentColor"/>
</svg>
