<svg width="26" height="28" viewBox="0 0 26 28" fill="none" xmlns="http://www.w3.org/2000/svg">
<path fill-rule="evenodd" clip-rule="evenodd" d="M4.99996 6.33334C4.44767 6.33334 3.99996 6.78106 3.99996 7.33334V23.3333C3.99996 23.8856 4.44767 24.3333 4.99996 24.3333H21C21.5522 24.3333 22 23.8856 22 23.3333V7.33334C22 6.78106 21.5522 6.33334 21 6.33334H4.99996ZM0.666626 7.33334C0.666626 4.94011 2.60673 3.00001 4.99996 3.00001H21C23.3932 3.00001 25.3333 4.94011 25.3333 7.33334V23.3333C25.3333 25.7266 23.3932 27.6667 21 27.6667H4.99996C2.60673 27.6667 0.666626 25.7266 0.666626 23.3333V7.33334Z" fill="currentColor"/>
<path fill-rule="evenodd" clip-rule="evenodd" d="M18.3333 0.333344C19.2538 0.333344 20 1.07954 20 2.00001V7.33334C20 8.25382 19.2538 9.00001 18.3333 9.00001C17.4128 9.00001 16.6666 8.25382 16.6666 7.33334V2.00001C16.6666 1.07954 17.4128 0.333344 18.3333 0.333344Z" fill="currentColor"/>
<path fill-rule="evenodd" clip-rule="evenodd" d="M7.66663 0.333344C8.5871 0.333344 9.33329 1.07954 9.33329 2.00001V7.33334C9.33329 8.25382 8.5871 9.00001 7.66663 9.00001C6.74615 9.00001 5.99996 8.25382 5.99996 7.33334V2.00001C5.99996 1.07954 6.74615 0.333344 7.66663 0.333344Z" fill="currentColor"/>
<path fill-rule="evenodd" clip-rule="evenodd" d="M0.666626 12.6667C0.666626 11.7462 1.41282 11 2.33329 11H23.6666C24.5871 11 25.3333 11.7462 25.3333 12.6667C25.3333 13.5872 24.5871 14.3333 23.6666 14.3333H2.33329C1.41282 14.3333 0.666626 13.5872 0.666626 12.6667Z" fill="currentColor"/>
<path fill-rule="evenodd" clip-rule="evenodd" d="M5.99996 18C5.99996 17.0795 6.74615 16.3333 7.66663 16.3333H10.3333C11.2538 16.3333 12 17.0795 12 18V20.6667C12 21.5872 11.2538 22.3333 10.3333 22.3333H7.66663C6.74615 22.3333 5.99996 21.5872 5.99996 20.6667V18Z" fill="currentColor"/>
</svg>
