<svg width="24" height="15" viewBox="0 0 24 15" fill="none" xmlns="http://www.w3.org/2000/svg">
<path d="M23.3801 10.3503L13.5906 0.674987C13.3785 0.461107 13.1261 0.291346 12.848 0.175496C12.57 0.0596458 12.2717 0 11.9705 0C11.6692 0 11.371 0.0596458 11.0929 0.175496C10.8148 0.291346 10.5624 0.461107 10.3503 0.674987L0.674987 10.3503C0.461107 10.5624 0.291344 10.8148 0.175495 11.0929C0.0596447 11.371 0 11.6692 0 11.9705C0 12.2717 0.0596447 12.57 0.175495 12.848C0.291344 13.1261 0.461107 13.3785 0.674987 13.5906C1.10253 14.0156 1.68089 14.2542 2.28374 14.2542C2.88659 14.2542 3.46494 14.0156 3.89249 13.5906L11.9705 5.51265L20.0485 13.5906C20.4735 14.0122 21.0472 14.2499 21.6458 14.2524C21.9461 14.2541 22.2438 14.1966 22.5218 14.083C22.7999 13.9694 23.0527 13.8021 23.266 13.5906C23.4875 13.3861 23.6663 13.1398 23.792 12.8658C23.9178 12.5918 23.988 12.2956 23.9986 11.9943C24.0092 11.693 23.96 11.3926 23.8538 11.1104C23.7477 10.8282 23.5866 10.5699 23.3801 10.3503Z" fill="currentColor"/>
</svg>
