<svg width="24" height="15" viewBox="0 0 24 15" fill="none" xmlns="http://www.w3.org/2000/svg">
<path d="M23.3266 0.662046C22.9 0.238009 22.323 0 21.7215 0C21.12 0 20.543 0.238009 20.1164 0.662046L11.9431 8.72155L3.88358 0.662046C3.45701 0.238009 2.87998 0 2.27851 0C1.67704 0 1.10001 0.238009 0.673442 0.662046C0.460051 0.873694 0.290678 1.1255 0.175093 1.40294C0.0595083 1.68037 0 1.97795 0 2.2785C0 2.57905 0.0595083 2.87663 0.175093 3.15406C0.290678 3.4315 0.460051 3.6833 0.673442 3.89495L10.3266 13.5481C10.5383 13.7615 10.7901 13.9309 11.0675 14.0465C11.345 14.1621 11.6425 14.2216 11.9431 14.2216C12.2436 14.2216 12.5412 14.1621 12.8186 14.0465C13.0961 13.9309 13.3479 13.7615 13.5595 13.5481L23.3266 3.89495C23.5399 3.6833 23.7093 3.4315 23.8249 3.15406C23.9405 2.87663 24 2.57905 24 2.2785C24 1.97795 23.9405 1.68037 23.8249 1.40294C23.7093 1.1255 23.5399 0.873694 23.3266 0.662046Z" fill="currentColor"/>
</svg>
