<svg x="0px" y="0px" width="17.1px" height="13.8px" viewBox="0 0 17.1 13.8" enable-background="new 0 0 17.1 13.8">
<path fill="currentColor" d="M17.1,2.5C17.1,2.5,17.1,2.5,17.1,2.5C17,1.1,15.8,0,14.4,0H2.7C1.3,0,0.1,1.1,0,2.5c0,0,0,0,0,0
    c0,0.1,0,0.1,0,0.2V11c0,1.5,1.2,2.7,2.7,2.7h11.7c1.5,0,2.7-1.2,2.7-2.7V2.7C17.1,2.6,17.1,2.6,17.1,2.5z M2.7,2.1h11.7
    c0.2,0,0.3,0.1,0.4,0.2L8.5,6.5L2.3,2.3C2.4,2.2,2.5,2.1,2.7,2.1z M14.4,11.7H2.7c-0.3,0-0.6-0.3-0.6-0.6V4.7L8,8.6
    c0.3,0.2,0.8,0.2,1.2,0L15,4.7V11C15,11.4,14.7,11.7,14.4,11.7z"/>
</svg>
