<svg width="16" height="16" viewBox="0 0 16 16" fill="none" xmlns="http://www.w3.org/2000/svg">
<path fill-rule="evenodd" clip-rule="evenodd" d="M2.76042 14.2396C2.97903 14.2396 3.15625 14.0624 3.15625 13.8438C3.15625 13.6251 2.97903 13.4479 2.76042 13.4479C2.5418 13.4479 2.36458 13.6251 2.36458 13.8438C2.36458 14.0624 2.5418 14.2396 2.76042 14.2396ZM0.78125 13.8438C0.78125 12.7507 1.66735 11.8646 2.76042 11.8646C3.85348 11.8646 4.73958 12.7507 4.73958 13.8438C4.73958 14.9368 3.85348 15.8229 2.76042 15.8229C1.66735 15.8229 0.78125 14.9368 0.78125 13.8438Z" fill="currentColor" />
<path fill-rule="evenodd" clip-rule="evenodd" d="M0.78125 1.96875C0.78125 1.31291 1.31291 0.78125 1.96875 0.78125C5.6431 0.78125 9.16697 2.24088 11.7651 4.83904C14.3633 7.4372 15.8229 10.9611 15.8229 14.6354C15.8229 15.2913 15.2913 15.8229 14.6354 15.8229C13.9796 15.8229 13.4479 15.2913 13.4479 14.6354C13.4479 11.591 12.2385 8.67118 10.0857 6.51842C7.93299 4.36566 5.01322 3.15625 1.96875 3.15625C1.31291 3.15625 0.78125 2.62459 0.78125 1.96875Z" fill="currentColor" />
<path fill-rule="evenodd" clip-rule="evenodd" d="M0.78125 7.51042C0.78125 6.85458 1.31291 6.32292 1.96875 6.32292C4.17336 6.32292 6.28768 7.1987 7.84658 8.75759C9.40547 10.3165 10.2813 12.4308 10.2813 14.6354C10.2813 15.2913 9.74959 15.8229 9.09375 15.8229C8.43791 15.8229 7.90625 15.2913 7.90625 14.6354C7.90625 13.0607 7.28069 11.5505 6.1672 10.437C5.0537 9.32347 3.54347 8.69792 1.96875 8.69792C1.31291 8.69792 0.78125 8.16626 0.78125 7.51042Z" fill="currentColor" />
</svg>
