<svg width="17" height="15" viewBox="0 0 17 15" fill="none" xmlns="http://www.w3.org/2000/svg">
<path fill-rule="evenodd" clip-rule="evenodd" d="M2.95833 2.75C2.85335 2.75 2.75267 2.7917 2.67844 2.86594C2.6042 2.94017 2.5625 3.04085 2.5625 3.14583V11.8542C2.5625 11.9591 2.6042 12.0598 2.67844 12.1341C2.75267 12.2083 2.85335 12.25 2.95833 12.25H14.0417C14.1466 12.25 14.2473 12.2083 14.3216 12.1341C14.3958 12.0598 14.4375 11.9591 14.4375 11.8542V5.52083C14.4375 5.41585 14.3958 5.31517 14.3216 5.24094C14.2473 5.1667 14.1466 5.125 14.0417 5.125H8.5C8.18506 5.125 7.88301 4.99989 7.66031 4.77719L5.63312 2.75H2.95833ZM0.999058 1.18656C1.51869 0.666926 2.22346 0.375 2.95833 0.375H6.125C6.43995 0.375 6.74199 0.500111 6.96469 0.722811L8.99188 2.75H14.0417C14.7765 2.75 15.4813 3.04193 16.0009 3.56156C16.5206 4.08119 16.8125 4.78596 16.8125 5.52083V11.8542C16.8125 12.589 16.5206 13.2938 16.0009 13.8134C15.4813 14.3331 14.7765 14.625 14.0417 14.625H2.95833C2.22346 14.625 1.51869 14.3331 0.999058 13.8134C0.479426 13.2938 0.1875 12.589 0.1875 11.8542V3.14583C0.1875 2.41096 0.479426 1.70619 0.999058 1.18656Z" fill="currentColor" />
</svg>
