<svg width="27" height="29" viewBox="0 0 27 29" fill="none" xmlns="http://www.w3.org/2000/svg">
<path fill-rule="evenodd" clip-rule="evenodd" d="M6.33329 3.66668C5.78101 3.66668 5.33329 4.11439 5.33329 4.66668C5.33329 5.21896 5.78101 5.66668 6.33329 5.66668C6.88558 5.66668 7.33329 5.21896 7.33329 4.66668C7.33329 4.11439 6.88558 3.66668 6.33329 3.66668ZM1.99996 4.66668C1.99996 2.27344 3.94006 0.333344 6.33329 0.333344C8.72653 0.333344 10.6666 2.27344 10.6666 4.66668C10.6666 7.05991 8.72653 9.00001 6.33329 9.00001C3.94006 9.00001 1.99996 7.05991 1.99996 4.66668Z" fill="currentColor"/>
<path fill-rule="evenodd" clip-rule="evenodd" d="M3.99996 14.3333V18.643L4.84514 19.4882C5.1577 19.8007 5.33329 20.2247 5.33329 20.6667V27.3333C5.33329 28.2538 4.5871 29 3.66663 29C2.74615 29 1.99996 28.2538 1.99996 27.3333V21.357L1.15478 20.5119C0.842221 20.1993 0.666626 19.7754 0.666626 19.3333V14C0.666626 13.2044 0.982698 12.4413 1.54531 11.8787C2.10791 11.3161 2.87098 11 3.66663 11H8.99996C9.79561 11 10.5587 11.3161 11.1213 11.8787C11.6839 12.4413 12 13.2044 12 14V19.3333C12 19.7754 11.8244 20.1993 11.5118 20.5119L10.6666 21.357V27.3333C10.6666 28.2538 9.92043 29 8.99996 29C8.07949 29 7.33329 28.2538 7.33329 27.3333V20.6667C7.33329 20.2247 7.50889 19.8007 7.82145 19.4882L8.66663 18.643V14.3333H3.99996Z" fill="currentColor"/>
<path fill-rule="evenodd" clip-rule="evenodd" d="M19.6666 3.66668C19.1143 3.66668 18.6666 4.11439 18.6666 4.66668C18.6666 5.21896 19.1143 5.66668 19.6666 5.66668C20.2189 5.66668 20.6666 5.21896 20.6666 4.66668C20.6666 4.11439 20.2189 3.66668 19.6666 3.66668ZM15.3333 4.66668C15.3333 2.27344 17.2734 0.333344 19.6666 0.333344C22.0599 0.333344 24 2.27344 24 4.66668C24 7.05991 22.0599 9.00001 19.6666 9.00001C17.2734 9.00001 15.3333 7.05991 15.3333 4.66668Z" fill="currentColor"/>
<path fill-rule="evenodd" clip-rule="evenodd" d="M18.633 14.3333C18.6196 14.3988 18.6023 14.4635 18.5811 14.5271L16.6457 20.3333H17C17.9204 20.3333 18.6666 21.0795 18.6666 22V27.3333C18.6666 28.2538 17.9204 29 17 29C16.0795 29 15.3333 28.2538 15.3333 27.3333V23.6667H14.3333C13.7976 23.6667 13.2945 23.4091 12.9812 22.9745C12.668 22.5399 12.5827 21.9812 12.7522 21.473L15.3507 13.6774C15.4239 13.0004 15.7259 12.3647 16.212 11.8787C16.7746 11.3161 17.5376 11 18.3333 11H21C21.7956 11 22.5587 11.3161 23.1213 11.8787C23.6073 12.3647 23.9094 13.0004 23.9826 13.6774L26.5811 21.473C26.7505 21.9812 26.6653 22.5399 26.352 22.9745C26.0388 23.4091 25.5357 23.6667 25 23.6667H24V27.3333C24 28.2538 23.2538 29 22.3333 29C21.4128 29 20.6666 28.2538 20.6666 27.3333V22C20.6666 21.0795 21.4128 20.3333 22.3333 20.3333H22.6876L20.7522 14.5271C20.731 14.4635 20.7137 14.3988 20.7003 14.3333H18.633Z" fill="currentColor"/>
</svg>
