<svg width="28" height="28" viewBox="0 0 28 28" fill="none" xmlns="http://www.w3.org/2000/svg">
<path d="M26.88 11.6667L14.88 1.00001C14.6366 0.786252 14.3238 0.668365 14 0.668365C13.6761 0.668365 13.3633 0.786252 13.12 1.00001L1.11996 11.6667C0.916003 11.8471 0.772179 12.0856 0.707821 12.3502C0.643463 12.6148 0.661656 12.8927 0.759955 13.1467C0.856646 13.3973 1.02676 13.6128 1.24802 13.7651C1.46928 13.9173 1.73137 13.9992 1.99996 14H3.33329V26C3.33329 26.3536 3.47376 26.6928 3.72381 26.9428C3.97386 27.1929 4.313 27.3333 4.66662 27.3333H23.3333C23.6869 27.3333 24.0261 27.1929 24.2761 26.9428C24.5261 26.6928 24.6666 26.3536 24.6666 26V14H26C26.2685 13.9992 26.5306 13.9173 26.7519 13.7651C26.9732 13.6128 27.1433 13.3973 27.24 13.1467C27.3383 12.8927 27.3564 12.6148 27.2921 12.3502C27.2277 12.0856 27.0839 11.8471 26.88 11.6667ZM15.3333 24.6667H12.6666V20.6667C12.6666 20.3131 12.8071 19.9739 13.0571 19.7239C13.3072 19.4738 13.6463 19.3333 14 19.3333C14.3536 19.3333 14.6927 19.4738 14.9428 19.7239C15.1928 19.9739 15.3333 20.3131 15.3333 20.6667V24.6667ZM22 24.6667H18V20.6667C18 19.6058 17.5785 18.5884 16.8284 17.8382C16.0782 17.0881 15.0608 16.6667 14 16.6667C12.9391 16.6667 11.9217 17.0881 11.1715 17.8382C10.4214 18.5884 9.99996 19.6058 9.99996 20.6667V24.6667H5.99996V14H22V24.6667ZM5.50662 11.3333L14 3.78668L22.4933 11.3333H5.50662Z" fill="currentColor"/>
</svg>
