<svg width="28" height="28" viewBox="0 0 28 28" fill="none" xmlns="http://www.w3.org/2000/svg">
<path fill-rule="evenodd" clip-rule="evenodd" d="M14 0.5C14.8284 0.5 15.5 1.17157 15.5 2V3.33333C15.5 4.16176 14.8284 4.83333 14 4.83333C13.1716 4.83333 12.5 4.16176 12.5 3.33333V2C12.5 1.17157 13.1716 0.5 14 0.5ZM23.594 4.40601C24.1798 4.99179 24.1798 5.94154 23.594 6.52733L22.6607 7.46066C22.0749 8.04645 21.1251 8.04645 20.5393 7.46066C19.9536 6.87488 19.9536 5.92513 20.5393 5.33934L21.4727 4.40601C22.0585 3.82022 23.0082 3.82022 23.594 4.40601ZM4.40601 4.40601C4.99179 3.82022 5.94154 3.82022 6.52733 4.40601L7.46066 5.33934C8.04645 5.92513 8.04645 6.87487 7.46066 7.46066C6.87487 8.04645 5.92513 8.04645 5.33934 7.46066L4.40601 6.52733C3.82022 5.94154 3.82022 4.99179 4.40601 4.40601ZM0.5 14C0.5 13.1716 1.17157 12.5 2 12.5H3.33333C4.16176 12.5 4.83333 13.1716 4.83333 14C4.83333 14.8284 4.16176 15.5 3.33333 15.5H2C1.17157 15.5 0.5 14.8284 0.5 14ZM23.1667 14C23.1667 13.1716 23.8382 12.5 24.6667 12.5H26C26.8284 12.5 27.5 13.1716 27.5 14C27.5 14.8284 26.8284 15.5 26 15.5H24.6667C23.8382 15.5 23.1667 14.8284 23.1667 14Z" fill="currentColor"/>
<path fill-rule="evenodd" clip-rule="evenodd" d="M14 8.83333C12.9156 8.83333 11.8587 9.17453 10.979 9.80858C10.0993 10.4426 9.44139 11.3374 9.09847 12.3662C8.75555 13.3949 8.74502 14.5055 9.06835 15.5405C9.38949 16.5686 10.0238 17.4704 10.8824 18.1201C10.9157 18.1444 10.9483 18.1702 10.9799 18.1976C11.0135 18.2265 11.0456 18.2567 11.0761 18.288C11.7536 18.9651 12.2642 19.7908 12.5672 20.6998C12.8585 21.5737 12.9501 22.5011 12.8361 23.414C12.8555 23.694 12.9753 23.9586 13.175 24.1583C13.3938 24.3771 13.6906 24.5 14 24.5C14.3094 24.5 14.6062 24.3771 14.825 24.1583C15.0247 23.9586 15.1445 23.694 15.1639 23.414C15.0499 22.5011 15.1415 21.5737 15.4328 20.6998C15.7389 19.7816 16.2568 18.9482 16.9447 18.2673C16.9934 18.2192 17.0453 18.1744 17.1 18.1333C17.9675 17.4827 18.6083 16.5756 18.9317 15.5405C19.255 14.5055 19.2444 13.3949 18.9015 12.3662C18.5586 11.3374 17.9007 10.4426 17.021 9.80858C16.1413 9.17453 15.0844 8.83333 14 8.83333ZM9.00623 20.4619C7.68258 19.439 6.70416 18.0336 6.20481 16.435C5.69374 14.799 5.71039 13.0436 6.25242 11.4175C6.79445 9.79139 7.83436 8.37707 9.22487 7.37486C10.6154 6.37264 12.286 5.83333 14 5.83333C15.714 5.83333 17.3846 6.37264 18.7751 7.37486C20.1656 8.37707 21.2056 9.79139 21.7476 11.4175C22.2896 13.0436 22.3063 14.799 21.7952 16.435C21.2958 18.0336 20.3174 19.439 18.9938 20.4619C18.6711 20.7996 18.4268 21.2047 18.2789 21.6485C18.1217 22.12 18.0777 22.622 18.1505 23.1137C18.1613 23.1864 18.1667 23.2598 18.1667 23.3333C18.1667 24.4384 17.7277 25.4982 16.9463 26.2796C16.1649 27.061 15.1051 27.5 14 27.5C12.8949 27.5 11.8351 27.061 11.0537 26.2796C10.2723 25.4982 9.83333 24.4384 9.83333 23.3333C9.83333 23.2598 9.83874 23.1864 9.84951 23.1137C9.9223 22.622 9.87833 22.12 9.72115 21.6485C9.57322 21.2047 9.32894 20.7996 9.00623 20.4619Z" fill="currentColor"/>
<path fill-rule="evenodd" clip-rule="evenodd" d="M9.43333 20.6667C9.43333 19.8382 10.1049 19.1667 10.9333 19.1667H17.0667C17.8951 19.1667 18.5667 19.8382 18.5667 20.6667C18.5667 21.4951 17.8951 22.1667 17.0667 22.1667H10.9333C10.1049 22.1667 9.43333 21.4951 9.43333 20.6667Z" fill="currentColor"/>
</svg>
