<svg width="26" height="24" viewBox="0 0 26 24" fill="none" xmlns="http://www.w3.org/2000/svg">
<path fill-rule="evenodd" clip-rule="evenodd" d="M6.33325 3.16666C5.67021 3.16666 5.03433 3.43005 4.56549 3.89889C4.09664 4.36773 3.83325 5.00362 3.83325 5.66666V13.6667C3.83325 14.3297 4.09664 14.9656 4.56549 15.4344C5.03433 15.9033 5.67021 16.1667 6.33325 16.1667H8.99992C9.39774 16.1667 9.77927 16.3247 10.0606 16.606L12.9999 19.5453L15.9393 16.606C16.2206 16.3247 16.6021 16.1667 16.9999 16.1667H19.6666C20.3296 16.1667 20.9655 15.9033 21.4344 15.4344C21.9032 14.9656 22.1666 14.3297 22.1666 13.6667V5.66666C22.1666 5.00361 21.9032 4.36773 21.4344 3.89889C20.9655 3.43005 20.3296 3.16666 19.6666 3.16666H6.33325ZM2.44416 1.77757C3.47561 0.746119 4.87456 0.166656 6.33325 0.166656H19.6666C21.1253 0.166656 22.5242 0.746119 23.5557 1.77757C24.5871 2.80902 25.1666 4.20797 25.1666 5.66666V13.6667C25.1666 15.1253 24.5871 16.5243 23.5557 17.5557C22.5242 18.5872 21.1253 19.1667 19.6666 19.1667H17.6212L14.0606 22.7273C13.4748 23.3131 12.525 23.3131 11.9393 22.7273L8.3786 19.1667H6.33325C4.87456 19.1667 3.47562 18.5872 2.44416 17.5557C1.41271 16.5243 0.833252 15.1253 0.833252 13.6667V5.66666C0.833252 4.20797 1.41271 2.80902 2.44416 1.77757Z" fill="currentColor"/>
<path fill-rule="evenodd" clip-rule="evenodd" d="M6.16657 7C6.16657 6.17157 6.83815 5.5 7.66657 5.5H18.3332C19.1617 5.5 19.8332 6.17157 19.8332 7C19.8332 7.82843 19.1617 8.5 18.3332 8.5H7.66657C6.83815 8.5 6.16657 7.82843 6.16657 7Z" fill="currentColor"/>
<path fill-rule="evenodd" clip-rule="evenodd" d="M6.16657 12.3333C6.16657 11.5049 6.83815 10.8333 7.66657 10.8333H15.6666C16.495 10.8333 17.1666 11.5049 17.1666 12.3333C17.1666 13.1618 16.495 13.8333 15.6666 13.8333H7.66657C6.83815 13.8333 6.16657 13.1618 6.16657 12.3333Z" fill="currentColor"/>
</svg>
