<svg width="22" height="28" viewBox="0 0 22 28" fill="none" xmlns="http://www.w3.org/2000/svg">
<path fill-rule="evenodd" clip-rule="evenodd" d="M3 0.666656H17.6667C18.8159 0.666656 19.9181 1.1232 20.7308 1.93586C21.5435 2.74852 22 3.85072 22 4.99999V21C22 22.1493 21.5435 23.2515 20.7308 24.0641C19.9181 24.8768 18.8159 25.3333 17.6667 25.3333H8.66667V26.3333C8.66667 27.2538 7.92047 28 7 28C6.07953 28 5.33333 27.2538 5.33333 26.3333V25.3333H3C2.20435 25.3333 1.44129 25.0173 0.87868 24.4546C0.31607 23.892 0 23.129 0 22.3333V3.66666C0 2.87101 0.316072 2.10794 0.87868 1.54534C1.44129 0.982728 2.20435 0.666656 3 0.666656ZM8.66667 22H17.6667C17.9319 22 18.1862 21.8946 18.3738 21.7071C18.5613 21.5196 18.6667 21.2652 18.6667 21V4.99999C18.6667 4.73477 18.5613 4.48042 18.3738 4.29288C18.1862 4.10535 17.9319 3.99999 17.6667 3.99999H8.66667V22ZM5.33333 3.99999V22H3.33333V3.99999H5.33333Z" fill="currentColor"/>
<path fill-rule="evenodd" clip-rule="evenodd" d="M10.6667 7.66666C10.6667 6.74618 11.4129 5.99999 12.3333 5.99999H15C15.9205 5.99999 16.6667 6.74618 16.6667 7.66666C16.6667 8.58713 15.9205 9.33332 15 9.33332H12.3333C11.4129 9.33332 10.6667 8.58713 10.6667 7.66666Z" fill="currentColor"/>
<path fill-rule="evenodd" clip-rule="evenodd" d="M10.6667 13C10.6667 12.0795 11.4129 11.3333 12.3333 11.3333H15C15.9205 11.3333 16.6667 12.0795 16.6667 13C16.6667 13.9205 15.9205 14.6667 15 14.6667H12.3333C11.4129 14.6667 10.6667 13.9205 10.6667 13Z" fill="currentColor"/>
</svg>
