<svg x="0px" y="0px" width="26.8px" height="26.8px" viewBox="0 0 26.8 26.8" enable-background="new 0 0 26.8 26.8">
<path d="M17.8,1.5c1-1,2.3-1.5,3.7-1.5s2.7,0.6,3.7,1.5c1,1,1.5,2.3,1.5,3.7S26.2,8,25.2,9L7.9,26.3c-0.3,0.3-0.7,0.4-1.1,0.4H1.5
    c-0.8,0-1.5-0.7-1.5-1.5v-5.3c0-0.4,0.2-0.8,0.4-1.1L17.8,1.5z M21.5,3c-0.6,0-1.2,0.2-1.6,0.7L3,20.6v3.2h3.2L23.1,6.9
    c0.4-0.4,0.7-1,0.7-1.6s-0.2-1.2-0.7-1.6C22.7,3.2,22.1,3,21.5,3z" fill="currentColor" />
<path d="M15.8,3.5c0.6-0.6,1.5-0.6,2.1,0l5.3,5.3c0.6,0.6,0.6,1.5,0,2.1c-0.6,0.6-1.5,0.6-2.1,0l-5.3-5.3
    C15.2,5.1,15.2,4.1,15.8,3.5z" fill="currentColor" />
</svg>
