<svg width="28" height="28" viewBox="0 0 28 28" fill="none" xmlns="http://www.w3.org/2000/svg">
<path fill-rule="evenodd" clip-rule="evenodd" d="M18.2727 2.27267C19.2612 1.28412 20.602 0.728764 22 0.728764C23.398 0.728764 24.7388 1.28412 25.7273 2.27267C26.7159 3.26122 27.2712 4.60198 27.2712 6C27.2712 7.39802 26.7159 8.73878 25.7273 9.72733L8.39399 27.0607C8.11269 27.342 7.73116 27.5 7.33333 27.5H2C1.17157 27.5 0.5 26.8284 0.5 26V20.6667C0.5 20.2688 0.658035 19.8873 0.93934 19.606L18.2727 2.27267ZM22 3.72876C21.3976 3.72876 20.8199 3.96805 20.394 4.39399L3.5 21.288V24.5H6.71201L23.606 7.60601C24.0319 7.18007 24.2712 6.60237 24.2712 6C24.2712 5.39763 24.0319 4.81993 23.606 4.39399C23.1801 3.96805 22.6024 3.72876 22 3.72876Z" fill="currentColor"/>
<path fill-rule="evenodd" clip-rule="evenodd" d="M16.2727 4.27267C16.8585 3.68689 17.8082 3.68689 18.394 4.27267L23.7273 9.60601C24.3131 10.1918 24.3131 11.1415 23.7273 11.7273C23.1415 12.3131 22.1918 12.3131 21.606 11.7273L16.2727 6.39399C15.6869 5.80821 15.6869 4.85846 16.2727 4.27267Z" fill="currentColor"/>
<path fill-rule="evenodd" clip-rule="evenodd" d="M6.27267 0.93934C6.85846 0.353553 7.80821 0.353553 8.39399 0.93934L15.0607 7.60601C15.6464 8.19179 15.6464 9.14154 15.0607 9.72733C14.4749 10.3131 13.5251 10.3131 12.9393 9.72733L7.33333 4.12132L4.12132 7.33333L9.72733 12.9393C10.3131 13.5251 10.3131 14.4749 9.72733 15.0607C9.14154 15.6464 8.19179 15.6464 7.60601 15.0607L0.93934 8.39399C0.353553 7.80821 0.353553 6.85846 0.93934 6.27267L6.27267 0.93934Z" fill="currentColor"/>
<path fill-rule="evenodd" clip-rule="evenodd" d="M8.39399 7.60601C8.97978 8.19179 8.97978 9.14154 8.39399 9.72733L6.39399 11.7273C5.80821 12.3131 4.85846 12.3131 4.27267 11.7273C3.68689 11.1415 3.68689 10.1918 4.27267 9.60601L6.27267 7.60601C6.85846 7.02022 7.80821 7.02022 8.39399 7.60601Z" fill="currentColor"/>
<path fill-rule="evenodd" clip-rule="evenodd" d="M18.2727 12.9393C18.8585 12.3536 19.8082 12.3536 20.394 12.9393L27.0607 19.606C27.6464 20.1918 27.6464 21.1415 27.0607 21.7273L21.7273 27.0607C21.1415 27.6464 20.1918 27.6464 19.606 27.0607L12.9393 20.394C12.3536 19.8082 12.3536 18.8585 12.9393 18.2727C13.5251 17.6869 14.4749 17.6869 15.0607 18.2727L20.6667 23.8787L23.8787 20.6667L18.2727 15.0607C17.6869 14.4749 17.6869 13.5251 18.2727 12.9393Z" fill="currentColor"/>
<path fill-rule="evenodd" clip-rule="evenodd" d="M20.394 19.606C20.9798 20.1918 20.9798 21.1415 20.394 21.7273L18.394 23.7273C17.8082 24.3131 16.8585 24.3131 16.2727 23.7273C15.6869 23.1415 15.6869 22.1918 16.2727 21.606L18.2727 19.606C18.8585 19.0202 19.8082 19.0202 20.394 19.606Z" fill="currentColor"/>
</svg>
