<svg version="1.1"
     xmlns="http://www.w3.org/2000/svg" xmlns:xlink="http://www.w3.org/1999/xlink" xmlns:a="http://ns.adobe.com/AdobeSVGViewerExtensions/3.0/"
     x="0px" y="0px" width="35px" height="27.6px" viewBox="0 0 35 27.6" enable-background="new 0 0 35 27.6" xml:space="preserve">
<path d="M11.3,12.5c-0.9-0.2-1.7-0.4-2.6-0.4c-1.3,0-2.4,0.3-3.2,0.6c0.8-2.8,2.8-7.6,6.7-8.1
    c0.4-0.1,0.7-0.3,0.8-0.6l0.9-2.8c0.1-0.2,0-0.5-0.1-0.7c-0.1-0.2-0.4-0.3-0.6-0.4C12.7,0,12.4,0,12.1,0C7.4,0,2.8,4.6,0.8,11.1
    c-1.1,3.8-1.5,9.6,1.3,13.2c1.6,2,3.9,3.1,6.9,3.2c0,0,0,0,0,0c3.7,0,6.9-2.3,7.9-5.6c0.6-2,0.3-4-0.8-5.8
    C15.1,14.3,13.4,13.1,11.3,12.5z"/>
<path d="M29.1,12.5c-0.9-0.2-1.7-0.4-2.6-0.4c-1.3,0-2.4,0.3-3.2,0.6C24,10,26,5.2,29.9,4.6c0.4-0.1,0.7-0.3,0.8-0.6
    l0.9-2.8c0.1-0.2,0-0.5-0.1-0.7c-0.1-0.2-0.4-0.3-0.6-0.4C30.4,0,30.2,0,29.9,0c-4.7,0-9.3,4.6-11.3,11.1c-1.1,3.8-1.5,9.6,1.3,13.2
    c1.6,2,3.9,3.1,6.9,3.2c0,0,0,0,0,0c3.7,0,6.9-2.3,7.9-5.6c0.6-2,0.3-4-0.8-5.8C32.9,14.3,31.2,13.1,29.1,12.5z"/>
</svg>
