<svg x="0px" y="0px" width="15px" height="12.5px" viewBox="0 0 15 12.5" enable-background="new 0 0 15 12.5">
<path fill="currentColor" d="M9.9,0.1C9.5,0.3,9.2,0.7,9.2,1.3v2.1H4.6c-1.2,0-2.4,0.5-3.2,1.3C0.5,5.5,0,6.7,0,7.9
    c0,1.2,0.5,2.4,1.3,3.2c0.9,0.9,2,1.3,3.2,1.3h0.8c0.7,0,1.2-0.6,1.2-1.2c0-0.7-0.6-1.2-1.2-1.2H4.6C4,10,3.5,9.8,3.1,9.4
    C2.7,9,2.5,8.5,2.5,7.9c0-0.6,0.2-1.1,0.6-1.5C3.5,6.1,4,5.8,4.6,5.8h4.6v2.1c0,0.5,0.3,1,0.8,1.2c0.5,0.2,1,0.1,1.4-0.3l3.3-3.3
    c0.1-0.1,0.2-0.3,0.3-0.4C15,4.9,15,4.8,15,4.6c0-0.2,0-0.3-0.1-0.5c-0.1-0.1-0.2-0.3-0.3-0.4l-3.3-3.3C10.9,0,10.4-0.1,9.9,0.1z"/>
</svg>
