<svg width="28" height="28" viewBox="0 0 28 28" fill="none" xmlns="http://www.w3.org/2000/svg">
<path fill-rule="evenodd" clip-rule="evenodd" d="M11.3333 4C7.28325 4 4 7.28325 4 11.3333C4 15.3834 7.28325 18.6667 11.3333 18.6667C15.3834 18.6667 18.6667 15.3834 18.6667 11.3333C18.6667 7.28325 15.3834 4 11.3333 4ZM0 11.3333C0 5.07411 5.07411 0 11.3333 0C17.5926 0 22.6667 5.07411 22.6667 11.3333C22.6667 17.5926 17.5926 22.6667 11.3333 22.6667C5.07411 22.6667 0 17.5926 0 11.3333Z" fill="currentColor"/>
<path fill-rule="evenodd" clip-rule="evenodd" d="M16.5858 16.5858C17.3668 15.8047 18.6332 15.8047 19.4142 16.5858L27.4142 24.5858C28.1953 25.3668 28.1953 26.6332 27.4142 27.4142C26.6332 28.1953 25.3668 28.1953 24.5858 27.4142L16.5858 19.4142C15.8047 18.6332 15.8047 17.3668 16.5858 16.5858Z" fill="currentColor"/>
</svg>
