<svg width="27" height="29" viewBox="0 0 27 29" fill="none" xmlns="http://www.w3.org/2000/svg">
<path fill-rule="evenodd" clip-rule="evenodd" d="M9.00004 3.16667H22.3334C22.7312 3.16667 23.1127 3.3247 23.394 3.60601L26.0607 6.27267C26.342 6.55398 26.5 6.93551 26.5 7.33333C26.5 7.73116 26.342 8.11269 26.0607 8.39399L23.394 11.0607C23.1127 11.342 22.7312 11.5 22.3334 11.5H9.00004C8.24859 11.5 7.52792 11.2015 6.99657 10.6701C6.46522 10.1388 6.16671 9.41811 6.16671 8.66667V6C6.16671 5.24855 6.46522 4.52788 6.99657 3.99653C7.52792 3.46518 8.24859 3.16667 9.00004 3.16667ZM9.16671 6.16667H21.7121L22.8787 7.33333L21.7121 8.5H9.16671V6.16667Z" fill="currentColor"/>
<path fill-rule="evenodd" clip-rule="evenodd" d="M3.93938 14.2727C4.22069 13.9914 4.60222 13.8333 5.00004 13.8333H14.3334C15.0848 13.8333 15.8055 14.1318 16.3368 14.6632C16.8682 15.1946 17.1667 15.9152 17.1667 16.6667V19.3333C17.1667 20.0848 16.8682 20.8055 16.3368 21.3368C15.8055 21.8682 15.0848 22.1667 14.3334 22.1667H5.00004C4.60222 22.1667 4.22069 22.0086 3.93938 21.7273L1.27271 19.0607C0.686927 18.4749 0.686927 17.5251 1.27271 16.9393L3.93938 14.2727ZM5.62136 16.8333L4.45469 18L5.62136 19.1667H14.1667V16.8333H5.62136Z" fill="currentColor"/>
<path fill-rule="evenodd" clip-rule="evenodd" d="M13 19.1667C13.8285 19.1667 14.5 19.8382 14.5 20.6667V27.3333C14.5 28.1618 13.8285 28.8333 13 28.8333C12.1716 28.8333 11.5 28.1618 11.5 27.3333V20.6667C11.5 19.8382 12.1716 19.1667 13 19.1667Z" fill="currentColor"/>
<path fill-rule="evenodd" clip-rule="evenodd" d="M13 8.5C13.8285 8.5 14.5 9.17157 14.5 10V15.3333C14.5 16.1618 13.8285 16.8333 13 16.8333C12.1716 16.8333 11.5 16.1618 11.5 15.3333V10C11.5 9.17157 12.1716 8.5 13 8.5Z" fill="currentColor"/>
<path fill-rule="evenodd" clip-rule="evenodd" d="M13 0.5C13.8285 0.5 14.5 1.17157 14.5 2V4.66667C14.5 5.49509 13.8285 6.16667 13 6.16667C12.1716 6.16667 11.5 5.49509 11.5 4.66667V2C11.5 1.17157 12.1716 0.5 13 0.5Z" fill="currentColor"/>
</svg>
