<svg width="27" height="26" viewBox="0 0 27 26" fill="none" xmlns="http://www.w3.org/2000/svg">
<path fill-rule="evenodd" clip-rule="evenodd" d="M15.3333 3.83334C15.0239 3.83334 14.7272 3.95626 14.5084 4.17505C14.2896 4.39385 14.1667 4.69059 14.1667 5.00001V6.33334C14.1667 8.14566 13.4467 9.88374 12.1652 11.1652C11.2434 12.0871 10.0853 12.7183 8.83333 13V19.6667C8.83333 20.3297 9.09673 20.9656 9.56557 21.4344C10.0344 21.9033 10.6703 22.1667 11.3333 22.1667H20.6667C20.7091 22.1667 20.7515 22.1685 20.7938 22.1721C20.8518 22.177 21.0075 22.1694 21.2362 21.9406C21.475 21.7019 21.7239 21.2779 21.8677 20.6797L23.1606 14.2149C23.1335 13.949 23.0157 13.6991 22.825 13.5084C22.6062 13.2896 22.3094 13.1667 22 13.1667H18C17.1716 13.1667 16.5 12.4951 16.5 11.6667V5.00001C16.5 4.69059 16.3771 4.39385 16.1583 4.17505C15.9395 3.95626 15.6428 3.83334 15.3333 3.83334ZM8.16427 24.1619C8.11333 24.2222 8.05971 24.2806 8.00347 24.3368C7.47211 24.8682 6.75144 25.1667 6 25.1667H3.33333C2.58189 25.1667 1.86122 24.8682 1.32986 24.3368C0.79851 23.8055 0.5 23.0848 0.5 22.3333V13C0.5 12.2486 0.798511 11.5279 1.32986 10.9965C1.86122 10.4652 2.58189 10.1667 3.33333 10.1667H7.33333C8.35 10.1667 9.32502 9.76281 10.0439 9.04392C10.7628 8.32503 11.1667 7.35001 11.1667 6.33334V5.00001C11.1667 3.89494 11.6057 2.83513 12.3871 2.05373C13.1685 1.27233 14.2283 0.833344 15.3333 0.833344C16.4384 0.833344 17.4982 1.27233 18.2796 2.05373C19.061 2.83513 19.5 3.89494 19.5 5.00001V10.1667H22C23.1051 10.1667 24.1649 10.6057 24.9463 11.3871C25.7277 12.1685 26.1667 13.2283 26.1667 14.3333C26.1667 14.4321 26.1569 14.5307 26.1375 14.6275L24.8042 21.2942C24.801 21.3103 24.7975 21.3264 24.7937 21.3424C24.5532 22.3685 24.0778 23.3417 23.3575 24.062C22.6406 24.7789 21.6795 25.234 20.6124 25.1667H11.3333C10.1911 25.1667 9.08548 24.8114 8.16427 24.1619ZM5.83333 13.1667H3.5V22.1667H5.83333V13.1667Z" fill="currentColor"/>
</svg>
