<svg width="20" height="28" viewBox="0 0 20 28" fill="none" xmlns="http://www.w3.org/2000/svg">
<path fill-rule="evenodd" clip-rule="evenodd" d="M10 3.5C7.88291 3.5 6.16667 5.21624 6.16667 7.33333C6.16667 9.45043 7.88291 11.1667 10 11.1667C12.1171 11.1667 13.8333 9.45043 13.8333 7.33333C13.8333 5.21624 12.1171 3.5 10 3.5ZM3.16667 7.33333C3.16667 3.55939 6.22605 0.5 10 0.5C13.7739 0.5 16.8333 3.55939 16.8333 7.33333C16.8333 11.1073 13.7739 14.1667 10 14.1667C6.22605 14.1667 3.16667 11.1073 3.16667 7.33333Z" fill="currentColor"/>
<path fill-rule="evenodd" clip-rule="evenodd" d="M7.33333 19.5C6.31667 19.5 5.34165 19.9039 4.62276 20.6228C3.90387 21.3416 3.5 22.3167 3.5 23.3333V26C3.5 26.8284 2.82843 27.5 2 27.5C1.17157 27.5 0.5 26.8284 0.5 26V23.3333C0.5 21.521 1.21994 19.7829 2.50144 18.5014C3.78293 17.2199 5.52102 16.5 7.33333 16.5H12.6667C14.479 16.5 16.2171 17.2199 17.4986 18.5014C18.7801 19.7829 19.5 21.521 19.5 23.3333V26C19.5 26.8284 18.8284 27.5 18 27.5C17.1716 27.5 16.5 26.8284 16.5 26V23.3333C16.5 22.3167 16.0961 21.3416 15.3772 20.6228C14.6584 19.9039 13.6833 19.5 12.6667 19.5H7.33333Z" fill="currentColor"/>
</svg>
