<svg width="24" height="20" viewBox="0 0 24 20" fill="none" xmlns="http://www.w3.org/2000/svg">
<path fill-rule="evenodd" clip-rule="evenodd" d="M0.666748 10C0.666748 8.89543 1.56218 8 2.66675 8H21.3334C22.438 8 23.3334 8.89543 23.3334 10C23.3334 11.1046 22.438 12 21.3334 12H2.66675C1.56218 12 0.666748 11.1046 0.666748 10Z" fill="currentColor"/>
<path fill-rule="evenodd" clip-rule="evenodd" d="M22.7476 8.58579C23.5287 9.36684 23.5287 10.6332 22.7476 11.4142L14.7476 19.4142C13.9666 20.1953 12.7003 20.1953 11.9192 19.4142C11.1382 18.6332 11.1382 17.3668 11.9192 16.5858L19.9192 8.58579C20.7003 7.80474 21.9666 7.80474 22.7476 8.58579Z" fill="currentColor"/>
<path fill-rule="evenodd" clip-rule="evenodd" d="M11.9192 0.585786C12.7003 -0.195262 13.9666 -0.195262 14.7476 0.585786L22.7476 8.58579C23.5287 9.36684 23.5287 10.6332 22.7476 11.4142C21.9666 12.1953 20.7003 12.1953 19.9192 11.4142L11.9192 3.41421C11.1382 2.63317 11.1382 1.36683 11.9192 0.585786Z" fill="currentColor"/>
</svg>
