<svg width="15" height="24" viewBox="0 0 15 24" fill="none" xmlns="http://www.w3.org/2000/svg">
<path d="M13.6202 10.3816L3.91567 0.677025C3.7029 0.462499 3.44976 0.292224 3.17084 0.176025C2.89193 0.0598248 2.59277 0 2.29062 0C1.98847 0 1.68931 0.0598248 1.4104 0.176025C1.13149 0.292224 0.878342 0.462499 0.665568 0.677025C0.239275 1.10586 0 1.68596 0 2.29063C0 2.8953 0.239275 3.47541 0.665568 3.90424L8.76794 12.0066L0.665568 20.109C0.239275 20.5378 0 21.1179 0 21.7226C0 22.3273 0.239275 22.9074 0.665568 23.3362C0.879434 23.5483 1.13307 23.7162 1.41193 23.8301C1.6908 23.944 1.9894 24.0017 2.29062 24C2.59184 24.0017 2.89045 23.944 3.16931 23.8301C3.44817 23.7162 3.70181 23.5483 3.91567 23.3362L13.6202 13.6317C13.8347 13.4189 14.005 13.1658 14.1212 12.8868C14.2374 12.6079 14.2972 12.3088 14.2972 12.0066C14.2972 11.7045 14.2374 11.4053 14.1212 11.1264C14.005 10.8475 13.8347 10.5943 13.6202 10.3816Z" fill="#0072ce"/>
</svg>
