<?xml version="1.0" encoding="UTF-8" standalone="no"?>
<!DOCTYPE svg PUBLIC "-//W3C//DTD SVG 1.1//EN" "http://www.w3.org/Graphics/SVG/1.1/DTD/svg11.dtd">
<svg width="100%" height="100%" viewBox="0 0 162 162" version="1.1" xmlns="http://www.w3.org/2000/svg" xmlns:xlink="http://www.w3.org/1999/xlink" xml:space="preserve" xmlns:serif="http://www.serif.com/" style="fill-rule:evenodd;clip-rule:evenodd;stroke-linejoin:round;stroke-miterlimit:2;">
    <g transform="matrix(1,0,0,1,32.5,0)">
        <path d="M97,35L97,1L61,1L1,127L1,162L36,162L97,35Z" style="fill:rgb(255,190,0);"/>
    </g>
    <g transform="matrix(4.39788,0,0,4.46953,19.4297,18.4266)">
        <path d="M14,0.5C14.828,0.5 15.5,1.172 15.5,2L15.5,3.333C15.5,4.162 14.828,4.833 14,4.833C13.172,4.833 12.5,4.162 12.5,3.333L12.5,2C12.5,1.172 13.172,0.5 14,0.5ZM23.594,4.406C24.18,4.992 24.18,5.942 23.594,6.527L22.661,7.461C22.075,8.046 21.125,8.046 20.539,7.461C19.954,6.875 19.954,5.925 20.539,5.339L21.473,4.406C22.059,3.82 23.008,3.82 23.594,4.406ZM4.406,4.406C4.992,3.82 5.942,3.82 6.527,4.406L7.461,5.339C8.046,5.925 8.046,6.875 7.461,7.461C6.875,8.046 5.925,8.046 5.339,7.461L4.406,6.527C3.82,5.942 3.82,4.992 4.406,4.406ZM0.5,14C0.5,13.172 1.172,12.5 2,12.5L3.333,12.5C4.162,12.5 4.833,13.172 4.833,14C4.833,14.828 4.162,15.5 3.333,15.5L2,15.5C1.172,15.5 0.5,14.828 0.5,14ZM23.167,14C23.167,13.172 23.838,12.5 24.667,12.5L26,12.5C26.828,12.5 27.5,13.172 27.5,14C27.5,14.828 26.828,15.5 26,15.5L24.667,15.5C23.838,15.5 23.167,14.828 23.167,14Z"/>
    </g>
    <g transform="matrix(4.39788,0,0,4.46953,19.4297,18.4266)">
        <path d="M14,8.833C12.916,8.833 11.859,9.175 10.979,9.809C10.099,10.443 9.441,11.337 9.098,12.366C8.756,13.395 8.745,14.506 9.068,15.541C9.389,16.569 10.024,17.47 10.882,18.12C10.916,18.144 10.948,18.17 10.98,18.198C11.014,18.227 11.046,18.257 11.076,18.288C11.754,18.965 12.264,19.791 12.567,20.7C12.859,21.574 12.95,22.501 12.836,23.414C12.855,23.694 12.975,23.959 13.175,24.158C13.394,24.377 13.691,24.5 14,24.5C14.309,24.5 14.606,24.377 14.825,24.158C15.025,23.959 15.145,23.694 15.164,23.414C15.05,22.501 15.142,21.574 15.433,20.7C15.739,19.782 16.257,18.948 16.945,18.267C16.993,18.219 17.045,18.174 17.1,18.133C17.968,17.483 18.608,16.576 18.932,15.541C19.255,14.506 19.244,13.395 18.902,12.366C18.559,11.337 17.901,10.443 17.021,9.809C16.141,9.175 15.084,8.833 14,8.833ZM9.006,20.462C7.683,19.439 6.704,18.034 6.205,16.435C5.694,14.799 5.71,13.044 6.252,11.418C6.794,9.791 7.834,8.377 9.225,7.375C10.615,6.373 12.286,5.833 14,5.833C15.714,5.833 17.385,6.373 18.775,7.375C20.166,8.377 21.206,9.791 21.748,11.418C22.29,13.044 22.306,14.799 21.795,16.435C21.296,18.034 20.317,19.439 18.994,20.462C18.671,20.8 18.427,21.205 18.279,21.648C18.122,22.12 18.078,22.622 18.151,23.114C18.161,23.186 18.167,23.26 18.167,23.333C18.167,24.438 17.728,25.498 16.946,26.28C16.165,27.061 15.105,27.5 14,27.5C12.895,27.5 11.835,27.061 11.054,26.28C10.272,25.498 9.833,24.438 9.833,23.333C9.833,23.26 9.839,23.186 9.85,23.114C9.922,22.622 9.878,22.12 9.721,21.648C9.573,21.205 9.329,20.8 9.006,20.462Z"/>
    </g>
    <g transform="matrix(4.39788,0,0,4.46953,19.4297,18.4266)">
        <path d="M9.433,20.667C9.433,19.838 10.105,19.167 10.933,19.167L17.067,19.167C17.895,19.167 18.567,19.838 18.567,20.667C18.567,21.495 17.895,22.167 17.067,22.167L10.933,22.167C10.105,22.167 9.433,21.495 9.433,20.667Z"/>
    </g>
</svg>
